M48
;Layer_Color=9474304
;FILE_FORMAT=2:5
INCH,LZ
;TYPE=PLATED
T1F00S00C0.01181
T2F00S00C0.02953
T3F00S00C0.03543
T4F00S00C0.03937
T5F00S00C0.04016
T6F00S00C0.04331
T7F00S00C0.04724
T8F00S00C0.05118
;TYPE=NON_PLATED
T9F00S00C0.11811
%
T01
X0128347Y003189
X0157874Y0033071
X0221654Y0086614
X0225729Y0155118
X0234646Y0185433
X0247638Y0137402
X0206299Y009685
X0051968Y0151575
X0052756Y0171653
X0048425Y0285433
X0068504Y0314961
X0095811Y0303776
X0125591Y0275197
X0155118Y0296457
X0167717Y0261811
X0211024
X0263386Y0281102
X0279134Y0291339
X0237008Y0312992
T02
X0107087Y0121378
X0114961
T03
X0123228Y0052756
X0133071
X0142913
X0294488Y0098819
Y0108661
Y0118504
Y0147638
Y015748
Y0167323
Y0196457
Y0206299
Y0216142
Y0245276
Y0255118
Y0264961
T04
X0050394Y0012794
Y0039566
X0058268
X0066142
X0074016
Y0012794
X0066142
X0058268
X0195669Y0053543
X0205512
X0074016Y0066338
X0066142
X0058268
X0050394
X0040354Y009252
Y0100394
Y0108268
Y0116142
X001378
Y0108268
Y0100394
Y009252
Y0145276
Y015315
Y0161024
Y0168898
Y0194882
Y0202756
Y021063
X0040354
Y0202756
Y0194882
Y0168898
Y0161024
Y015315
Y0145276
Y0218504
X001378
X001378Y0246457
Y0254331
Y0262205
Y0270079
X0040354
Y0262205
Y0254331
Y0246457
X0260787Y0312992
X027063
T05
X0276772Y0099055
Y0109055
Y0119055
Y014748
Y015748
Y016748
Y0196299
Y0206299
X0185827Y0201378
Y0211378
Y0191378
Y0181378
Y0171378
Y0161378
Y0151378
Y0141378
Y0131378
Y0121378
Y0111378
Y0101378
X0175827
X0165827
X0155827
X0145827
X0135827
X0125827
X0115827
X0105827
X0095827
X0085827
Y0111378
X0095827
X0105827
X0115827
X0125827
X0135827
X0145827
X0155827
X0165827
X0175827
X0095827Y0121378
X0085827
Y0131378
X0095827
X007559
Y0121378
Y0111378
Y0101378
Y0141378
Y0151378
Y0161378
Y0171378
Y0181378
Y0191378
Y0201378
Y0211378
Y0221378
Y0231378
Y0241378
Y0251378
X0185827
Y0241378
Y0231378
Y0221378
X0276772Y0216299
Y0245118
Y0255118
Y0265118
T06
X0182441Y0275039
X0192441
X0202441
X0212441
Y0285039
X0202441
X0192441
X0182441
X0222441
Y0275039
T07
X0294094Y0049016
Y0058858
T08
X0112958Y0018504
X0132958
X0152958
X0190394Y001811
X0210394
T09
X0011811Y0011811
X0298425
X0011811Y0318898
X0298425
M30
