G04*
G04 #@! TF.GenerationSoftware,Altium Limited,Altium Designer,20.1.8 (145)*
G04*
G04 Layer_Physical_Order=1*
G04 Layer_Color=255*
%FSLAX25Y25*%
%MOIN*%
G70*
G04*
G04 #@! TF.SameCoordinates,486A09B6-12F7-45F8-8DA0-EDAC55BB016E*
G04*
G04*
G04 #@! TF.FilePolarity,Positive*
G04*
G01*
G75*
%ADD16R,0.03740X0.01968*%
G04:AMPARAMS|DCode=17|XSize=60.01mil|YSize=22.75mil|CornerRadius=11.38mil|HoleSize=0mil|Usage=FLASHONLY|Rotation=0.000|XOffset=0mil|YOffset=0mil|HoleType=Round|Shape=RoundedRectangle|*
%AMROUNDEDRECTD17*
21,1,0.06001,0.00000,0,0,0.0*
21,1,0.03725,0.02275,0,0,0.0*
1,1,0.02275,0.01863,0.00000*
1,1,0.02275,-0.01863,0.00000*
1,1,0.02275,-0.01863,0.00000*
1,1,0.02275,0.01863,0.00000*
%
%ADD17ROUNDEDRECTD17*%
%ADD18R,0.06001X0.02275*%
%ADD19R,0.03150X0.03150*%
G04:AMPARAMS|DCode=20|XSize=31.5mil|YSize=31.5mil|CornerRadius=7.87mil|HoleSize=0mil|Usage=FLASHONLY|Rotation=0.000|XOffset=0mil|YOffset=0mil|HoleType=Round|Shape=RoundedRectangle|*
%AMROUNDEDRECTD20*
21,1,0.03150,0.01575,0,0,0.0*
21,1,0.01575,0.03150,0,0,0.0*
1,1,0.01575,0.00787,-0.00787*
1,1,0.01575,-0.00787,-0.00787*
1,1,0.01575,-0.00787,0.00787*
1,1,0.01575,0.00787,0.00787*
%
%ADD20ROUNDEDRECTD20*%
%ADD21R,0.01968X0.03740*%
%ADD22R,0.06693X0.08661*%
%ADD23R,0.24410X0.22835*%
%ADD24R,0.11811X0.06299*%
%ADD25R,0.04724X0.09843*%
%ADD26R,0.06299X0.08583*%
%ADD27R,0.06299X0.08661*%
%ADD28R,0.01968X0.03937*%
%ADD38R,0.06181X0.06181*%
%ADD39C,0.06181*%
%ADD40R,0.05512X0.05512*%
%ADD41C,0.05512*%
%ADD50R,0.05512X0.05512*%
%ADD55C,0.01000*%
%ADD56C,0.01968*%
%ADD57C,0.03937*%
%ADD58C,0.02953*%
%ADD59R,0.05906X0.05906*%
%ADD60C,0.05906*%
%ADD61C,0.06299*%
%ADD62R,0.06299X0.06299*%
%ADD63R,0.05906X0.05906*%
%ADD64C,0.07480*%
G04:AMPARAMS|DCode=65|XSize=78.74mil|YSize=62.99mil|CornerRadius=15.75mil|HoleSize=0mil|Usage=FLASHONLY|Rotation=0.000|XOffset=0mil|YOffset=0mil|HoleType=Round|Shape=RoundedRectangle|*
%AMROUNDEDRECTD65*
21,1,0.07874,0.03150,0,0,0.0*
21,1,0.04724,0.06299,0,0,0.0*
1,1,0.03150,0.02362,-0.01575*
1,1,0.03150,-0.02362,-0.01575*
1,1,0.03150,-0.02362,0.01575*
1,1,0.03150,0.02362,0.01575*
%
%ADD65ROUNDEDRECTD65*%
%ADD66O,0.07874X0.06299*%
%ADD67R,0.07087X0.07087*%
%ADD68C,0.07087*%
%ADD69C,0.04724*%
%ADD70C,0.11811*%
%ADD71C,0.02362*%
G36*
X305118Y254302D02*
X304656Y254111D01*
X302218Y256549D01*
X301562Y256987D01*
X300787Y257141D01*
X297670D01*
X297167Y257797D01*
X296382Y258399D01*
X295469Y258777D01*
X294488Y258906D01*
X293508Y258777D01*
X292594Y258399D01*
X291810Y257797D01*
X291306Y257141D01*
X280361D01*
X280345Y257181D01*
X279689Y258035D01*
X278835Y258691D01*
X277839Y259103D01*
X276772Y259244D01*
X275704Y259103D01*
X274709Y258691D01*
X273854Y258035D01*
X273536Y257621D01*
X273037Y257588D01*
X270568Y260057D01*
X269912Y260495D01*
X269138Y260649D01*
X264769D01*
X264574Y260611D01*
X261899D01*
Y256642D01*
X264574D01*
X264769Y256603D01*
X268300D01*
X271215Y253688D01*
X271872Y253249D01*
X272646Y253095D01*
X273182D01*
X273199Y253055D01*
X273854Y252201D01*
X274709Y251545D01*
X275704Y251133D01*
X276772Y250992D01*
X277839Y251133D01*
X278835Y251545D01*
X279689Y252201D01*
X280345Y253055D01*
X280361Y253095D01*
X291306D01*
X291810Y252439D01*
X292594Y251837D01*
X293508Y251459D01*
X294488Y251330D01*
X295469Y251459D01*
X296382Y251837D01*
X297167Y252439D01*
X297670Y253095D01*
X299949D01*
X302308Y250737D01*
Y212255D01*
X298375Y208322D01*
X297670D01*
X297167Y208978D01*
X296382Y209580D01*
X295469Y209958D01*
X294488Y210087D01*
X293508Y209958D01*
X292594Y209580D01*
X291810Y208978D01*
X291306Y208322D01*
X280361D01*
X280345Y208362D01*
X279689Y209217D01*
X278835Y209872D01*
X277839Y210284D01*
X276772Y210425D01*
X275704Y210284D01*
X274709Y209872D01*
X273854Y209217D01*
X273199Y208362D01*
X273182Y208322D01*
X272492D01*
X270919Y209895D01*
X270262Y210334D01*
X269488Y210488D01*
X264769D01*
X264574Y210449D01*
X261899D01*
Y206480D01*
X264574D01*
X264769Y206441D01*
X268650D01*
X270223Y204869D01*
X270879Y204430D01*
X271654Y204276D01*
X273182D01*
X273199Y204236D01*
X273854Y203382D01*
X274709Y202726D01*
X275704Y202314D01*
X276772Y202173D01*
X277839Y202314D01*
X278835Y202726D01*
X279689Y203382D01*
X280345Y204236D01*
X280361Y204276D01*
X291306D01*
X291810Y203621D01*
X292594Y203018D01*
X293508Y202640D01*
X294488Y202511D01*
X295469Y202640D01*
X296382Y203018D01*
X297167Y203621D01*
X297670Y204276D01*
X299213D01*
X299987Y204430D01*
X300643Y204869D01*
X301846Y206071D01*
X302308Y205880D01*
Y163830D01*
X298113Y159635D01*
X297547Y159663D01*
X297167Y160159D01*
X296382Y160761D01*
X295469Y161140D01*
X294488Y161269D01*
X293508Y161140D01*
X292594Y160761D01*
X291810Y160159D01*
X291306Y159503D01*
X280361D01*
X280345Y159543D01*
X279689Y160398D01*
X278835Y161053D01*
X277839Y161466D01*
X276772Y161606D01*
X275704Y161466D01*
X274709Y161053D01*
X273854Y160398D01*
X273309Y159687D01*
X272804Y159647D01*
X272720Y159669D01*
X270722Y161667D01*
X270066Y162105D01*
X269291Y162259D01*
X264567D01*
X264371Y162221D01*
X261697D01*
Y158252D01*
X264371D01*
X264567Y158213D01*
X268453D01*
X270617Y156050D01*
X271273Y155611D01*
X272047Y155457D01*
X273182D01*
X273199Y155417D01*
X273854Y154563D01*
X274709Y153907D01*
X275704Y153495D01*
X276772Y153355D01*
X277839Y153495D01*
X278835Y153907D01*
X279689Y154563D01*
X280345Y155417D01*
X280361Y155457D01*
X291306D01*
X291810Y154802D01*
X292594Y154200D01*
X293508Y153821D01*
X294488Y153692D01*
X295469Y153821D01*
X296382Y154200D01*
X297167Y154802D01*
X297670Y155457D01*
X298819D01*
X299593Y155611D01*
X300249Y156050D01*
X301846Y157646D01*
X302308Y157455D01*
Y129184D01*
X295307Y122184D01*
X294488Y122292D01*
X293508Y122163D01*
X292594Y121785D01*
X291810Y121183D01*
X291518Y120803D01*
X280475D01*
X280345Y121118D01*
X279689Y121973D01*
X278835Y122628D01*
X277839Y123040D01*
X276772Y123181D01*
X275704Y123040D01*
X274709Y122628D01*
X273854Y121973D01*
X273199Y121118D01*
X273182Y121078D01*
X268661D01*
X267887Y120924D01*
X267231Y120486D01*
X263338Y116593D01*
X262900Y115937D01*
X262746Y115163D01*
Y114583D01*
X261899D01*
Y110614D01*
X264574D01*
X264769Y110575D01*
X264961D01*
X265156Y110614D01*
X267639D01*
Y114583D01*
X267639D01*
X267467Y114999D01*
X269499Y117032D01*
X273182D01*
X273199Y116992D01*
X273854Y116138D01*
X274709Y115482D01*
X275704Y115070D01*
X276772Y114929D01*
X277839Y115070D01*
X278835Y115482D01*
X279689Y116138D01*
X280164Y116756D01*
X291147D01*
X291207Y116610D01*
X291810Y115825D01*
X292594Y115223D01*
X293508Y114845D01*
X294488Y114716D01*
X295469Y114845D01*
X296382Y115223D01*
X297167Y115825D01*
X297769Y116610D01*
X298147Y117524D01*
X298276Y118504D01*
X298169Y119323D01*
X304656Y125811D01*
X305118Y125619D01*
Y27165D01*
X304331Y26378D01*
X279691D01*
X279499Y26840D01*
X281251Y28591D01*
X281727Y29212D01*
X282026Y29934D01*
X282128Y30709D01*
Y50728D01*
X287264Y55864D01*
X289576D01*
X289896Y55447D01*
X290434Y55034D01*
X291060Y54775D01*
X291732Y54686D01*
X296457D01*
X297129Y54775D01*
X297755Y55034D01*
X298293Y55447D01*
X298706Y55985D01*
X298965Y56611D01*
X299054Y57284D01*
Y60433D01*
X298965Y61105D01*
X298706Y61732D01*
X298293Y62269D01*
X297755Y62682D01*
X297129Y62942D01*
X296457Y63030D01*
X291732D01*
X291060Y62942D01*
X290434Y62682D01*
X289896Y62269D01*
X289576Y61852D01*
X286024D01*
X285249Y61750D01*
X284826Y61575D01*
X284527Y61451D01*
X283907Y60975D01*
X277017Y54086D01*
X276541Y53466D01*
X276242Y52743D01*
X276140Y51968D01*
Y31949D01*
X270569Y26378D01*
X255566D01*
Y57228D01*
X273441D01*
Y82063D01*
X247031D01*
Y57228D01*
X251520D01*
Y26378D01*
X154487D01*
Y27521D01*
X157823Y30857D01*
X157874Y30847D01*
X158725Y31016D01*
X159447Y31498D01*
X159929Y32220D01*
X160098Y33071D01*
X159929Y33922D01*
X159447Y34643D01*
X158725Y35125D01*
X157874Y35295D01*
X157023Y35125D01*
X156301Y34643D01*
X155819Y33922D01*
X155650Y33071D01*
X155660Y33020D01*
X151876Y29236D01*
X151545Y28740D01*
X151428Y28155D01*
Y26378D01*
X134487D01*
Y27278D01*
X134371Y27864D01*
X134039Y28360D01*
X130560Y31839D01*
X130570Y31890D01*
X130401Y32741D01*
X129919Y33462D01*
X129198Y33944D01*
X128847Y34014D01*
Y31890D01*
X128347D01*
Y31390D01*
X126222D01*
X126292Y31039D01*
X126774Y30317D01*
X127495Y29835D01*
X128347Y29666D01*
X128397Y29676D01*
X131195Y26878D01*
X130988Y26378D01*
X114487D01*
Y41852D01*
X121635Y49000D01*
X126984D01*
Y56512D01*
X119473D01*
Y51163D01*
X111876Y43567D01*
X111545Y43071D01*
X111428Y42485D01*
Y26378D01*
X90416D01*
X90224Y26840D01*
X101551Y38166D01*
X101882Y38663D01*
X101999Y39248D01*
Y45348D01*
X146908Y90257D01*
X147240Y90753D01*
X147356Y91339D01*
Y97094D01*
X148118Y97409D01*
X149067Y98138D01*
X149795Y99087D01*
X150253Y100192D01*
X150409Y101378D01*
X150253Y102564D01*
X149795Y103669D01*
X149067Y104618D01*
X148118Y105347D01*
X147013Y105804D01*
X145827Y105961D01*
X144641Y105804D01*
X143535Y105347D01*
X142586Y104618D01*
X141858Y103669D01*
X141400Y102564D01*
X141244Y101378D01*
X141400Y100192D01*
X141858Y99087D01*
X142586Y98138D01*
X143535Y97409D01*
X144297Y97094D01*
Y91972D01*
X99388Y47063D01*
X99057Y46567D01*
X98940Y45981D01*
Y39881D01*
X85437Y26378D01*
X53505D01*
X53456Y26878D01*
X53735Y26934D01*
X54231Y27265D01*
X59221Y32255D01*
X59553Y32752D01*
X59669Y33337D01*
Y35868D01*
X60261Y36113D01*
X61087Y36747D01*
X61721Y37573D01*
X61934Y38089D01*
X62476D01*
X62689Y37573D01*
X63323Y36747D01*
X64149Y36113D01*
X65110Y35715D01*
X66142Y35579D01*
X67174Y35715D01*
X68135Y36113D01*
X68961Y36747D01*
X69595Y37573D01*
X69808Y38089D01*
X70350D01*
X70563Y37573D01*
X71197Y36747D01*
X72023Y36113D01*
X72984Y35715D01*
X74016Y35579D01*
X75048Y35715D01*
X76009Y36113D01*
X76835Y36747D01*
X77469Y37573D01*
X77661Y38037D01*
X81692D01*
X82277Y38153D01*
X82774Y38485D01*
X136514Y92226D01*
X136846Y92722D01*
X136962Y93307D01*
Y96945D01*
X137013Y96952D01*
X138118Y97409D01*
X139067Y98138D01*
X139795Y99087D01*
X140253Y100192D01*
X140409Y101378D01*
X140253Y102564D01*
X139795Y103669D01*
X139067Y104618D01*
X138118Y105347D01*
X137013Y105804D01*
X135827Y105961D01*
X134641Y105804D01*
X133536Y105347D01*
X132586Y104618D01*
X131858Y103669D01*
X131400Y102564D01*
X131244Y101378D01*
X131400Y100192D01*
X131858Y99087D01*
X132586Y98138D01*
X133536Y97409D01*
X133904Y97257D01*
Y93941D01*
X81059Y41095D01*
X77661D01*
X77469Y41559D01*
X76835Y42385D01*
X76009Y43019D01*
X75048Y43417D01*
X74016Y43553D01*
X72984Y43417D01*
X72023Y43019D01*
X71197Y42385D01*
X70563Y41559D01*
X70350Y41044D01*
X69808D01*
X69595Y41559D01*
X68961Y42385D01*
X68135Y43019D01*
X67671Y43211D01*
Y44488D01*
X67555Y45073D01*
X67223Y45569D01*
X62105Y50688D01*
X61609Y51019D01*
X61024Y51136D01*
X45515D01*
X42868Y53783D01*
Y73382D01*
X51475Y81989D01*
X51807Y82486D01*
X51923Y83071D01*
Y106453D01*
X65319Y119849D01*
X71306D01*
X71622Y119087D01*
X72350Y118138D01*
X73299Y117409D01*
X74405Y116952D01*
X75590Y116796D01*
X76777Y116952D01*
X77882Y117409D01*
X78831Y118138D01*
X79559Y119087D01*
X80017Y120192D01*
X80173Y121378D01*
X80017Y122564D01*
X79559Y123669D01*
X78831Y124618D01*
X77882Y125347D01*
X76777Y125804D01*
X75590Y125961D01*
X74405Y125804D01*
X73299Y125347D01*
X72350Y124618D01*
X71622Y123669D01*
X71306Y122907D01*
X64685D01*
X64100Y122791D01*
X63604Y122459D01*
X49312Y108168D01*
X48981Y107672D01*
X48864Y107087D01*
Y83704D01*
X40257Y75097D01*
X39926Y74601D01*
X39809Y74016D01*
Y53150D01*
X39926Y52564D01*
X40257Y52068D01*
X43801Y48525D01*
X44297Y48193D01*
X44882Y48077D01*
X60390D01*
X64613Y43854D01*
Y43211D01*
X64149Y43019D01*
X63323Y42385D01*
X62689Y41559D01*
X62476Y41044D01*
X61934D01*
X61721Y41559D01*
X61087Y42385D01*
X60261Y43019D01*
X59300Y43417D01*
X58268Y43553D01*
X57236Y43417D01*
X56274Y43019D01*
X55449Y42385D01*
X54847Y41600D01*
X54791Y41600D01*
X54347Y41935D01*
Y43519D01*
X50894D01*
Y39566D01*
Y35613D01*
X54347D01*
Y37197D01*
X54791Y37532D01*
X54847Y37532D01*
X55449Y36747D01*
X56274Y36113D01*
X56611Y35974D01*
Y33970D01*
X52516Y29876D01*
X43547D01*
X31844Y41578D01*
Y122989D01*
X38704Y129849D01*
X71306D01*
X71622Y129087D01*
X72350Y128138D01*
X73299Y127409D01*
X74405Y126952D01*
X75590Y126795D01*
X76777Y126952D01*
X77882Y127409D01*
X78831Y128138D01*
X79559Y129087D01*
X80017Y130192D01*
X80173Y131378D01*
X80017Y132564D01*
X79559Y133669D01*
X78831Y134618D01*
X77882Y135346D01*
X76777Y135804D01*
X75590Y135960D01*
X74405Y135804D01*
X73299Y135346D01*
X72350Y134618D01*
X71622Y133669D01*
X71306Y132907D01*
X38071D01*
X37486Y132791D01*
X36989Y132459D01*
X29234Y124704D01*
X28902Y124207D01*
X28786Y123622D01*
Y40945D01*
X28902Y40360D01*
X29234Y39863D01*
X41832Y27265D01*
X42328Y26934D01*
X42607Y26878D01*
X42558Y26378D01*
X34446D01*
X25151Y35673D01*
Y126138D01*
X34492Y135478D01*
X61811D01*
X62396Y135595D01*
X62893Y135926D01*
X66775Y139809D01*
X71323D01*
X71622Y139087D01*
X72350Y138138D01*
X73299Y137409D01*
X74405Y136952D01*
X75590Y136795D01*
X76777Y136952D01*
X77882Y137409D01*
X78831Y138138D01*
X79559Y139087D01*
X80017Y140192D01*
X80173Y141378D01*
X80017Y142564D01*
X79559Y143669D01*
X78831Y144618D01*
X77882Y145346D01*
X76777Y145804D01*
X75590Y145960D01*
X74405Y145804D01*
X73299Y145346D01*
X72350Y144618D01*
X71622Y143669D01*
X71290Y142868D01*
X66142D01*
X65557Y142752D01*
X65060Y142420D01*
X61177Y138537D01*
X33858D01*
X33273Y138421D01*
X32777Y138089D01*
X22541Y127853D01*
X22209Y127357D01*
X22093Y126772D01*
Y35039D01*
X22209Y34454D01*
X22541Y33958D01*
X29659Y26840D01*
X29467Y26378D01*
X11417D01*
Y88782D01*
X11917Y89013D01*
X12748Y88669D01*
X13780Y88533D01*
X14811Y88669D01*
X15773Y89067D01*
X16599Y89701D01*
X17232Y90526D01*
X17630Y91488D01*
X17766Y92520D01*
X17630Y93552D01*
X17232Y94513D01*
X16599Y95339D01*
X15773Y95972D01*
X15257Y96186D01*
Y96727D01*
X15773Y96941D01*
X16599Y97575D01*
X17232Y98400D01*
X17630Y99362D01*
X17766Y100394D01*
X17630Y101426D01*
X17232Y102387D01*
X16599Y103213D01*
X15773Y103846D01*
X15257Y104060D01*
Y104601D01*
X15773Y104815D01*
X16599Y105449D01*
X17232Y106274D01*
X17630Y107236D01*
X17766Y108268D01*
X17630Y109300D01*
X17232Y110261D01*
X16599Y111087D01*
X15814Y111689D01*
X15813Y111745D01*
X16149Y112189D01*
X17732D01*
Y115642D01*
X13780D01*
Y116142D01*
X13280D01*
Y120095D01*
X11417D01*
Y141538D01*
X11917Y141769D01*
X12748Y141425D01*
X13780Y141289D01*
X14811Y141425D01*
X15773Y141823D01*
X16599Y142456D01*
X17232Y143282D01*
X17630Y144244D01*
X17766Y145276D01*
X17630Y146308D01*
X17232Y147269D01*
X16599Y148095D01*
X15773Y148728D01*
X15257Y148942D01*
Y149483D01*
X15773Y149697D01*
X16599Y150330D01*
X17232Y151156D01*
X17630Y152118D01*
X17766Y153150D01*
X17630Y154182D01*
X17232Y155143D01*
X16599Y155969D01*
X15773Y156602D01*
X15257Y156816D01*
Y157357D01*
X15773Y157571D01*
X16599Y158204D01*
X17232Y159030D01*
X17630Y159992D01*
X17766Y161024D01*
X17630Y162056D01*
X17232Y163017D01*
X16599Y163843D01*
X15814Y164445D01*
X15813Y164501D01*
X16149Y164945D01*
X17732D01*
Y168398D01*
X13780D01*
Y168898D01*
X13280D01*
Y172850D01*
X11417D01*
Y191145D01*
X11917Y191375D01*
X12748Y191031D01*
X13780Y190895D01*
X14811Y191031D01*
X15773Y191429D01*
X16599Y192063D01*
X17232Y192888D01*
X17630Y193850D01*
X17766Y194882D01*
X17630Y195914D01*
X17232Y196875D01*
X16599Y197701D01*
X15773Y198335D01*
X15257Y198548D01*
Y199090D01*
X15773Y199303D01*
X16599Y199937D01*
X17232Y200763D01*
X17630Y201724D01*
X17766Y202756D01*
X17630Y203788D01*
X17232Y204749D01*
X16599Y205575D01*
X15773Y206209D01*
X15257Y206422D01*
Y206963D01*
X15773Y207177D01*
X16599Y207811D01*
X17232Y208636D01*
X17424Y209101D01*
X20626D01*
X22880Y206847D01*
Y187402D01*
X22997Y186816D01*
X23328Y186320D01*
X29234Y180415D01*
X29730Y180083D01*
X30315Y179967D01*
X71258D01*
X71622Y179087D01*
X72350Y178138D01*
X73299Y177409D01*
X74405Y176952D01*
X75590Y176795D01*
X76777Y176952D01*
X77882Y177409D01*
X78831Y178138D01*
X79559Y179087D01*
X80017Y180192D01*
X80173Y181378D01*
X80017Y182564D01*
X79559Y183669D01*
X78831Y184618D01*
X77882Y185346D01*
X76777Y185804D01*
X75590Y185960D01*
X74405Y185804D01*
X73299Y185346D01*
X72350Y184618D01*
X71622Y183669D01*
X71355Y183026D01*
X30948D01*
X25939Y188035D01*
Y207480D01*
X25822Y208066D01*
X25491Y208562D01*
X22341Y211711D01*
X21845Y212043D01*
X21260Y212159D01*
X17424D01*
X17232Y212623D01*
X16599Y213449D01*
X15814Y214051D01*
X15813Y214107D01*
X16149Y214551D01*
X17732D01*
Y218004D01*
X13780D01*
Y218504D01*
X13280D01*
Y222457D01*
X11417D01*
Y242720D01*
X11917Y242950D01*
X12748Y242606D01*
X13780Y242470D01*
X14811Y242606D01*
X15773Y243004D01*
X16599Y243638D01*
X17232Y244463D01*
X17630Y245425D01*
X17766Y246457D01*
X17630Y247489D01*
X17232Y248450D01*
X16599Y249276D01*
X15773Y249909D01*
X15257Y250123D01*
Y250664D01*
X15773Y250878D01*
X16599Y251512D01*
X17232Y252337D01*
X17630Y253299D01*
X17766Y254331D01*
X17630Y255363D01*
X17232Y256324D01*
X16599Y257150D01*
X15773Y257783D01*
X15257Y257997D01*
Y258538D01*
X15773Y258752D01*
X16599Y259386D01*
X17232Y260211D01*
X17424Y260675D01*
X21414D01*
X23667Y258422D01*
Y239370D01*
X23784Y238785D01*
X24115Y238289D01*
X27659Y234745D01*
X28155Y234414D01*
X28740Y234297D01*
X48185D01*
X53589Y228894D01*
Y213386D01*
X53705Y212801D01*
X54037Y212304D01*
X66044Y200296D01*
X66541Y199965D01*
X67126Y199849D01*
X71306D01*
X71622Y199087D01*
X72350Y198138D01*
X73299Y197409D01*
X74405Y196952D01*
X75590Y196795D01*
X76777Y196952D01*
X77882Y197409D01*
X78831Y198138D01*
X79559Y199087D01*
X80017Y200192D01*
X80173Y201378D01*
X80017Y202564D01*
X79559Y203669D01*
X78831Y204618D01*
X77882Y205346D01*
X76777Y205804D01*
X75590Y205960D01*
X74405Y205804D01*
X73299Y205346D01*
X72350Y204618D01*
X71622Y203669D01*
X71306Y202907D01*
X67760D01*
X56647Y214019D01*
Y229528D01*
X56531Y230113D01*
X56200Y230609D01*
X49900Y236908D01*
X49404Y237240D01*
X48819Y237356D01*
X29374D01*
X26726Y240004D01*
Y259055D01*
X26610Y259640D01*
X26278Y260137D01*
X23129Y263286D01*
X22633Y263618D01*
X22047Y263734D01*
X17424D01*
X17232Y264198D01*
X16599Y265024D01*
X15814Y265626D01*
X15813Y265682D01*
X16149Y266126D01*
X17732D01*
Y269579D01*
X13780D01*
Y270079D01*
X13280D01*
Y274031D01*
X11417D01*
Y306693D01*
X11811Y307087D01*
X46402D01*
Y300213D01*
X45063D01*
Y288370D01*
X46402D01*
Y286331D01*
X46371Y286284D01*
X46201Y285433D01*
X46371Y284582D01*
X46853Y283861D01*
X47574Y283379D01*
X48425Y283209D01*
X49276Y283379D01*
X49998Y283861D01*
X50480Y284582D01*
X50649Y285433D01*
X50480Y286284D01*
X50448Y286331D01*
Y288370D01*
X51787D01*
Y300213D01*
X50448D01*
Y307087D01*
X56523D01*
Y300213D01*
X54905D01*
Y288370D01*
X56523D01*
Y277280D01*
X56677Y276506D01*
X57116Y275850D01*
X73567Y259398D01*
Y255458D01*
X73299Y255346D01*
X72350Y254618D01*
X71622Y253669D01*
X71164Y252564D01*
X71008Y251378D01*
X71164Y250192D01*
X71622Y249087D01*
X72350Y248138D01*
X73299Y247409D01*
X74405Y246952D01*
X75590Y246796D01*
X76777Y246952D01*
X77882Y247409D01*
X78831Y248138D01*
X79559Y249087D01*
X80017Y250192D01*
X80173Y251378D01*
X80017Y252564D01*
X79559Y253669D01*
X78831Y254618D01*
X77882Y255346D01*
X77614Y255458D01*
Y260236D01*
X77460Y261011D01*
X77021Y261667D01*
X60569Y278118D01*
Y288370D01*
X61630D01*
Y300213D01*
X60569D01*
Y307087D01*
X90441D01*
X90651Y306773D01*
X93597Y303826D01*
X93587Y303776D01*
X93756Y302925D01*
X94239Y302203D01*
X94960Y301721D01*
X95811Y301552D01*
X96662Y301721D01*
X97383Y302203D01*
X97412Y302246D01*
X101555D01*
X101920Y301699D01*
X102511Y301305D01*
X103209Y301166D01*
X104783D01*
X105481Y301305D01*
X106072Y301699D01*
X106467Y302291D01*
X106606Y302988D01*
Y304563D01*
X106467Y305260D01*
X106072Y305852D01*
X105481Y306247D01*
X104783Y306385D01*
X103209D01*
X102511Y306247D01*
X101920Y305852D01*
X101555Y305305D01*
X97412D01*
X97383Y305348D01*
X96662Y305830D01*
X95811Y305999D01*
X95760Y305989D01*
X95125Y306625D01*
X95316Y307087D01*
X121967D01*
Y306217D01*
X121420Y305852D01*
X121025Y305260D01*
X120886Y304563D01*
Y302988D01*
X121025Y302291D01*
X121420Y301699D01*
X122011Y301305D01*
X122709Y301166D01*
X124284D01*
X124981Y301305D01*
X125572Y301699D01*
X125967Y302291D01*
X126106Y302988D01*
Y304563D01*
X125967Y305260D01*
X125572Y305852D01*
X125025Y306217D01*
Y307087D01*
X139502D01*
Y303776D01*
X139604Y303001D01*
X139903Y302278D01*
X140379Y301658D01*
X140999Y301183D01*
X141721Y300884D01*
X142496Y300781D01*
X143271Y300884D01*
X143993Y301183D01*
X144613Y301658D01*
X145089Y302278D01*
X145327Y302852D01*
X145827Y302753D01*
Y301201D01*
X146872D01*
Y299197D01*
X146533Y298857D01*
X146201Y298361D01*
X146085Y297776D01*
Y295622D01*
X145630D01*
Y289882D01*
X149598D01*
Y295622D01*
X149144D01*
Y297142D01*
X149483Y297482D01*
X149815Y297978D01*
X149931Y298563D01*
Y301201D01*
X150976D01*
Y306350D01*
X146790D01*
X146564Y306850D01*
X146751Y307087D01*
X265855D01*
X266046Y306625D01*
X265490Y306068D01*
X162205D01*
X161239Y305876D01*
X160419Y305329D01*
X153333Y298242D01*
X152785Y297423D01*
X152593Y296457D01*
Y287660D01*
X151710Y286777D01*
X145534D01*
X145021Y287290D01*
Y292752D01*
X144829Y293718D01*
X144480Y294240D01*
Y295622D01*
X140512D01*
Y294240D01*
X140163Y293718D01*
X139971Y292752D01*
Y286244D01*
X140163Y285278D01*
X140711Y284459D01*
X142703Y282467D01*
X143522Y281919D01*
X144488Y281727D01*
X152756D01*
X153722Y281919D01*
X154541Y282467D01*
X156904Y284829D01*
X157451Y285648D01*
X157643Y286614D01*
Y295411D01*
X163251Y301018D01*
X266535D01*
X267502Y301211D01*
X268321Y301758D01*
X272117Y305555D01*
X272665Y306374D01*
X272807Y307087D01*
X305118D01*
Y254302D01*
D02*
G37*
%LPC*%
G36*
X105980Y295622D02*
X104496D01*
Y293252D01*
X105980D01*
Y295622D01*
D02*
G37*
G36*
X103496D02*
X102012D01*
Y293252D01*
X103496D01*
Y295622D01*
D02*
G37*
G36*
X131976Y306350D02*
X126827D01*
Y301201D01*
X127872D01*
Y299197D01*
X127533Y298857D01*
X127201Y298361D01*
X127085Y297776D01*
Y295622D01*
X126630D01*
Y289882D01*
X130598D01*
Y295622D01*
X130144D01*
Y297142D01*
X130483Y297482D01*
X130815Y297978D01*
X130931Y298563D01*
Y301201D01*
X131976D01*
Y306350D01*
D02*
G37*
G36*
X112476D02*
X107327D01*
Y301201D01*
X108372D01*
Y299197D01*
X108033Y298857D01*
X107701Y298361D01*
X107585Y297776D01*
Y295622D01*
X107130D01*
Y289882D01*
X111098D01*
Y295622D01*
X110644D01*
Y297142D01*
X110983Y297482D01*
X111315Y297978D01*
X111431Y298563D01*
Y301201D01*
X112476D01*
Y306350D01*
D02*
G37*
G36*
X105980Y292252D02*
X104496D01*
Y289882D01*
X105980D01*
Y292252D01*
D02*
G37*
G36*
X103496D02*
X102012D01*
Y289882D01*
X103496D01*
Y292252D01*
D02*
G37*
G36*
X41945Y300213D02*
X35221D01*
Y288370D01*
X41945D01*
Y300213D01*
D02*
G37*
G36*
X192941Y289159D02*
Y285539D01*
X196561D01*
X196484Y286123D01*
X196066Y287132D01*
X195401Y287999D01*
X194534Y288664D01*
X193524Y289082D01*
X192941Y289159D01*
D02*
G37*
G36*
X191941D02*
X191358Y289082D01*
X190348Y288664D01*
X189481Y287999D01*
X188816Y287132D01*
X188398Y286123D01*
X188321Y285539D01*
X191941D01*
Y289159D01*
D02*
G37*
G36*
X196561Y284539D02*
X192941D01*
Y280920D01*
X193524Y280997D01*
X194534Y281415D01*
X195401Y282080D01*
X196066Y282947D01*
X196484Y283956D01*
X196561Y284539D01*
D02*
G37*
G36*
X191941D02*
X188321D01*
X188398Y283956D01*
X188816Y282947D01*
X189481Y282080D01*
X190348Y281415D01*
X191358Y280997D01*
X191941Y280920D01*
Y284539D01*
D02*
G37*
G36*
X279134Y294333D02*
X228740D01*
X227965Y294231D01*
X227243Y293932D01*
X226623Y293456D01*
X222385Y289217D01*
X221358Y289082D01*
X220348Y288664D01*
X219481Y287999D01*
X218816Y287132D01*
X218398Y286123D01*
X218255Y285039D01*
X218398Y283956D01*
X218816Y282947D01*
X219481Y282080D01*
X220348Y281415D01*
X221358Y280997D01*
X222441Y280854D01*
X223524Y280997D01*
X224534Y281415D01*
X225400Y282080D01*
X226066Y282947D01*
X226484Y283956D01*
X226619Y284983D01*
X229980Y288345D01*
X279134D01*
X279909Y288446D01*
X280631Y288746D01*
X281251Y289221D01*
X281727Y289842D01*
X282026Y290564D01*
X282128Y291339D01*
X282026Y292113D01*
X281727Y292836D01*
X281251Y293456D01*
X280631Y293932D01*
X279909Y294231D01*
X279134Y294333D01*
D02*
G37*
G36*
X212441Y289225D02*
X211358Y289082D01*
X210348Y288664D01*
X209481Y287999D01*
X208816Y287132D01*
X208398Y286123D01*
X208256Y285039D01*
X208398Y283956D01*
X208816Y282947D01*
X209481Y282080D01*
X210348Y281415D01*
X211358Y280997D01*
X212441Y280854D01*
X213524Y280997D01*
X214534Y281415D01*
X215401Y282080D01*
X216066Y282947D01*
X216484Y283956D01*
X216626Y285039D01*
X216484Y286123D01*
X216066Y287132D01*
X215401Y287999D01*
X214534Y288664D01*
X213524Y289082D01*
X212441Y289225D01*
D02*
G37*
G36*
X196871Y297572D02*
X176357D01*
X175772Y297456D01*
X175276Y297124D01*
X159548Y281396D01*
X159217Y280900D01*
X159100Y280315D01*
Y176378D01*
X159217Y175793D01*
X159548Y175296D01*
X174509Y160336D01*
X175005Y160004D01*
X175591Y159888D01*
X181526D01*
X181858Y159087D01*
X182586Y158138D01*
X183536Y157409D01*
X184641Y156952D01*
X185827Y156796D01*
X187013Y156952D01*
X188118Y157409D01*
X189067Y158138D01*
X189795Y159087D01*
X190111Y159849D01*
X199012D01*
X204234Y154627D01*
X204730Y154296D01*
X205315Y154179D01*
X208154D01*
Y153724D01*
X213894D01*
Y157693D01*
X208154D01*
Y157238D01*
X205948D01*
X200727Y162459D01*
X200231Y162791D01*
X199646Y162907D01*
X190111D01*
X189795Y163669D01*
X189067Y164618D01*
X188118Y165347D01*
X187013Y165804D01*
X185827Y165961D01*
X184641Y165804D01*
X183536Y165347D01*
X182586Y164618D01*
X181858Y163669D01*
X181559Y162947D01*
X176224D01*
X162159Y177011D01*
Y279681D01*
X176991Y294513D01*
X196238D01*
X200912Y289839D01*
Y288897D01*
X200348Y288664D01*
X199481Y287999D01*
X198816Y287132D01*
X198398Y286123D01*
X198256Y285039D01*
X198398Y283956D01*
X198816Y282947D01*
X199481Y282080D01*
X200348Y281415D01*
X201358Y280997D01*
X202441Y280854D01*
X203524Y280997D01*
X204534Y281415D01*
X205400Y282080D01*
X206066Y282947D01*
X206484Y283956D01*
X206626Y285039D01*
X206484Y286123D01*
X206066Y287132D01*
X205400Y287999D01*
X204534Y288664D01*
X203970Y288897D01*
Y290473D01*
X203854Y291058D01*
X203522Y291554D01*
X197952Y297124D01*
X197456Y297456D01*
X196871Y297572D01*
D02*
G37*
G36*
X182441Y289225D02*
X181358Y289082D01*
X180348Y288664D01*
X179481Y287999D01*
X178816Y287132D01*
X178787Y287063D01*
X175197D01*
X174423Y286909D01*
X173766Y286470D01*
X166286Y278990D01*
X165847Y278333D01*
X165693Y277559D01*
Y262709D01*
X165662Y262662D01*
X165493Y261811D01*
X165662Y260960D01*
X166144Y260239D01*
X166866Y259756D01*
X167717Y259587D01*
X168568Y259756D01*
X169289Y260239D01*
X169771Y260960D01*
X169940Y261811D01*
X169771Y262662D01*
X169740Y262709D01*
Y276721D01*
X176035Y283016D01*
X178787D01*
X178816Y282947D01*
X179481Y282080D01*
X180348Y281415D01*
X181358Y280997D01*
X182441Y280854D01*
X183524Y280997D01*
X184534Y281415D01*
X185400Y282080D01*
X186066Y282947D01*
X186484Y283956D01*
X186626Y285039D01*
X186484Y286123D01*
X186066Y287132D01*
X185400Y287999D01*
X184534Y288664D01*
X183524Y289082D01*
X182441Y289225D01*
D02*
G37*
G36*
X263386Y283326D02*
X262535Y283157D01*
X262488Y283125D01*
X242913D01*
X242139Y282972D01*
X241483Y282533D01*
X222784Y263834D01*
X211922D01*
X211875Y263866D01*
X211024Y264035D01*
X210173Y263866D01*
X209451Y263384D01*
X208969Y262662D01*
X208800Y261811D01*
X208969Y260960D01*
X209451Y260239D01*
X210173Y259756D01*
X211024Y259587D01*
X211875Y259756D01*
X211922Y259788D01*
X223622D01*
X224396Y259942D01*
X225053Y260381D01*
X243751Y279079D01*
X262488D01*
X262535Y279048D01*
X263386Y278878D01*
X264237Y279048D01*
X264958Y279530D01*
X265440Y280251D01*
X265610Y281102D01*
X265440Y281953D01*
X264958Y282675D01*
X264237Y283157D01*
X263386Y283326D01*
D02*
G37*
G36*
X125480Y295622D02*
X121512D01*
Y292947D01*
X121473Y292752D01*
Y277291D01*
X121627Y276517D01*
X122065Y275861D01*
X123525Y274401D01*
X123536Y274346D01*
X124018Y273624D01*
X124740Y273142D01*
X125591Y272973D01*
X126442Y273142D01*
X127163Y273624D01*
X127645Y274346D01*
X127814Y275197D01*
X127645Y276048D01*
X127163Y276769D01*
X126442Y277251D01*
X126386Y277262D01*
X125519Y278129D01*
Y292752D01*
X125480Y292947D01*
Y295622D01*
D02*
G37*
G36*
X186591Y279189D02*
X178291D01*
Y270890D01*
X186591D01*
Y279189D01*
D02*
G37*
G36*
X222441Y279225D02*
X221358Y279082D01*
X220348Y278664D01*
X219481Y277999D01*
X218816Y277132D01*
X218398Y276123D01*
X218255Y275039D01*
X218398Y273956D01*
X218816Y272947D01*
X219481Y272080D01*
X220348Y271415D01*
X221358Y270997D01*
X222441Y270854D01*
X223524Y270997D01*
X224534Y271415D01*
X225400Y272080D01*
X226066Y272947D01*
X226484Y273956D01*
X226626Y275039D01*
X226484Y276123D01*
X226066Y277132D01*
X225400Y277999D01*
X224534Y278664D01*
X223524Y279082D01*
X222441Y279225D01*
D02*
G37*
G36*
X212441D02*
X211358Y279082D01*
X210348Y278664D01*
X209481Y277999D01*
X208816Y277132D01*
X208398Y276123D01*
X208256Y275039D01*
X208398Y273956D01*
X208816Y272947D01*
X209481Y272080D01*
X210348Y271415D01*
X211358Y270997D01*
X212441Y270854D01*
X213524Y270997D01*
X214534Y271415D01*
X215401Y272080D01*
X216066Y272947D01*
X216484Y273956D01*
X216626Y275039D01*
X216484Y276123D01*
X216066Y277132D01*
X215401Y277999D01*
X214534Y278664D01*
X213524Y279082D01*
X212441Y279225D01*
D02*
G37*
G36*
X192441D02*
X191358Y279082D01*
X190348Y278664D01*
X189481Y277999D01*
X188816Y277132D01*
X188398Y276123D01*
X188256Y275039D01*
X188398Y273956D01*
X188816Y272947D01*
X189481Y272080D01*
X190348Y271415D01*
X191358Y270997D01*
X192441Y270854D01*
X193524Y270997D01*
X194534Y271415D01*
X195401Y272080D01*
X196066Y272947D01*
X196484Y273956D01*
X196626Y275039D01*
X196484Y276123D01*
X196066Y277132D01*
X195401Y277999D01*
X194534Y278664D01*
X193524Y279082D01*
X192441Y279225D01*
D02*
G37*
G36*
X44307Y274031D02*
X40854D01*
Y270579D01*
X44307D01*
Y274031D01*
D02*
G37*
G36*
X17732D02*
X14279D01*
Y270579D01*
X17732D01*
Y274031D01*
D02*
G37*
G36*
X39854D02*
X36402D01*
Y270579D01*
X39854D01*
Y274031D01*
D02*
G37*
G36*
X294488Y268749D02*
X293508Y268620D01*
X292594Y268241D01*
X291810Y267639D01*
X291207Y266855D01*
X290829Y265941D01*
X290700Y264961D01*
X290829Y263980D01*
X291207Y263067D01*
X291810Y262282D01*
X292594Y261680D01*
X293508Y261301D01*
X294488Y261172D01*
X295469Y261301D01*
X296382Y261680D01*
X297167Y262282D01*
X297769Y263067D01*
X298147Y263980D01*
X298276Y264961D01*
X298147Y265941D01*
X297769Y266855D01*
X297167Y267639D01*
X296382Y268241D01*
X295469Y268620D01*
X294488Y268749D01*
D02*
G37*
G36*
X276772Y269244D02*
X275704Y269103D01*
X274709Y268691D01*
X273854Y268036D01*
X273199Y267181D01*
X272786Y266186D01*
X272646Y265118D01*
X272786Y264050D01*
X273199Y263055D01*
X273854Y262201D01*
X274709Y261545D01*
X275704Y261133D01*
X276772Y260992D01*
X277839Y261133D01*
X278835Y261545D01*
X279689Y262201D01*
X280345Y263055D01*
X280757Y264050D01*
X280897Y265118D01*
X280757Y266186D01*
X280345Y267181D01*
X279689Y268036D01*
X278835Y268691D01*
X277839Y269103D01*
X276772Y269244D01*
D02*
G37*
G36*
X250266Y261945D02*
X246765D01*
Y260308D01*
X250266D01*
Y261945D01*
D02*
G37*
G36*
X245765D02*
X242265D01*
Y260308D01*
X245765D01*
Y261945D01*
D02*
G37*
G36*
X237324Y260611D02*
X234954D01*
Y259126D01*
X237324D01*
Y260611D01*
D02*
G37*
G36*
X233954D02*
X231584D01*
Y259126D01*
X233954D01*
Y260611D01*
D02*
G37*
G36*
X245765Y259308D02*
X242265D01*
Y257670D01*
X245765D01*
Y259308D01*
D02*
G37*
G36*
X237324Y258126D02*
X234954D01*
Y256642D01*
X237324D01*
Y258126D01*
D02*
G37*
G36*
X233954D02*
X231584D01*
Y256642D01*
X233954D01*
Y258126D01*
D02*
G37*
G36*
X190370Y255921D02*
X181283D01*
Y246835D01*
X190370D01*
Y251979D01*
X231584D01*
Y251524D01*
X237324D01*
Y251979D01*
X238352D01*
X239086Y251246D01*
X239582Y250914D01*
X240167Y250798D01*
X242853D01*
X242861Y250786D01*
X243568Y250313D01*
X244402Y250148D01*
X248128D01*
X248962Y250313D01*
X249669Y250786D01*
X250142Y251493D01*
X250307Y252327D01*
X250142Y253161D01*
X249669Y253868D01*
X248962Y254341D01*
X248128Y254507D01*
X244402D01*
X243568Y254341D01*
X242861Y253868D01*
X242853Y253857D01*
X240801D01*
X240068Y254590D01*
X239571Y254921D01*
X238986Y255038D01*
X237324D01*
Y255492D01*
X231584D01*
Y255038D01*
X190370D01*
Y255921D01*
D02*
G37*
G36*
X222835Y247592D02*
X204724D01*
X204139Y247476D01*
X203643Y247144D01*
X199406Y242907D01*
X190111D01*
X189795Y243669D01*
X189067Y244618D01*
X188118Y245346D01*
X187013Y245804D01*
X185827Y245960D01*
X184641Y245804D01*
X183536Y245346D01*
X182586Y244618D01*
X181858Y243669D01*
X181400Y242564D01*
X181244Y241378D01*
X181400Y240192D01*
X181858Y239087D01*
X182586Y238138D01*
X183536Y237409D01*
X184641Y236952D01*
X185827Y236795D01*
X187013Y236952D01*
X188118Y237409D01*
X189067Y238138D01*
X189795Y239087D01*
X190111Y239849D01*
X200039D01*
X200625Y239965D01*
X201121Y240297D01*
X205358Y244534D01*
X222201D01*
X226423Y240311D01*
Y205118D01*
X226540Y204533D01*
X226871Y204037D01*
X228840Y202068D01*
X229336Y201737D01*
X229921Y201620D01*
X231584D01*
Y201165D01*
X237324D01*
Y201620D01*
X238717D01*
X239450Y200887D01*
X239946Y200555D01*
X240531Y200439D01*
X242853D01*
X242861Y200427D01*
X243568Y199955D01*
X244402Y199789D01*
X248128D01*
X248962Y199955D01*
X249669Y200427D01*
X250142Y201134D01*
X250307Y201969D01*
X250142Y202803D01*
X249669Y203510D01*
X248962Y203982D01*
X248128Y204148D01*
X244402D01*
X243568Y203982D01*
X242861Y203510D01*
X242853Y203498D01*
X241165D01*
X240432Y204231D01*
X239935Y204563D01*
X239350Y204679D01*
X237324D01*
Y205134D01*
X231584D01*
Y204679D01*
X230555D01*
X229482Y205752D01*
Y240945D01*
X229366Y241530D01*
X229034Y242026D01*
X223916Y247144D01*
X223420Y247476D01*
X222835Y247592D01*
D02*
G37*
G36*
X250266Y259308D02*
X246765D01*
Y257670D01*
X249467D01*
X249735Y257170D01*
X249555Y256902D01*
X249390Y256067D01*
X249555Y255233D01*
X250028Y254526D01*
X250735Y254054D01*
X251569Y253888D01*
X255295D01*
X255309Y253890D01*
X256772Y252427D01*
X257268Y252095D01*
X257854Y251979D01*
X261899D01*
Y251524D01*
X263240D01*
Y248223D01*
X263356Y247638D01*
X263688Y247142D01*
X267029Y243800D01*
X267525Y243469D01*
X268110Y243353D01*
X272681D01*
Y241028D01*
X280862D01*
Y243589D01*
X290732D01*
Y241520D01*
X298244D01*
Y249031D01*
X290732D01*
Y246648D01*
X280862D01*
Y249209D01*
X272681D01*
Y246411D01*
X268744D01*
X266299Y248857D01*
Y251524D01*
X267639D01*
Y255492D01*
X261899D01*
Y255038D01*
X258487D01*
X257471Y256053D01*
X257474Y256067D01*
X257308Y256902D01*
X256836Y257609D01*
X256129Y258081D01*
X255295Y258247D01*
X251569D01*
X250766Y258087D01*
X250659Y258087D01*
X250266Y258298D01*
Y259308D01*
D02*
G37*
G36*
X221488Y240158D02*
X219118D01*
Y238673D01*
X221488D01*
Y240158D01*
D02*
G37*
G36*
X218118D02*
X215748D01*
Y238673D01*
X218118D01*
Y240158D01*
D02*
G37*
G36*
X75590Y245960D02*
X74405Y245804D01*
X73299Y245346D01*
X72350Y244618D01*
X71622Y243669D01*
X71164Y242564D01*
X71008Y241378D01*
X71164Y240192D01*
X71622Y239087D01*
X72350Y238138D01*
X73299Y237409D01*
X74405Y236952D01*
X75590Y236795D01*
X76777Y236952D01*
X77882Y237409D01*
X78831Y238138D01*
X79559Y239087D01*
X80017Y240192D01*
X80173Y241378D01*
X80017Y242564D01*
X79559Y243669D01*
X78831Y244618D01*
X77882Y245346D01*
X76777Y245804D01*
X75590Y245960D01*
D02*
G37*
G36*
X221488Y237673D02*
X219118D01*
Y236189D01*
X221488D01*
Y237673D01*
D02*
G37*
G36*
X218118D02*
X215748D01*
Y236189D01*
X218118D01*
Y237673D01*
D02*
G37*
G36*
X185827Y235961D02*
X184641Y235804D01*
X183536Y235347D01*
X182586Y234618D01*
X181858Y233669D01*
X181400Y232564D01*
X181244Y231378D01*
X181400Y230192D01*
X181858Y229087D01*
X182586Y228138D01*
X183536Y227409D01*
X184641Y226952D01*
X185827Y226796D01*
X187013Y226952D01*
X188118Y227409D01*
X189067Y228138D01*
X189795Y229087D01*
X190253Y230192D01*
X190409Y231378D01*
X190253Y232564D01*
X189795Y233669D01*
X189067Y234618D01*
X188118Y235347D01*
X187013Y235804D01*
X185827Y235961D01*
D02*
G37*
G36*
X75590D02*
X74405Y235804D01*
X73299Y235347D01*
X72350Y234618D01*
X71622Y233669D01*
X71164Y232564D01*
X71008Y231378D01*
X71164Y230192D01*
X71622Y229087D01*
X72350Y228138D01*
X73299Y227409D01*
X74405Y226952D01*
X75590Y226796D01*
X76777Y226952D01*
X77882Y227409D01*
X78831Y228138D01*
X79559Y229087D01*
X80017Y230192D01*
X80173Y231378D01*
X80017Y232564D01*
X79559Y233669D01*
X78831Y234618D01*
X77882Y235347D01*
X76777Y235804D01*
X75590Y235961D01*
D02*
G37*
G36*
X86039Y286846D02*
X77740D01*
Y276185D01*
X80360D01*
Y272047D01*
X80477Y271462D01*
X80808Y270966D01*
X85872Y265902D01*
Y225905D01*
X83150Y223183D01*
X79760D01*
X79559Y223669D01*
X78831Y224618D01*
X77882Y225346D01*
X76777Y225804D01*
X75590Y225960D01*
X74405Y225804D01*
X73299Y225346D01*
X72350Y224618D01*
X71622Y223669D01*
X71164Y222564D01*
X71008Y221378D01*
X71164Y220192D01*
X71622Y219087D01*
X72350Y218138D01*
X73299Y217409D01*
X74405Y216952D01*
X75590Y216795D01*
X76777Y216952D01*
X77882Y217409D01*
X78831Y218138D01*
X79559Y219087D01*
X79989Y220124D01*
X83784D01*
X84369Y220241D01*
X84865Y220572D01*
X88483Y224190D01*
X88815Y224686D01*
X88931Y225272D01*
Y266535D01*
X88815Y267121D01*
X88483Y267617D01*
X83419Y272681D01*
Y276185D01*
X86039D01*
Y286846D01*
D02*
G37*
G36*
X44307Y222457D02*
X40854D01*
Y219004D01*
X44307D01*
Y222457D01*
D02*
G37*
G36*
X17732D02*
X14279D01*
Y219004D01*
X17732D01*
Y222457D01*
D02*
G37*
G36*
X39854D02*
X36402D01*
Y219004D01*
X39854D01*
Y222457D01*
D02*
G37*
G36*
X185827Y225960D02*
X184641Y225804D01*
X183536Y225346D01*
X182586Y224618D01*
X181858Y223669D01*
X181400Y222564D01*
X181244Y221378D01*
X181400Y220192D01*
X181858Y219087D01*
X182586Y218138D01*
X183536Y217409D01*
X184641Y216952D01*
X185827Y216795D01*
X187013Y216952D01*
X188118Y217409D01*
X189067Y218138D01*
X189795Y219087D01*
X190253Y220192D01*
X190409Y221378D01*
X190253Y222564D01*
X189795Y223669D01*
X189067Y224618D01*
X188118Y225346D01*
X187013Y225804D01*
X185827Y225960D01*
D02*
G37*
G36*
X221488Y235039D02*
X215748D01*
Y231071D01*
X217089D01*
Y223047D01*
X214433D01*
Y212386D01*
X223126D01*
Y223047D01*
X220147D01*
Y231071D01*
X221488D01*
Y235039D01*
D02*
G37*
G36*
X294488Y219930D02*
X293508Y219801D01*
X292594Y219423D01*
X291810Y218821D01*
X291207Y218036D01*
X290829Y217122D01*
X290700Y216142D01*
X290829Y215161D01*
X291207Y214248D01*
X291810Y213463D01*
X292594Y212861D01*
X293508Y212483D01*
X294488Y212353D01*
X295469Y212483D01*
X296382Y212861D01*
X297167Y213463D01*
X297769Y214248D01*
X298147Y215161D01*
X298276Y216142D01*
X298147Y217122D01*
X297769Y218036D01*
X297167Y218821D01*
X296382Y219423D01*
X295469Y219801D01*
X294488Y219930D01*
D02*
G37*
G36*
X276772Y220425D02*
X275704Y220285D01*
X274709Y219872D01*
X273854Y219217D01*
X273199Y218362D01*
X272786Y217367D01*
X272646Y216299D01*
X272786Y215231D01*
X273199Y214236D01*
X273854Y213382D01*
X274709Y212726D01*
X275704Y212314D01*
X276772Y212173D01*
X277839Y212314D01*
X278835Y212726D01*
X279689Y213382D01*
X280345Y214236D01*
X280757Y215231D01*
X280897Y216299D01*
X280757Y217367D01*
X280345Y218362D01*
X279689Y219217D01*
X278835Y219872D01*
X277839Y220285D01*
X276772Y220425D01*
D02*
G37*
G36*
X250266Y211587D02*
X246765D01*
Y209949D01*
X250266D01*
Y211587D01*
D02*
G37*
G36*
X245765D02*
X242265D01*
Y209949D01*
X245765D01*
Y211587D01*
D02*
G37*
G36*
X237324Y210252D02*
X234954D01*
Y208768D01*
X237324D01*
Y210252D01*
D02*
G37*
G36*
X233954D02*
X231584D01*
Y208768D01*
X233954D01*
Y210252D01*
D02*
G37*
G36*
X245765Y208949D02*
X242265D01*
Y207311D01*
X245765D01*
Y208949D01*
D02*
G37*
G36*
X185827Y215961D02*
X184641Y215804D01*
X183536Y215347D01*
X182586Y214618D01*
X181858Y213669D01*
X181400Y212564D01*
X181244Y211378D01*
X181400Y210192D01*
X181858Y209087D01*
X182586Y208138D01*
X183536Y207409D01*
X184641Y206952D01*
X185827Y206796D01*
X187013Y206952D01*
X188118Y207409D01*
X189067Y208138D01*
X189795Y209087D01*
X190253Y210192D01*
X190409Y211378D01*
X190253Y212564D01*
X189795Y213669D01*
X189067Y214618D01*
X188118Y215347D01*
X187013Y215804D01*
X185827Y215961D01*
D02*
G37*
G36*
X44307Y269579D02*
X40354D01*
X36402D01*
Y266126D01*
X37985D01*
X38320Y265682D01*
X38320Y265626D01*
X37535Y265024D01*
X36902Y264198D01*
X36503Y263237D01*
X36367Y262205D01*
X36503Y261173D01*
X36902Y260211D01*
X37535Y259386D01*
X38361Y258752D01*
X38877Y258538D01*
Y257997D01*
X38361Y257783D01*
X37535Y257150D01*
X36902Y256324D01*
X36503Y255363D01*
X36367Y254331D01*
X36503Y253299D01*
X36902Y252337D01*
X37535Y251512D01*
X38361Y250878D01*
X38877Y250664D01*
Y250123D01*
X38361Y249909D01*
X37535Y249276D01*
X36902Y248450D01*
X36503Y247489D01*
X36367Y246457D01*
X36503Y245425D01*
X36902Y244463D01*
X37535Y243638D01*
X38361Y243004D01*
X39323Y242606D01*
X40354Y242470D01*
X41386Y242606D01*
X42348Y243004D01*
X43174Y243638D01*
X43807Y244463D01*
X44205Y245425D01*
X44341Y246457D01*
X44205Y247489D01*
X43807Y248450D01*
X43174Y249276D01*
X42348Y249909D01*
X41832Y250123D01*
Y250664D01*
X42348Y250878D01*
X43174Y251512D01*
X43807Y252337D01*
X44205Y253299D01*
X44341Y254331D01*
X44205Y255363D01*
X43807Y256324D01*
X43174Y257150D01*
X42348Y257783D01*
X41832Y257997D01*
Y258538D01*
X42348Y258752D01*
X43174Y259386D01*
X43807Y260211D01*
X43999Y260675D01*
X54091D01*
X62644Y252122D01*
Y216535D01*
X62760Y215950D01*
X63092Y215454D01*
X68249Y210297D01*
X68745Y209965D01*
X69331Y209849D01*
X71306D01*
X71622Y209087D01*
X72350Y208138D01*
X73299Y207409D01*
X74405Y206952D01*
X75590Y206796D01*
X76777Y206952D01*
X77882Y207409D01*
X78831Y208138D01*
X79559Y209087D01*
X80017Y210192D01*
X80173Y211378D01*
X80017Y212564D01*
X79559Y213669D01*
X78831Y214618D01*
X77882Y215347D01*
X76777Y215804D01*
X75590Y215961D01*
X74405Y215804D01*
X73299Y215347D01*
X72350Y214618D01*
X71622Y213669D01*
X71306Y212907D01*
X69964D01*
X65703Y217169D01*
Y252756D01*
X65586Y253341D01*
X65255Y253837D01*
X55806Y263286D01*
X55310Y263618D01*
X54724Y263734D01*
X43999D01*
X43807Y264198D01*
X43174Y265024D01*
X42389Y265626D01*
X42388Y265682D01*
X42724Y266126D01*
X44307D01*
Y269579D01*
D02*
G37*
G36*
X237324Y207768D02*
X234954D01*
Y206283D01*
X237324D01*
Y207768D01*
D02*
G37*
G36*
X233954D02*
X231584D01*
Y206283D01*
X233954D01*
Y207768D01*
D02*
G37*
G36*
X185827Y205960D02*
X184641Y205804D01*
X183536Y205346D01*
X182586Y204618D01*
X181858Y203669D01*
X181400Y202564D01*
X181244Y201378D01*
X181400Y200192D01*
X181858Y199087D01*
X182586Y198138D01*
X183536Y197409D01*
X184641Y196952D01*
X185827Y196795D01*
X187013Y196952D01*
X188118Y197409D01*
X189067Y198138D01*
X189795Y199087D01*
X190253Y200192D01*
X190409Y201378D01*
X190253Y202564D01*
X189795Y203669D01*
X189067Y204618D01*
X188118Y205346D01*
X187013Y205804D01*
X185827Y205960D01*
D02*
G37*
G36*
X213126Y223047D02*
X204433D01*
Y212386D01*
X207250D01*
Y208626D01*
X191492Y192868D01*
X190127D01*
X189795Y193669D01*
X189067Y194618D01*
X188118Y195346D01*
X187013Y195804D01*
X185827Y195960D01*
X184641Y195804D01*
X183536Y195346D01*
X182586Y194618D01*
X181858Y193669D01*
X181400Y192564D01*
X181244Y191378D01*
X181400Y190192D01*
X181858Y189087D01*
X182586Y188138D01*
X183536Y187409D01*
X184641Y186952D01*
X185827Y186795D01*
X187013Y186952D01*
X188118Y187409D01*
X189067Y188138D01*
X189795Y189087D01*
X190095Y189809D01*
X192126D01*
X192711Y189926D01*
X193207Y190257D01*
X209861Y206911D01*
X210192Y207407D01*
X210309Y207992D01*
Y212386D01*
X213126D01*
Y223047D01*
D02*
G37*
G36*
X250266Y208949D02*
X246765D01*
Y207311D01*
X249467D01*
X249735Y206811D01*
X249555Y206543D01*
X249390Y205709D01*
X249555Y204874D01*
X250028Y204167D01*
X250735Y203695D01*
X251569Y203529D01*
X255295D01*
X255309Y203532D01*
X256575Y202265D01*
X257072Y201934D01*
X257657Y201817D01*
X261899D01*
Y201362D01*
X264745D01*
X265058Y200895D01*
X270735Y195218D01*
X271231Y194886D01*
X271816Y194770D01*
X272681D01*
Y192209D01*
X280862D01*
Y194770D01*
X290732D01*
Y192701D01*
X298244D01*
Y200213D01*
X290732D01*
Y197829D01*
X280862D01*
Y200390D01*
X272681D01*
Y198304D01*
X272181Y198097D01*
X267669Y202610D01*
Y202862D01*
X267639Y203010D01*
Y205331D01*
X261899D01*
Y204876D01*
X258290D01*
X257471Y205695D01*
X257474Y205709D01*
X257308Y206543D01*
X256836Y207250D01*
X256129Y207722D01*
X255295Y207888D01*
X251569D01*
X250766Y207729D01*
X250659Y207729D01*
X250266Y207939D01*
Y208949D01*
D02*
G37*
G36*
X44307Y218004D02*
X40354D01*
X36402D01*
Y214551D01*
X37985D01*
X38320Y214107D01*
X38320Y214051D01*
X37535Y213449D01*
X36902Y212623D01*
X36503Y211662D01*
X36367Y210630D01*
X36503Y209598D01*
X36902Y208636D01*
X37535Y207811D01*
X38361Y207177D01*
X38877Y206963D01*
Y206422D01*
X38361Y206209D01*
X37535Y205575D01*
X36902Y204749D01*
X36503Y203788D01*
X36367Y202756D01*
X36503Y201724D01*
X36902Y200763D01*
X37535Y199937D01*
X38361Y199303D01*
X38877Y199090D01*
Y198548D01*
X38361Y198335D01*
X37535Y197701D01*
X36902Y196875D01*
X36503Y195914D01*
X36367Y194882D01*
X36503Y193850D01*
X36902Y192888D01*
X37535Y192063D01*
X38361Y191429D01*
X39322Y191031D01*
X40354Y190895D01*
X41386Y191031D01*
X42348Y191429D01*
X43174Y192063D01*
X43807Y192888D01*
X44205Y193850D01*
X44341Y194882D01*
X44205Y195914D01*
X43807Y196875D01*
X43174Y197701D01*
X42348Y198335D01*
X41832Y198548D01*
Y199090D01*
X42348Y199303D01*
X43174Y199937D01*
X43807Y200763D01*
X44205Y201724D01*
X44341Y202756D01*
X44205Y203788D01*
X43807Y204749D01*
X43174Y205575D01*
X42348Y206209D01*
X41832Y206422D01*
Y206963D01*
X42348Y207177D01*
X43174Y207811D01*
X43807Y208636D01*
X43999Y209101D01*
X45823D01*
X64667Y190257D01*
X65163Y189926D01*
X65748Y189809D01*
X71323D01*
X71622Y189087D01*
X72350Y188138D01*
X73299Y187409D01*
X74405Y186952D01*
X75590Y186795D01*
X76777Y186952D01*
X77882Y187409D01*
X78831Y188138D01*
X79559Y189087D01*
X80017Y190192D01*
X80173Y191378D01*
X80017Y192564D01*
X79559Y193669D01*
X78831Y194618D01*
X77882Y195346D01*
X76777Y195804D01*
X75590Y195960D01*
X74405Y195804D01*
X73299Y195346D01*
X72350Y194618D01*
X71622Y193669D01*
X71290Y192868D01*
X66382D01*
X47538Y211711D01*
X47042Y212043D01*
X46457Y212159D01*
X43999D01*
X43807Y212623D01*
X43174Y213449D01*
X42389Y214051D01*
X42388Y214107D01*
X42724Y214551D01*
X44307D01*
Y218004D01*
D02*
G37*
G36*
X223126Y190764D02*
X214433D01*
Y180102D01*
X223126D01*
Y182908D01*
X234646D01*
X235612Y183100D01*
X236431Y183648D01*
X236978Y184467D01*
X237171Y185433D01*
X236978Y186399D01*
X236431Y187218D01*
X235612Y187766D01*
X234646Y187958D01*
X223126D01*
Y190764D01*
D02*
G37*
G36*
X185827Y185960D02*
X184641Y185804D01*
X183536Y185346D01*
X182586Y184618D01*
X181858Y183669D01*
X181400Y182564D01*
X181244Y181378D01*
X181400Y180192D01*
X181858Y179087D01*
X182586Y178138D01*
X183536Y177409D01*
X184641Y176952D01*
X185827Y176795D01*
X187013Y176952D01*
X188118Y177409D01*
X189067Y178138D01*
X189795Y179087D01*
X190253Y180192D01*
X190409Y181378D01*
X190253Y182564D01*
X189795Y183669D01*
X189067Y184618D01*
X188118Y185346D01*
X187013Y185804D01*
X185827Y185960D01*
D02*
G37*
G36*
X75590Y175961D02*
X74405Y175804D01*
X73299Y175347D01*
X72350Y174618D01*
X71622Y173669D01*
X71421Y173183D01*
X54357D01*
X54328Y173226D01*
X53607Y173708D01*
X52756Y173877D01*
X51905Y173708D01*
X51183Y173226D01*
X50701Y172505D01*
X50532Y171653D01*
X50701Y170802D01*
X51183Y170081D01*
X51905Y169599D01*
X52756Y169430D01*
X53607Y169599D01*
X54328Y170081D01*
X54357Y170124D01*
X71192D01*
X71622Y169087D01*
X72350Y168138D01*
X73299Y167409D01*
X74405Y166952D01*
X75590Y166796D01*
X76777Y166952D01*
X77882Y167409D01*
X78831Y168138D01*
X79559Y169087D01*
X80017Y170192D01*
X80173Y171378D01*
X80017Y172564D01*
X79559Y173669D01*
X78831Y174618D01*
X77882Y175347D01*
X76777Y175804D01*
X75590Y175961D01*
D02*
G37*
G36*
X44307Y172850D02*
X40854D01*
Y169398D01*
X44307D01*
Y172850D01*
D02*
G37*
G36*
X17732D02*
X14279D01*
Y169398D01*
X17732D01*
Y172850D01*
D02*
G37*
G36*
X39854D02*
X36402D01*
Y169398D01*
X39854D01*
Y172850D01*
D02*
G37*
G36*
X213894Y168717D02*
X211524D01*
Y167232D01*
X213894D01*
Y168717D01*
D02*
G37*
G36*
X210524D02*
X208154D01*
Y167232D01*
X210524D01*
Y168717D01*
D02*
G37*
G36*
X213894Y166232D02*
X211524D01*
Y164748D01*
X213894D01*
Y166232D01*
D02*
G37*
G36*
X210524D02*
X208154D01*
Y164748D01*
X210524D01*
Y166232D01*
D02*
G37*
G36*
X294488Y171111D02*
X293508Y170982D01*
X292594Y170604D01*
X291810Y170002D01*
X291207Y169217D01*
X290829Y168303D01*
X290700Y167323D01*
X290829Y166342D01*
X291207Y165429D01*
X291810Y164644D01*
X292594Y164042D01*
X293508Y163664D01*
X294488Y163534D01*
X295469Y163664D01*
X296382Y164042D01*
X297167Y164644D01*
X297769Y165429D01*
X298147Y166342D01*
X298276Y167323D01*
X298147Y168303D01*
X297769Y169217D01*
X297167Y170002D01*
X296382Y170604D01*
X295469Y170982D01*
X294488Y171111D01*
D02*
G37*
G36*
X276772Y171606D02*
X275704Y171466D01*
X274709Y171053D01*
X273854Y170398D01*
X273199Y169543D01*
X272786Y168548D01*
X272646Y167480D01*
X272786Y166412D01*
X273199Y165417D01*
X273854Y164563D01*
X274709Y163907D01*
X275704Y163495D01*
X276772Y163355D01*
X277839Y163495D01*
X278835Y163907D01*
X279689Y164563D01*
X280345Y165417D01*
X280757Y166412D01*
X280897Y167480D01*
X280757Y168548D01*
X280345Y169543D01*
X279689Y170398D01*
X278835Y171053D01*
X277839Y171466D01*
X276772Y171606D01*
D02*
G37*
G36*
X250063Y163555D02*
X246563D01*
Y161917D01*
X250063D01*
Y163555D01*
D02*
G37*
G36*
X245563D02*
X242062D01*
Y161917D01*
X245563D01*
Y163555D01*
D02*
G37*
G36*
X237122Y162221D02*
X234752D01*
Y160736D01*
X237122D01*
Y162221D01*
D02*
G37*
G36*
X233752D02*
X231382D01*
Y160736D01*
X233752D01*
Y162221D01*
D02*
G37*
G36*
X245563Y160917D02*
X242062D01*
Y159280D01*
X245563D01*
Y160917D01*
D02*
G37*
G36*
X237122Y159736D02*
X234752D01*
Y158252D01*
X237122D01*
Y159736D01*
D02*
G37*
G36*
X233752D02*
X231382D01*
Y158252D01*
X233752D01*
Y159736D01*
D02*
G37*
G36*
X44307Y168398D02*
X40354D01*
X36402D01*
Y164945D01*
X37985D01*
X38320Y164501D01*
X38320Y164445D01*
X37535Y163843D01*
X36902Y163017D01*
X36503Y162056D01*
X36367Y161024D01*
X36503Y159992D01*
X36902Y159030D01*
X37535Y158204D01*
X38361Y157571D01*
X38877Y157357D01*
Y156816D01*
X38361Y156602D01*
X37535Y155969D01*
X36902Y155143D01*
X36503Y154182D01*
X36367Y153150D01*
X36503Y152118D01*
X36902Y151156D01*
X37535Y150330D01*
X38361Y149697D01*
X38877Y149483D01*
Y148942D01*
X38361Y148728D01*
X37535Y148095D01*
X36902Y147269D01*
X36503Y146308D01*
X36367Y145276D01*
X36503Y144244D01*
X36902Y143282D01*
X37535Y142456D01*
X38361Y141823D01*
X39322Y141425D01*
X40354Y141289D01*
X41386Y141425D01*
X42348Y141823D01*
X43174Y142456D01*
X43807Y143282D01*
X44205Y144244D01*
X44341Y145276D01*
X44205Y146308D01*
X43807Y147269D01*
X43174Y148095D01*
X42348Y148728D01*
X41832Y148942D01*
Y149483D01*
X42348Y149697D01*
X43174Y150330D01*
X43807Y151156D01*
X44205Y152118D01*
X44341Y153150D01*
X44205Y154182D01*
X43807Y155143D01*
X43174Y155969D01*
X42348Y156602D01*
X41832Y156816D01*
Y157357D01*
X42348Y157571D01*
X43174Y158204D01*
X43807Y159030D01*
X44073Y159671D01*
X71380D01*
X71622Y159087D01*
X72350Y158138D01*
X73299Y157409D01*
X74405Y156952D01*
X75590Y156796D01*
X76777Y156952D01*
X77882Y157409D01*
X78831Y158138D01*
X79559Y159087D01*
X80017Y160192D01*
X80173Y161378D01*
X80017Y162564D01*
X79559Y163669D01*
X78831Y164618D01*
X77882Y165347D01*
X76777Y165804D01*
X75590Y165961D01*
X74405Y165804D01*
X73299Y165347D01*
X72350Y164618D01*
X71622Y163669D01*
X71233Y162730D01*
X43926D01*
X43807Y163017D01*
X43174Y163843D01*
X42389Y164445D01*
X42388Y164501D01*
X42724Y164945D01*
X44307D01*
Y168398D01*
D02*
G37*
G36*
X75590Y155961D02*
X74405Y155804D01*
X73299Y155347D01*
X72350Y154618D01*
X71622Y153669D01*
X71347Y153006D01*
X53636D01*
X53541Y153147D01*
X52820Y153629D01*
X51968Y153799D01*
X51117Y153629D01*
X50396Y153147D01*
X49914Y152426D01*
X49745Y151575D01*
X49914Y150724D01*
X50396Y150002D01*
X51117Y149520D01*
X51968Y149351D01*
X52820Y149520D01*
X53458Y149947D01*
X71266D01*
X71622Y149087D01*
X72350Y148138D01*
X73299Y147409D01*
X74405Y146952D01*
X75590Y146795D01*
X76777Y146952D01*
X77882Y147409D01*
X78831Y148138D01*
X79559Y149087D01*
X80017Y150192D01*
X80173Y151378D01*
X80017Y152564D01*
X79559Y153669D01*
X78831Y154618D01*
X77882Y155347D01*
X76777Y155804D01*
X75590Y155961D01*
D02*
G37*
G36*
X225729Y157342D02*
X224878Y157173D01*
X224156Y156691D01*
X223674Y155969D01*
X223505Y155118D01*
X223674Y154267D01*
X224156Y153546D01*
X224878Y153064D01*
X225729Y152894D01*
X226580Y153064D01*
X227301Y153546D01*
X227330Y153589D01*
X231382D01*
Y153134D01*
X237122D01*
Y153589D01*
X238150D01*
X238884Y152856D01*
X239380Y152524D01*
X239965Y152408D01*
X242651D01*
X242659Y152396D01*
X243366Y151923D01*
X244200Y151757D01*
X247926D01*
X248760Y151923D01*
X249467Y152396D01*
X249939Y153103D01*
X250105Y153937D01*
X249939Y154771D01*
X249467Y155478D01*
X248760Y155951D01*
X247926Y156117D01*
X244200D01*
X243366Y155951D01*
X242659Y155478D01*
X242651Y155466D01*
X240599D01*
X239865Y156200D01*
X239369Y156531D01*
X238784Y156648D01*
X237122D01*
Y157102D01*
X231382D01*
Y156648D01*
X227330D01*
X227301Y156691D01*
X226580Y157173D01*
X225729Y157342D01*
D02*
G37*
G36*
X213894Y152575D02*
X211524D01*
Y151091D01*
X213894D01*
Y152575D01*
D02*
G37*
G36*
X210524D02*
X208154D01*
Y151091D01*
X210524D01*
Y152575D01*
D02*
G37*
G36*
X213894Y150091D02*
X211524D01*
Y148606D01*
X213894D01*
Y150091D01*
D02*
G37*
G36*
X210524D02*
X208154D01*
Y148606D01*
X210524D01*
Y150091D01*
D02*
G37*
G36*
X250063Y160917D02*
X246563D01*
Y159280D01*
X249265D01*
X249533Y158780D01*
X249353Y158511D01*
X249187Y157677D01*
X249353Y156843D01*
X249826Y156136D01*
X250533Y155663D01*
X251367Y155498D01*
X255093D01*
X255106Y155500D01*
X256570Y154037D01*
X257066Y153705D01*
X257652Y153589D01*
X261697D01*
Y153134D01*
X263038D01*
Y150787D01*
X263154Y150202D01*
X263486Y149706D01*
X266635Y146556D01*
X267131Y146225D01*
X267717Y146108D01*
X272681D01*
Y143390D01*
X280862D01*
Y145951D01*
X290732D01*
Y143882D01*
X298244D01*
Y151394D01*
X290732D01*
Y149010D01*
X280862D01*
Y151571D01*
X272681D01*
Y149167D01*
X268350D01*
X266096Y151421D01*
Y153134D01*
X267437D01*
Y157102D01*
X261697D01*
Y156648D01*
X258285D01*
X257269Y157663D01*
X257272Y157677D01*
X257106Y158511D01*
X256634Y159218D01*
X255927Y159691D01*
X255093Y159857D01*
X251367D01*
X250564Y159697D01*
X250457Y159697D01*
X250063Y159907D01*
Y160917D01*
D02*
G37*
G36*
X185827Y145960D02*
X184641Y145804D01*
X183536Y145346D01*
X182586Y144618D01*
X181858Y143669D01*
X181400Y142564D01*
X181244Y141378D01*
X181400Y140192D01*
X181858Y139087D01*
X182586Y138138D01*
X183536Y137409D01*
X184641Y136952D01*
X185827Y136795D01*
X187013Y136952D01*
X188118Y137409D01*
X189067Y138138D01*
X189795Y139087D01*
X190253Y140192D01*
X190409Y141378D01*
X190253Y142564D01*
X189795Y143669D01*
X189067Y144618D01*
X188118Y145346D01*
X187013Y145804D01*
X185827Y145960D01*
D02*
G37*
G36*
X202441Y279225D02*
X201358Y279082D01*
X200348Y278664D01*
X199481Y277999D01*
X198816Y277132D01*
X198398Y276123D01*
X198256Y275039D01*
X198398Y273956D01*
X198816Y272947D01*
X199481Y272080D01*
X200348Y271415D01*
X200494Y271355D01*
X200591Y270864D01*
X194642Y264915D01*
X180709D01*
X180123Y264799D01*
X179627Y264467D01*
X170572Y255412D01*
X170241Y254916D01*
X170124Y254331D01*
Y177165D01*
X170241Y176580D01*
X170572Y176084D01*
X176359Y170297D01*
X176856Y169965D01*
X177441Y169849D01*
X181543D01*
X181858Y169087D01*
X182586Y168138D01*
X183536Y167409D01*
X184641Y166952D01*
X185827Y166796D01*
X187013Y166952D01*
X188118Y167409D01*
X189067Y168138D01*
X189795Y169087D01*
X190209Y170085D01*
X208154D01*
Y169866D01*
X213894D01*
Y173747D01*
X213894Y173835D01*
X214106Y174247D01*
X216910D01*
X217160Y173996D01*
Y149213D01*
X217352Y148246D01*
X217900Y147427D01*
X229711Y135616D01*
X230530Y135069D01*
X231496Y134877D01*
X247638D01*
X248604Y135069D01*
X249423Y135616D01*
X249971Y136435D01*
X250163Y137402D01*
X249971Y138368D01*
X249423Y139187D01*
X248604Y139734D01*
X247638Y139927D01*
X232542D01*
X222210Y150258D01*
Y175042D01*
X222018Y176008D01*
X221470Y176827D01*
X219741Y178557D01*
X218922Y179104D01*
X217955Y179297D01*
X211555D01*
X211304Y179547D01*
Y180102D01*
X213126D01*
Y190764D01*
X204433D01*
Y180102D01*
X206255D01*
Y178501D01*
X206447Y177535D01*
X206994Y176716D01*
X208724Y174986D01*
X209543Y174439D01*
X210067Y174335D01*
X210018Y173835D01*
X208154D01*
Y173144D01*
X190013D01*
X189795Y173669D01*
X189067Y174618D01*
X188118Y175347D01*
X187013Y175804D01*
X185827Y175961D01*
X184641Y175804D01*
X183536Y175347D01*
X182586Y174618D01*
X181858Y173669D01*
X181543Y172907D01*
X178074D01*
X173183Y177799D01*
Y253697D01*
X181342Y261856D01*
X195276D01*
X195861Y261973D01*
X196357Y262304D01*
X203522Y269470D01*
X203854Y269966D01*
X203970Y270551D01*
Y271181D01*
X204534Y271415D01*
X205400Y272080D01*
X206066Y272947D01*
X206484Y273956D01*
X206626Y275039D01*
X206484Y276123D01*
X206066Y277132D01*
X205400Y277999D01*
X204534Y278664D01*
X203524Y279082D01*
X202441Y279225D01*
D02*
G37*
G36*
X185827Y135960D02*
X184641Y135804D01*
X183536Y135346D01*
X182586Y134618D01*
X181858Y133669D01*
X181400Y132564D01*
X181244Y131378D01*
X181400Y130192D01*
X181858Y129087D01*
X182586Y128138D01*
X183536Y127409D01*
X184641Y126952D01*
X185827Y126795D01*
X187013Y126952D01*
X188118Y127409D01*
X189067Y128138D01*
X189795Y129087D01*
X190253Y130192D01*
X190409Y131378D01*
X190253Y132564D01*
X189795Y133669D01*
X189067Y134618D01*
X188118Y135346D01*
X187013Y135804D01*
X185827Y135960D01*
D02*
G37*
G36*
X95827D02*
X94641Y135804D01*
X93536Y135346D01*
X92586Y134618D01*
X91858Y133669D01*
X91400Y132564D01*
X91244Y131378D01*
X91400Y130192D01*
X91858Y129087D01*
X92586Y128138D01*
X93536Y127409D01*
X94641Y126952D01*
X95827Y126795D01*
X97013Y126952D01*
X98118Y127409D01*
X99067Y128138D01*
X99795Y129087D01*
X100253Y130192D01*
X100409Y131378D01*
X100253Y132564D01*
X99795Y133669D01*
X99067Y134618D01*
X98118Y135346D01*
X97013Y135804D01*
X95827Y135960D01*
D02*
G37*
G36*
X85827D02*
X84641Y135804D01*
X83535Y135346D01*
X82586Y134618D01*
X81858Y133669D01*
X81400Y132564D01*
X81244Y131378D01*
X81400Y130192D01*
X81858Y129087D01*
X82586Y128138D01*
X83535Y127409D01*
X84641Y126952D01*
X85827Y126795D01*
X87013Y126952D01*
X88118Y127409D01*
X89067Y128138D01*
X89795Y129087D01*
X90253Y130192D01*
X90409Y131378D01*
X90253Y132564D01*
X89795Y133669D01*
X89067Y134618D01*
X88118Y135346D01*
X87013Y135804D01*
X85827Y135960D01*
D02*
G37*
G36*
X114961Y124769D02*
X114083Y124654D01*
X113265Y124315D01*
X112563Y123776D01*
X112024Y123074D01*
X111685Y122256D01*
X111569Y121378D01*
X111685Y120500D01*
X112024Y119682D01*
X112563Y118980D01*
X113265Y118441D01*
X114083Y118102D01*
X114961Y117987D01*
X115838Y118102D01*
X116656Y118441D01*
X117359Y118980D01*
X117897Y119682D01*
X118236Y120500D01*
X118352Y121378D01*
X118236Y122256D01*
X117897Y123074D01*
X117359Y123776D01*
X116656Y124315D01*
X115838Y124654D01*
X114961Y124769D01*
D02*
G37*
G36*
X107087D02*
X106209Y124654D01*
X105391Y124315D01*
X104689Y123776D01*
X104150Y123074D01*
X103811Y122256D01*
X103695Y121378D01*
X103811Y120500D01*
X104150Y119682D01*
X104689Y118980D01*
X105391Y118441D01*
X106209Y118102D01*
X107087Y117987D01*
X107964Y118102D01*
X108782Y118441D01*
X109485Y118980D01*
X110023Y119682D01*
X110362Y120500D01*
X110478Y121378D01*
X110362Y122256D01*
X110023Y123074D01*
X109485Y123776D01*
X108782Y124315D01*
X107964Y124654D01*
X107087Y124769D01*
D02*
G37*
G36*
X185827Y125961D02*
X184641Y125804D01*
X183536Y125347D01*
X182586Y124618D01*
X181858Y123669D01*
X181400Y122564D01*
X181244Y121378D01*
X181400Y120192D01*
X181858Y119087D01*
X182586Y118138D01*
X183536Y117409D01*
X184641Y116952D01*
X185827Y116796D01*
X187013Y116952D01*
X188118Y117409D01*
X189067Y118138D01*
X189795Y119087D01*
X190253Y120192D01*
X190409Y121378D01*
X190253Y122564D01*
X189795Y123669D01*
X189067Y124618D01*
X188118Y125347D01*
X187013Y125804D01*
X185827Y125961D01*
D02*
G37*
G36*
X95827D02*
X94641Y125804D01*
X93536Y125347D01*
X92586Y124618D01*
X91858Y123669D01*
X91400Y122564D01*
X91244Y121378D01*
X91400Y120192D01*
X91858Y119087D01*
X92586Y118138D01*
X93536Y117409D01*
X94641Y116952D01*
X95827Y116796D01*
X97013Y116952D01*
X98118Y117409D01*
X99067Y118138D01*
X99795Y119087D01*
X100253Y120192D01*
X100409Y121378D01*
X100253Y122564D01*
X99795Y123669D01*
X99067Y124618D01*
X98118Y125347D01*
X97013Y125804D01*
X95827Y125961D01*
D02*
G37*
G36*
X85827D02*
X84641Y125804D01*
X83535Y125347D01*
X82586Y124618D01*
X81858Y123669D01*
X81400Y122564D01*
X81244Y121378D01*
X81400Y120192D01*
X81858Y119087D01*
X82586Y118138D01*
X83535Y117409D01*
X84641Y116952D01*
X85827Y116796D01*
X87013Y116952D01*
X88118Y117409D01*
X89067Y118138D01*
X89795Y119087D01*
X90253Y120192D01*
X90409Y121378D01*
X90253Y122564D01*
X89795Y123669D01*
X89067Y124618D01*
X88118Y125347D01*
X87013Y125804D01*
X85827Y125961D01*
D02*
G37*
G36*
X44307Y120095D02*
X40854D01*
Y116642D01*
X44307D01*
Y120095D01*
D02*
G37*
G36*
X17732D02*
X14279D01*
Y116642D01*
X17732D01*
Y120095D01*
D02*
G37*
G36*
X39854D02*
X36402D01*
Y116642D01*
X39854D01*
Y120095D01*
D02*
G37*
G36*
X250266Y115917D02*
X246765D01*
Y114279D01*
X250266D01*
Y115917D01*
D02*
G37*
G36*
X245765D02*
X242265D01*
Y114279D01*
X245765D01*
Y115917D01*
D02*
G37*
G36*
X237324Y114583D02*
X234954D01*
Y113098D01*
X237324D01*
Y114583D01*
D02*
G37*
G36*
X233954D02*
X231584D01*
Y113098D01*
X233954D01*
Y114583D01*
D02*
G37*
G36*
X245765Y113279D02*
X242265D01*
Y111642D01*
X245765D01*
Y113279D01*
D02*
G37*
G36*
X237324Y112098D02*
X234954D01*
Y110614D01*
X237324D01*
Y112098D01*
D02*
G37*
G36*
X233954D02*
X231584D01*
Y110614D01*
X233954D01*
Y112098D01*
D02*
G37*
G36*
X185827Y115961D02*
X184641Y115804D01*
X183536Y115347D01*
X182586Y114618D01*
X181858Y113669D01*
X181400Y112564D01*
X181244Y111378D01*
X181400Y110192D01*
X181858Y109087D01*
X182586Y108138D01*
X183536Y107409D01*
X184641Y106952D01*
X185827Y106796D01*
X187013Y106952D01*
X188118Y107409D01*
X189067Y108138D01*
X189795Y109087D01*
X190253Y110192D01*
X190409Y111378D01*
X190253Y112564D01*
X189795Y113669D01*
X189067Y114618D01*
X188118Y115347D01*
X187013Y115804D01*
X185827Y115961D01*
D02*
G37*
G36*
X175827D02*
X174641Y115804D01*
X173536Y115347D01*
X172586Y114618D01*
X171858Y113669D01*
X171400Y112564D01*
X171244Y111378D01*
X171400Y110192D01*
X171858Y109087D01*
X172586Y108138D01*
X173536Y107409D01*
X174641Y106952D01*
X175827Y106796D01*
X177013Y106952D01*
X178118Y107409D01*
X179067Y108138D01*
X179795Y109087D01*
X180253Y110192D01*
X180409Y111378D01*
X180253Y112564D01*
X179795Y113669D01*
X179067Y114618D01*
X178118Y115347D01*
X177013Y115804D01*
X175827Y115961D01*
D02*
G37*
G36*
X165827D02*
X164641Y115804D01*
X163535Y115347D01*
X162586Y114618D01*
X161858Y113669D01*
X161400Y112564D01*
X161244Y111378D01*
X161400Y110192D01*
X161858Y109087D01*
X162586Y108138D01*
X163535Y107409D01*
X164641Y106952D01*
X165827Y106796D01*
X167013Y106952D01*
X168118Y107409D01*
X169067Y108138D01*
X169795Y109087D01*
X170253Y110192D01*
X170409Y111378D01*
X170253Y112564D01*
X169795Y113669D01*
X169067Y114618D01*
X168118Y115347D01*
X167013Y115804D01*
X165827Y115961D01*
D02*
G37*
G36*
X155827D02*
X154641Y115804D01*
X153535Y115347D01*
X152586Y114618D01*
X151858Y113669D01*
X151400Y112564D01*
X151244Y111378D01*
X151400Y110192D01*
X151858Y109087D01*
X152586Y108138D01*
X153535Y107409D01*
X154641Y106952D01*
X155827Y106796D01*
X157013Y106952D01*
X158118Y107409D01*
X159067Y108138D01*
X159795Y109087D01*
X160253Y110192D01*
X160409Y111378D01*
X160253Y112564D01*
X159795Y113669D01*
X159067Y114618D01*
X158118Y115347D01*
X157013Y115804D01*
X155827Y115961D01*
D02*
G37*
G36*
X145827D02*
X144641Y115804D01*
X143535Y115347D01*
X142586Y114618D01*
X141858Y113669D01*
X141400Y112564D01*
X141244Y111378D01*
X141400Y110192D01*
X141858Y109087D01*
X142586Y108138D01*
X143535Y107409D01*
X144641Y106952D01*
X145827Y106796D01*
X147013Y106952D01*
X148118Y107409D01*
X149067Y108138D01*
X149795Y109087D01*
X150253Y110192D01*
X150409Y111378D01*
X150253Y112564D01*
X149795Y113669D01*
X149067Y114618D01*
X148118Y115347D01*
X147013Y115804D01*
X145827Y115961D01*
D02*
G37*
G36*
X135827D02*
X134641Y115804D01*
X133536Y115347D01*
X132586Y114618D01*
X131858Y113669D01*
X131400Y112564D01*
X131244Y111378D01*
X131400Y110192D01*
X131858Y109087D01*
X132586Y108138D01*
X133536Y107409D01*
X134641Y106952D01*
X135827Y106796D01*
X137013Y106952D01*
X138118Y107409D01*
X139067Y108138D01*
X139795Y109087D01*
X140253Y110192D01*
X140409Y111378D01*
X140253Y112564D01*
X139795Y113669D01*
X139067Y114618D01*
X138118Y115347D01*
X137013Y115804D01*
X135827Y115961D01*
D02*
G37*
G36*
X125827D02*
X124641Y115804D01*
X123536Y115347D01*
X122586Y114618D01*
X121858Y113669D01*
X121400Y112564D01*
X121244Y111378D01*
X121400Y110192D01*
X121858Y109087D01*
X122586Y108138D01*
X123536Y107409D01*
X124641Y106952D01*
X125827Y106796D01*
X127013Y106952D01*
X128118Y107409D01*
X129067Y108138D01*
X129795Y109087D01*
X130253Y110192D01*
X130409Y111378D01*
X130253Y112564D01*
X129795Y113669D01*
X129067Y114618D01*
X128118Y115347D01*
X127013Y115804D01*
X125827Y115961D01*
D02*
G37*
G36*
X115827D02*
X114641Y115804D01*
X113535Y115347D01*
X112586Y114618D01*
X111858Y113669D01*
X111400Y112564D01*
X111244Y111378D01*
X111400Y110192D01*
X111858Y109087D01*
X112586Y108138D01*
X113535Y107409D01*
X114641Y106952D01*
X115827Y106796D01*
X117013Y106952D01*
X118118Y107409D01*
X119067Y108138D01*
X119795Y109087D01*
X120253Y110192D01*
X120409Y111378D01*
X120253Y112564D01*
X119795Y113669D01*
X119067Y114618D01*
X118118Y115347D01*
X117013Y115804D01*
X115827Y115961D01*
D02*
G37*
G36*
X105827D02*
X104641Y115804D01*
X103535Y115347D01*
X102586Y114618D01*
X101858Y113669D01*
X101400Y112564D01*
X101244Y111378D01*
X101400Y110192D01*
X101858Y109087D01*
X102586Y108138D01*
X103535Y107409D01*
X104641Y106952D01*
X105827Y106796D01*
X107013Y106952D01*
X108118Y107409D01*
X109067Y108138D01*
X109795Y109087D01*
X110253Y110192D01*
X110409Y111378D01*
X110253Y112564D01*
X109795Y113669D01*
X109067Y114618D01*
X108118Y115347D01*
X107013Y115804D01*
X105827Y115961D01*
D02*
G37*
G36*
X95827D02*
X94641Y115804D01*
X93536Y115347D01*
X92586Y114618D01*
X91858Y113669D01*
X91400Y112564D01*
X91244Y111378D01*
X91400Y110192D01*
X91858Y109087D01*
X92586Y108138D01*
X93536Y107409D01*
X94641Y106952D01*
X95827Y106796D01*
X97013Y106952D01*
X98118Y107409D01*
X99067Y108138D01*
X99795Y109087D01*
X100253Y110192D01*
X100409Y111378D01*
X100253Y112564D01*
X99795Y113669D01*
X99067Y114618D01*
X98118Y115347D01*
X97013Y115804D01*
X95827Y115961D01*
D02*
G37*
G36*
X85827D02*
X84641Y115804D01*
X83535Y115347D01*
X82586Y114618D01*
X81858Y113669D01*
X81400Y112564D01*
X81244Y111378D01*
X81400Y110192D01*
X81858Y109087D01*
X82586Y108138D01*
X83535Y107409D01*
X84641Y106952D01*
X85827Y106796D01*
X87013Y106952D01*
X88118Y107409D01*
X89067Y108138D01*
X89795Y109087D01*
X90253Y110192D01*
X90409Y111378D01*
X90253Y112564D01*
X89795Y113669D01*
X89067Y114618D01*
X88118Y115347D01*
X87013Y115804D01*
X85827Y115961D01*
D02*
G37*
G36*
X75590D02*
X74405Y115804D01*
X73299Y115347D01*
X72350Y114618D01*
X71622Y113669D01*
X71323Y112947D01*
X66929D01*
X66344Y112830D01*
X65848Y112499D01*
X57187Y103838D01*
X56855Y103341D01*
X56739Y102756D01*
Y69983D01*
X56274Y69790D01*
X55449Y69157D01*
X54847Y68372D01*
X54791Y68371D01*
X54347Y68707D01*
Y70290D01*
X50894D01*
Y66338D01*
Y62385D01*
X54347D01*
Y63968D01*
X54791Y64304D01*
X54847Y64303D01*
X55449Y63519D01*
X56274Y62885D01*
X57236Y62487D01*
X58268Y62351D01*
X59300Y62487D01*
X60261Y62885D01*
X61087Y63519D01*
X61721Y64344D01*
X61934Y64860D01*
X62476D01*
X62689Y64344D01*
X63323Y63519D01*
X64149Y62885D01*
X65110Y62487D01*
X66142Y62351D01*
X67174Y62487D01*
X68135Y62885D01*
X68961Y63519D01*
X69595Y64344D01*
X69808Y64860D01*
X70350D01*
X70563Y64344D01*
X71197Y63519D01*
X72023Y62885D01*
X72984Y62487D01*
X74016Y62351D01*
X75048Y62487D01*
X76009Y62885D01*
X76835Y63519D01*
X77469Y64344D01*
X77661Y64808D01*
X95185D01*
X95770Y64925D01*
X96266Y65256D01*
X126849Y95839D01*
X127181Y96335D01*
X127297Y96921D01*
Y97069D01*
X128118Y97409D01*
X129067Y98138D01*
X129795Y99087D01*
X130253Y100192D01*
X130409Y101378D01*
X130253Y102564D01*
X129795Y103669D01*
X129067Y104618D01*
X128118Y105347D01*
X127013Y105804D01*
X125827Y105961D01*
X124641Y105804D01*
X123536Y105347D01*
X122586Y104618D01*
X121858Y103669D01*
X121400Y102564D01*
X121244Y101378D01*
X121400Y100192D01*
X121858Y99087D01*
X122586Y98138D01*
X123451Y97474D01*
X123599Y96914D01*
X94551Y67867D01*
X77661D01*
X77469Y68331D01*
X76835Y69157D01*
X76009Y69790D01*
X75048Y70189D01*
X74016Y70324D01*
X72984Y70189D01*
X72023Y69790D01*
X71197Y69157D01*
X70563Y68331D01*
X70350Y67815D01*
X69808D01*
X69595Y68331D01*
X68961Y69157D01*
X68135Y69790D01*
X67671Y69983D01*
Y91296D01*
X73643Y97267D01*
X74405Y96952D01*
X75590Y96795D01*
X76777Y96952D01*
X77882Y97409D01*
X78831Y98138D01*
X79559Y99087D01*
X80017Y100192D01*
X80173Y101378D01*
X80017Y102564D01*
X79559Y103669D01*
X78831Y104618D01*
X77882Y105347D01*
X76777Y105804D01*
X75590Y105961D01*
X74405Y105804D01*
X73299Y105347D01*
X72350Y104618D01*
X71622Y103669D01*
X71164Y102564D01*
X71008Y101378D01*
X71164Y100192D01*
X71480Y99430D01*
X65061Y93011D01*
X64729Y92515D01*
X64613Y91929D01*
Y69983D01*
X64149Y69790D01*
X63323Y69157D01*
X62689Y68331D01*
X62476Y67815D01*
X61934D01*
X61721Y68331D01*
X61087Y69157D01*
X60261Y69790D01*
X59797Y69983D01*
Y102123D01*
X67563Y109888D01*
X71290D01*
X71622Y109087D01*
X72350Y108138D01*
X73299Y107409D01*
X74405Y106952D01*
X75590Y106796D01*
X76777Y106952D01*
X77882Y107409D01*
X78831Y108138D01*
X79559Y109087D01*
X80017Y110192D01*
X80173Y111378D01*
X80017Y112564D01*
X79559Y113669D01*
X78831Y114618D01*
X77882Y115347D01*
X76777Y115804D01*
X75590Y115961D01*
D02*
G37*
G36*
X276772Y113181D02*
X275704Y113040D01*
X274709Y112628D01*
X273854Y111972D01*
X273199Y111118D01*
X272786Y110123D01*
X272646Y109055D01*
X272786Y107987D01*
X273199Y106992D01*
X273854Y106138D01*
X274709Y105482D01*
X275704Y105070D01*
X276772Y104929D01*
X277839Y105070D01*
X278835Y105482D01*
X279689Y106138D01*
X280345Y106992D01*
X280757Y107987D01*
X280897Y109055D01*
X280757Y110123D01*
X280345Y111118D01*
X279689Y111972D01*
X278835Y112628D01*
X277839Y113040D01*
X276772Y113181D01*
D02*
G37*
G36*
X294488Y112450D02*
X293508Y112321D01*
X292594Y111942D01*
X291810Y111340D01*
X291207Y110556D01*
X290829Y109642D01*
X290700Y108661D01*
X290829Y107681D01*
X291207Y106767D01*
X291810Y105983D01*
X292594Y105381D01*
X293508Y105002D01*
X294488Y104873D01*
X295469Y105002D01*
X296382Y105381D01*
X297167Y105983D01*
X297769Y106767D01*
X298147Y107681D01*
X298276Y108661D01*
X298147Y109642D01*
X297769Y110556D01*
X297167Y111340D01*
X296382Y111942D01*
X295469Y112321D01*
X294488Y112450D01*
D02*
G37*
G36*
X185827Y155961D02*
X184641Y155804D01*
X183536Y155347D01*
X182586Y154618D01*
X181858Y153669D01*
X181400Y152564D01*
X181244Y151378D01*
X181400Y150192D01*
X181858Y149087D01*
X182586Y148138D01*
X183536Y147409D01*
X184641Y146952D01*
X185827Y146795D01*
X187013Y146952D01*
X188118Y147409D01*
X189067Y148138D01*
X189795Y149087D01*
X190111Y149849D01*
X192083D01*
X198864Y143067D01*
Y121260D01*
X198981Y120675D01*
X199312Y120178D01*
X213092Y106399D01*
X213588Y106067D01*
X214173Y105951D01*
X231584D01*
Y105496D01*
X237324D01*
Y105951D01*
X238352D01*
X239086Y105218D01*
X239582Y104886D01*
X240167Y104770D01*
X242853D01*
X242861Y104758D01*
X243568Y104286D01*
X244402Y104120D01*
X248128D01*
X248962Y104286D01*
X249669Y104758D01*
X250142Y105465D01*
X250307Y106299D01*
X250142Y107133D01*
X249669Y107841D01*
X248962Y108313D01*
X248128Y108479D01*
X244402D01*
X243568Y108313D01*
X242861Y107841D01*
X242853Y107829D01*
X240801D01*
X240068Y108562D01*
X239571Y108893D01*
X238986Y109010D01*
X237324D01*
Y109465D01*
X231584D01*
Y109010D01*
X214807D01*
X201923Y121893D01*
Y143701D01*
X201807Y144286D01*
X201475Y144782D01*
X193798Y152459D01*
X193302Y152791D01*
X192717Y152907D01*
X190111D01*
X189795Y153669D01*
X189067Y154618D01*
X188118Y155347D01*
X187013Y155804D01*
X185827Y155961D01*
D02*
G37*
G36*
Y105961D02*
X184641Y105804D01*
X183536Y105347D01*
X182586Y104618D01*
X181858Y103669D01*
X181400Y102564D01*
X181244Y101378D01*
X181400Y100192D01*
X181858Y99087D01*
X182586Y98138D01*
X183536Y97409D01*
X184641Y96952D01*
X185827Y96795D01*
X187013Y96952D01*
X188118Y97409D01*
X189067Y98138D01*
X189795Y99087D01*
X190253Y100192D01*
X190409Y101378D01*
X190253Y102564D01*
X189795Y103669D01*
X189067Y104618D01*
X188118Y105347D01*
X187013Y105804D01*
X185827Y105961D01*
D02*
G37*
G36*
X175827D02*
X174641Y105804D01*
X173536Y105347D01*
X172586Y104618D01*
X171858Y103669D01*
X171400Y102564D01*
X171244Y101378D01*
X171400Y100192D01*
X171858Y99087D01*
X172586Y98138D01*
X173536Y97409D01*
X174641Y96952D01*
X175827Y96795D01*
X177013Y96952D01*
X178118Y97409D01*
X179067Y98138D01*
X179795Y99087D01*
X180253Y100192D01*
X180409Y101378D01*
X180253Y102564D01*
X179795Y103669D01*
X179067Y104618D01*
X178118Y105347D01*
X177013Y105804D01*
X175827Y105961D01*
D02*
G37*
G36*
X165827D02*
X164641Y105804D01*
X163535Y105347D01*
X162586Y104618D01*
X161858Y103669D01*
X161400Y102564D01*
X161244Y101378D01*
X161400Y100192D01*
X161858Y99087D01*
X162586Y98138D01*
X163535Y97409D01*
X164641Y96952D01*
X165827Y96795D01*
X167013Y96952D01*
X168118Y97409D01*
X169067Y98138D01*
X169795Y99087D01*
X170253Y100192D01*
X170409Y101378D01*
X170253Y102564D01*
X169795Y103669D01*
X169067Y104618D01*
X168118Y105347D01*
X167013Y105804D01*
X165827Y105961D01*
D02*
G37*
G36*
X155827D02*
X154641Y105804D01*
X153535Y105347D01*
X152586Y104618D01*
X151858Y103669D01*
X151400Y102564D01*
X151244Y101378D01*
X151400Y100192D01*
X151858Y99087D01*
X152586Y98138D01*
X153535Y97409D01*
X154641Y96952D01*
X155827Y96795D01*
X157013Y96952D01*
X158118Y97409D01*
X159067Y98138D01*
X159795Y99087D01*
X160253Y100192D01*
X160409Y101378D01*
X160253Y102564D01*
X159795Y103669D01*
X159067Y104618D01*
X158118Y105347D01*
X157013Y105804D01*
X155827Y105961D01*
D02*
G37*
G36*
X115827D02*
X114641Y105804D01*
X113535Y105347D01*
X112586Y104618D01*
X111858Y103669D01*
X111400Y102564D01*
X111244Y101378D01*
X111400Y100192D01*
X111858Y99087D01*
X112586Y98138D01*
X113535Y97409D01*
X114641Y96952D01*
X115827Y96795D01*
X117013Y96952D01*
X118118Y97409D01*
X119067Y98138D01*
X119795Y99087D01*
X120253Y100192D01*
X120409Y101378D01*
X120253Y102564D01*
X119795Y103669D01*
X119067Y104618D01*
X118118Y105347D01*
X117013Y105804D01*
X115827Y105961D01*
D02*
G37*
G36*
X105827D02*
X104641Y105804D01*
X103535Y105347D01*
X102586Y104618D01*
X101858Y103669D01*
X101400Y102564D01*
X101244Y101378D01*
X101400Y100192D01*
X101858Y99087D01*
X102586Y98138D01*
X103535Y97409D01*
X104641Y96952D01*
X105827Y96795D01*
X107013Y96952D01*
X108118Y97409D01*
X109067Y98138D01*
X109795Y99087D01*
X110253Y100192D01*
X110409Y101378D01*
X110253Y102564D01*
X109795Y103669D01*
X109067Y104618D01*
X108118Y105347D01*
X107013Y105804D01*
X105827Y105961D01*
D02*
G37*
G36*
X95827D02*
X94641Y105804D01*
X93536Y105347D01*
X92586Y104618D01*
X91858Y103669D01*
X91400Y102564D01*
X91244Y101378D01*
X91400Y100192D01*
X91858Y99087D01*
X92586Y98138D01*
X93536Y97409D01*
X94641Y96952D01*
X95827Y96795D01*
X97013Y96952D01*
X98118Y97409D01*
X99067Y98138D01*
X99795Y99087D01*
X100253Y100192D01*
X100409Y101378D01*
X100253Y102564D01*
X99795Y103669D01*
X99067Y104618D01*
X98118Y105347D01*
X97013Y105804D01*
X95827Y105961D01*
D02*
G37*
G36*
X85827D02*
X84641Y105804D01*
X83535Y105347D01*
X82586Y104618D01*
X81858Y103669D01*
X81400Y102564D01*
X81244Y101378D01*
X81400Y100192D01*
X81858Y99087D01*
X82586Y98138D01*
X83535Y97409D01*
X84641Y96952D01*
X85827Y96795D01*
X87013Y96952D01*
X88118Y97409D01*
X89067Y98138D01*
X89795Y99087D01*
X90253Y100192D01*
X90409Y101378D01*
X90253Y102564D01*
X89795Y103669D01*
X89067Y104618D01*
X88118Y105347D01*
X87013Y105804D01*
X85827Y105961D01*
D02*
G37*
G36*
X250266Y113279D02*
X246765D01*
Y111642D01*
X249467D01*
X249735Y111142D01*
X249555Y110873D01*
X249390Y110039D01*
X249555Y109205D01*
X250028Y108498D01*
X250735Y108026D01*
X251569Y107860D01*
X255295D01*
X255309Y107862D01*
X256772Y106399D01*
X257268Y106067D01*
X257854Y105951D01*
X261899D01*
Y105496D01*
X263240D01*
Y102861D01*
X263356Y102276D01*
X263688Y101780D01*
X268110Y97357D01*
X268607Y97025D01*
X269192Y96909D01*
X272681D01*
Y94965D01*
X280862D01*
Y97290D01*
X290732D01*
Y95063D01*
X298244D01*
Y102575D01*
X290732D01*
Y100348D01*
X280862D01*
Y103146D01*
X272681D01*
Y99968D01*
X269825D01*
X266299Y103495D01*
Y105496D01*
X267639D01*
Y109465D01*
X261899D01*
Y109010D01*
X258487D01*
X257471Y110025D01*
X257474Y110039D01*
X257308Y110873D01*
X256836Y111581D01*
X256129Y112053D01*
X255295Y112219D01*
X251569D01*
X250766Y112059D01*
X250659Y112059D01*
X250266Y112270D01*
Y113279D01*
D02*
G37*
G36*
X44307Y115642D02*
X40354D01*
X36402D01*
Y112189D01*
X37985D01*
X38320Y111745D01*
X38320Y111689D01*
X37535Y111087D01*
X36902Y110261D01*
X36503Y109300D01*
X36367Y108268D01*
X36503Y107236D01*
X36902Y106274D01*
X37535Y105449D01*
X38361Y104815D01*
X38877Y104601D01*
Y104060D01*
X38361Y103846D01*
X37535Y103213D01*
X36902Y102387D01*
X36503Y101426D01*
X36367Y100394D01*
X36503Y99362D01*
X36902Y98400D01*
X37535Y97575D01*
X38361Y96941D01*
X38877Y96727D01*
Y96186D01*
X38361Y95972D01*
X37535Y95339D01*
X36902Y94513D01*
X36503Y93552D01*
X36367Y92520D01*
X36503Y91488D01*
X36902Y90526D01*
X37535Y89701D01*
X38361Y89067D01*
X39322Y88669D01*
X40354Y88533D01*
X41386Y88669D01*
X42348Y89067D01*
X43174Y89701D01*
X43807Y90526D01*
X44205Y91488D01*
X44341Y92520D01*
X44205Y93552D01*
X43807Y94513D01*
X43174Y95339D01*
X42348Y95972D01*
X41832Y96186D01*
Y96727D01*
X42348Y96941D01*
X43174Y97575D01*
X43807Y98400D01*
X44205Y99362D01*
X44341Y100394D01*
X44205Y101426D01*
X43807Y102387D01*
X43174Y103213D01*
X42348Y103846D01*
X41832Y104060D01*
Y104601D01*
X42348Y104815D01*
X43174Y105449D01*
X43807Y106274D01*
X44205Y107236D01*
X44341Y108268D01*
X44205Y109300D01*
X43807Y110261D01*
X43174Y111087D01*
X42389Y111689D01*
X42388Y111745D01*
X42724Y112189D01*
X44307D01*
Y115642D01*
D02*
G37*
G36*
X221654Y89139D02*
X220687Y88947D01*
X219868Y88399D01*
X216128Y84659D01*
X215581Y83840D01*
X215388Y82874D01*
Y78740D01*
X215581Y77774D01*
X215929Y77252D01*
Y75870D01*
X219898D01*
Y77252D01*
X220246Y77774D01*
X220438Y78740D01*
Y81828D01*
X223439Y84829D01*
X223986Y85648D01*
X224178Y86614D01*
X223986Y87580D01*
X223439Y88399D01*
X222620Y88947D01*
X221654Y89139D01*
D02*
G37*
G36*
X206299Y99844D02*
X205524Y99743D01*
X204802Y99443D01*
X204182Y98968D01*
X195324Y90109D01*
X194848Y89489D01*
X194549Y88767D01*
X194447Y87992D01*
Y78740D01*
Y71850D01*
X194549Y71075D01*
X194848Y70353D01*
X195324Y69733D01*
X199064Y65993D01*
X199684Y65517D01*
X199983Y65393D01*
X200406Y65218D01*
X201181Y65116D01*
X212443D01*
X218653Y58907D01*
X219273Y58431D01*
X219995Y58131D01*
X220770Y58030D01*
X224984D01*
Y56480D01*
X238795D01*
Y64780D01*
X224984D01*
Y64018D01*
X222010D01*
X215800Y70227D01*
X215180Y70703D01*
X214458Y71002D01*
X213683Y71104D01*
X202421D01*
X200435Y73091D01*
Y75428D01*
X200575Y75870D01*
X200935Y75870D01*
X202715D01*
X202768Y75848D01*
X203543Y75746D01*
X211811D01*
X212586Y75848D01*
X212639Y75870D01*
X214779D01*
Y78545D01*
X214805Y78740D01*
X214779Y78935D01*
Y81610D01*
X212639D01*
X212586Y81632D01*
X211811Y81734D01*
X207488D01*
X207297Y82196D01*
X218169Y93069D01*
X228343D01*
X228896Y92516D01*
Y82811D01*
X224984D01*
Y74512D01*
X238795D01*
Y82811D01*
X234884D01*
Y93757D01*
X234782Y94532D01*
X234607Y94955D01*
X234483Y95254D01*
X234007Y95874D01*
X231701Y98180D01*
X231081Y98656D01*
X230358Y98955D01*
X229584Y99057D01*
X216929D01*
X216154Y98955D01*
X215432Y98656D01*
X214812Y98180D01*
X201426Y84794D01*
X200950Y84174D01*
X200935Y84137D01*
X200435Y84237D01*
Y86752D01*
X208416Y94733D01*
X208892Y95353D01*
X209191Y96075D01*
X209293Y96850D01*
X209191Y97625D01*
X208892Y98348D01*
X208416Y98968D01*
X207796Y99443D01*
X207074Y99743D01*
X206299Y99844D01*
D02*
G37*
G36*
X49894Y70290D02*
X46441D01*
Y66838D01*
X49894D01*
Y70290D01*
D02*
G37*
G36*
Y65838D02*
X46441D01*
Y62385D01*
X49894D01*
Y65838D01*
D02*
G37*
G36*
X133571Y56478D02*
Y53256D01*
X136793D01*
X136730Y53736D01*
X136352Y54650D01*
X135750Y55435D01*
X134965Y56037D01*
X134051Y56415D01*
X133571Y56478D01*
D02*
G37*
G36*
X132571D02*
X132090Y56415D01*
X131177Y56037D01*
X130392Y55435D01*
X129790Y54650D01*
X129412Y53736D01*
X129348Y53256D01*
X132571D01*
Y56478D01*
D02*
G37*
G36*
X199622Y57496D02*
X191717D01*
Y49591D01*
X199622D01*
Y57496D01*
D02*
G37*
G36*
X205512Y57530D02*
X204480Y57394D01*
X203518Y56996D01*
X202693Y56362D01*
X202059Y55537D01*
X201661Y54575D01*
X201525Y53543D01*
X201661Y52511D01*
X202059Y51550D01*
X202693Y50724D01*
X203518Y50091D01*
X204480Y49692D01*
X205512Y49556D01*
X206544Y49692D01*
X207505Y50091D01*
X208331Y50724D01*
X208964Y51550D01*
X209363Y52511D01*
X209499Y53543D01*
X209363Y54575D01*
X208964Y55537D01*
X208331Y56362D01*
X207505Y56996D01*
X206544Y57394D01*
X205512Y57530D01*
D02*
G37*
G36*
X136793Y52256D02*
X133571D01*
Y49033D01*
X134051Y49097D01*
X134965Y49475D01*
X135750Y50077D01*
X136352Y50862D01*
X136730Y51775D01*
X136793Y52256D01*
D02*
G37*
G36*
X132571D02*
X129348D01*
X129412Y51775D01*
X129790Y50862D01*
X130392Y50077D01*
X131177Y49475D01*
X132090Y49097D01*
X132571Y49033D01*
Y52256D01*
D02*
G37*
G36*
X142913Y56544D02*
X141933Y56415D01*
X141019Y56037D01*
X140235Y55435D01*
X139633Y54650D01*
X139254Y53736D01*
X139125Y52756D01*
X139254Y51775D01*
X139633Y50862D01*
X140235Y50077D01*
X141019Y49475D01*
X141933Y49097D01*
X142913Y48968D01*
X143894Y49097D01*
X144808Y49475D01*
X145592Y50077D01*
X146194Y50862D01*
X146573Y51775D01*
X146702Y52756D01*
X146573Y53736D01*
X146194Y54650D01*
X145592Y55435D01*
X144808Y56037D01*
X143894Y56415D01*
X142913Y56544D01*
D02*
G37*
G36*
X294882Y53201D02*
X293307D01*
X292224Y53059D01*
X291214Y52640D01*
X290348Y51975D01*
X289682Y51108D01*
X289264Y50099D01*
X289122Y49016D01*
X289264Y47932D01*
X289682Y46923D01*
X290348Y46056D01*
X291214Y45391D01*
X292224Y44973D01*
X293307Y44830D01*
X294882D01*
X295965Y44973D01*
X296975Y45391D01*
X297841Y46056D01*
X298507Y46923D01*
X298925Y47932D01*
X299067Y49016D01*
X298925Y50099D01*
X298507Y51108D01*
X297841Y51975D01*
X296975Y52640D01*
X295965Y53059D01*
X294882Y53201D01*
D02*
G37*
G36*
X49894Y43519D02*
X46441D01*
Y40066D01*
X49894D01*
Y43519D01*
D02*
G37*
G36*
Y39066D02*
X46441D01*
Y35613D01*
X49894D01*
Y39066D01*
D02*
G37*
G36*
X127847Y34014D02*
X127495Y33944D01*
X126774Y33462D01*
X126292Y32741D01*
X126222Y32390D01*
X127847D01*
Y34014D01*
D02*
G37*
%LPD*%
D16*
X264769Y112598D02*
D03*
Y107480D02*
D03*
Y253508D02*
D03*
Y258626D02*
D03*
X234454Y107480D02*
D03*
Y112598D02*
D03*
Y203150D02*
D03*
Y208268D02*
D03*
X264769Y203346D02*
D03*
Y208465D02*
D03*
X218618Y238173D02*
D03*
Y233055D02*
D03*
X234454Y253508D02*
D03*
Y258626D02*
D03*
X264567Y155118D02*
D03*
Y160236D02*
D03*
X234252Y155118D02*
D03*
Y160236D02*
D03*
X211024Y171850D02*
D03*
Y166732D02*
D03*
Y155709D02*
D03*
Y150591D02*
D03*
D17*
X253432Y256067D02*
D03*
X246265Y252327D02*
D03*
X253432Y110039D02*
D03*
X246265Y106299D02*
D03*
Y201969D02*
D03*
X253432Y205709D02*
D03*
X246063Y153937D02*
D03*
X253230Y157677D02*
D03*
D18*
X246265Y259807D02*
D03*
Y113779D02*
D03*
Y209449D02*
D03*
X246063Y161417D02*
D03*
D19*
X148402Y303776D02*
D03*
X129402D02*
D03*
X109902D02*
D03*
D20*
X142496D02*
D03*
X123496D02*
D03*
X103996D02*
D03*
D21*
X217913Y78740D02*
D03*
X212795D02*
D03*
X202559D02*
D03*
X197441D02*
D03*
X142496Y292752D02*
D03*
X147614D02*
D03*
X123496D02*
D03*
X128614D02*
D03*
X103996D02*
D03*
X109114D02*
D03*
D22*
X218779Y217717D02*
D03*
X208780D02*
D03*
Y185433D02*
D03*
X218779D02*
D03*
D23*
X260236Y69646D02*
D03*
D24*
X231890Y60630D02*
D03*
Y78661D02*
D03*
D25*
X38583Y315945D02*
D03*
Y294291D02*
D03*
X58268D02*
D03*
Y315945D02*
D03*
X48425D02*
D03*
Y294291D02*
D03*
D26*
X81890Y317697D02*
D03*
D27*
Y281516D02*
D03*
D28*
X257480Y16142D02*
D03*
X253543D02*
D03*
X249606D02*
D03*
D38*
X276772Y99055D02*
D03*
Y196299D02*
D03*
Y147480D02*
D03*
Y245118D02*
D03*
D39*
Y109055D02*
D03*
Y119055D02*
D03*
Y206299D02*
D03*
Y216299D02*
D03*
Y157480D02*
D03*
Y167480D02*
D03*
Y255118D02*
D03*
Y265118D02*
D03*
D40*
X294488Y98819D02*
D03*
Y147638D02*
D03*
Y196457D02*
D03*
Y245276D02*
D03*
D41*
Y108661D02*
D03*
Y118504D02*
D03*
Y167323D02*
D03*
Y157480D02*
D03*
Y216142D02*
D03*
Y206299D02*
D03*
Y264961D02*
D03*
Y255118D02*
D03*
X142913Y52756D02*
D03*
X133071D02*
D03*
D50*
X123228D02*
D03*
D55*
X213385Y16872D02*
G03*
X210394Y18110I-2992J-2995D01*
G01*
X253543Y62953D02*
X260236Y69646D01*
X213385Y16872D02*
X213392Y16865D01*
X294213Y118780D02*
X294488Y118504D01*
X276772Y119055D02*
X277047Y118780D01*
X277008Y98819D02*
X294488D01*
X276772Y99055D02*
X277008Y98819D01*
X276155Y98438D02*
X276772Y99055D01*
X269192Y98438D02*
X276155D01*
X264769Y102861D02*
X269192Y98438D01*
X264769Y102861D02*
Y107480D01*
X253432Y110039D02*
X255295D01*
X257854Y107480D01*
X264769D01*
X257854Y253508D02*
X264769D01*
X253432Y256067D02*
X255295D01*
X257854Y253508D01*
X187957D02*
X234454D01*
X185827Y251378D02*
X187957Y253508D01*
X200039Y241378D02*
X204724Y246063D01*
X222835D02*
X227953Y240945D01*
X204724Y246063D02*
X222835D01*
X227953Y205118D02*
Y240945D01*
X160630Y176378D02*
X175591Y161417D01*
X160630Y280315D02*
X176357Y296042D01*
X160630Y176378D02*
Y280315D01*
X30315Y123622D02*
X38071Y131378D01*
X30315Y40945D02*
Y123622D01*
X38071Y131378D02*
X75590D01*
X264769Y208465D02*
X264966Y208268D01*
X86967Y317697D02*
X91732Y312931D01*
Y307854D02*
X95811Y303776D01*
X91732Y307854D02*
Y312931D01*
X86967Y317717D02*
X114961D01*
X81890Y317697D02*
X86967D01*
X95811Y303776D02*
X103996D01*
X87402Y225272D02*
Y266535D01*
X81890Y272047D02*
Y281516D01*
Y272047D02*
X87402Y266535D01*
X171653Y177165D02*
Y254331D01*
X180709Y263386D01*
X195276D01*
X270543Y312905D02*
X270630Y312992D01*
X234454Y107480D02*
X238986D01*
X240167Y106299D01*
X246265D01*
X214173Y107480D02*
X234454D01*
X200394Y121260D02*
X214173Y107480D01*
X266139Y201976D02*
Y202862D01*
X271816Y196299D02*
X276772D01*
X266139Y201976D02*
X271816Y196299D01*
X276772D02*
X294331D01*
X265655Y203346D02*
X266139Y202862D01*
X257657Y203346D02*
X265655D01*
X176357Y296042D02*
X196871D01*
X202441Y290473D01*
Y285039D02*
Y290473D01*
Y270551D02*
Y275039D01*
X195276Y263386D02*
X202441Y270551D01*
X260787Y312992D02*
X260787Y312992D01*
X276614Y147638D02*
X276772Y147480D01*
X267717Y147638D02*
X276614D01*
X264567Y150787D02*
Y155118D01*
Y150787D02*
X267717Y147638D01*
X253230Y157677D02*
X255093D01*
X257652Y155118D01*
X264567D01*
X234252D02*
X238784D01*
X239965Y153937D01*
X246063D01*
X225729Y155118D02*
X234252D01*
X253432Y205709D02*
X255295D01*
X257657Y203346D01*
X240531Y201969D02*
X246265D01*
X239350Y203150D02*
X240531Y201969D01*
X234454Y203150D02*
X239350D01*
X229921D02*
X234454D01*
X227953Y205118D02*
X229921Y203150D01*
X276535Y244882D02*
X276772Y245118D01*
X268110Y244882D02*
X276535D01*
X264769Y248223D02*
Y253508D01*
Y248223D02*
X268110Y244882D01*
X240167Y252327D02*
X246265D01*
X238986Y253508D02*
X240167Y252327D01*
X234454Y253508D02*
X238986D01*
X294331Y196299D02*
X294488Y196457D01*
X276772Y245118D02*
X294331D01*
X294488Y245276D01*
X276772Y147480D02*
X294331D01*
X294488Y147638D01*
X58140Y33337D02*
Y39566D01*
X61024Y49606D02*
X66142Y44488D01*
Y40747D02*
Y44488D01*
X81692Y39566D02*
X135433Y93307D01*
X74016Y39566D02*
X81692D01*
X95185Y66338D02*
X125768Y96921D01*
X74016Y66338D02*
X95185D01*
X41339Y74016D02*
X50394Y83071D01*
Y107087D02*
X64685Y121378D01*
X50394Y83071D02*
Y107087D01*
X64685Y121378D02*
X75590D01*
X41339Y53150D02*
Y74016D01*
X61811Y23228D02*
X66142Y18897D01*
Y12794D02*
Y18897D01*
X35433Y23228D02*
X61811D01*
X100469Y39248D02*
Y45981D01*
X74016Y12794D02*
X100469Y39248D01*
X53150Y28346D02*
X58140Y33337D01*
X30315Y40945D02*
X42913Y28346D01*
X53150D01*
X23622Y35039D02*
Y126772D01*
Y35039D02*
X35433Y23228D01*
X53937Y5512D02*
X125591D01*
X50394Y12794D02*
X50521Y12667D01*
Y8928D02*
Y12667D01*
Y8928D02*
X53937Y5512D01*
X125591D02*
X133071Y12992D01*
X58268Y66338D02*
Y102756D01*
X66142Y66338D02*
Y91929D01*
X75590Y101378D01*
X58268Y102756D02*
X66929Y111417D01*
X123496Y303776D02*
Y309181D01*
X114961Y317717D02*
X123496Y309181D01*
X135433Y100984D02*
X135827Y101378D01*
X135433Y93307D02*
Y100984D01*
X100469Y45981D02*
X145827Y91339D01*
Y101378D01*
X75492Y151476D02*
X75590Y151378D01*
X52067Y151476D02*
X75492D01*
X51968Y151575D02*
X52067Y151476D01*
X66142Y141339D02*
X75551D01*
X61811Y137008D02*
X66142Y141339D01*
X75551D02*
X75590Y141378D01*
X33858Y137008D02*
X61811D01*
X23622Y126772D02*
X33858Y137008D01*
X52756Y171653D02*
X75315D01*
X75590Y171378D01*
X58268Y315945D02*
X59252Y314961D01*
X218618Y217878D02*
Y233055D01*
Y217878D02*
X218779Y217717D01*
X200394Y121260D02*
Y143701D01*
X185827Y151378D02*
X192717D01*
X200394Y143701D01*
X185827Y191378D02*
X185866Y191339D01*
X192126D01*
X208780Y207992D02*
Y217717D01*
X192126Y191339D02*
X208780Y207992D01*
X231496Y61024D02*
X231890Y60630D01*
X185827Y241378D02*
X200039D01*
X112958Y18504D02*
Y42485D01*
X123228Y52756D01*
X205315Y155709D02*
X211024D01*
X185827Y161378D02*
X199646D01*
X205315Y155709D01*
X185827Y171378D02*
X186063Y171614D01*
X210787D01*
X211024Y171850D01*
X21260Y210630D02*
X24409Y207480D01*
X40354Y161024D02*
X40532Y161201D01*
X48425Y312123D02*
X48704Y312402D01*
X109114Y292752D02*
Y297776D01*
X109902Y298563D01*
X125768Y101319D02*
X125827Y101378D01*
X128614Y292752D02*
Y297776D01*
X129402Y298563D01*
X132958Y18504D02*
X133071Y18391D01*
Y12992D02*
Y18391D01*
X185787Y161417D02*
X185827Y161378D01*
X22047Y262205D02*
X25197Y259055D01*
X109902Y298563D02*
Y303776D01*
X125768Y96921D02*
Y101319D01*
X129402Y298563D02*
Y303776D01*
X132958Y18504D02*
Y27278D01*
X152958Y18504D02*
Y28155D01*
X24409Y187402D02*
Y207480D01*
X25197Y239370D02*
Y259055D01*
X55118Y213386D02*
Y229528D01*
X64173Y216535D02*
Y252756D01*
X24409Y187402D02*
X30315Y181496D01*
X13780Y210630D02*
X21260D01*
X13780Y262205D02*
X22047D01*
X44882Y49606D02*
X61024D01*
X40354Y210630D02*
X46457D01*
X40354Y262205D02*
X54724D01*
X75551Y111417D02*
X75590Y111378D01*
X66929Y111417D02*
X75551D01*
X75413Y161201D02*
X75590Y161378D01*
X75472Y181496D02*
X75590Y181378D01*
X75551Y191339D02*
X75590Y191378D01*
X65748Y191339D02*
X75551D01*
X67126Y201378D02*
X76376D01*
X69331Y211378D02*
X75590D01*
X75866Y221654D02*
X83784D01*
X75590Y221378D02*
X75866Y221654D01*
X83784D02*
X87402Y225272D01*
X147614Y292752D02*
Y297776D01*
X148402Y298563D01*
X175591Y161417D02*
X185787D01*
X177441Y171378D02*
X185827D01*
X25197Y239370D02*
X28740Y235827D01*
X41339Y53150D02*
X44882Y49606D01*
X48819Y235827D02*
X55118Y229528D01*
X148402Y298563D02*
Y303776D01*
X171653Y177165D02*
X177441Y171378D01*
X152958Y28155D02*
X157874Y33071D01*
X55118Y213386D02*
X67126Y201378D01*
X64173Y216535D02*
X69331Y211378D01*
X128347Y31890D02*
X132958Y27278D01*
X54724Y262205D02*
X64173Y252756D01*
X40532Y161201D02*
X75413D01*
X30315Y181496D02*
X75472D01*
X28740Y235827D02*
X48819D01*
X46457Y210630D02*
X65748Y191339D01*
D56*
X253543Y16142D02*
Y62953D01*
X264769Y112598D02*
Y115163D01*
X268661Y119055D02*
X276772D01*
X264769Y115163D02*
X268661Y119055D01*
X277047Y118780D02*
X294213D01*
X294488Y118504D02*
X304331Y128347D01*
X264769Y112598D02*
X264961D01*
X276772Y157480D02*
X294488D01*
X272047D02*
X276772D01*
X58546Y294291D02*
Y312402D01*
X75590Y251378D02*
Y260236D01*
X58546Y277280D02*
Y294291D01*
Y277280D02*
X75590Y260236D01*
X264769Y208465D02*
X269488D01*
X271654Y206299D01*
X264567Y160236D02*
X269291D01*
X272047Y157480D01*
X167717Y261811D02*
Y277559D01*
X175197Y285039D01*
X182441D01*
X223622Y261811D02*
X242913Y281102D01*
X211024Y261811D02*
X223622D01*
X242913Y281102D02*
X263386D01*
X294488Y157480D02*
X298819D01*
X271654Y206299D02*
X276772D01*
X272646Y255118D02*
X276772D01*
X264769Y258626D02*
X269138D01*
X272646Y255118D01*
X298819Y157480D02*
X304331Y162992D01*
Y128347D02*
Y162992D01*
Y211417D01*
X299213Y206299D02*
X304331Y211417D01*
X294488Y206299D02*
X299213D01*
X276772Y206299D02*
X294488D01*
X59252Y314961D02*
X68504D01*
X304331Y211417D02*
Y251575D01*
X294488Y255118D02*
X300787D01*
X304331Y251575D01*
X276772Y255118D02*
X294488D01*
X48425Y294291D02*
Y312123D01*
Y285433D02*
Y294291D01*
X123496Y277291D02*
Y292752D01*
Y277291D02*
X125591Y275197D01*
D57*
X213392Y16865D02*
X214116Y16142D01*
X248425D01*
X203543Y82677D02*
X216929Y96063D01*
X231890Y78661D02*
Y93757D01*
X216929Y96063D02*
X229584D01*
X231890Y93757D01*
X279134Y30709D02*
Y51968D01*
X286024Y58858D02*
X294094D01*
X279134Y51968D02*
X286024Y58858D01*
X203543Y78740D02*
Y82677D01*
X197441Y87992D02*
X206299Y96850D01*
X201181Y68110D02*
X213683D01*
X220770Y61024D01*
X197441Y71850D02*
X201181Y68110D01*
X197441Y78740D02*
Y87992D01*
Y71850D02*
Y78740D01*
X220770Y61024D02*
X231496D01*
X203543Y78740D02*
X211811D01*
X258661Y16142D02*
X264567D01*
X279134Y30709D01*
X228740Y291339D02*
X279134D01*
X222441Y285039D02*
X228740Y291339D01*
X237008Y312992D02*
X260787D01*
X148317D02*
X237008D01*
X142496Y307171D02*
X148317Y312992D01*
X142496Y303776D02*
Y307171D01*
D58*
X231496Y137402D02*
X247638D01*
X217913Y82874D02*
X221654Y86614D01*
X217913Y78740D02*
Y82874D01*
X162205Y303543D02*
X266535D01*
X270332Y312694D02*
X270543Y312905D01*
X270332Y307340D02*
Y312694D01*
X266535Y303543D02*
X270332Y307340D01*
X155118Y296457D02*
X162205Y303543D01*
X208780Y178501D02*
X210509Y176772D01*
X208780Y178501D02*
Y185433D01*
X210509Y176772D02*
X217955D01*
X219685Y149213D02*
Y175042D01*
X217955Y176772D02*
X219685Y175042D01*
Y149213D02*
X231496Y137402D01*
X218779Y185433D02*
X234646D01*
X142496Y286244D02*
X144488Y284252D01*
X152756D02*
X155118Y286614D01*
X142496Y286244D02*
Y292752D01*
X155118Y286614D02*
Y296457D01*
X144488Y284252D02*
X152756D01*
D59*
X270630Y312992D02*
D03*
X195669Y53543D02*
D03*
X13780Y116142D02*
D03*
X13780Y270079D02*
D03*
X13780Y218504D02*
D03*
X40354Y116142D02*
D03*
X40354Y270079D02*
D03*
X40354Y218504D02*
D03*
X13780Y168898D02*
D03*
X40354D02*
D03*
D60*
X260787Y312992D02*
D03*
X66142Y66338D02*
D03*
X58268D02*
D03*
X74016D02*
D03*
X205512Y53543D02*
D03*
X66142Y12794D02*
D03*
X58268D02*
D03*
X74016D02*
D03*
X13780Y100394D02*
D03*
Y108268D02*
D03*
Y92520D02*
D03*
X13780Y254331D02*
D03*
Y262205D02*
D03*
Y246457D02*
D03*
X13780Y202756D02*
D03*
Y210630D02*
D03*
Y194882D02*
D03*
X40354Y92520D02*
D03*
Y108268D02*
D03*
Y100394D02*
D03*
X40354Y246457D02*
D03*
Y262205D02*
D03*
Y254331D02*
D03*
X40354Y202756D02*
D03*
Y210630D02*
D03*
Y194882D02*
D03*
X66142Y39566D02*
D03*
X58268D02*
D03*
X74016D02*
D03*
X13780Y153150D02*
D03*
Y161024D02*
D03*
Y145276D02*
D03*
X40354Y153150D02*
D03*
Y161024D02*
D03*
Y145276D02*
D03*
D61*
X222441Y275039D02*
D03*
X212441D02*
D03*
X222441Y285039D02*
D03*
X212441D02*
D03*
X202441Y275039D02*
D03*
Y285039D02*
D03*
X192441D02*
D03*
Y275039D02*
D03*
X182441Y285039D02*
D03*
D62*
Y275039D02*
D03*
D63*
X50394Y66338D02*
D03*
Y12794D02*
D03*
Y39566D02*
D03*
D64*
X112958Y18504D02*
D03*
X132958D02*
D03*
X152958D02*
D03*
X210394Y18110D02*
D03*
X190394D02*
D03*
D65*
X294094Y58858D02*
D03*
D66*
Y49016D02*
D03*
D67*
X185827Y251378D02*
D03*
D68*
Y241378D02*
D03*
Y231378D02*
D03*
Y221378D02*
D03*
Y211378D02*
D03*
Y201378D02*
D03*
Y191378D02*
D03*
Y181378D02*
D03*
Y171378D02*
D03*
Y161378D02*
D03*
Y151378D02*
D03*
Y141378D02*
D03*
Y131378D02*
D03*
Y121378D02*
D03*
Y111378D02*
D03*
Y101378D02*
D03*
X75590Y181378D02*
D03*
Y121378D02*
D03*
Y251378D02*
D03*
Y221378D02*
D03*
Y241378D02*
D03*
Y201378D02*
D03*
Y211378D02*
D03*
Y161378D02*
D03*
Y171378D02*
D03*
Y141378D02*
D03*
Y101378D02*
D03*
Y231378D02*
D03*
Y191378D02*
D03*
Y151378D02*
D03*
Y111378D02*
D03*
X165827Y101378D02*
D03*
X105827D02*
D03*
X145827D02*
D03*
X155827D02*
D03*
X115827D02*
D03*
X125827D02*
D03*
X85827D02*
D03*
X175827D02*
D03*
X135827D02*
D03*
X95827D02*
D03*
X165827Y111378D02*
D03*
X105827D02*
D03*
X145827D02*
D03*
X155827D02*
D03*
X115827D02*
D03*
X125827D02*
D03*
X85827D02*
D03*
X175827D02*
D03*
X135827D02*
D03*
X95827D02*
D03*
X85827Y121378D02*
D03*
X95827D02*
D03*
X75590Y131378D02*
D03*
X95827D02*
D03*
X85827D02*
D03*
D69*
X107087Y121378D02*
D03*
X114961D02*
D03*
D70*
X11811Y11811D02*
D03*
X298425D02*
D03*
X11811Y318898D02*
D03*
X298425D02*
D03*
D71*
X247638Y137402D02*
D03*
X221654Y86614D02*
D03*
X206299Y96850D02*
D03*
X167717Y261811D02*
D03*
X211024D02*
D03*
X155118Y296457D02*
D03*
X279134Y291339D02*
D03*
X237008Y312992D02*
D03*
X225729Y155118D02*
D03*
X263386Y281102D02*
D03*
X51968Y151575D02*
D03*
X52756Y171653D02*
D03*
X68504Y314961D02*
D03*
X95811Y303776D02*
D03*
X48425Y285433D02*
D03*
X128347Y31890D02*
D03*
X157874Y33071D02*
D03*
X234646Y185433D02*
D03*
X125591Y275197D02*
D03*
M02*
