G04*
G04 #@! TF.GenerationSoftware,Altium Limited,Altium Designer,20.1.8 (145)*
G04*
G04 Layer_Color=8421504*
%FSLAX25Y25*%
%MOIN*%
G70*
G04*
G04 #@! TF.SameCoordinates,486A09B6-12F7-45F8-8DA0-EDAC55BB016E*
G04*
G04*
G04 #@! TF.FilePolarity,Positive*
G04*
G01*
G75*
%ADD16R,0.03740X0.01968*%
G04:AMPARAMS|DCode=17|XSize=60.01mil|YSize=22.75mil|CornerRadius=11.38mil|HoleSize=0mil|Usage=FLASHONLY|Rotation=0.000|XOffset=0mil|YOffset=0mil|HoleType=Round|Shape=RoundedRectangle|*
%AMROUNDEDRECTD17*
21,1,0.06001,0.00000,0,0,0.0*
21,1,0.03725,0.02275,0,0,0.0*
1,1,0.02275,0.01863,0.00000*
1,1,0.02275,-0.01863,0.00000*
1,1,0.02275,-0.01863,0.00000*
1,1,0.02275,0.01863,0.00000*
%
%ADD17ROUNDEDRECTD17*%
%ADD18R,0.06001X0.02275*%
%ADD19R,0.03150X0.03150*%
G04:AMPARAMS|DCode=20|XSize=31.5mil|YSize=31.5mil|CornerRadius=7.87mil|HoleSize=0mil|Usage=FLASHONLY|Rotation=0.000|XOffset=0mil|YOffset=0mil|HoleType=Round|Shape=RoundedRectangle|*
%AMROUNDEDRECTD20*
21,1,0.03150,0.01575,0,0,0.0*
21,1,0.01575,0.03150,0,0,0.0*
1,1,0.01575,0.00787,-0.00787*
1,1,0.01575,-0.00787,-0.00787*
1,1,0.01575,-0.00787,0.00787*
1,1,0.01575,0.00787,0.00787*
%
%ADD20ROUNDEDRECTD20*%
%ADD21R,0.01968X0.03740*%
%ADD22R,0.06693X0.08661*%
%ADD23R,0.24410X0.22835*%
%ADD24R,0.11811X0.06299*%
%ADD25R,0.04724X0.09843*%
%ADD26R,0.06299X0.08583*%
%ADD27R,0.06299X0.08661*%
%ADD28R,0.01968X0.03937*%
D16*
X264769Y112598D02*
D03*
Y107480D02*
D03*
Y253508D02*
D03*
Y258626D02*
D03*
X234454Y107480D02*
D03*
Y112598D02*
D03*
Y203150D02*
D03*
Y208268D02*
D03*
X264769Y203346D02*
D03*
Y208465D02*
D03*
X218618Y238173D02*
D03*
Y233055D02*
D03*
X234454Y253508D02*
D03*
Y258626D02*
D03*
X264567Y155118D02*
D03*
Y160236D02*
D03*
X234252Y155118D02*
D03*
Y160236D02*
D03*
X211024Y171850D02*
D03*
Y166732D02*
D03*
Y155709D02*
D03*
Y150591D02*
D03*
D17*
X253432Y256067D02*
D03*
X246265Y252327D02*
D03*
X253432Y110039D02*
D03*
X246265Y106299D02*
D03*
Y201969D02*
D03*
X253432Y205709D02*
D03*
X246063Y153937D02*
D03*
X253230Y157677D02*
D03*
D18*
X246265Y259807D02*
D03*
Y113779D02*
D03*
Y209449D02*
D03*
X246063Y161417D02*
D03*
D19*
X148402Y303776D02*
D03*
X129402D02*
D03*
X109902D02*
D03*
D20*
X142496D02*
D03*
X123496D02*
D03*
X103996D02*
D03*
D21*
X217913Y78740D02*
D03*
X212795D02*
D03*
X202559D02*
D03*
X197441D02*
D03*
X142496Y292752D02*
D03*
X147614D02*
D03*
X123496D02*
D03*
X128614D02*
D03*
X103996D02*
D03*
X109114D02*
D03*
D22*
X218779Y217717D02*
D03*
X208780D02*
D03*
Y185433D02*
D03*
X218779D02*
D03*
D23*
X260236Y69646D02*
D03*
D24*
X231890Y60630D02*
D03*
Y78661D02*
D03*
D25*
X38583Y315945D02*
D03*
Y294291D02*
D03*
X58268D02*
D03*
Y315945D02*
D03*
X48425D02*
D03*
Y294291D02*
D03*
D26*
X81890Y317697D02*
D03*
D27*
Y281516D02*
D03*
D28*
X257480Y16142D02*
D03*
X253543D02*
D03*
X249606D02*
D03*
M02*
