G04*
G04 #@! TF.GenerationSoftware,Altium Limited,Altium Designer,20.1.8 (145)*
G04*
G04 Layer_Color=65535*
%FSLAX25Y25*%
%MOIN*%
G70*
G04*
G04 #@! TF.SameCoordinates,486A09B6-12F7-45F8-8DA0-EDAC55BB016E*
G04*
G04*
G04 #@! TF.FilePolarity,Positive*
G04*
G01*
G75*
%ADD10C,0.00984*%
%ADD11C,0.00787*%
%ADD12C,0.00394*%
%ADD13C,0.01181*%
%ADD14C,0.00600*%
%ADD15R,0.01181X0.07480*%
G36*
X109683Y191593D02*
X110713D01*
Y191490D01*
X111332D01*
Y191387D01*
X111847D01*
Y191284D01*
X112362D01*
Y191181D01*
X112775D01*
Y191078D01*
X113084D01*
Y190975D01*
X113496D01*
Y190872D01*
X113805D01*
Y190769D01*
X114114D01*
Y190666D01*
X114424D01*
Y190562D01*
X114733D01*
Y190460D01*
X114939D01*
Y190356D01*
X115248D01*
Y190253D01*
X115454D01*
Y190150D01*
X115764D01*
Y190047D01*
X115970D01*
Y189944D01*
X116176D01*
Y189841D01*
X116382D01*
Y189738D01*
X116588D01*
Y189635D01*
X116794D01*
Y189532D01*
X117000D01*
Y189429D01*
X117207D01*
Y189326D01*
X117413D01*
Y189223D01*
X117619D01*
Y189120D01*
X117825D01*
Y189016D01*
X118031D01*
Y188913D01*
X118237D01*
Y188810D01*
X118443D01*
Y188707D01*
X118546D01*
Y188604D01*
X118753D01*
Y188501D01*
X118959D01*
Y188398D01*
X119062D01*
Y188295D01*
X119268D01*
Y188192D01*
X119474D01*
Y188089D01*
X119577D01*
Y187986D01*
X119680D01*
Y187883D01*
X119783D01*
Y187780D01*
X119886D01*
Y187677D01*
X119990D01*
Y187574D01*
X120092D01*
Y187470D01*
X120196D01*
Y187367D01*
Y187264D01*
X120299D01*
Y187161D01*
Y187058D01*
Y186955D01*
X120402D01*
Y186852D01*
Y186749D01*
Y186646D01*
Y186543D01*
X120505D01*
Y186440D01*
Y186337D01*
Y186234D01*
Y186131D01*
Y186028D01*
X120402D01*
Y185924D01*
Y185821D01*
Y185718D01*
Y185615D01*
X120299D01*
Y185512D01*
Y185409D01*
X120196D01*
Y185306D01*
Y185203D01*
X120092D01*
Y185100D01*
X119990D01*
Y184997D01*
Y184894D01*
X119886D01*
Y184791D01*
X119783D01*
Y184688D01*
X119577D01*
Y184584D01*
X119474D01*
Y184482D01*
X119268D01*
Y184378D01*
X118959D01*
Y184275D01*
X118443D01*
Y184172D01*
X118340D01*
Y184275D01*
X117722D01*
Y184378D01*
X117516D01*
Y184482D01*
X117310D01*
Y184584D01*
X117104D01*
Y184688D01*
X116897D01*
Y184791D01*
X116794D01*
Y184894D01*
X116588D01*
Y184997D01*
X116382D01*
Y185100D01*
X116279D01*
Y185203D01*
X116073D01*
Y185306D01*
X115867D01*
Y185409D01*
X115661D01*
Y185512D01*
X115454D01*
Y185615D01*
X115248D01*
Y185718D01*
X115042D01*
Y185821D01*
X114836D01*
Y185924D01*
X114630D01*
Y186028D01*
X114424D01*
Y186131D01*
X114218D01*
Y186234D01*
X114011D01*
Y186337D01*
X113702D01*
Y186440D01*
X113496D01*
Y186543D01*
X113187D01*
Y186646D01*
X112878D01*
Y186749D01*
X112568D01*
Y186852D01*
X112259D01*
Y186955D01*
X111950D01*
Y187058D01*
X111538D01*
Y187161D01*
X111022D01*
Y187264D01*
X110404D01*
Y187367D01*
X109579D01*
Y187470D01*
X107827D01*
Y187367D01*
X106900D01*
Y187264D01*
X106384D01*
Y187161D01*
X105972D01*
Y187058D01*
X105560D01*
Y186955D01*
X105251D01*
Y186852D01*
X105044D01*
Y186749D01*
X104735D01*
Y186646D01*
X104529D01*
Y186543D01*
X104220D01*
Y186440D01*
X104014D01*
Y186337D01*
X103808D01*
Y186234D01*
X103601D01*
Y186131D01*
X103498D01*
Y186028D01*
X103292D01*
Y185924D01*
X103086D01*
Y185821D01*
X102880D01*
Y185718D01*
X102777D01*
Y185615D01*
X102571D01*
Y185512D01*
X102468D01*
Y185409D01*
X102261D01*
Y185306D01*
X102158D01*
Y185203D01*
X102055D01*
Y185100D01*
X101849D01*
Y184997D01*
X101746D01*
Y184894D01*
X101643D01*
Y184791D01*
X101540D01*
Y184688D01*
X101334D01*
Y184584D01*
X101231D01*
Y184482D01*
X101128D01*
Y184378D01*
X101025D01*
Y184275D01*
X100922D01*
Y184172D01*
X100819D01*
Y184069D01*
X100715D01*
Y183966D01*
X100612D01*
Y183863D01*
X100509D01*
Y183760D01*
X100406D01*
Y183657D01*
X100303D01*
Y183554D01*
X100200D01*
Y183451D01*
Y183348D01*
X100097D01*
Y183245D01*
X99994D01*
Y183142D01*
X99891D01*
Y183038D01*
X99788D01*
Y182935D01*
Y182832D01*
X99685D01*
Y182729D01*
X99582D01*
Y182626D01*
X99479D01*
Y182523D01*
Y182420D01*
X99376D01*
Y182317D01*
X99273D01*
Y182214D01*
Y182111D01*
X99169D01*
Y182008D01*
X99066D01*
Y181905D01*
Y181802D01*
X98963D01*
Y181699D01*
Y181596D01*
X98860D01*
Y181492D01*
X98757D01*
Y181389D01*
Y181286D01*
X98654D01*
Y181183D01*
Y181080D01*
X98551D01*
Y180977D01*
Y180874D01*
X98448D01*
Y180771D01*
Y180668D01*
X98345D01*
Y180565D01*
Y180462D01*
Y180359D01*
X98242D01*
Y180256D01*
Y180152D01*
X98139D01*
Y180050D01*
Y179946D01*
Y179843D01*
X98036D01*
Y179740D01*
Y179637D01*
X97933D01*
Y179534D01*
Y179431D01*
Y179328D01*
X97830D01*
Y179225D01*
Y179122D01*
Y179019D01*
Y178916D01*
X97727D01*
Y178813D01*
Y178710D01*
Y178606D01*
Y178503D01*
X97623D01*
Y178400D01*
Y178297D01*
Y178194D01*
Y178091D01*
Y177988D01*
X97520D01*
Y177885D01*
Y177782D01*
Y177679D01*
Y177576D01*
Y177473D01*
Y177370D01*
X97417D01*
Y177267D01*
Y177164D01*
Y177060D01*
Y176957D01*
Y176854D01*
Y176751D01*
Y176648D01*
Y176545D01*
Y176442D01*
Y176339D01*
Y176236D01*
Y176133D01*
Y176030D01*
Y175927D01*
X97314D01*
Y175824D01*
Y175721D01*
Y175618D01*
X97417D01*
Y175514D01*
Y175411D01*
Y175308D01*
Y175205D01*
Y175102D01*
Y174999D01*
Y174896D01*
Y174793D01*
Y174690D01*
Y174587D01*
Y174484D01*
Y174381D01*
Y174278D01*
Y174174D01*
X97520D01*
Y174072D01*
Y173968D01*
Y173865D01*
Y173762D01*
Y173659D01*
Y173556D01*
Y173453D01*
X97623D01*
Y173350D01*
Y173247D01*
Y173144D01*
Y173041D01*
X97727D01*
Y172938D01*
Y172835D01*
Y172732D01*
Y172628D01*
X97830D01*
Y172525D01*
Y172422D01*
Y172319D01*
Y172216D01*
X97933D01*
Y172113D01*
Y172010D01*
Y171907D01*
X98036D01*
Y171804D01*
Y171701D01*
Y171598D01*
X98139D01*
Y171495D01*
Y171392D01*
X98242D01*
Y171289D01*
Y171186D01*
X98345D01*
Y171082D01*
Y170979D01*
Y170876D01*
X98448D01*
Y170773D01*
Y170670D01*
X98551D01*
Y170567D01*
Y170464D01*
X98654D01*
Y170361D01*
Y170258D01*
X98757D01*
Y170155D01*
Y170052D01*
X98860D01*
Y169949D01*
X98963D01*
Y169846D01*
Y169743D01*
X99066D01*
Y169640D01*
Y169536D01*
X99169D01*
Y169433D01*
X99273D01*
Y169330D01*
Y169227D01*
X99376D01*
Y169124D01*
X99479D01*
Y169021D01*
Y168918D01*
X99582D01*
Y168815D01*
X99685D01*
Y168712D01*
X99788D01*
Y168609D01*
Y168506D01*
X99891D01*
Y168403D01*
X99994D01*
Y168300D01*
X100097D01*
Y168196D01*
X100200D01*
Y168093D01*
X100303D01*
Y167990D01*
Y167887D01*
X100406D01*
Y167784D01*
X100509D01*
Y167681D01*
X100612D01*
Y167578D01*
X100715D01*
Y167475D01*
X100819D01*
Y167372D01*
X100922D01*
Y167269D01*
X101128D01*
Y167166D01*
X101231D01*
Y167063D01*
X101334D01*
Y166960D01*
X101437D01*
Y166857D01*
X101540D01*
Y166753D01*
X101643D01*
Y166650D01*
X101849D01*
Y166547D01*
X101952D01*
Y166444D01*
X102055D01*
Y166341D01*
X102261D01*
Y166238D01*
X102365D01*
Y166135D01*
X102571D01*
Y166032D01*
X102674D01*
Y165929D01*
X102880D01*
Y165826D01*
X103086D01*
Y165723D01*
X103292D01*
Y165620D01*
X103498D01*
Y165517D01*
X103705D01*
Y165414D01*
X103911D01*
Y165311D01*
X104117D01*
Y165208D01*
X104323D01*
Y165104D01*
X104632D01*
Y165001D01*
X104941D01*
Y164898D01*
X105251D01*
Y164795D01*
X105560D01*
Y164692D01*
X105972D01*
Y164589D01*
X106487D01*
Y164486D01*
X107209D01*
Y164383D01*
X108549D01*
Y164280D01*
X109373D01*
Y164383D01*
X110713D01*
Y164486D01*
X111435D01*
Y164589D01*
X111950D01*
Y164692D01*
X112362D01*
Y164795D01*
X112775D01*
Y164898D01*
X113187D01*
Y165001D01*
X113496D01*
Y165104D01*
X113805D01*
Y165208D01*
X114011D01*
Y165311D01*
X114321D01*
Y165414D01*
X114527D01*
Y165517D01*
X114836D01*
Y165620D01*
X115042D01*
Y165723D01*
X115248D01*
Y165826D01*
X115454D01*
Y165929D01*
Y166032D01*
Y166135D01*
Y166238D01*
Y166341D01*
Y166444D01*
Y166547D01*
Y166650D01*
Y166753D01*
Y166857D01*
Y166960D01*
Y167063D01*
Y167166D01*
Y167269D01*
Y167372D01*
Y167475D01*
Y167578D01*
Y167681D01*
Y167784D01*
Y167887D01*
Y167990D01*
Y168093D01*
Y168196D01*
Y168300D01*
Y168403D01*
Y168506D01*
Y168609D01*
Y168712D01*
Y168815D01*
Y168918D01*
Y169021D01*
Y169124D01*
Y169227D01*
Y169330D01*
Y169433D01*
Y169536D01*
Y169640D01*
Y169743D01*
Y169846D01*
Y169949D01*
Y170052D01*
Y170155D01*
Y170258D01*
Y170361D01*
Y170464D01*
Y170567D01*
Y170670D01*
Y170773D01*
Y170876D01*
Y170979D01*
Y171082D01*
Y171186D01*
Y171289D01*
Y171392D01*
Y171495D01*
Y171598D01*
Y171701D01*
Y171804D01*
Y171907D01*
Y172010D01*
Y172113D01*
Y172216D01*
Y172319D01*
Y172422D01*
X115351D01*
Y172525D01*
X109373D01*
Y172628D01*
X109167D01*
Y172732D01*
X108961D01*
Y172835D01*
X108755D01*
Y172938D01*
X108652D01*
Y173041D01*
X108549D01*
Y173144D01*
X108446D01*
Y173247D01*
X108343D01*
Y173350D01*
X108239D01*
Y173453D01*
X108136D01*
Y173556D01*
Y173659D01*
X108033D01*
Y173762D01*
Y173865D01*
X107930D01*
Y173968D01*
Y174072D01*
Y174174D01*
Y174278D01*
X107827D01*
Y174381D01*
Y174484D01*
Y174587D01*
Y174690D01*
Y174793D01*
Y174896D01*
X107930D01*
Y174999D01*
Y175102D01*
Y175205D01*
Y175308D01*
X108033D01*
Y175411D01*
Y175514D01*
X108136D01*
Y175618D01*
Y175721D01*
X108239D01*
Y175824D01*
Y175927D01*
X108343D01*
Y176030D01*
X108446D01*
Y176133D01*
X108549D01*
Y176236D01*
X108755D01*
Y176339D01*
X108858D01*
Y176442D01*
X109064D01*
Y176545D01*
X109270D01*
Y176648D01*
X109786D01*
Y176751D01*
X117722D01*
Y176648D01*
X118134D01*
Y176545D01*
X118443D01*
Y176442D01*
X118649D01*
Y176339D01*
X118753D01*
Y176236D01*
X118856D01*
Y176133D01*
X119062D01*
Y176030D01*
Y175927D01*
X119165D01*
Y175824D01*
X119268D01*
Y175721D01*
X119371D01*
Y175618D01*
Y175514D01*
X119474D01*
Y175411D01*
Y175308D01*
Y175205D01*
X119577D01*
Y175102D01*
Y174999D01*
Y174896D01*
Y174793D01*
Y174690D01*
X119680D01*
Y174587D01*
Y174484D01*
Y174381D01*
Y174278D01*
Y174174D01*
Y174072D01*
Y173968D01*
Y173865D01*
Y173762D01*
Y173659D01*
Y173556D01*
Y173453D01*
Y173350D01*
Y173247D01*
Y173144D01*
Y173041D01*
Y172938D01*
Y172835D01*
Y172732D01*
Y172628D01*
Y172525D01*
Y172422D01*
Y172319D01*
Y172216D01*
Y172113D01*
Y172010D01*
Y171907D01*
Y171804D01*
Y171701D01*
Y171598D01*
Y171495D01*
Y171392D01*
Y171289D01*
Y171186D01*
Y171082D01*
Y170979D01*
Y170876D01*
Y170773D01*
Y170670D01*
Y170567D01*
Y170464D01*
Y170361D01*
Y170258D01*
Y170155D01*
Y170052D01*
Y169949D01*
Y169846D01*
Y169743D01*
Y169640D01*
Y169536D01*
Y169433D01*
Y169330D01*
Y169227D01*
Y169124D01*
Y169021D01*
Y168918D01*
Y168815D01*
Y168712D01*
Y168609D01*
Y168506D01*
Y168403D01*
Y168300D01*
Y168196D01*
Y168093D01*
Y167990D01*
Y167887D01*
Y167784D01*
Y167681D01*
Y167578D01*
Y167475D01*
Y167372D01*
Y167269D01*
Y167166D01*
Y167063D01*
Y166960D01*
Y166857D01*
Y166753D01*
Y166650D01*
Y166547D01*
Y166444D01*
Y166341D01*
Y166238D01*
Y166135D01*
Y166032D01*
Y165929D01*
Y165826D01*
Y165723D01*
Y165620D01*
Y165517D01*
Y165414D01*
Y165311D01*
Y165208D01*
Y165104D01*
Y165001D01*
Y164898D01*
Y164795D01*
Y164692D01*
Y164589D01*
Y164486D01*
X119577D01*
Y164383D01*
Y164280D01*
Y164177D01*
Y164074D01*
Y163971D01*
X119474D01*
Y163868D01*
Y163765D01*
Y163662D01*
X119371D01*
Y163558D01*
Y163455D01*
X119268D01*
Y163352D01*
X119165D01*
Y163249D01*
Y163146D01*
X119062D01*
Y163043D01*
X118959D01*
Y162940D01*
X118753D01*
Y162837D01*
X118649D01*
Y162734D01*
X118443D01*
Y162631D01*
X118237D01*
Y162528D01*
X118031D01*
Y162425D01*
X117825D01*
Y162322D01*
X117619D01*
Y162218D01*
X117413D01*
Y162115D01*
X117207D01*
Y162012D01*
X117000D01*
Y161909D01*
X116794D01*
Y161806D01*
X116588D01*
Y161703D01*
X116279D01*
Y161600D01*
X116073D01*
Y161497D01*
X115764D01*
Y161394D01*
X115558D01*
Y161291D01*
X115248D01*
Y161188D01*
X114939D01*
Y161085D01*
X114630D01*
Y160982D01*
X114321D01*
Y160879D01*
X114011D01*
Y160775D01*
X113599D01*
Y160672D01*
X113187D01*
Y160569D01*
X112775D01*
Y160466D01*
X112259D01*
Y160363D01*
X111641D01*
Y160260D01*
X110816D01*
Y160157D01*
X107106D01*
Y160260D01*
X106281D01*
Y160363D01*
X105663D01*
Y160466D01*
X105251D01*
Y160569D01*
X104735D01*
Y160672D01*
X104426D01*
Y160775D01*
X104014D01*
Y160879D01*
X103705D01*
Y160982D01*
X103395D01*
Y161085D01*
X103086D01*
Y161188D01*
X102880D01*
Y161291D01*
X102571D01*
Y161394D01*
X102365D01*
Y161497D01*
X102158D01*
Y161600D01*
X101952D01*
Y161703D01*
X101643D01*
Y161806D01*
X101437D01*
Y161909D01*
X101334D01*
Y162012D01*
X101128D01*
Y162115D01*
X100922D01*
Y162218D01*
X100715D01*
Y162322D01*
X100612D01*
Y162425D01*
X100406D01*
Y162528D01*
X100200D01*
Y162631D01*
X100097D01*
Y162734D01*
X99891D01*
Y162837D01*
X99788D01*
Y162940D01*
X99582D01*
Y163043D01*
X99479D01*
Y163146D01*
X99376D01*
Y163249D01*
X99169D01*
Y163352D01*
X99066D01*
Y163455D01*
X98963D01*
Y163558D01*
X98860D01*
Y163662D01*
X98654D01*
Y163765D01*
X98551D01*
Y163868D01*
X98448D01*
Y163971D01*
X98345D01*
Y164074D01*
X98242D01*
Y164177D01*
X98139D01*
Y164280D01*
X98036D01*
Y164383D01*
X97933D01*
Y164486D01*
X97830D01*
Y164589D01*
X97727D01*
Y164692D01*
X97623D01*
Y164795D01*
X97520D01*
Y164898D01*
X97417D01*
Y165001D01*
X97314D01*
Y165104D01*
X97211D01*
Y165208D01*
X97108D01*
Y165311D01*
X97005D01*
Y165414D01*
X96902D01*
Y165517D01*
Y165620D01*
X96799D01*
Y165723D01*
X96696D01*
Y165826D01*
X96593D01*
Y165929D01*
X96490D01*
Y166032D01*
X96387D01*
Y166135D01*
Y166238D01*
X96284D01*
Y166341D01*
X96180D01*
Y166444D01*
Y166547D01*
X96077D01*
Y166650D01*
X95974D01*
Y166753D01*
X95871D01*
Y166857D01*
Y166960D01*
X95768D01*
Y167063D01*
X95665D01*
Y167166D01*
Y167269D01*
X95562D01*
Y167372D01*
Y167475D01*
X95459D01*
Y167578D01*
X95356D01*
Y167681D01*
Y167784D01*
X95253D01*
Y167887D01*
Y167990D01*
X95150D01*
Y168093D01*
X95047D01*
Y168196D01*
Y168300D01*
X94944D01*
Y168403D01*
Y168506D01*
X94841D01*
Y168609D01*
Y168712D01*
X94737D01*
Y168815D01*
Y168918D01*
X94634D01*
Y169021D01*
Y169124D01*
X94531D01*
Y169227D01*
Y169330D01*
Y169433D01*
X94428D01*
Y169536D01*
Y169640D01*
X94325D01*
Y169743D01*
Y169846D01*
X94222D01*
Y169949D01*
Y170052D01*
Y170155D01*
X94119D01*
Y170258D01*
Y170361D01*
Y170464D01*
X94016D01*
Y170567D01*
Y170670D01*
Y170773D01*
X93913D01*
Y170876D01*
Y170979D01*
Y171082D01*
X93810D01*
Y171186D01*
Y171289D01*
Y171392D01*
X93707D01*
Y171495D01*
Y171598D01*
Y171701D01*
Y171804D01*
X93604D01*
Y171907D01*
Y172010D01*
Y172113D01*
Y172216D01*
X93501D01*
Y172319D01*
Y172422D01*
Y172525D01*
Y172628D01*
Y172732D01*
X93398D01*
Y172835D01*
Y172938D01*
Y173041D01*
Y173144D01*
Y173247D01*
Y173350D01*
X93295D01*
Y173453D01*
Y173556D01*
Y173659D01*
Y173762D01*
Y173865D01*
Y173968D01*
Y174072D01*
X93191D01*
Y174174D01*
Y174278D01*
Y174381D01*
Y174484D01*
Y174587D01*
Y174690D01*
Y174793D01*
Y174896D01*
Y174999D01*
Y175102D01*
Y175205D01*
Y175308D01*
Y175411D01*
Y175514D01*
Y175618D01*
Y175721D01*
Y175824D01*
Y175927D01*
Y176030D01*
Y176133D01*
Y176236D01*
Y176339D01*
Y176442D01*
Y176545D01*
Y176648D01*
Y176751D01*
Y176854D01*
Y176957D01*
Y177060D01*
Y177164D01*
Y177267D01*
Y177370D01*
X93295D01*
Y177473D01*
Y177576D01*
Y177679D01*
Y177782D01*
Y177885D01*
Y177988D01*
Y178091D01*
Y178194D01*
X93398D01*
Y178297D01*
Y178400D01*
Y178503D01*
Y178606D01*
Y178710D01*
Y178813D01*
X93501D01*
Y178916D01*
Y179019D01*
Y179122D01*
Y179225D01*
Y179328D01*
X93604D01*
Y179431D01*
Y179534D01*
Y179637D01*
Y179740D01*
X93707D01*
Y179843D01*
Y179946D01*
Y180050D01*
Y180152D01*
X93810D01*
Y180256D01*
Y180359D01*
Y180462D01*
X93913D01*
Y180565D01*
Y180668D01*
Y180771D01*
X94016D01*
Y180874D01*
Y180977D01*
Y181080D01*
X94119D01*
Y181183D01*
Y181286D01*
Y181389D01*
X94222D01*
Y181492D01*
Y181596D01*
Y181699D01*
X94325D01*
Y181802D01*
Y181905D01*
X94428D01*
Y182008D01*
Y182111D01*
X94531D01*
Y182214D01*
Y182317D01*
Y182420D01*
X94634D01*
Y182523D01*
Y182626D01*
X94737D01*
Y182729D01*
Y182832D01*
X94841D01*
Y182935D01*
Y183038D01*
X94944D01*
Y183142D01*
Y183245D01*
X95047D01*
Y183348D01*
Y183451D01*
X95150D01*
Y183554D01*
X95253D01*
Y183657D01*
Y183760D01*
X95356D01*
Y183863D01*
Y183966D01*
X95459D01*
Y184069D01*
Y184172D01*
X95562D01*
Y184275D01*
X95665D01*
Y184378D01*
Y184482D01*
X95768D01*
Y184584D01*
X95871D01*
Y184688D01*
Y184791D01*
X95974D01*
Y184894D01*
X96077D01*
Y184997D01*
Y185100D01*
X96180D01*
Y185203D01*
X96284D01*
Y185306D01*
X96387D01*
Y185409D01*
Y185512D01*
X96490D01*
Y185615D01*
X96593D01*
Y185718D01*
X96696D01*
Y185821D01*
X96799D01*
Y185924D01*
Y186028D01*
X96902D01*
Y186131D01*
X97005D01*
Y186234D01*
X97108D01*
Y186337D01*
X97211D01*
Y186440D01*
X97314D01*
Y186543D01*
X97417D01*
Y186646D01*
X97520D01*
Y186749D01*
X97623D01*
Y186852D01*
X97727D01*
Y186955D01*
X97830D01*
Y187058D01*
X97933D01*
Y187161D01*
X98036D01*
Y187264D01*
X98139D01*
Y187367D01*
X98242D01*
Y187470D01*
X98345D01*
Y187574D01*
X98448D01*
Y187677D01*
X98551D01*
Y187780D01*
X98654D01*
Y187883D01*
X98757D01*
Y187986D01*
X98860D01*
Y188089D01*
X99066D01*
Y188192D01*
X99169D01*
Y188295D01*
X99273D01*
Y188398D01*
X99376D01*
Y188501D01*
X99582D01*
Y188604D01*
X99685D01*
Y188707D01*
X99891D01*
Y188810D01*
X99994D01*
Y188913D01*
X100097D01*
Y189016D01*
X100303D01*
Y189120D01*
X100406D01*
Y189223D01*
X100612D01*
Y189326D01*
X100819D01*
Y189429D01*
X100922D01*
Y189532D01*
X101128D01*
Y189635D01*
X101334D01*
Y189738D01*
X101437D01*
Y189841D01*
X101643D01*
Y189944D01*
X101849D01*
Y190047D01*
X102055D01*
Y190150D01*
X102261D01*
Y190253D01*
X102571D01*
Y190356D01*
X102777D01*
Y190460D01*
X102983D01*
Y190562D01*
X103292D01*
Y190666D01*
X103498D01*
Y190769D01*
X103808D01*
Y190872D01*
X104117D01*
Y190975D01*
X104426D01*
Y191078D01*
X104735D01*
Y191181D01*
X105148D01*
Y191284D01*
X105560D01*
Y191387D01*
X106075D01*
Y191490D01*
X106797D01*
Y191593D01*
X107724D01*
Y191696D01*
X109683D01*
Y191593D01*
D02*
G37*
G36*
X153384Y191696D02*
X154415D01*
Y191593D01*
X155033D01*
Y191490D01*
X155651D01*
Y191387D01*
X156064D01*
Y191284D01*
X156476D01*
Y191181D01*
X156888D01*
Y191078D01*
X157197D01*
Y190975D01*
X157507D01*
Y190872D01*
X157816D01*
Y190769D01*
X158022D01*
Y190666D01*
X158331D01*
Y190562D01*
X158537D01*
Y190460D01*
X158847D01*
Y190356D01*
X159053D01*
Y190253D01*
X159259D01*
Y190150D01*
X159465D01*
Y190047D01*
X159671D01*
Y189944D01*
X159877D01*
Y189841D01*
X160083D01*
Y189738D01*
X160186D01*
Y189635D01*
X160393D01*
Y189532D01*
X160599D01*
Y189429D01*
X160702D01*
Y189326D01*
X160908D01*
Y189223D01*
X161011D01*
Y189120D01*
X161217D01*
Y189016D01*
X161320D01*
Y188913D01*
X161526D01*
Y188810D01*
X161629D01*
Y188707D01*
X161732D01*
Y188604D01*
X161939D01*
Y188501D01*
X162042D01*
Y188398D01*
X162145D01*
Y188295D01*
X162248D01*
Y188192D01*
X162454D01*
Y188089D01*
X162557D01*
Y187986D01*
X162660D01*
Y187883D01*
X162763D01*
Y187780D01*
X162866D01*
Y187677D01*
X162969D01*
Y187574D01*
X163072D01*
Y187470D01*
X163175D01*
Y187367D01*
X163278D01*
Y187264D01*
X163382D01*
Y187161D01*
X163485D01*
Y187058D01*
X163588D01*
Y186955D01*
X163691D01*
Y186852D01*
X163794D01*
Y186749D01*
X163897D01*
Y186646D01*
X164000D01*
Y186543D01*
X164103D01*
Y186440D01*
X164206D01*
Y186337D01*
Y186234D01*
X164309D01*
Y186131D01*
X164412D01*
Y186028D01*
X164515D01*
Y185924D01*
X164618D01*
Y185821D01*
Y185718D01*
X164722D01*
Y185615D01*
X164825D01*
Y185512D01*
X164928D01*
Y185409D01*
Y185306D01*
X165031D01*
Y185203D01*
X165134D01*
Y185100D01*
X165237D01*
Y184997D01*
Y184894D01*
X165340D01*
Y184791D01*
Y184688D01*
X165443D01*
Y184584D01*
X165546D01*
Y184482D01*
Y184378D01*
X165649D01*
Y184275D01*
X165752D01*
Y184172D01*
Y184069D01*
X165855D01*
Y183966D01*
Y183863D01*
X165958D01*
Y183760D01*
Y183657D01*
X166061D01*
Y183554D01*
Y183451D01*
X166165D01*
Y183348D01*
X166268D01*
Y183245D01*
Y183142D01*
Y183038D01*
X166371D01*
Y182935D01*
Y182832D01*
X166474D01*
Y182729D01*
Y182626D01*
X166577D01*
Y182523D01*
Y182420D01*
X166680D01*
Y182317D01*
Y182214D01*
Y182111D01*
X166783D01*
Y182008D01*
Y181905D01*
X166886D01*
Y181802D01*
Y181699D01*
Y181596D01*
X166989D01*
Y181492D01*
Y181389D01*
Y181286D01*
X167092D01*
Y181183D01*
Y181080D01*
Y180977D01*
X167195D01*
Y180874D01*
Y180771D01*
Y180668D01*
X167298D01*
Y180565D01*
Y180462D01*
Y180359D01*
X167401D01*
Y180256D01*
Y180152D01*
Y180050D01*
Y179946D01*
X167504D01*
Y179843D01*
Y179740D01*
Y179637D01*
Y179534D01*
Y179431D01*
X167607D01*
Y179328D01*
Y179225D01*
Y179122D01*
Y179019D01*
Y178916D01*
X167710D01*
Y178813D01*
Y178710D01*
Y178606D01*
Y178503D01*
Y178400D01*
Y178297D01*
X167814D01*
Y178194D01*
Y178091D01*
Y177988D01*
Y177885D01*
Y177782D01*
Y177679D01*
Y177576D01*
Y177473D01*
Y177370D01*
X167917D01*
Y177267D01*
Y177164D01*
Y177060D01*
Y176957D01*
Y176854D01*
Y176751D01*
Y176648D01*
Y176545D01*
Y176442D01*
Y176339D01*
Y176236D01*
Y176133D01*
Y176030D01*
Y175927D01*
Y175824D01*
Y175721D01*
Y175618D01*
Y175514D01*
Y175411D01*
Y175308D01*
Y175205D01*
Y175102D01*
Y174999D01*
Y174896D01*
X167814D01*
Y174793D01*
Y174690D01*
Y174587D01*
Y174484D01*
Y174381D01*
Y174278D01*
Y174174D01*
Y174072D01*
Y173968D01*
X167710D01*
Y173865D01*
Y173762D01*
Y173659D01*
Y173556D01*
Y173453D01*
Y173350D01*
X167607D01*
Y173247D01*
Y173144D01*
Y173041D01*
Y172938D01*
Y172835D01*
Y172732D01*
X167504D01*
Y172628D01*
Y172525D01*
Y172422D01*
Y172319D01*
X167401D01*
Y172216D01*
Y172113D01*
Y172010D01*
Y171907D01*
X167298D01*
Y171804D01*
Y171701D01*
Y171598D01*
X167195D01*
Y171495D01*
Y171392D01*
Y171289D01*
Y171186D01*
X167092D01*
Y171082D01*
Y170979D01*
Y170876D01*
X166989D01*
Y170773D01*
Y170670D01*
X166886D01*
Y170567D01*
Y170464D01*
Y170361D01*
X166783D01*
Y170258D01*
Y170155D01*
Y170052D01*
X166680D01*
Y169949D01*
Y169846D01*
X166577D01*
Y169743D01*
Y169640D01*
Y169536D01*
X166474D01*
Y169433D01*
Y169330D01*
X166371D01*
Y169227D01*
Y169124D01*
X166268D01*
Y169021D01*
Y168918D01*
X166165D01*
Y168815D01*
Y168712D01*
X166061D01*
Y168609D01*
Y168506D01*
X165958D01*
Y168403D01*
Y168300D01*
X165855D01*
Y168196D01*
X165752D01*
Y168093D01*
Y167990D01*
X165649D01*
Y167887D01*
Y167784D01*
X165546D01*
Y167681D01*
X165443D01*
Y167578D01*
Y167475D01*
X165340D01*
Y167372D01*
X165237D01*
Y167269D01*
Y167166D01*
X165134D01*
Y167063D01*
X165031D01*
Y166960D01*
Y166857D01*
X164928D01*
Y166753D01*
X164825D01*
Y166650D01*
Y166547D01*
X164722D01*
Y166444D01*
X164618D01*
Y166341D01*
X164515D01*
Y166238D01*
X164412D01*
Y166135D01*
Y166032D01*
X164309D01*
Y165929D01*
X164206D01*
Y165826D01*
X164103D01*
Y165723D01*
X164000D01*
Y165620D01*
X163897D01*
Y165517D01*
Y165414D01*
X163794D01*
Y165311D01*
X163691D01*
Y165208D01*
X163588D01*
Y165104D01*
X163485D01*
Y165001D01*
X163382D01*
Y164898D01*
X163278D01*
Y164795D01*
X163175D01*
Y164692D01*
X163072D01*
Y164589D01*
X162969D01*
Y164486D01*
X162866D01*
Y164383D01*
X162763D01*
Y164280D01*
X162660D01*
Y164177D01*
X162454D01*
Y164074D01*
X162351D01*
Y163971D01*
X162248D01*
Y163868D01*
X162145D01*
Y163765D01*
X162042D01*
Y163662D01*
X161836D01*
Y163558D01*
X161732D01*
Y163455D01*
X161629D01*
Y163352D01*
X161526D01*
Y163249D01*
X161320D01*
Y163146D01*
X161217D01*
Y163043D01*
X161011D01*
Y162940D01*
X160908D01*
Y162837D01*
X160702D01*
Y162734D01*
X160599D01*
Y162631D01*
X160393D01*
Y162528D01*
X160290D01*
Y162425D01*
X160083D01*
Y162322D01*
X159877D01*
Y162218D01*
X159774D01*
Y162115D01*
X159568D01*
Y162012D01*
X159362D01*
Y161909D01*
X159156D01*
Y161806D01*
X158950D01*
Y161703D01*
X158744D01*
Y161600D01*
X158537D01*
Y161497D01*
X158228D01*
Y161394D01*
X158022D01*
Y161291D01*
X157816D01*
Y161188D01*
X157507D01*
Y161085D01*
X157197D01*
Y160982D01*
X156888D01*
Y160879D01*
X156579D01*
Y160775D01*
X156270D01*
Y160672D01*
X155858D01*
Y160569D01*
X155342D01*
Y160466D01*
X154827D01*
Y160363D01*
X154105D01*
Y160260D01*
X152868D01*
Y160157D01*
X151838D01*
Y160260D01*
X150498D01*
Y160363D01*
X149776D01*
Y160466D01*
X149261D01*
Y160569D01*
X148746D01*
Y160672D01*
X148334D01*
Y160775D01*
X147921D01*
Y160879D01*
X147612D01*
Y160982D01*
X147303D01*
Y161085D01*
X146994D01*
Y161188D01*
X146684D01*
Y161291D01*
X146375D01*
Y161394D01*
X146066D01*
Y161497D01*
X145860D01*
Y161600D01*
X145551D01*
Y161703D01*
X145344D01*
Y161806D01*
X145138D01*
Y161909D01*
X144829D01*
Y162012D01*
X144623D01*
Y162115D01*
X144417D01*
Y162218D01*
X144211D01*
Y162322D01*
X144005D01*
Y162425D01*
X143798D01*
Y162528D01*
X143592D01*
Y162631D01*
X143386D01*
Y162734D01*
X143180D01*
Y162837D01*
X142974D01*
Y162940D01*
X142871D01*
Y163043D01*
X142665D01*
Y163146D01*
X142458D01*
Y163249D01*
X142252D01*
Y163352D01*
X142149D01*
Y163455D01*
X141943D01*
Y163558D01*
X141737D01*
Y163662D01*
X141634D01*
Y163765D01*
X141428D01*
Y163868D01*
X141325D01*
Y163971D01*
X141119D01*
Y164074D01*
X141016D01*
Y164177D01*
X140809D01*
Y164280D01*
X140706D01*
Y164383D01*
X140500D01*
Y164486D01*
X140397D01*
Y164589D01*
X140191D01*
Y164692D01*
X140088D01*
Y164795D01*
X139882D01*
Y164898D01*
X139779D01*
Y165001D01*
X139573D01*
Y165104D01*
X139470D01*
Y165208D01*
X139366D01*
Y165311D01*
X139160D01*
Y165414D01*
X139057D01*
Y165517D01*
X138851D01*
Y165620D01*
X138748D01*
Y165723D01*
X138645D01*
Y165826D01*
X138439D01*
Y165929D01*
X138336D01*
Y166032D01*
X138233D01*
Y166135D01*
X138130D01*
Y166238D01*
X137924D01*
Y166341D01*
X137820D01*
Y166444D01*
X137717D01*
Y166547D01*
X137511D01*
Y166650D01*
X137408D01*
Y166753D01*
X137305D01*
Y166857D01*
X137202D01*
Y166960D01*
X136996D01*
Y167063D01*
X136893D01*
Y167166D01*
X136790D01*
Y167269D01*
X136687D01*
Y167372D01*
X136480D01*
Y167475D01*
X136378D01*
Y167578D01*
X136274D01*
Y167681D01*
X136171D01*
Y167784D01*
X136068D01*
Y167887D01*
X135862D01*
Y167990D01*
X135759D01*
Y168093D01*
X135656D01*
Y168196D01*
X135553D01*
Y168300D01*
X135450D01*
Y168403D01*
X135244D01*
Y168506D01*
X135141D01*
Y168609D01*
X135038D01*
Y168712D01*
X134934D01*
Y168815D01*
X134831D01*
Y168918D01*
X134728D01*
Y169021D01*
X134625D01*
Y169124D01*
X134522D01*
Y169227D01*
X134419D01*
Y169330D01*
X134316D01*
Y169433D01*
X134213D01*
Y169536D01*
X134110D01*
Y169640D01*
X134007D01*
Y169743D01*
X133904D01*
Y169846D01*
X133698D01*
Y169949D01*
X133595D01*
Y170052D01*
X133492D01*
Y170155D01*
X133388D01*
Y170258D01*
X133285D01*
Y170361D01*
X133182D01*
Y170464D01*
X133079D01*
Y170567D01*
X132976D01*
Y170670D01*
X132873D01*
Y170773D01*
X132770D01*
Y170876D01*
X132667D01*
Y170979D01*
X132564D01*
Y171082D01*
X132461D01*
Y171186D01*
X132358D01*
Y171289D01*
X132255D01*
Y171392D01*
X132152D01*
Y171495D01*
X132048D01*
Y171598D01*
X131946D01*
Y171701D01*
X131842D01*
Y171804D01*
X131739D01*
Y171907D01*
X131636D01*
Y172010D01*
X131533D01*
Y172113D01*
X131430D01*
Y172216D01*
X131327D01*
Y172319D01*
X131224D01*
Y172422D01*
X131121D01*
Y172525D01*
X131018D01*
Y172628D01*
X130812D01*
Y172732D01*
X130709D01*
Y172835D01*
X130606D01*
Y172938D01*
X130502D01*
Y172835D01*
X130399D01*
Y172732D01*
X130296D01*
Y172628D01*
X130193D01*
Y172525D01*
X130090D01*
Y172422D01*
X129987D01*
Y172319D01*
X129884D01*
Y172216D01*
X129781D01*
Y172113D01*
X129678D01*
Y172010D01*
X129575D01*
Y171907D01*
X129472D01*
Y171804D01*
X129369D01*
Y171701D01*
X129266D01*
Y171598D01*
X129163D01*
Y171495D01*
Y171392D01*
X129060D01*
Y171289D01*
X128956D01*
Y171186D01*
X128853D01*
Y171082D01*
X128750D01*
Y170979D01*
X128647D01*
Y170876D01*
X128544D01*
Y170773D01*
X128441D01*
Y170670D01*
X128338D01*
Y170567D01*
X128235D01*
Y170464D01*
X128132D01*
Y170361D01*
X128029D01*
Y170258D01*
X127926D01*
Y170155D01*
X127823D01*
Y170052D01*
X127720D01*
Y169949D01*
X127617D01*
Y169846D01*
X127514D01*
Y169743D01*
X127410D01*
Y169640D01*
X127307D01*
Y169536D01*
X127204D01*
Y169433D01*
X127101D01*
Y169330D01*
X126998D01*
Y169227D01*
X126895D01*
Y169124D01*
X126792D01*
Y169021D01*
X126689D01*
Y168918D01*
X126586D01*
Y168815D01*
X126380D01*
Y168712D01*
X126277D01*
Y168609D01*
X126174D01*
Y168506D01*
X126070D01*
Y168403D01*
X125968D01*
Y168300D01*
X125864D01*
Y168196D01*
X125761D01*
Y168093D01*
X125658D01*
Y167990D01*
X125555D01*
Y167887D01*
X125452D01*
Y167784D01*
X125349D01*
Y167681D01*
X125246D01*
Y167578D01*
X125143D01*
Y167475D01*
X125040D01*
Y167372D01*
X124834D01*
Y167269D01*
X124731D01*
Y167166D01*
X124627D01*
Y167063D01*
X124524D01*
Y166960D01*
X124421D01*
Y166857D01*
X124318D01*
Y166753D01*
X124215D01*
Y166650D01*
X124112D01*
Y166547D01*
X123906D01*
Y166444D01*
X123803D01*
Y166341D01*
X123700D01*
Y166238D01*
X123597D01*
Y166135D01*
X123494D01*
Y166032D01*
X123391D01*
Y165929D01*
X123185D01*
Y165826D01*
X123082D01*
Y165723D01*
X122978D01*
Y165620D01*
X122875D01*
Y165517D01*
X122669D01*
Y165414D01*
X122566D01*
Y165311D01*
X122463D01*
Y165208D01*
X122360D01*
Y165104D01*
X122154D01*
Y165001D01*
X122051D01*
Y164898D01*
X121948D01*
Y164795D01*
X121742D01*
Y164692D01*
X121639D01*
Y164589D01*
X121536D01*
Y164486D01*
X121329D01*
Y164383D01*
X121226D01*
Y164280D01*
X121020D01*
Y164177D01*
X120917D01*
Y164074D01*
X120711D01*
Y163971D01*
X120608D01*
Y163868D01*
X120402D01*
Y163765D01*
X120299D01*
Y163662D01*
X120092D01*
Y163558D01*
X119886D01*
Y163455D01*
X119783D01*
Y163558D01*
Y163662D01*
X119886D01*
Y163765D01*
Y163868D01*
Y163971D01*
X119990D01*
Y164074D01*
Y164177D01*
Y164280D01*
Y164383D01*
Y164486D01*
Y164589D01*
Y164692D01*
Y164795D01*
Y164898D01*
Y165001D01*
Y165104D01*
Y165208D01*
Y165311D01*
Y165414D01*
Y165517D01*
Y165620D01*
Y165723D01*
Y165826D01*
Y165929D01*
Y166032D01*
Y166135D01*
Y166238D01*
Y166341D01*
Y166444D01*
Y166547D01*
Y166650D01*
Y166753D01*
Y166857D01*
Y166960D01*
Y167063D01*
Y167166D01*
Y167269D01*
Y167372D01*
Y167475D01*
Y167578D01*
Y167681D01*
Y167784D01*
Y167887D01*
Y167990D01*
Y168093D01*
Y168196D01*
Y168300D01*
Y168403D01*
Y168506D01*
Y168609D01*
Y168712D01*
Y168815D01*
X120196D01*
Y168918D01*
X120299D01*
Y169021D01*
X120402D01*
Y169124D01*
X120505D01*
Y169227D01*
X120711D01*
Y169330D01*
X120814D01*
Y169433D01*
X120917D01*
Y169536D01*
X121020D01*
Y169640D01*
X121123D01*
Y169743D01*
X121226D01*
Y169846D01*
X121432D01*
Y169949D01*
X121536D01*
Y170052D01*
X121639D01*
Y170155D01*
X121742D01*
Y170258D01*
X121845D01*
Y170361D01*
X121948D01*
Y170464D01*
X122051D01*
Y170567D01*
X122154D01*
Y170670D01*
X122257D01*
Y170773D01*
X122463D01*
Y170876D01*
X122566D01*
Y170979D01*
X122669D01*
Y171082D01*
X122772D01*
Y171186D01*
X122875D01*
Y171289D01*
X122978D01*
Y171392D01*
X123082D01*
Y171495D01*
X123185D01*
Y171598D01*
X123288D01*
Y171701D01*
X123391D01*
Y171804D01*
X123494D01*
Y171907D01*
X123597D01*
Y172010D01*
X123700D01*
Y172113D01*
X123803D01*
Y172216D01*
X123906D01*
Y172319D01*
X124009D01*
Y172422D01*
X124112D01*
Y172525D01*
X124215D01*
Y172628D01*
X124318D01*
Y172732D01*
X124421D01*
Y172835D01*
X124524D01*
Y172938D01*
X124627D01*
Y173041D01*
X124731D01*
Y173144D01*
X124834D01*
Y173247D01*
X124937D01*
Y173350D01*
X125040D01*
Y173453D01*
X125143D01*
Y173556D01*
X125246D01*
Y173659D01*
X125349D01*
Y173762D01*
X125452D01*
Y173865D01*
X125555D01*
Y173968D01*
X125658D01*
Y174072D01*
X125761D01*
Y174174D01*
X125864D01*
Y174278D01*
X125968D01*
Y174381D01*
X126070D01*
Y174484D01*
X126174D01*
Y174587D01*
X126277D01*
Y174690D01*
X126380D01*
Y174793D01*
X126483D01*
Y174896D01*
X126586D01*
Y174999D01*
X126689D01*
Y175102D01*
X126792D01*
Y175205D01*
X126895D01*
Y175308D01*
X126998D01*
Y175411D01*
X127101D01*
Y175514D01*
X127204D01*
Y175618D01*
X127307D01*
Y175721D01*
X127410D01*
Y175824D01*
Y175927D01*
Y176030D01*
X127307D01*
Y176133D01*
X127204D01*
Y176236D01*
X127101D01*
Y176339D01*
X126998D01*
Y176442D01*
X126895D01*
Y176545D01*
X126792D01*
Y176648D01*
X126689D01*
Y176751D01*
X126586D01*
Y176854D01*
X126483D01*
Y176957D01*
X126277D01*
Y177060D01*
X126174D01*
Y177164D01*
X126070D01*
Y177267D01*
X125968D01*
Y177370D01*
X125864D01*
Y177473D01*
X125761D01*
Y177576D01*
X125658D01*
Y177679D01*
X125555D01*
Y177782D01*
X125452D01*
Y177885D01*
X125349D01*
Y177988D01*
X125246D01*
Y178091D01*
X125143D01*
Y178194D01*
X125040D01*
Y178297D01*
X124834D01*
Y178400D01*
X124731D01*
Y178503D01*
X124627D01*
Y178606D01*
X124524D01*
Y178710D01*
X124421D01*
Y178813D01*
X124318D01*
Y178916D01*
X124215D01*
Y179019D01*
X124112D01*
Y179122D01*
X124009D01*
Y179225D01*
X123906D01*
Y179328D01*
X123803D01*
Y179431D01*
X123597D01*
Y179534D01*
X123494D01*
Y179637D01*
X123391D01*
Y179740D01*
X123288D01*
Y179843D01*
X123185D01*
Y179946D01*
X123082D01*
Y180050D01*
X122978D01*
Y180152D01*
X122875D01*
Y180256D01*
X122669D01*
Y180359D01*
X122566D01*
Y180462D01*
X122463D01*
Y180565D01*
X122360D01*
Y180668D01*
X122257D01*
Y180771D01*
X122154D01*
Y180874D01*
X122051D01*
Y180977D01*
X121845D01*
Y181080D01*
X121742D01*
Y181183D01*
X121639D01*
Y181286D01*
X121536D01*
Y181389D01*
X121432D01*
Y181492D01*
X121329D01*
Y181596D01*
X121123D01*
Y181699D01*
X121020D01*
Y181802D01*
X120917D01*
Y181905D01*
X120814D01*
Y182008D01*
X120711D01*
Y182111D01*
X120608D01*
Y182214D01*
X120402D01*
Y182317D01*
X120299D01*
Y182420D01*
X120196D01*
Y182523D01*
X120092D01*
Y182626D01*
X119886D01*
Y182729D01*
X119783D01*
Y182832D01*
X119680D01*
Y182935D01*
X119577D01*
Y183038D01*
X119371D01*
Y183142D01*
X119268D01*
Y183245D01*
X119165D01*
Y183348D01*
X118959D01*
Y183451D01*
X118856D01*
Y183554D01*
X118753D01*
Y183657D01*
X118546D01*
Y183760D01*
X118443D01*
Y183863D01*
X118959D01*
Y183966D01*
X119268D01*
Y184069D01*
X119474D01*
Y184172D01*
X119680D01*
Y184275D01*
X119886D01*
Y184378D01*
X119990D01*
Y184482D01*
X120092D01*
Y184584D01*
X120196D01*
Y184688D01*
X120299D01*
Y184791D01*
X120402D01*
Y184894D01*
Y184997D01*
X120505D01*
Y185100D01*
Y185203D01*
X120608D01*
Y185306D01*
Y185409D01*
X120711D01*
Y185512D01*
Y185615D01*
Y185718D01*
X120814D01*
Y185821D01*
Y185924D01*
Y186028D01*
Y186131D01*
Y186234D01*
Y186337D01*
Y186440D01*
Y186543D01*
Y186646D01*
Y186749D01*
Y186852D01*
Y186955D01*
X120711D01*
Y187058D01*
Y187161D01*
Y187264D01*
X120608D01*
Y187367D01*
Y187470D01*
X120711D01*
Y187367D01*
X120814D01*
Y187264D01*
X121020D01*
Y187161D01*
X121123D01*
Y187058D01*
X121226D01*
Y186955D01*
X121432D01*
Y186852D01*
X121536D01*
Y186749D01*
X121639D01*
Y186646D01*
X121845D01*
Y186543D01*
X121948D01*
Y186440D01*
X122051D01*
Y186337D01*
X122257D01*
Y186234D01*
X122360D01*
Y186131D01*
X122463D01*
Y186028D01*
X122566D01*
Y185924D01*
X122772D01*
Y185821D01*
X122875D01*
Y185718D01*
X122978D01*
Y185615D01*
X123082D01*
Y185512D01*
X123288D01*
Y185409D01*
X123391D01*
Y185306D01*
X123494D01*
Y185203D01*
X123597D01*
Y185100D01*
X123700D01*
Y184997D01*
X123906D01*
Y184894D01*
X124009D01*
Y184791D01*
X124112D01*
Y184688D01*
X124215D01*
Y184584D01*
X124318D01*
Y184482D01*
X124421D01*
Y184378D01*
X124627D01*
Y184275D01*
X124731D01*
Y184172D01*
X124834D01*
Y184069D01*
X124937D01*
Y183966D01*
X125040D01*
Y183863D01*
X125143D01*
Y183760D01*
X125246D01*
Y183657D01*
X125452D01*
Y183554D01*
X125555D01*
Y183451D01*
X125658D01*
Y183348D01*
X125761D01*
Y183245D01*
X125864D01*
Y183142D01*
X125968D01*
Y183038D01*
X126070D01*
Y182935D01*
X126174D01*
Y182832D01*
X126380D01*
Y182729D01*
X126483D01*
Y182626D01*
X126586D01*
Y182523D01*
X126689D01*
Y182420D01*
X126792D01*
Y182317D01*
X126895D01*
Y182214D01*
X126998D01*
Y182111D01*
X127101D01*
Y182008D01*
X127204D01*
Y181905D01*
X127307D01*
Y181802D01*
X127514D01*
Y181699D01*
X127617D01*
Y181596D01*
X127720D01*
Y181492D01*
X127823D01*
Y181389D01*
X127926D01*
Y181286D01*
X128029D01*
Y181183D01*
X128132D01*
Y181080D01*
X128235D01*
Y180977D01*
X128338D01*
Y180874D01*
X128441D01*
Y180771D01*
X128544D01*
Y180668D01*
X128647D01*
Y180565D01*
X128853D01*
Y180462D01*
X128956D01*
Y180359D01*
X129060D01*
Y180256D01*
X129163D01*
Y180152D01*
X129266D01*
Y180050D01*
X129369D01*
Y179946D01*
X129472D01*
Y179843D01*
X129575D01*
Y179740D01*
X129678D01*
Y179637D01*
X129781D01*
Y179534D01*
X129884D01*
Y179431D01*
X129987D01*
Y179328D01*
X130090D01*
Y179225D01*
X130193D01*
Y179122D01*
X130296D01*
Y179019D01*
X130502D01*
Y179122D01*
X130606D01*
Y179225D01*
X130709D01*
Y179328D01*
X130812D01*
Y179431D01*
X130915D01*
Y179534D01*
X131018D01*
Y179637D01*
X131121D01*
Y179740D01*
X131224D01*
Y179843D01*
X131327D01*
Y179946D01*
X131430D01*
Y180050D01*
X131533D01*
Y180152D01*
X131636D01*
Y180256D01*
X131739D01*
Y180359D01*
X131842D01*
Y180462D01*
X131946D01*
Y180565D01*
X132048D01*
Y180668D01*
X132152D01*
Y180771D01*
X132255D01*
Y180874D01*
X132358D01*
Y180977D01*
X132461D01*
Y181080D01*
X132564D01*
Y181183D01*
X132667D01*
Y181286D01*
X132770D01*
Y181389D01*
X132873D01*
Y181492D01*
X132976D01*
Y181596D01*
X133079D01*
Y181699D01*
X133182D01*
Y181802D01*
X133285D01*
Y181905D01*
X133388D01*
Y182008D01*
X133492D01*
Y182111D01*
X133595D01*
Y182214D01*
X133698D01*
Y182317D01*
X133801D01*
Y182420D01*
X133904D01*
Y182523D01*
X134007D01*
Y182626D01*
X134110D01*
Y182729D01*
X134213D01*
Y182832D01*
X134316D01*
Y182935D01*
X134419D01*
Y183038D01*
X134522D01*
Y183142D01*
X134625D01*
Y183245D01*
X134831D01*
Y183348D01*
X134934D01*
Y183451D01*
X135038D01*
Y183554D01*
X135141D01*
Y183657D01*
X135244D01*
Y183760D01*
X135347D01*
Y183863D01*
X135450D01*
Y183966D01*
X135553D01*
Y184069D01*
X135656D01*
Y184172D01*
X135759D01*
Y184275D01*
X135862D01*
Y184378D01*
X136068D01*
Y184482D01*
X136171D01*
Y184584D01*
X136274D01*
Y184688D01*
X136378D01*
Y184791D01*
X136480D01*
Y184894D01*
X136584D01*
Y184997D01*
X136687D01*
Y185100D01*
X136893D01*
Y185203D01*
X136996D01*
Y185306D01*
X137099D01*
Y185409D01*
X137202D01*
Y185512D01*
X137305D01*
Y185615D01*
X137408D01*
Y185718D01*
X137614D01*
Y185821D01*
X137717D01*
Y185924D01*
X137820D01*
Y186028D01*
X137924D01*
Y186131D01*
X138130D01*
Y186234D01*
X138233D01*
Y186337D01*
X138336D01*
Y186440D01*
X138439D01*
Y186543D01*
X138645D01*
Y186646D01*
X138748D01*
Y186749D01*
X138851D01*
Y186852D01*
X139057D01*
Y186955D01*
X139160D01*
Y187058D01*
X139263D01*
Y187161D01*
X139470D01*
Y187264D01*
X139573D01*
Y187367D01*
X139676D01*
Y187470D01*
X139882D01*
Y187574D01*
X139985D01*
Y187677D01*
X140191D01*
Y187780D01*
X140294D01*
Y187883D01*
X140500D01*
Y187986D01*
X140603D01*
Y188089D01*
X140809D01*
Y188192D01*
X140912D01*
Y188295D01*
X141119D01*
Y188398D01*
X141222D01*
Y188501D01*
X141428D01*
Y188604D01*
X141634D01*
Y188707D01*
X141737D01*
Y188810D01*
X141943D01*
Y188913D01*
X142149D01*
Y189016D01*
X142252D01*
Y189120D01*
X142458D01*
Y189223D01*
X142665D01*
Y189326D01*
X142871D01*
Y189429D01*
X143077D01*
Y189532D01*
X143283D01*
Y189635D01*
X143489D01*
Y189738D01*
X143695D01*
Y189841D01*
X143902D01*
Y189944D01*
X144108D01*
Y190047D01*
X144314D01*
Y190150D01*
X144623D01*
Y190253D01*
X144829D01*
Y190356D01*
X145138D01*
Y190460D01*
X145344D01*
Y190562D01*
X145654D01*
Y190666D01*
X145963D01*
Y190769D01*
X146272D01*
Y190872D01*
X146581D01*
Y190975D01*
X146890D01*
Y191078D01*
X147200D01*
Y191181D01*
X147612D01*
Y191284D01*
X148024D01*
Y191387D01*
X148540D01*
Y191490D01*
X149055D01*
Y191593D01*
X149776D01*
Y191696D01*
X150807D01*
Y191799D01*
X153384D01*
Y191696D01*
D02*
G37*
G36*
X114630Y157477D02*
X115042D01*
Y157374D01*
X115248D01*
Y157271D01*
X115454D01*
Y157168D01*
X115661D01*
Y157065D01*
X115867D01*
Y156962D01*
X115970D01*
Y156859D01*
X116073D01*
Y156756D01*
Y156653D01*
X115970D01*
Y156550D01*
X115867D01*
Y156447D01*
X115558D01*
Y156550D01*
X115454D01*
Y156653D01*
X115351D01*
Y156756D01*
X115145D01*
Y156859D01*
X114939D01*
Y156962D01*
X114630D01*
Y157065D01*
X113187D01*
Y156962D01*
X112878D01*
Y156859D01*
X112568D01*
Y156756D01*
X112465D01*
Y156653D01*
X112259D01*
Y156550D01*
X112156D01*
Y156447D01*
X112053D01*
Y156344D01*
X111950D01*
Y156240D01*
X111847D01*
Y156137D01*
X111744D01*
Y156034D01*
X111641D01*
Y155931D01*
Y155828D01*
X111538D01*
Y155725D01*
Y155622D01*
X111435D01*
Y155519D01*
Y155416D01*
X111332D01*
Y155313D01*
Y155210D01*
Y155107D01*
Y155004D01*
X111229D01*
Y154901D01*
Y154797D01*
Y154694D01*
Y154591D01*
Y154488D01*
Y154385D01*
Y154282D01*
Y154179D01*
Y154076D01*
Y153973D01*
X111332D01*
Y153870D01*
Y153767D01*
Y153664D01*
X111435D01*
Y153561D01*
Y153458D01*
Y153355D01*
X111538D01*
Y153252D01*
X111641D01*
Y153148D01*
Y153045D01*
X111744D01*
Y152942D01*
X111847D01*
Y152839D01*
X111950D01*
Y152736D01*
X112053D01*
Y152633D01*
X112156D01*
Y152530D01*
X112259D01*
Y152427D01*
X112362D01*
Y152324D01*
X112568D01*
Y152221D01*
X112775D01*
Y152118D01*
X113084D01*
Y152015D01*
X113702D01*
Y151912D01*
X114011D01*
Y152015D01*
X114630D01*
Y152118D01*
X114939D01*
Y152221D01*
X115248D01*
Y152324D01*
X115351D01*
Y152427D01*
X115454D01*
Y152530D01*
X115558D01*
Y152633D01*
Y152736D01*
Y152839D01*
Y152942D01*
Y153045D01*
Y153148D01*
Y153252D01*
Y153355D01*
Y153458D01*
Y153561D01*
Y153664D01*
Y153767D01*
Y153870D01*
Y153973D01*
Y154076D01*
Y154179D01*
Y154282D01*
Y154385D01*
Y154488D01*
X116073D01*
Y154385D01*
Y154282D01*
Y154179D01*
Y154076D01*
Y153973D01*
Y153870D01*
Y153767D01*
Y153664D01*
Y153561D01*
Y153458D01*
Y153355D01*
Y153252D01*
Y153148D01*
Y153045D01*
Y152942D01*
Y152839D01*
Y152736D01*
Y152633D01*
Y152530D01*
Y152427D01*
Y152324D01*
Y152221D01*
Y152118D01*
X115867D01*
Y152015D01*
X115764D01*
Y151912D01*
X115558D01*
Y151809D01*
X115351D01*
Y151705D01*
X115145D01*
Y151602D01*
X114733D01*
Y151499D01*
X112981D01*
Y151602D01*
X112671D01*
Y151705D01*
X112362D01*
Y151809D01*
X112156D01*
Y151912D01*
X112053D01*
Y152015D01*
X111847D01*
Y152118D01*
X111744D01*
Y152221D01*
X111641D01*
Y152324D01*
X111538D01*
Y152427D01*
X111435D01*
Y152530D01*
X111332D01*
Y152633D01*
X111229D01*
Y152736D01*
X111126D01*
Y152839D01*
Y152942D01*
X111022D01*
Y153045D01*
Y153148D01*
X110919D01*
Y153252D01*
Y153355D01*
X110816D01*
Y153458D01*
Y153561D01*
Y153664D01*
X110713D01*
Y153767D01*
Y153870D01*
Y153973D01*
Y154076D01*
Y154179D01*
Y154282D01*
Y154385D01*
Y154488D01*
Y154591D01*
Y154694D01*
Y154797D01*
Y154901D01*
Y155004D01*
Y155107D01*
Y155210D01*
Y155313D01*
Y155416D01*
X110816D01*
Y155519D01*
Y155622D01*
Y155725D01*
X110919D01*
Y155828D01*
Y155931D01*
X111022D01*
Y156034D01*
Y156137D01*
X111126D01*
Y156240D01*
X111229D01*
Y156344D01*
Y156447D01*
X111332D01*
Y156550D01*
X111435D01*
Y156653D01*
X111538D01*
Y156756D01*
X111641D01*
Y156859D01*
X111744D01*
Y156962D01*
X111847D01*
Y157065D01*
X112053D01*
Y157168D01*
X112259D01*
Y157271D01*
X112465D01*
Y157374D01*
X112671D01*
Y157477D01*
X113084D01*
Y157580D01*
X114630D01*
Y157477D01*
D02*
G37*
G36*
X150601D02*
X150498D01*
Y157374D01*
Y157271D01*
X150395D01*
Y157168D01*
X150292D01*
Y157065D01*
Y156962D01*
X150189D01*
Y156859D01*
Y156756D01*
X150086D01*
Y156653D01*
X149983D01*
Y156550D01*
Y156447D01*
X149880D01*
Y156344D01*
X149776D01*
Y156240D01*
Y156137D01*
X149673D01*
Y156034D01*
Y155931D01*
X149570D01*
Y155828D01*
X149467D01*
Y155725D01*
Y155622D01*
X149364D01*
Y155519D01*
Y155416D01*
X149261D01*
Y155313D01*
X149158D01*
Y155210D01*
Y155107D01*
X149055D01*
Y155004D01*
Y154901D01*
X148952D01*
Y154797D01*
X148849D01*
Y154694D01*
Y154591D01*
X148746D01*
Y154488D01*
X148643D01*
Y154385D01*
Y154282D01*
X148540D01*
Y154179D01*
Y154076D01*
X148437D01*
Y153973D01*
X148334D01*
Y153870D01*
Y153767D01*
X148230D01*
Y153664D01*
Y153561D01*
X148127D01*
Y153458D01*
Y153355D01*
Y153252D01*
Y153148D01*
Y153045D01*
Y152942D01*
Y152839D01*
Y152736D01*
Y152633D01*
Y152530D01*
Y152427D01*
Y152324D01*
Y152221D01*
Y152118D01*
Y152015D01*
Y151912D01*
Y151809D01*
Y151705D01*
Y151602D01*
Y151499D01*
X147612D01*
Y151602D01*
Y151705D01*
Y151809D01*
Y151912D01*
Y152015D01*
Y152118D01*
Y152221D01*
Y152324D01*
Y152427D01*
Y152530D01*
Y152633D01*
Y152736D01*
Y152839D01*
Y152942D01*
Y153045D01*
Y153148D01*
Y153252D01*
Y153355D01*
Y153458D01*
Y153561D01*
Y153664D01*
X147509D01*
Y153767D01*
X147406D01*
Y153870D01*
Y153973D01*
X147303D01*
Y154076D01*
Y154179D01*
X147200D01*
Y154282D01*
X147097D01*
Y154385D01*
Y154488D01*
X146994D01*
Y154591D01*
Y154694D01*
X146890D01*
Y154797D01*
X146787D01*
Y154901D01*
Y155004D01*
X146684D01*
Y155107D01*
Y155210D01*
X146581D01*
Y155313D01*
X146478D01*
Y155416D01*
Y155519D01*
X146375D01*
Y155622D01*
X146272D01*
Y155725D01*
Y155828D01*
X146169D01*
Y155931D01*
Y156034D01*
X146066D01*
Y156137D01*
X145963D01*
Y156240D01*
Y156344D01*
X145860D01*
Y156447D01*
Y156550D01*
X145757D01*
Y156653D01*
X145654D01*
Y156756D01*
Y156859D01*
X145551D01*
Y156962D01*
Y157065D01*
X145448D01*
Y157168D01*
X145344D01*
Y157271D01*
Y157374D01*
X145241D01*
Y157477D01*
X145138D01*
Y157580D01*
X145860D01*
Y157477D01*
Y157374D01*
X145963D01*
Y157271D01*
Y157168D01*
X146066D01*
Y157065D01*
X146169D01*
Y156962D01*
Y156859D01*
X146272D01*
Y156756D01*
Y156653D01*
X146375D01*
Y156550D01*
X146478D01*
Y156447D01*
Y156344D01*
X146581D01*
Y156240D01*
X146684D01*
Y156137D01*
Y156034D01*
X146787D01*
Y155931D01*
Y155828D01*
X146890D01*
Y155725D01*
X146994D01*
Y155622D01*
Y155519D01*
X147097D01*
Y155416D01*
Y155313D01*
X147200D01*
Y155210D01*
X147303D01*
Y155107D01*
Y155004D01*
X147406D01*
Y154901D01*
Y154797D01*
X147509D01*
Y154694D01*
X147612D01*
Y154591D01*
Y154488D01*
X147715D01*
Y154385D01*
X147818D01*
Y154282D01*
Y154179D01*
X148024D01*
Y154282D01*
Y154385D01*
X148127D01*
Y154488D01*
Y154591D01*
X148230D01*
Y154694D01*
X148334D01*
Y154797D01*
Y154901D01*
X148437D01*
Y155004D01*
X148540D01*
Y155107D01*
Y155210D01*
X148643D01*
Y155313D01*
Y155416D01*
X148746D01*
Y155519D01*
X148849D01*
Y155622D01*
Y155725D01*
X148952D01*
Y155828D01*
Y155931D01*
X149055D01*
Y156034D01*
X149158D01*
Y156137D01*
Y156240D01*
X149261D01*
Y156344D01*
Y156447D01*
X149364D01*
Y156550D01*
X149467D01*
Y156653D01*
Y156756D01*
X149570D01*
Y156859D01*
Y156962D01*
X149673D01*
Y157065D01*
X149776D01*
Y157168D01*
Y157271D01*
X149880D01*
Y157374D01*
X149983D01*
Y157477D01*
Y157580D01*
X150601D01*
Y157477D01*
D02*
G37*
G36*
X138542D02*
Y157374D01*
Y157271D01*
Y157168D01*
Y157065D01*
Y156962D01*
Y156859D01*
Y156756D01*
Y156653D01*
Y156550D01*
Y156447D01*
Y156344D01*
Y156240D01*
Y156137D01*
Y156034D01*
Y155931D01*
Y155828D01*
Y155725D01*
Y155622D01*
Y155519D01*
Y155416D01*
Y155313D01*
Y155210D01*
Y155107D01*
Y155004D01*
Y154901D01*
Y154797D01*
Y154694D01*
Y154591D01*
Y154488D01*
Y154385D01*
Y154282D01*
Y154179D01*
Y154076D01*
Y153973D01*
Y153870D01*
Y153767D01*
Y153664D01*
Y153561D01*
Y153458D01*
Y153355D01*
Y153252D01*
Y153148D01*
Y153045D01*
Y152942D01*
Y152839D01*
Y152736D01*
Y152633D01*
Y152530D01*
Y152427D01*
Y152324D01*
Y152221D01*
Y152118D01*
Y152015D01*
Y151912D01*
Y151809D01*
Y151705D01*
Y151602D01*
Y151499D01*
X138027D01*
Y151602D01*
X137924D01*
Y151705D01*
X137820D01*
Y151809D01*
Y151912D01*
X137717D01*
Y152015D01*
X137614D01*
Y152118D01*
X137511D01*
Y152221D01*
X137408D01*
Y152324D01*
Y152427D01*
X137305D01*
Y152530D01*
X137202D01*
Y152633D01*
X137099D01*
Y152736D01*
X136996D01*
Y152839D01*
Y152942D01*
X136893D01*
Y153045D01*
X136790D01*
Y153148D01*
X136687D01*
Y153252D01*
Y153355D01*
X136584D01*
Y153458D01*
X136480D01*
Y153561D01*
X136378D01*
Y153664D01*
X136274D01*
Y153767D01*
Y153870D01*
X136171D01*
Y153973D01*
X136068D01*
Y154076D01*
X135965D01*
Y154179D01*
X135862D01*
Y154282D01*
Y154385D01*
X135759D01*
Y154488D01*
X135656D01*
Y154591D01*
X135553D01*
Y154694D01*
X135450D01*
Y154797D01*
Y154901D01*
X135347D01*
Y155004D01*
X135244D01*
Y155107D01*
X135141D01*
Y155210D01*
X135038D01*
Y155313D01*
Y155416D01*
X134934D01*
Y155519D01*
X134831D01*
Y155622D01*
X134728D01*
Y155725D01*
Y155828D01*
X134625D01*
Y155931D01*
X134522D01*
Y156034D01*
X134419D01*
Y156137D01*
X134316D01*
Y156240D01*
Y156344D01*
X134213D01*
Y156447D01*
X134110D01*
Y156344D01*
Y156240D01*
Y156137D01*
Y156034D01*
Y155931D01*
Y155828D01*
Y155725D01*
Y155622D01*
Y155519D01*
Y155416D01*
Y155313D01*
Y155210D01*
Y155107D01*
Y155004D01*
Y154901D01*
Y154797D01*
Y154694D01*
Y154591D01*
Y154488D01*
Y154385D01*
Y154282D01*
Y154179D01*
Y154076D01*
Y153973D01*
Y153870D01*
Y153767D01*
Y153664D01*
Y153561D01*
Y153458D01*
Y153355D01*
Y153252D01*
Y153148D01*
Y153045D01*
Y152942D01*
Y152839D01*
Y152736D01*
Y152633D01*
Y152530D01*
Y152427D01*
Y152324D01*
Y152221D01*
Y152118D01*
Y152015D01*
Y151912D01*
Y151809D01*
Y151705D01*
Y151602D01*
Y151499D01*
X133492D01*
Y151602D01*
Y151705D01*
Y151809D01*
Y151912D01*
Y152015D01*
Y152118D01*
Y152221D01*
Y152324D01*
Y152427D01*
Y152530D01*
Y152633D01*
Y152736D01*
Y152839D01*
Y152942D01*
Y153045D01*
Y153148D01*
Y153252D01*
Y153355D01*
Y153458D01*
Y153561D01*
Y153664D01*
Y153767D01*
Y153870D01*
Y153973D01*
Y154076D01*
Y154179D01*
Y154282D01*
Y154385D01*
Y154488D01*
Y154591D01*
Y154694D01*
Y154797D01*
Y154901D01*
Y155004D01*
Y155107D01*
Y155210D01*
Y155313D01*
Y155416D01*
Y155519D01*
Y155622D01*
Y155725D01*
Y155828D01*
Y155931D01*
Y156034D01*
Y156137D01*
Y156240D01*
Y156344D01*
Y156447D01*
Y156550D01*
Y156653D01*
Y156756D01*
Y156859D01*
Y156962D01*
Y157065D01*
Y157168D01*
Y157271D01*
Y157374D01*
Y157477D01*
Y157580D01*
X134007D01*
Y157477D01*
X134110D01*
Y157374D01*
X134213D01*
Y157271D01*
X134316D01*
Y157168D01*
Y157065D01*
X134419D01*
Y156962D01*
X134522D01*
Y156859D01*
X134625D01*
Y156756D01*
X134728D01*
Y156653D01*
Y156550D01*
X134831D01*
Y156447D01*
X134934D01*
Y156344D01*
X135038D01*
Y156240D01*
X135141D01*
Y156137D01*
Y156034D01*
X135244D01*
Y155931D01*
X135347D01*
Y155828D01*
X135450D01*
Y155725D01*
X135553D01*
Y155622D01*
Y155519D01*
X135656D01*
Y155416D01*
X135759D01*
Y155313D01*
X135862D01*
Y155210D01*
X135965D01*
Y155107D01*
Y155004D01*
X136068D01*
Y154901D01*
X136171D01*
Y154797D01*
X136274D01*
Y154694D01*
Y154591D01*
X136378D01*
Y154488D01*
X136480D01*
Y154385D01*
X136584D01*
Y154282D01*
X136687D01*
Y154179D01*
Y154076D01*
X136790D01*
Y153973D01*
X136893D01*
Y153870D01*
X136996D01*
Y153767D01*
X137099D01*
Y153664D01*
Y153561D01*
X137202D01*
Y153458D01*
X137305D01*
Y153355D01*
X137408D01*
Y153252D01*
X137511D01*
Y153148D01*
Y153045D01*
X137614D01*
Y152942D01*
X137717D01*
Y152839D01*
X137820D01*
Y152736D01*
X138027D01*
Y152839D01*
Y152942D01*
Y153045D01*
Y153148D01*
Y153252D01*
Y153355D01*
Y153458D01*
Y153561D01*
Y153664D01*
Y153767D01*
Y153870D01*
Y153973D01*
Y154076D01*
Y154179D01*
Y154282D01*
Y154385D01*
Y154488D01*
Y154591D01*
Y154694D01*
Y154797D01*
Y154901D01*
Y155004D01*
Y155107D01*
Y155210D01*
Y155313D01*
Y155416D01*
Y155519D01*
Y155622D01*
Y155725D01*
Y155828D01*
Y155931D01*
Y156034D01*
Y156137D01*
Y156240D01*
Y156344D01*
Y156447D01*
Y156550D01*
Y156653D01*
Y156756D01*
Y156859D01*
Y156962D01*
Y157065D01*
Y157168D01*
Y157271D01*
Y157374D01*
Y157477D01*
Y157580D01*
X138542D01*
Y157477D01*
D02*
G37*
G36*
X128853D02*
Y157374D01*
Y157271D01*
Y157168D01*
Y157065D01*
Y156962D01*
Y156859D01*
Y156756D01*
Y156653D01*
Y156550D01*
Y156447D01*
Y156344D01*
Y156240D01*
Y156137D01*
Y156034D01*
Y155931D01*
Y155828D01*
Y155725D01*
Y155622D01*
Y155519D01*
Y155416D01*
Y155313D01*
Y155210D01*
Y155107D01*
Y155004D01*
Y154901D01*
Y154797D01*
Y154694D01*
Y154591D01*
Y154488D01*
Y154385D01*
Y154282D01*
Y154179D01*
Y154076D01*
Y153973D01*
Y153870D01*
Y153767D01*
Y153664D01*
Y153561D01*
Y153458D01*
Y153355D01*
Y153252D01*
Y153148D01*
Y153045D01*
Y152942D01*
Y152839D01*
Y152736D01*
Y152633D01*
Y152530D01*
Y152427D01*
Y152324D01*
Y152221D01*
Y152118D01*
Y152015D01*
Y151912D01*
Y151809D01*
Y151705D01*
Y151602D01*
Y151499D01*
X128338D01*
Y151602D01*
X128235D01*
Y151705D01*
X128132D01*
Y151809D01*
X128029D01*
Y151912D01*
X127926D01*
Y152015D01*
Y152118D01*
X127823D01*
Y152221D01*
X127720D01*
Y152324D01*
X127617D01*
Y152427D01*
X127514D01*
Y152530D01*
Y152633D01*
X127410D01*
Y152736D01*
X127307D01*
Y152839D01*
X127204D01*
Y152942D01*
X127101D01*
Y153045D01*
Y153148D01*
X126998D01*
Y153252D01*
X126895D01*
Y153355D01*
X126792D01*
Y153458D01*
X126689D01*
Y153561D01*
Y153664D01*
X126586D01*
Y153767D01*
X126483D01*
Y153870D01*
X126380D01*
Y153973D01*
X126277D01*
Y154076D01*
Y154179D01*
X126174D01*
Y154282D01*
X126070D01*
Y154385D01*
X125968D01*
Y154488D01*
Y154591D01*
X125864D01*
Y154694D01*
X125761D01*
Y154797D01*
X125658D01*
Y154901D01*
X125555D01*
Y155004D01*
Y155107D01*
X125452D01*
Y155210D01*
X125349D01*
Y155313D01*
X125246D01*
Y155416D01*
X125143D01*
Y155519D01*
Y155622D01*
X125040D01*
Y155725D01*
X124937D01*
Y155828D01*
X124834D01*
Y155931D01*
X124731D01*
Y156034D01*
Y156137D01*
X124627D01*
Y156240D01*
X124524D01*
Y156344D01*
X124318D01*
Y156240D01*
Y156137D01*
Y156034D01*
Y155931D01*
Y155828D01*
Y155725D01*
Y155622D01*
Y155519D01*
Y155416D01*
Y155313D01*
Y155210D01*
Y155107D01*
Y155004D01*
Y154901D01*
Y154797D01*
Y154694D01*
Y154591D01*
Y154488D01*
Y154385D01*
Y154282D01*
Y154179D01*
Y154076D01*
Y153973D01*
Y153870D01*
Y153767D01*
Y153664D01*
Y153561D01*
Y153458D01*
Y153355D01*
Y153252D01*
Y153148D01*
Y153045D01*
Y152942D01*
Y152839D01*
Y152736D01*
Y152633D01*
Y152530D01*
Y152427D01*
Y152324D01*
Y152221D01*
Y152118D01*
Y152015D01*
Y151912D01*
Y151809D01*
Y151705D01*
Y151602D01*
Y151499D01*
X123803D01*
Y151602D01*
Y151705D01*
Y151809D01*
Y151912D01*
Y152015D01*
Y152118D01*
Y152221D01*
Y152324D01*
Y152427D01*
Y152530D01*
Y152633D01*
Y152736D01*
Y152839D01*
Y152942D01*
Y153045D01*
Y153148D01*
Y153252D01*
Y153355D01*
Y153458D01*
Y153561D01*
Y153664D01*
Y153767D01*
Y153870D01*
Y153973D01*
Y154076D01*
Y154179D01*
Y154282D01*
Y154385D01*
Y154488D01*
Y154591D01*
Y154694D01*
Y154797D01*
Y154901D01*
Y155004D01*
Y155107D01*
Y155210D01*
Y155313D01*
Y155416D01*
Y155519D01*
Y155622D01*
Y155725D01*
Y155828D01*
Y155931D01*
Y156034D01*
Y156137D01*
Y156240D01*
Y156344D01*
Y156447D01*
Y156550D01*
Y156653D01*
Y156756D01*
Y156859D01*
Y156962D01*
Y157065D01*
Y157168D01*
Y157271D01*
Y157374D01*
Y157477D01*
Y157580D01*
X124318D01*
Y157477D01*
X124421D01*
Y157374D01*
Y157271D01*
X124524D01*
Y157168D01*
X124627D01*
Y157065D01*
X124731D01*
Y156962D01*
X124834D01*
Y156859D01*
Y156756D01*
X124937D01*
Y156653D01*
X125040D01*
Y156550D01*
X125143D01*
Y156447D01*
Y156344D01*
X125246D01*
Y156240D01*
X125349D01*
Y156137D01*
X125452D01*
Y156034D01*
X125555D01*
Y155931D01*
Y155828D01*
X125658D01*
Y155725D01*
X125761D01*
Y155622D01*
X125864D01*
Y155519D01*
X125968D01*
Y155416D01*
Y155313D01*
X126070D01*
Y155210D01*
X126174D01*
Y155107D01*
X126277D01*
Y155004D01*
X126380D01*
Y154901D01*
Y154797D01*
X126483D01*
Y154694D01*
X126586D01*
Y154591D01*
X126689D01*
Y154488D01*
X126792D01*
Y154385D01*
Y154282D01*
X126895D01*
Y154179D01*
X126998D01*
Y154076D01*
X127101D01*
Y153973D01*
X127204D01*
Y153870D01*
Y153767D01*
X127307D01*
Y153664D01*
X127410D01*
Y153561D01*
X127514D01*
Y153458D01*
X127617D01*
Y153355D01*
Y153252D01*
X127720D01*
Y153148D01*
X127823D01*
Y153045D01*
X127926D01*
Y152942D01*
Y152839D01*
X128029D01*
Y152736D01*
X128132D01*
Y152633D01*
X128235D01*
Y152736D01*
Y152839D01*
Y152942D01*
Y153045D01*
Y153148D01*
Y153252D01*
Y153355D01*
Y153458D01*
Y153561D01*
Y153664D01*
Y153767D01*
Y153870D01*
Y153973D01*
Y154076D01*
Y154179D01*
Y154282D01*
Y154385D01*
Y154488D01*
Y154591D01*
Y154694D01*
Y154797D01*
Y154901D01*
Y155004D01*
Y155107D01*
Y155210D01*
Y155313D01*
Y155416D01*
Y155519D01*
Y155622D01*
Y155725D01*
Y155828D01*
Y155931D01*
Y156034D01*
Y156137D01*
Y156240D01*
Y156344D01*
Y156447D01*
Y156550D01*
Y156653D01*
Y156756D01*
Y156859D01*
Y156962D01*
Y157065D01*
Y157168D01*
Y157271D01*
Y157374D01*
Y157477D01*
Y157580D01*
X128853D01*
Y157477D01*
D02*
G37*
G36*
X144726D02*
Y157374D01*
Y157271D01*
Y157168D01*
Y157065D01*
X141222D01*
Y156962D01*
Y156859D01*
Y156756D01*
Y156653D01*
Y156550D01*
Y156447D01*
Y156344D01*
Y156240D01*
Y156137D01*
Y156034D01*
Y155931D01*
Y155828D01*
Y155725D01*
Y155622D01*
Y155519D01*
Y155416D01*
Y155313D01*
Y155210D01*
Y155107D01*
Y155004D01*
Y154901D01*
Y154797D01*
Y154694D01*
Y154591D01*
X144314D01*
Y154488D01*
Y154385D01*
Y154282D01*
Y154179D01*
Y154076D01*
X141222D01*
Y153973D01*
Y153870D01*
Y153767D01*
Y153664D01*
Y153561D01*
Y153458D01*
Y153355D01*
Y153252D01*
Y153148D01*
Y153045D01*
Y152942D01*
Y152839D01*
Y152736D01*
Y152633D01*
Y152530D01*
Y152427D01*
Y152324D01*
Y152221D01*
Y152118D01*
Y152015D01*
Y151912D01*
Y151809D01*
Y151705D01*
Y151602D01*
Y151499D01*
X140603D01*
Y151602D01*
Y151705D01*
Y151809D01*
Y151912D01*
Y152015D01*
Y152118D01*
Y152221D01*
Y152324D01*
Y152427D01*
Y152530D01*
Y152633D01*
Y152736D01*
Y152839D01*
Y152942D01*
Y153045D01*
Y153148D01*
Y153252D01*
Y153355D01*
Y153458D01*
Y153561D01*
Y153664D01*
Y153767D01*
Y153870D01*
Y153973D01*
Y154076D01*
Y154179D01*
Y154282D01*
Y154385D01*
Y154488D01*
Y154591D01*
Y154694D01*
Y154797D01*
Y154901D01*
Y155004D01*
Y155107D01*
Y155210D01*
Y155313D01*
Y155416D01*
Y155519D01*
Y155622D01*
Y155725D01*
Y155828D01*
Y155931D01*
Y156034D01*
Y156137D01*
Y156240D01*
Y156344D01*
Y156447D01*
Y156550D01*
Y156653D01*
Y156756D01*
Y156859D01*
Y156962D01*
Y157065D01*
Y157168D01*
Y157271D01*
Y157374D01*
Y157477D01*
Y157580D01*
X144726D01*
Y157477D01*
D02*
G37*
G36*
X131430D02*
Y157374D01*
Y157271D01*
Y157168D01*
Y157065D01*
Y156962D01*
Y156859D01*
Y156756D01*
Y156653D01*
Y156550D01*
Y156447D01*
Y156344D01*
Y156240D01*
Y156137D01*
Y156034D01*
Y155931D01*
Y155828D01*
Y155725D01*
Y155622D01*
Y155519D01*
Y155416D01*
Y155313D01*
Y155210D01*
Y155107D01*
Y155004D01*
Y154901D01*
Y154797D01*
Y154694D01*
Y154591D01*
Y154488D01*
Y154385D01*
Y154282D01*
Y154179D01*
Y154076D01*
Y153973D01*
Y153870D01*
Y153767D01*
Y153664D01*
Y153561D01*
Y153458D01*
Y153355D01*
Y153252D01*
Y153148D01*
Y153045D01*
Y152942D01*
Y152839D01*
Y152736D01*
Y152633D01*
Y152530D01*
Y152427D01*
Y152324D01*
Y152221D01*
Y152118D01*
Y152015D01*
Y151912D01*
Y151809D01*
Y151705D01*
Y151602D01*
Y151499D01*
X130915D01*
Y151602D01*
Y151705D01*
Y151809D01*
Y151912D01*
Y152015D01*
Y152118D01*
Y152221D01*
Y152324D01*
Y152427D01*
Y152530D01*
Y152633D01*
Y152736D01*
Y152839D01*
Y152942D01*
Y153045D01*
Y153148D01*
Y153252D01*
Y153355D01*
Y153458D01*
Y153561D01*
Y153664D01*
Y153767D01*
Y153870D01*
Y153973D01*
Y154076D01*
Y154179D01*
Y154282D01*
Y154385D01*
Y154488D01*
Y154591D01*
Y154694D01*
Y154797D01*
Y154901D01*
Y155004D01*
Y155107D01*
Y155210D01*
Y155313D01*
Y155416D01*
Y155519D01*
Y155622D01*
Y155725D01*
Y155828D01*
Y155931D01*
Y156034D01*
Y156137D01*
Y156240D01*
Y156344D01*
Y156447D01*
Y156550D01*
Y156653D01*
Y156756D01*
Y156859D01*
Y156962D01*
Y157065D01*
Y157168D01*
Y157271D01*
Y157374D01*
Y157477D01*
Y157580D01*
X131430D01*
Y157477D01*
D02*
G37*
G36*
X122051D02*
Y157374D01*
Y157271D01*
Y157168D01*
Y157065D01*
X118546D01*
Y156962D01*
Y156859D01*
Y156756D01*
Y156653D01*
Y156550D01*
Y156447D01*
Y156344D01*
Y156240D01*
Y156137D01*
Y156034D01*
Y155931D01*
Y155828D01*
Y155725D01*
Y155622D01*
Y155519D01*
Y155416D01*
Y155313D01*
Y155210D01*
Y155107D01*
Y155004D01*
Y154901D01*
Y154797D01*
X121639D01*
Y154694D01*
Y154591D01*
Y154488D01*
Y154385D01*
X118649D01*
Y154282D01*
X118546D01*
Y154179D01*
Y154076D01*
Y153973D01*
Y153870D01*
Y153767D01*
Y153664D01*
Y153561D01*
Y153458D01*
Y153355D01*
Y153252D01*
Y153148D01*
Y153045D01*
Y152942D01*
Y152839D01*
Y152736D01*
Y152633D01*
Y152530D01*
Y152427D01*
Y152324D01*
Y152221D01*
Y152118D01*
Y152015D01*
X122154D01*
Y151912D01*
Y151809D01*
Y151705D01*
Y151602D01*
Y151499D01*
X117928D01*
Y151602D01*
Y151705D01*
Y151809D01*
Y151912D01*
Y152015D01*
Y152118D01*
Y152221D01*
Y152324D01*
Y152427D01*
Y152530D01*
Y152633D01*
Y152736D01*
Y152839D01*
Y152942D01*
Y153045D01*
Y153148D01*
Y153252D01*
Y153355D01*
Y153458D01*
Y153561D01*
Y153664D01*
Y153767D01*
Y153870D01*
Y153973D01*
Y154076D01*
Y154179D01*
Y154282D01*
Y154385D01*
Y154488D01*
Y154591D01*
Y154694D01*
Y154797D01*
Y154901D01*
Y155004D01*
Y155107D01*
Y155210D01*
Y155313D01*
Y155416D01*
Y155519D01*
Y155622D01*
Y155725D01*
Y155828D01*
Y155931D01*
Y156034D01*
Y156137D01*
Y156240D01*
Y156344D01*
Y156447D01*
Y156550D01*
Y156653D01*
Y156756D01*
Y156859D01*
Y156962D01*
Y157065D01*
Y157168D01*
Y157271D01*
Y157374D01*
Y157477D01*
Y157580D01*
X122051D01*
Y157477D01*
D02*
G37*
%LPC*%
G36*
X152868Y187574D02*
X151219D01*
Y187470D01*
X150189D01*
Y187367D01*
X149570D01*
Y187264D01*
X149055D01*
Y187161D01*
X148643D01*
Y187058D01*
X148230D01*
Y186955D01*
X147921D01*
Y186852D01*
X147509D01*
Y186749D01*
X147303D01*
Y186646D01*
X146994D01*
Y186543D01*
X146684D01*
Y186440D01*
X146478D01*
Y186337D01*
X146272D01*
Y186234D01*
X145963D01*
Y186131D01*
X145757D01*
Y186028D01*
X145551D01*
Y185924D01*
X145344D01*
Y185821D01*
X145138D01*
Y185718D01*
X144932D01*
Y185615D01*
X144726D01*
Y185512D01*
X144520D01*
Y185409D01*
X144417D01*
Y185306D01*
X144211D01*
Y185203D01*
X144005D01*
Y185100D01*
X143902D01*
Y184997D01*
X143695D01*
Y184894D01*
X143489D01*
Y184791D01*
X143386D01*
Y184688D01*
X143180D01*
Y184584D01*
X143077D01*
Y184482D01*
X142871D01*
Y184378D01*
X142768D01*
Y184275D01*
X142562D01*
Y184172D01*
X142458D01*
Y184069D01*
X142252D01*
Y183966D01*
X142149D01*
Y183863D01*
X141943D01*
Y183760D01*
X141840D01*
Y183657D01*
X141737D01*
Y183554D01*
X141531D01*
Y183451D01*
X141428D01*
Y183348D01*
X141325D01*
Y183245D01*
X141119D01*
Y183142D01*
X141016D01*
Y183038D01*
X140912D01*
Y182935D01*
X140809D01*
Y182832D01*
X140603D01*
Y182729D01*
X140500D01*
Y182626D01*
X140397D01*
Y182523D01*
X140294D01*
Y182420D01*
X140088D01*
Y182317D01*
X139985D01*
Y182214D01*
X139882D01*
Y182111D01*
X139779D01*
Y182008D01*
X139676D01*
Y181905D01*
X139573D01*
Y181802D01*
X139366D01*
Y181699D01*
X139263D01*
Y181596D01*
X139160D01*
Y181492D01*
X139057D01*
Y181389D01*
X138954D01*
Y181286D01*
X138851D01*
Y181183D01*
X138748D01*
Y181080D01*
X138645D01*
Y180977D01*
X138439D01*
Y180874D01*
X138336D01*
Y180771D01*
X138233D01*
Y180668D01*
X138130D01*
Y180565D01*
X138027D01*
Y180462D01*
X137924D01*
Y180359D01*
X137820D01*
Y180256D01*
X137717D01*
Y180152D01*
X137614D01*
Y180050D01*
X137511D01*
Y179946D01*
X137408D01*
Y179843D01*
X137305D01*
Y179740D01*
X137202D01*
Y179637D01*
X137099D01*
Y179534D01*
X136996D01*
Y179431D01*
X136790D01*
Y179328D01*
X136687D01*
Y179225D01*
X136584D01*
Y179122D01*
X136480D01*
Y179019D01*
X136378D01*
Y178916D01*
X136274D01*
Y178813D01*
X136171D01*
Y178710D01*
X136068D01*
Y178606D01*
X135965D01*
Y178503D01*
X135862D01*
Y178400D01*
X135759D01*
Y178297D01*
X135656D01*
Y178194D01*
X135553D01*
Y178091D01*
X135450D01*
Y177988D01*
X135347D01*
Y177885D01*
X135244D01*
Y177782D01*
X135141D01*
Y177679D01*
X135038D01*
Y177576D01*
X134934D01*
Y177473D01*
X134831D01*
Y177370D01*
X134728D01*
Y177267D01*
X134625D01*
Y177164D01*
X134522D01*
Y177060D01*
X134419D01*
Y176957D01*
X134316D01*
Y176854D01*
X134213D01*
Y176751D01*
X134110D01*
Y176648D01*
X134007D01*
Y176545D01*
X133904D01*
Y176442D01*
X133801D01*
Y176339D01*
X133698D01*
Y176236D01*
X133595D01*
Y176133D01*
X133492D01*
Y176030D01*
X133595D01*
Y175927D01*
X133698D01*
Y175824D01*
X133801D01*
Y175721D01*
X133904D01*
Y175618D01*
X134007D01*
Y175514D01*
X134110D01*
Y175411D01*
X134213D01*
Y175308D01*
X134316D01*
Y175205D01*
X134419D01*
Y175102D01*
X134522D01*
Y174999D01*
X134625D01*
Y174896D01*
X134728D01*
Y174793D01*
X134831D01*
Y174690D01*
X134934D01*
Y174587D01*
X135038D01*
Y174484D01*
X135141D01*
Y174381D01*
X135244D01*
Y174278D01*
X135347D01*
Y174174D01*
X135450D01*
Y174072D01*
X135553D01*
Y173968D01*
X135656D01*
Y173865D01*
X135759D01*
Y173762D01*
X135965D01*
Y173659D01*
X136068D01*
Y173556D01*
X136171D01*
Y173453D01*
X136274D01*
Y173350D01*
X136378D01*
Y173247D01*
X136480D01*
Y173144D01*
X136584D01*
Y173041D01*
X136687D01*
Y172938D01*
X136790D01*
Y172835D01*
X136893D01*
Y172732D01*
X136996D01*
Y172628D01*
X137099D01*
Y172525D01*
X137202D01*
Y172422D01*
X137305D01*
Y172319D01*
X137408D01*
Y172216D01*
X137511D01*
Y172113D01*
X137614D01*
Y172010D01*
X137717D01*
Y171907D01*
X137820D01*
Y171804D01*
X138027D01*
Y171701D01*
X138130D01*
Y171598D01*
X138233D01*
Y171495D01*
X138336D01*
Y171392D01*
X138439D01*
Y171289D01*
X138542D01*
Y171186D01*
X138748D01*
Y171082D01*
X138851D01*
Y170979D01*
X138954D01*
Y170876D01*
X139057D01*
Y170773D01*
X139160D01*
Y170670D01*
X139366D01*
Y170567D01*
X139470D01*
Y170464D01*
X139573D01*
Y170361D01*
X139676D01*
Y170258D01*
X139882D01*
Y170155D01*
X139985D01*
Y170052D01*
X140088D01*
Y169949D01*
X140191D01*
Y169846D01*
X140397D01*
Y169743D01*
X140500D01*
Y169640D01*
X140603D01*
Y169536D01*
X140809D01*
Y169433D01*
X140912D01*
Y169330D01*
X141016D01*
Y169227D01*
X141222D01*
Y169124D01*
X141325D01*
Y169021D01*
X141428D01*
Y168918D01*
X141634D01*
Y168815D01*
X141737D01*
Y168712D01*
X141840D01*
Y168609D01*
X142046D01*
Y168506D01*
X142149D01*
Y168403D01*
X142356D01*
Y168300D01*
X142458D01*
Y168196D01*
X142562D01*
Y168093D01*
X142768D01*
Y167990D01*
X142871D01*
Y167887D01*
X143077D01*
Y167784D01*
X143180D01*
Y167681D01*
X143386D01*
Y167578D01*
X143489D01*
Y167475D01*
X143695D01*
Y167372D01*
X143902D01*
Y167269D01*
X144005D01*
Y167166D01*
X144211D01*
Y167063D01*
X144417D01*
Y166960D01*
X144520D01*
Y166857D01*
X144726D01*
Y166753D01*
X144932D01*
Y166650D01*
X145138D01*
Y166547D01*
X145241D01*
Y166444D01*
X145448D01*
Y166341D01*
X145654D01*
Y166238D01*
X145860D01*
Y166135D01*
X146066D01*
Y166032D01*
X146272D01*
Y165929D01*
X146478D01*
Y165826D01*
X146787D01*
Y165723D01*
X146994D01*
Y165620D01*
X147200D01*
Y165517D01*
X147509D01*
Y165414D01*
X147715D01*
Y165311D01*
X148024D01*
Y165208D01*
X148334D01*
Y165104D01*
X148643D01*
Y165001D01*
X148952D01*
Y164898D01*
X149364D01*
Y164795D01*
X149776D01*
Y164692D01*
X150292D01*
Y164589D01*
X150910D01*
Y164486D01*
X153693D01*
Y164589D01*
X154415D01*
Y164692D01*
X154827D01*
Y164795D01*
X155239D01*
Y164898D01*
X155548D01*
Y165001D01*
X155858D01*
Y165104D01*
X156167D01*
Y165208D01*
X156373D01*
Y165311D01*
X156682D01*
Y165414D01*
X156888D01*
Y165517D01*
X157094D01*
Y165620D01*
X157300D01*
Y165723D01*
X157507D01*
Y165826D01*
X157610D01*
Y165929D01*
X157816D01*
Y166032D01*
X158022D01*
Y166135D01*
X158228D01*
Y166238D01*
X158331D01*
Y166341D01*
X158537D01*
Y166444D01*
X158640D01*
Y166547D01*
X158744D01*
Y166650D01*
X158950D01*
Y166753D01*
X159053D01*
Y166857D01*
X159156D01*
Y166960D01*
X159362D01*
Y167063D01*
X159465D01*
Y167166D01*
X159568D01*
Y167269D01*
X159671D01*
Y167372D01*
X159774D01*
Y167475D01*
X159877D01*
Y167578D01*
X160083D01*
Y167681D01*
X160186D01*
Y167784D01*
X160290D01*
Y167887D01*
X160393D01*
Y167990D01*
Y168093D01*
X160496D01*
Y168196D01*
X160599D01*
Y168300D01*
X160702D01*
Y168403D01*
X160805D01*
Y168506D01*
X160908D01*
Y168609D01*
X161011D01*
Y168712D01*
X161114D01*
Y168815D01*
Y168918D01*
X161217D01*
Y169021D01*
X161320D01*
Y169124D01*
X161423D01*
Y169227D01*
Y169330D01*
X161526D01*
Y169433D01*
X161629D01*
Y169536D01*
X161732D01*
Y169640D01*
Y169743D01*
X161836D01*
Y169846D01*
Y169949D01*
X161939D01*
Y170052D01*
X162042D01*
Y170155D01*
Y170258D01*
X162145D01*
Y170361D01*
Y170464D01*
X162248D01*
Y170567D01*
X162351D01*
Y170670D01*
Y170773D01*
X162454D01*
Y170876D01*
Y170979D01*
X162557D01*
Y171082D01*
Y171186D01*
X162660D01*
Y171289D01*
Y171392D01*
Y171495D01*
X162763D01*
Y171598D01*
Y171701D01*
X162866D01*
Y171804D01*
Y171907D01*
Y172010D01*
X162969D01*
Y172113D01*
Y172216D01*
X163072D01*
Y172319D01*
Y172422D01*
Y172525D01*
X163175D01*
Y172628D01*
Y172732D01*
Y172835D01*
Y172938D01*
X163278D01*
Y173041D01*
Y173144D01*
Y173247D01*
Y173350D01*
X163382D01*
Y173453D01*
Y173556D01*
Y173659D01*
Y173762D01*
X163485D01*
Y173865D01*
Y173968D01*
Y174072D01*
Y174174D01*
Y174278D01*
Y174381D01*
X163588D01*
Y174484D01*
Y174587D01*
Y174690D01*
Y174793D01*
Y174896D01*
Y174999D01*
Y175102D01*
Y175205D01*
Y175308D01*
Y175411D01*
X163691D01*
Y175514D01*
Y175618D01*
Y175721D01*
Y175824D01*
Y175927D01*
Y176030D01*
Y176133D01*
Y176236D01*
Y176339D01*
Y176442D01*
Y176545D01*
Y176648D01*
Y176751D01*
Y176854D01*
X163588D01*
Y176957D01*
Y177060D01*
Y177164D01*
Y177267D01*
Y177370D01*
Y177473D01*
Y177576D01*
Y177679D01*
Y177782D01*
Y177885D01*
X163485D01*
Y177988D01*
Y178091D01*
Y178194D01*
Y178297D01*
Y178400D01*
Y178503D01*
X163382D01*
Y178606D01*
Y178710D01*
Y178813D01*
Y178916D01*
X163278D01*
Y179019D01*
Y179122D01*
Y179225D01*
Y179328D01*
X163175D01*
Y179431D01*
Y179534D01*
Y179637D01*
X163072D01*
Y179740D01*
Y179843D01*
Y179946D01*
X162969D01*
Y180050D01*
Y180152D01*
Y180256D01*
X162866D01*
Y180359D01*
Y180462D01*
Y180565D01*
X162763D01*
Y180668D01*
Y180771D01*
X162660D01*
Y180874D01*
Y180977D01*
X162557D01*
Y181080D01*
Y181183D01*
X162454D01*
Y181286D01*
Y181389D01*
X162351D01*
Y181492D01*
Y181596D01*
X162248D01*
Y181699D01*
Y181802D01*
X162145D01*
Y181905D01*
Y182008D01*
X162042D01*
Y182111D01*
X161939D01*
Y182214D01*
Y182317D01*
X161836D01*
Y182420D01*
Y182523D01*
X161732D01*
Y182626D01*
X161629D01*
Y182729D01*
Y182832D01*
X161526D01*
Y182935D01*
X161423D01*
Y183038D01*
X161320D01*
Y183142D01*
Y183245D01*
X161217D01*
Y183348D01*
X161114D01*
Y183451D01*
X161011D01*
Y183554D01*
X160908D01*
Y183657D01*
Y183760D01*
X160805D01*
Y183863D01*
X160702D01*
Y183966D01*
X160599D01*
Y184069D01*
X160496D01*
Y184172D01*
X160393D01*
Y184275D01*
X160290D01*
Y184378D01*
X160186D01*
Y184482D01*
X160083D01*
Y184584D01*
X159980D01*
Y184688D01*
X159877D01*
Y184791D01*
X159774D01*
Y184894D01*
X159568D01*
Y184997D01*
X159465D01*
Y185100D01*
X159362D01*
Y185203D01*
X159259D01*
Y185306D01*
X159053D01*
Y185409D01*
X158950D01*
Y185512D01*
X158744D01*
Y185615D01*
X158640D01*
Y185718D01*
X158434D01*
Y185821D01*
X158331D01*
Y185924D01*
X158125D01*
Y186028D01*
X157919D01*
Y186131D01*
X157816D01*
Y186234D01*
X157610D01*
Y186337D01*
X157404D01*
Y186440D01*
X157197D01*
Y186543D01*
X156888D01*
Y186646D01*
X156682D01*
Y186749D01*
X156476D01*
Y186852D01*
X156167D01*
Y186955D01*
X155858D01*
Y187058D01*
X155445D01*
Y187161D01*
X155033D01*
Y187264D01*
X154621D01*
Y187367D01*
X154002D01*
Y187470D01*
X152868D01*
Y187574D01*
D02*
G37*
%LPD*%
D10*
X295039Y87067D02*
G03*
X295039Y87067I-492J0D01*
G01*
X283327Y312992D02*
G03*
X283327Y312992I-492J0D01*
G01*
X277264Y90158D02*
G03*
X277264Y90158I-492J0D01*
G01*
X295039Y135886D02*
G03*
X295039Y135886I-492J0D01*
G01*
X277264Y187402D02*
G03*
X277264Y187402I-492J0D01*
G01*
X295039Y184705D02*
G03*
X295039Y184705I-492J0D01*
G01*
X219370Y224410D02*
G03*
X219370Y224410I-492J0D01*
G01*
X232382Y83976D02*
G03*
X232382Y83976I-492J0D01*
G01*
X58666Y323721D02*
G03*
X58666Y323721I-492J0D01*
G01*
X82382Y275020D02*
G03*
X82382Y275020I-492J0D01*
G01*
X277264Y138583D02*
G03*
X277264Y138583I-492J0D01*
G01*
X295039Y233524D02*
G03*
X295039Y233524I-492J0D01*
G01*
X183957Y53543D02*
G03*
X183957Y53543I-492J0D01*
G01*
X111969Y52697D02*
G03*
X111969Y52697I-492J0D01*
G01*
X277264Y236221D02*
G03*
X277264Y236221I-492J0D01*
G01*
D11*
X161029Y18504D02*
G03*
X161029Y18504I-8071J0D01*
G01*
X141029D02*
G03*
X141029Y18504I-8071J0D01*
G01*
X121029D02*
G03*
X121029Y18504I-8071J0D01*
G01*
X102958Y13792D02*
G03*
X103548Y13451I394J0D01*
G01*
X104926Y13565D02*
G03*
X104336Y13906I-394J0D01*
G01*
Y9834D02*
G03*
X104926Y10175I197J341D01*
G01*
X103548Y10289D02*
G03*
X102958Y9948I-197J-341D01*
G01*
X164336Y9834D02*
G03*
X164926Y10175I197J341D01*
G01*
Y13565D02*
G03*
X164336Y13906I-394J0D01*
G01*
X161580Y32154D02*
G03*
X160989Y31813I-197J-341D01*
G01*
X162367Y31699D02*
G03*
X162958Y32040I197J341D01*
G01*
Y28196D02*
G03*
X162367Y28537I-394J0D01*
G01*
X160989Y28423D02*
G03*
X161580Y28082I394J0D01*
G01*
X100989Y28423D02*
G03*
X101580Y28082I394J0D01*
G01*
Y32154D02*
G03*
X100989Y31813I-197J-341D01*
G01*
X218465Y18110D02*
G03*
X218465Y18110I-8071J0D01*
G01*
X198465D02*
G03*
X198465Y18110I-8071J0D01*
G01*
X180394Y13398D02*
G03*
X180984Y13058I394J0D01*
G01*
X182362Y13171D02*
G03*
X181772Y13512I-394J0D01*
G01*
Y9441D02*
G03*
X182362Y9782I197J341D01*
G01*
X180984Y9895D02*
G03*
X180394Y9554I-197J-341D01*
G01*
X221772Y9441D02*
G03*
X222362Y9782I197J341D01*
G01*
Y13171D02*
G03*
X221772Y13512I-394J0D01*
G01*
X219016Y31760D02*
G03*
X218425Y31419I-197J-341D01*
G01*
X219803Y31306D02*
G03*
X220394Y31646I197J341D01*
G01*
Y27802D02*
G03*
X219803Y28143I-394J0D01*
G01*
X218425Y28030D02*
G03*
X219016Y27689I394J0D01*
G01*
X178425Y28030D02*
G03*
X179016Y27689I394J0D01*
G01*
Y31760D02*
G03*
X178425Y31419I-197J-341D01*
G01*
X271378Y93563D02*
Y124547D01*
X282165D01*
Y93563D02*
Y124547D01*
X271378Y93563D02*
X282165D01*
X261226Y104921D02*
X268312D01*
X261226D02*
Y115157D01*
X268312D01*
Y104921D02*
Y115157D01*
X285236Y89173D02*
Y128150D01*
X307874D01*
Y89173D02*
Y128150D01*
X285236Y89173D02*
X307874D01*
X268312Y250949D02*
Y261185D01*
X261226D02*
X268312D01*
X261226Y250949D02*
Y261185D01*
Y250949D02*
X268312D01*
X247289Y254941D02*
Y257193D01*
X250742Y250359D02*
X252408D01*
Y258682D02*
Y261776D01*
Y250359D02*
Y253453D01*
X250742Y261776D02*
X252408D01*
X280276Y303740D02*
Y326378D01*
X251142Y303740D02*
X280276D01*
X251142Y326378D02*
X280276D01*
X251142Y303740D02*
Y326378D01*
X162067Y291988D02*
X242815D01*
Y327421D01*
X162067Y291988D02*
Y327421D01*
X242815D01*
X138362Y300232D02*
X151748D01*
X138362D02*
Y307319D01*
X151748D01*
Y300232D02*
Y307319D01*
X138362Y300232D02*
X151748D01*
X138362D02*
Y307319D01*
X151748D01*
Y300232D02*
Y307319D01*
X237997Y104921D02*
Y115157D01*
X230911D02*
X237997D01*
X230911Y104921D02*
Y115157D01*
Y104921D02*
X237997D01*
X247289Y108913D02*
Y111165D01*
X250742Y104331D02*
X252408D01*
Y112654D02*
Y115748D01*
Y104331D02*
Y107425D01*
X250742Y115748D02*
X252408D01*
X285236Y137992D02*
X307874D01*
Y176969D01*
X285236D02*
X307874D01*
X285236Y137992D02*
Y176969D01*
X237997Y200591D02*
Y210827D01*
X230911D02*
X237997D01*
X230911Y200591D02*
Y210827D01*
Y200591D02*
X237997D01*
X250742Y211417D02*
X252408D01*
Y200000D02*
Y203095D01*
Y208323D02*
Y211417D01*
X250742Y200000D02*
X252408D01*
X247289Y204583D02*
Y206835D01*
X268312Y200787D02*
Y211024D01*
X261226D02*
X268312D01*
X261226Y200787D02*
Y211024D01*
Y200787D02*
X268312D01*
X271378Y190807D02*
Y221791D01*
X282165D01*
Y190807D02*
Y221791D01*
X271378Y190807D02*
X282165D01*
X285236Y186811D02*
X307874D01*
Y225787D01*
X285236D02*
X307874D01*
X285236Y186811D02*
Y225787D01*
X42717Y73031D02*
X81693D01*
Y55314D02*
Y73031D01*
X42717Y55314D02*
Y73031D01*
Y55314D02*
X81693D01*
X210236Y75197D02*
Y82284D01*
X220472D01*
Y75197D02*
Y82284D01*
X210236Y75197D02*
X220472D01*
X194882D02*
Y82284D01*
X205118D01*
Y75197D02*
Y82284D01*
X194882Y75197D02*
X205118D01*
X119362Y300232D02*
X132748D01*
X119362D02*
Y307319D01*
X132748D01*
Y300232D02*
Y307319D01*
X119362Y300232D02*
X132748D01*
X119362D02*
Y307319D01*
X132748D01*
Y300232D02*
Y307319D01*
X99862Y300232D02*
X113248D01*
X99862D02*
Y307319D01*
X113248D01*
Y300232D02*
Y307319D01*
X99862Y300232D02*
X113248D01*
X99862D02*
Y307319D01*
X113248D01*
Y300232D02*
Y307319D01*
X215075Y230496D02*
X222161D01*
X215075D02*
Y240732D01*
X222161D01*
Y230496D02*
Y240732D01*
X237997Y250949D02*
Y261185D01*
X230911D02*
X237997D01*
X230911Y250949D02*
Y261185D01*
Y250949D02*
X237997D01*
X268110Y152559D02*
Y162795D01*
X261024D02*
X268110D01*
X261024Y152559D02*
Y162795D01*
Y152559D02*
X268110D01*
X250540Y163386D02*
X252205D01*
Y151969D02*
Y155063D01*
Y160291D02*
Y163386D01*
X250540Y151969D02*
X252205D01*
X247087Y156551D02*
Y158803D01*
X237795Y152559D02*
Y162795D01*
X230709D02*
X237795D01*
X230709Y152559D02*
Y162795D01*
Y152559D02*
X237795D01*
X223780Y187795D02*
Y215354D01*
X203780Y187795D02*
X203957D01*
X213602D02*
X213957D01*
X223602D02*
X223780D01*
X203780D02*
Y215354D01*
X203957D01*
X213602D02*
X213957D01*
X223602D02*
X223780D01*
X207480Y164173D02*
X214567D01*
X207480D02*
Y174409D01*
X214567D01*
Y164173D02*
Y174409D01*
X207480Y148031D02*
X214567D01*
X207480D02*
Y158268D01*
X214567D01*
Y148031D02*
Y158268D01*
X242913Y56772D02*
X247429D01*
X242913D02*
Y82520D01*
X247429D01*
X62205Y298031D02*
X66142D01*
Y312205D01*
X62205D02*
X66142D01*
X30709Y298031D02*
X34646D01*
X30709Y312205D02*
X34646D01*
X30709Y298031D02*
Y312205D01*
X75000Y287795D02*
Y311417D01*
Y287795D02*
X88779D01*
X75000Y311417D02*
X88779D01*
Y287795D02*
Y311417D01*
X139937Y289209D02*
X150173D01*
Y296295D01*
X139937D02*
X150173D01*
X139937Y289209D02*
Y296295D01*
X120937Y289209D02*
X131173D01*
Y296295D01*
X120937D02*
X131173D01*
X120937Y289209D02*
Y296295D01*
X101437Y289209D02*
X111673D01*
Y296295D01*
X101437D02*
X111673D01*
X101437Y289209D02*
Y296295D01*
X107052Y10630D02*
Y26378D01*
X118863Y10630D02*
Y26378D01*
X127052Y10630D02*
Y26378D01*
X138863Y10630D02*
Y26378D01*
X147052Y10630D02*
Y26378D01*
X158863Y10630D02*
Y26378D01*
X102958Y3543D02*
Y35039D01*
X104887Y3543D02*
Y26378D01*
X124887Y3543D02*
Y26378D01*
X144887Y3543D02*
Y26378D01*
X121029Y3543D02*
Y26378D01*
X104887Y10630D02*
X121029D01*
X104887Y26378D02*
X121029D01*
X141029Y3543D02*
Y26378D01*
X124887Y10630D02*
X141029D01*
X124887Y26378D02*
X141029D01*
X161029Y3543D02*
Y26378D01*
X144887Y10630D02*
X161029D01*
X144887Y26378D02*
X161029D01*
X102958Y28346D02*
X162958D01*
X103548Y13451D02*
X104336Y13906D01*
X104926Y10175D02*
Y13565D01*
X103548Y10289D02*
X104336Y9834D01*
X164926Y10175D02*
Y13565D01*
X162958Y13110D02*
X164336Y13906D01*
X162958Y10630D02*
X164336Y9834D01*
X160989Y28423D02*
Y31813D01*
X161580Y32154D02*
X162367Y31699D01*
X161580Y28082D02*
X162367Y28537D01*
X162958Y3543D02*
Y35039D01*
X102958Y3543D02*
X162958D01*
X102958D02*
Y28878D01*
X101580Y28082D02*
X102958Y28878D01*
X100989Y28423D02*
Y31813D01*
X101580Y32154D02*
X102958Y31358D01*
Y35039D01*
X162958D01*
X184488Y10236D02*
Y25984D01*
X196299Y10236D02*
Y25984D01*
X204488Y10236D02*
Y25984D01*
X216299Y10236D02*
Y25984D01*
X180394Y3150D02*
Y34646D01*
Y5906D02*
X220394D01*
X182323Y3150D02*
Y25984D01*
X202323Y3150D02*
Y25984D01*
X198465Y3150D02*
Y25984D01*
X182323Y10236D02*
X198465D01*
X182323Y25984D02*
X198465D01*
X218465Y3150D02*
Y25984D01*
X202323Y10236D02*
X218465D01*
X202323Y25984D02*
X218465D01*
X180394Y27953D02*
X220394D01*
X180394Y8268D02*
X220394D01*
X180984Y13058D02*
X181772Y13512D01*
X182362Y9782D02*
Y13171D01*
X180984Y9895D02*
X181772Y9441D01*
X222362Y9782D02*
Y13171D01*
X220394Y12717D02*
X221772Y13512D01*
X220394Y10236D02*
X221772Y9441D01*
X218425Y28030D02*
Y31419D01*
X219016Y31760D02*
X219803Y31306D01*
X219016Y27689D02*
X219803Y28143D01*
X220394Y3150D02*
Y34646D01*
X180394Y3150D02*
X220394D01*
X180394D02*
Y28484D01*
X179016Y27689D02*
X180394Y28484D01*
X178425Y28030D02*
Y31419D01*
X179016Y31760D02*
X180394Y30965D01*
Y34646D01*
X220394D01*
X271378Y141988D02*
Y172972D01*
X282165D01*
Y141988D02*
Y172972D01*
X271378Y141988D02*
X282165D01*
X285236Y235630D02*
X307874D01*
Y274606D01*
X285236D02*
X307874D01*
X285236Y235630D02*
Y274606D01*
X215158Y40157D02*
Y62795D01*
X186024Y40157D02*
X215158D01*
X186024Y62795D02*
X215158D01*
X186024Y40157D02*
Y62795D01*
X113583Y39370D02*
Y62008D01*
Y39370D02*
X152559D01*
Y62008D01*
X113583D02*
X152559D01*
X42717Y19487D02*
X81693D01*
Y1771D02*
Y19487D01*
X42717Y1771D02*
Y19487D01*
Y1771D02*
X81693D01*
X247244Y19685D02*
X259842D01*
Y12598D02*
Y19685D01*
X247244Y12598D02*
X259842D01*
X247244D02*
Y19685D01*
X20472Y84842D02*
Y123819D01*
X2756Y84842D02*
X20472D01*
X2756Y123819D02*
X20472D01*
X2756Y84842D02*
Y123819D01*
X20472Y238779D02*
Y277756D01*
X2756Y238779D02*
X20472D01*
X2756Y277756D02*
X20472D01*
X2756Y238779D02*
Y277756D01*
X20472Y187205D02*
Y226181D01*
X2756Y187205D02*
X20472D01*
X2756Y226181D02*
X20472D01*
X2756Y187205D02*
Y226181D01*
X29331Y84842D02*
Y123819D01*
X47047D01*
X29331Y84842D02*
X47047D01*
Y123819D01*
X29331Y238779D02*
Y277756D01*
X47047D01*
X29331Y238779D02*
X47047D01*
Y277756D01*
X47047Y187205D02*
Y226181D01*
X29331Y187205D02*
X47047D01*
X29331Y226181D02*
X47047D01*
X29331Y187205D02*
Y226181D01*
X42717Y46259D02*
X81693D01*
Y28542D02*
Y46259D01*
X42717Y28542D02*
Y46259D01*
Y28542D02*
X81693D01*
X82677Y139567D02*
Y258858D01*
X67716Y93504D02*
X193701D01*
Y123819D01*
X82677Y139567D02*
X177559D01*
X67716Y258858D02*
X82677D01*
X67716Y93504D02*
Y258858D01*
X177559Y139567D02*
Y258858D01*
X193701Y123819D02*
Y258858D01*
X177559D02*
X193701D01*
X271378Y239626D02*
Y270610D01*
X282165D01*
Y239626D02*
Y270610D01*
X271378Y239626D02*
X282165D01*
X20472Y137598D02*
Y176575D01*
X2756Y137598D02*
X20472D01*
X2756Y176575D02*
X20472D01*
X2756Y137598D02*
Y176575D01*
X47047Y137598D02*
Y176575D01*
X29331Y137598D02*
X47047D01*
X29331Y176575D02*
X47047D01*
X29331Y137598D02*
Y176575D01*
X253805Y290945D02*
X251181D01*
X253805Y293569D01*
Y294225D01*
X253149Y294881D01*
X251837D01*
X251181Y294225D01*
X257085Y290945D02*
Y294881D01*
X255117Y292913D01*
X257741D01*
X259053Y293569D02*
X260365Y290945D01*
X261676Y293569D01*
X269548Y294225D02*
X268892Y294881D01*
X267580D01*
X266924Y294225D01*
Y293569D01*
X267580Y292913D01*
X268892D01*
X269548Y292257D01*
Y291601D01*
X268892Y290945D01*
X267580D01*
X266924Y291601D01*
X273484Y294881D02*
X270860D01*
Y290945D01*
X273484D01*
X270860Y292913D02*
X272172D01*
X277419Y294225D02*
X276763Y294881D01*
X275451D01*
X274796Y294225D01*
Y291601D01*
X275451Y290945D01*
X276763D01*
X277419Y291601D01*
X280699Y294881D02*
X279387D01*
X278731Y294225D01*
Y291601D01*
X279387Y290945D01*
X280699D01*
X281355Y291601D01*
Y294225D01*
X280699Y294881D01*
X282667Y290945D02*
Y294881D01*
X285291Y290945D01*
Y294881D01*
X286603D02*
Y290945D01*
X288571D01*
X289227Y291601D01*
Y294225D01*
X288571Y294881D01*
X286603D01*
X290539Y290945D02*
Y293569D01*
X291850Y294881D01*
X293162Y293569D01*
Y290945D01*
Y292913D01*
X290539D01*
X294474Y290945D02*
Y294881D01*
X296442D01*
X297098Y294225D01*
Y292913D01*
X296442Y292257D01*
X294474D01*
X295786D02*
X297098Y290945D01*
X298410Y294881D02*
Y294225D01*
X299722Y292913D01*
X301034Y294225D01*
Y294881D01*
X299722Y292913D02*
Y290945D01*
X276642Y26640D02*
X275986Y25984D01*
Y24672D01*
X276642Y24016D01*
X279265D01*
X279921Y24672D01*
Y25984D01*
X279265Y26640D01*
X275986Y27951D02*
X279265D01*
X279921Y28607D01*
Y29919D01*
X279265Y30575D01*
X275986D01*
X279921Y31887D02*
X275986D01*
Y33855D01*
X276642Y34511D01*
X277953D01*
X278609Y33855D01*
Y31887D01*
Y33199D02*
X279921Y34511D01*
Y35823D02*
X275986D01*
Y37791D01*
X276642Y38447D01*
X277953D01*
X278609Y37791D01*
Y35823D01*
Y37135D02*
X279921Y38447D01*
X275986Y42382D02*
Y39759D01*
X279921D01*
Y42382D01*
X277953Y39759D02*
Y41071D01*
X279921Y43694D02*
X275986D01*
X279921Y46318D01*
X275986D01*
Y47630D02*
Y50254D01*
Y48942D01*
X279921D01*
X275986Y55502D02*
X279921D01*
Y58126D01*
X275986Y59437D02*
Y60749D01*
Y60093D01*
X279921D01*
Y59437D01*
Y60749D01*
Y62717D02*
X275986D01*
X277297Y64029D01*
X275986Y65341D01*
X279921D01*
X275986Y66653D02*
Y67965D01*
Y67309D01*
X279921D01*
Y66653D01*
Y67965D01*
X275986Y69933D02*
Y72557D01*
Y71245D01*
X279921D01*
X275986Y76492D02*
Y73869D01*
X279921D01*
Y76492D01*
X277953Y73869D02*
Y75180D01*
X279921Y77804D02*
X275986D01*
Y79772D01*
X276642Y80428D01*
X277953D01*
X278609Y79772D01*
Y77804D01*
Y79116D02*
X279921Y80428D01*
X177427Y268634D02*
X176771Y269290D01*
X175459D01*
X174803Y268634D01*
Y267978D01*
X175459Y267322D01*
X176771D01*
X177427Y266666D01*
Y266010D01*
X176771Y265354D01*
X175459D01*
X174803Y266010D01*
X178739Y269290D02*
Y265354D01*
X180707D01*
X181363Y266010D01*
Y266666D01*
X180707Y267322D01*
X178739D01*
X180707D01*
X181363Y267978D01*
Y268634D01*
X180707Y269290D01*
X178739D01*
X182675Y267322D02*
X185299D01*
X189234Y268634D02*
X188578Y269290D01*
X187266D01*
X186610Y268634D01*
Y266010D01*
X187266Y265354D01*
X188578D01*
X189234Y266010D01*
X190546Y267322D02*
X193170D01*
X197106Y268634D02*
X196450Y269290D01*
X195138D01*
X194482Y268634D01*
Y266010D01*
X195138Y265354D01*
X196450D01*
X197106Y266010D01*
X200385Y269290D02*
X199074D01*
X198418Y268634D01*
Y266010D01*
X199074Y265354D01*
X200385D01*
X201041Y266010D01*
Y268634D01*
X200385Y269290D01*
X202353Y265354D02*
Y269290D01*
X204977Y265354D01*
Y269290D01*
X206289Y265354D02*
Y269290D01*
X208913Y265354D01*
Y269290D01*
X212849D02*
X210225D01*
Y265354D01*
X212849D01*
X210225Y267322D02*
X211537D01*
X216784Y268634D02*
X216128Y269290D01*
X214816D01*
X214161Y268634D01*
Y266010D01*
X214816Y265354D01*
X216128D01*
X216784Y266010D01*
X218096Y269290D02*
X220720D01*
X219408D01*
Y265354D01*
X224000Y269290D02*
X222688D01*
X222032Y268634D01*
Y266010D01*
X222688Y265354D01*
X224000D01*
X224656Y266010D01*
Y268634D01*
X224000Y269290D01*
X225968Y265354D02*
Y269290D01*
X227936D01*
X228592Y268634D01*
Y267322D01*
X227936Y266666D01*
X225968D01*
X227280D02*
X228592Y265354D01*
X228608Y127952D02*
X225984D01*
Y125984D01*
X227296D01*
X225984D01*
Y124016D01*
X229920Y127952D02*
Y124016D01*
X232544D01*
X235824Y127952D02*
X234512D01*
X233856Y127295D01*
Y124672D01*
X234512Y124016D01*
X235824D01*
X236480Y124672D01*
Y127295D01*
X235824Y127952D01*
X237791D02*
Y124016D01*
X239103Y125328D01*
X240415Y124016D01*
Y127952D01*
X248287Y127295D02*
X247631Y127952D01*
X246319D01*
X245663Y127295D01*
Y126640D01*
X246319Y125984D01*
X247631D01*
X248287Y125328D01*
Y124672D01*
X247631Y124016D01*
X246319D01*
X245663Y124672D01*
X252222Y127952D02*
X249599D01*
Y124016D01*
X252222D01*
X249599Y125984D02*
X250911D01*
X253534Y124016D02*
Y127952D01*
X256158Y124016D01*
Y127952D01*
X260094Y127295D02*
X259438Y127952D01*
X258126D01*
X257470Y127295D01*
Y126640D01*
X258126Y125984D01*
X259438D01*
X260094Y125328D01*
Y124672D01*
X259438Y124016D01*
X258126D01*
X257470Y124672D01*
X263374Y127952D02*
X262062D01*
X261406Y127295D01*
Y124672D01*
X262062Y124016D01*
X263374D01*
X264030Y124672D01*
Y127295D01*
X263374Y127952D01*
X265342Y124016D02*
Y127952D01*
X267309D01*
X267966Y127295D01*
Y125984D01*
X267309Y125328D01*
X265342D01*
X266654D02*
X267966Y124016D01*
X245275Y174933D02*
X244619Y175589D01*
X243307D01*
X242651Y174933D01*
Y174277D01*
X243307Y173621D01*
X244619D01*
X245275Y172966D01*
Y172310D01*
X244619Y171653D01*
X243307D01*
X242651Y172310D01*
X249211Y175589D02*
X246587D01*
Y171653D01*
X249211D01*
X246587Y173621D02*
X247899D01*
X250523Y171653D02*
Y175589D01*
X252490D01*
X253146Y174933D01*
Y173621D01*
X252490Y172966D01*
X250523D01*
X251835D02*
X253146Y171653D01*
X254458Y175589D02*
Y172966D01*
X255770Y171653D01*
X257082Y172966D01*
Y175589D01*
X260362D02*
X259050D01*
X258394Y174933D01*
Y172310D01*
X259050Y171653D01*
X260362D01*
X261018Y172310D01*
Y174933D01*
X260362Y175589D01*
X266266Y174933D02*
X266921Y175589D01*
X268233D01*
X268889Y174933D01*
Y174277D01*
X268233Y173621D01*
X267578D01*
X268233D01*
X268889Y172966D01*
Y172310D01*
X268233Y171653D01*
X266921D01*
X266266Y172310D01*
X245275Y223752D02*
X244619Y224408D01*
X243307D01*
X242651Y223752D01*
Y223096D01*
X243307Y222440D01*
X244619D01*
X245275Y221784D01*
Y221128D01*
X244619Y220472D01*
X243307D01*
X242651Y221128D01*
X249211Y224408D02*
X246587D01*
Y220472D01*
X249211D01*
X246587Y222440D02*
X247899D01*
X250523Y220472D02*
Y224408D01*
X252490D01*
X253146Y223752D01*
Y222440D01*
X252490Y221784D01*
X250523D01*
X251835D02*
X253146Y220472D01*
X254458Y224408D02*
Y221784D01*
X255770Y220472D01*
X257082Y221784D01*
Y224408D01*
X260362D02*
X259050D01*
X258394Y223752D01*
Y221128D01*
X259050Y220472D01*
X260362D01*
X261018Y221128D01*
Y223752D01*
X260362Y224408D01*
X268889Y220472D02*
X266266D01*
X268889Y223096D01*
Y223752D01*
X268233Y224408D01*
X266921D01*
X266266Y223752D01*
X245931Y273358D02*
X245275Y274014D01*
X243963D01*
X243307Y273358D01*
Y272703D01*
X243963Y272047D01*
X245275D01*
X245931Y271391D01*
Y270735D01*
X245275Y270079D01*
X243963D01*
X243307Y270735D01*
X249867Y274014D02*
X247243D01*
Y270079D01*
X249867D01*
X247243Y272047D02*
X248555D01*
X251179Y270079D02*
Y274014D01*
X253146D01*
X253802Y273358D01*
Y272047D01*
X253146Y271391D01*
X251179D01*
X252490D02*
X253802Y270079D01*
X255114Y274014D02*
Y271391D01*
X256426Y270079D01*
X257738Y271391D01*
Y274014D01*
X261018D02*
X259706D01*
X259050Y273358D01*
Y270735D01*
X259706Y270079D01*
X261018D01*
X261674Y270735D01*
Y273358D01*
X261018Y274014D01*
X266921Y270079D02*
X268233D01*
X267578D01*
Y274014D01*
X266921Y273358D01*
X228870Y40683D02*
X229526Y41339D01*
Y42651D01*
X228870Y43307D01*
X228214D01*
X227558Y42651D01*
Y41339D01*
X226903Y40683D01*
X226247D01*
X225590Y41339D01*
Y42651D01*
X226247Y43307D01*
X229526Y37404D02*
Y38715D01*
X228870Y39371D01*
X226247D01*
X225590Y38715D01*
Y37404D01*
X226247Y36748D01*
X228870D01*
X229526Y37404D01*
Y35436D02*
X225590D01*
Y32812D01*
X229526Y28876D02*
Y31500D01*
X225590D01*
Y28876D01*
X227558Y31500D02*
Y30188D01*
X225590Y27564D02*
X229526D01*
X225590Y24940D01*
X229526D01*
Y21660D02*
Y22972D01*
X228870Y23628D01*
X226247D01*
X225590Y22972D01*
Y21660D01*
X226247Y21005D01*
X228870D01*
X229526Y21660D01*
Y19693D02*
Y18381D01*
Y19037D01*
X225590D01*
Y19693D01*
Y18381D01*
X229526Y16413D02*
X225590D01*
Y14445D01*
X226247Y13789D01*
X228870D01*
X229526Y14445D01*
Y16413D01*
X171259Y53150D02*
Y50526D01*
Y51838D01*
X167323D01*
X171259Y46590D02*
Y49214D01*
X167323D01*
Y46590D01*
X169291Y49214D02*
Y47902D01*
X167323Y45278D02*
X171259D01*
X169947Y43966D01*
X171259Y42654D01*
X167323D01*
Y41342D02*
X171259D01*
Y39375D01*
X170603Y38719D01*
X169291D01*
X168635Y39375D01*
Y41342D01*
X170603Y30847D02*
X171259Y31503D01*
Y32815D01*
X170603Y33471D01*
X169947D01*
X169291Y32815D01*
Y31503D01*
X168635Y30847D01*
X167979D01*
X167323Y31503D01*
Y32815D01*
X167979Y33471D01*
X171259Y26911D02*
Y29535D01*
X167323D01*
Y26911D01*
X169291Y29535D02*
Y28223D01*
X167323Y25599D02*
X171259D01*
X167323Y22976D01*
X171259D01*
X170603Y19040D02*
X171259Y19696D01*
Y21008D01*
X170603Y21664D01*
X169947D01*
X169291Y21008D01*
Y19696D01*
X168635Y19040D01*
X167979D01*
X167323Y19696D01*
Y21008D01*
X167979Y21664D01*
X171259Y15760D02*
Y17072D01*
X170603Y17728D01*
X167979D01*
X167323Y17072D01*
Y15760D01*
X167979Y15104D01*
X170603D01*
X171259Y15760D01*
X167323Y13792D02*
X171259D01*
Y11824D01*
X170603Y11168D01*
X169291D01*
X168635Y11824D01*
Y13792D01*
Y12480D02*
X167323Y11168D01*
X21654Y286875D02*
Y283595D01*
X22309Y282939D01*
X23621D01*
X24277Y283595D01*
Y286875D01*
X28213Y286219D02*
X27557Y286875D01*
X26245D01*
X25589Y286219D01*
Y285563D01*
X26245Y284907D01*
X27557D01*
X28213Y284251D01*
Y283595D01*
X27557Y282939D01*
X26245D01*
X25589Y283595D01*
X29525Y286875D02*
Y282939D01*
X31493D01*
X32149Y283595D01*
Y284251D01*
X31493Y284907D01*
X29525D01*
X31493D01*
X32149Y285563D01*
Y286219D01*
X31493Y286875D01*
X29525D01*
X33461Y282283D02*
X36085D01*
X39364Y286875D02*
X38052D01*
X37396Y286219D01*
Y283595D01*
X38052Y282939D01*
X39364D01*
X40020Y283595D01*
Y286219D01*
X39364Y286875D01*
X41332Y282939D02*
Y286875D01*
X43956Y282939D01*
Y286875D01*
X45276Y327164D02*
Y323884D01*
X45932Y323228D01*
X47243D01*
X47899Y323884D01*
Y327164D01*
X51835Y326508D02*
X51179Y327164D01*
X49867D01*
X49211Y326508D01*
Y325852D01*
X49867Y325196D01*
X51179D01*
X51835Y324540D01*
Y323884D01*
X51179Y323228D01*
X49867D01*
X49211Y323884D01*
X53147Y327164D02*
Y323228D01*
X55115D01*
X55771Y323884D01*
Y324540D01*
X55115Y325196D01*
X53147D01*
X55115D01*
X55771Y325852D01*
Y326508D01*
X55115Y327164D01*
X53147D01*
X62986D02*
X61674D01*
X61019Y326508D01*
Y323884D01*
X61674Y323228D01*
X62986D01*
X63642Y323884D01*
Y326508D01*
X62986Y327164D01*
X67578D02*
X64954D01*
Y325196D01*
X66266D01*
X64954D01*
Y323228D01*
X71514Y327164D02*
X68890D01*
Y325196D01*
X70202D01*
X68890D01*
Y323228D01*
X76378Y324803D02*
Y328739D01*
X78346D01*
X79002Y328083D01*
Y326771D01*
X78346Y326115D01*
X76378D01*
X77690D02*
X79002Y324803D01*
X82938Y328083D02*
X82282Y328739D01*
X80970D01*
X80314Y328083D01*
Y327427D01*
X80970Y326771D01*
X82282D01*
X82938Y326115D01*
Y325459D01*
X82282Y324803D01*
X80970D01*
X80314Y325459D01*
X84249Y328739D02*
X86873D01*
X85561D01*
Y324803D01*
X142388Y317323D02*
X139764D01*
X142388Y319947D01*
Y320603D01*
X141732Y321259D01*
X140420D01*
X139764Y320603D01*
X145667Y317323D02*
Y321259D01*
X143700Y319291D01*
X146323D01*
X147635Y319947D02*
X148947Y317323D01*
X150259Y319947D01*
X125459Y321259D02*
X122835D01*
Y319291D01*
X124147Y319947D01*
X124802D01*
X125459Y319291D01*
Y317979D01*
X124802Y317323D01*
X123491D01*
X122835Y317979D01*
X126770Y319947D02*
X128082Y317323D01*
X129394Y319947D01*
X101181Y320603D02*
X101837Y321259D01*
X103149D01*
X103805Y320603D01*
Y319947D01*
X103149Y319291D01*
X102493D01*
X103149D01*
X103805Y318635D01*
Y317979D01*
X103149Y317323D01*
X101837D01*
X101181Y317979D01*
X105117Y319947D02*
X106429Y317323D01*
X107741Y319947D01*
X109053Y320603D02*
X109708Y321259D01*
X111021D01*
X111676Y320603D01*
Y319947D01*
X111021Y319291D01*
X110364D01*
X111021D01*
X111676Y318635D01*
Y317979D01*
X111021Y317323D01*
X109708D01*
X109053Y317979D01*
X120340Y67453D02*
X119684Y68109D01*
X118372D01*
X117717Y67453D01*
Y66797D01*
X118372Y66141D01*
X119684D01*
X120340Y65485D01*
Y64829D01*
X119684Y64173D01*
X118372D01*
X117717Y64829D01*
X121652Y68109D02*
X122964D01*
X122308D01*
Y64173D01*
X121652D01*
X122964D01*
X127556Y67453D02*
X126900Y68109D01*
X125588D01*
X124932Y67453D01*
Y64829D01*
X125588Y64173D01*
X126900D01*
X127556Y64829D01*
Y66141D01*
X126244D01*
X53022Y75853D02*
Y79789D01*
X54989D01*
X55645Y79133D01*
Y77821D01*
X54989Y77165D01*
X53022D01*
X54334D02*
X55645Y75853D01*
X59581Y79133D02*
X58925Y79789D01*
X57613D01*
X56957Y79133D01*
Y76509D01*
X57613Y75853D01*
X58925D01*
X59581Y76509D01*
Y77821D01*
X58269D01*
X60893Y79789D02*
Y75853D01*
X62861D01*
X63517Y76509D01*
Y77165D01*
X62861Y77821D01*
X60893D01*
X62861D01*
X63517Y78477D01*
Y79133D01*
X62861Y79789D01*
X60893D01*
X64829Y75197D02*
X67453D01*
X68765Y79133D02*
X69420Y79789D01*
X70732D01*
X71388Y79133D01*
Y78477D01*
X70732Y77821D01*
X70077D01*
X70732D01*
X71388Y77165D01*
Y76509D01*
X70732Y75853D01*
X69420D01*
X68765Y76509D01*
X53022Y49081D02*
Y53017D01*
X54989D01*
X55645Y52361D01*
Y51049D01*
X54989Y50393D01*
X53022D01*
X54334D02*
X55645Y49081D01*
X59581Y52361D02*
X58925Y53017D01*
X57613D01*
X56957Y52361D01*
Y49737D01*
X57613Y49081D01*
X58925D01*
X59581Y49737D01*
Y51049D01*
X58269D01*
X60893Y53017D02*
Y49081D01*
X62861D01*
X63517Y49737D01*
Y50393D01*
X62861Y51049D01*
X60893D01*
X62861D01*
X63517Y51705D01*
Y52361D01*
X62861Y53017D01*
X60893D01*
X64829Y48425D02*
X67453D01*
X71388Y49081D02*
X68765D01*
X71388Y51705D01*
Y52361D01*
X70732Y53017D01*
X69420D01*
X68765Y52361D01*
X53677Y22309D02*
Y26245D01*
X55645D01*
X56301Y25589D01*
Y24277D01*
X55645Y23621D01*
X53677D01*
X54989D02*
X56301Y22309D01*
X60237Y25589D02*
X59581Y26245D01*
X58269D01*
X57613Y25589D01*
Y22965D01*
X58269Y22309D01*
X59581D01*
X60237Y22965D01*
Y24277D01*
X58925D01*
X61549Y26245D02*
Y22309D01*
X63517D01*
X64173Y22965D01*
Y23621D01*
X63517Y24277D01*
X61549D01*
X63517D01*
X64173Y24933D01*
Y25589D01*
X63517Y26245D01*
X61549D01*
X65485Y21654D02*
X68109D01*
X69420Y22309D02*
X70732D01*
X70077D01*
Y26245D01*
X69420Y25589D01*
X26377Y114831D02*
X27033Y115486D01*
Y116798D01*
X26377Y117454D01*
X25721D01*
X25065Y116798D01*
Y115486D01*
X24409Y114831D01*
X23753D01*
X23097Y115486D01*
Y116798D01*
X23753Y117454D01*
X25721Y113519D02*
X23753D01*
X23097Y112863D01*
X23753Y112207D01*
X23097Y111551D01*
X23753Y110895D01*
X25721D01*
X23097Y109583D02*
Y108271D01*
Y108927D01*
X25721D01*
Y109583D01*
X26377Y105647D02*
X25721D01*
Y106303D01*
Y104991D01*
Y105647D01*
X23753D01*
X23097Y104991D01*
X25721Y100399D02*
Y102367D01*
X25065Y103023D01*
X23753D01*
X23097Y102367D01*
Y100399D01*
X27033Y99088D02*
X23097D01*
X25065D01*
X25721Y98431D01*
Y97120D01*
X25065Y96464D01*
X23097D01*
X22441Y95152D02*
Y92528D01*
X23097Y91216D02*
Y89904D01*
Y90560D01*
X27033D01*
X26377Y91216D01*
X53148Y115486D02*
X53804Y116142D01*
Y117454D01*
X53148Y118110D01*
X52492D01*
X51836Y117454D01*
Y116142D01*
X51180Y115486D01*
X50524D01*
X49869Y116142D01*
Y117454D01*
X50524Y118110D01*
X52492Y114174D02*
X50524D01*
X49869Y113519D01*
X50524Y112863D01*
X49869Y112207D01*
X50524Y111551D01*
X52492D01*
X49869Y110239D02*
Y108927D01*
Y109583D01*
X52492D01*
Y110239D01*
X53148Y106303D02*
X52492D01*
Y106959D01*
Y105647D01*
Y106303D01*
X50524D01*
X49869Y105647D01*
X52492Y101055D02*
Y103023D01*
X51836Y103679D01*
X50524D01*
X49869Y103023D01*
Y101055D01*
X53804Y99743D02*
X49869D01*
X51836D01*
X52492Y99088D01*
Y97776D01*
X51836Y97120D01*
X49869D01*
X49213Y95808D02*
Y93184D01*
X49869Y89248D02*
Y91872D01*
X52492Y89248D01*
X53148D01*
X53804Y89904D01*
Y91216D01*
X53148Y91872D01*
X23097Y217717D02*
X27033D01*
Y215749D01*
X26377Y215093D01*
X25065D01*
X24409Y215749D01*
Y217717D01*
Y216405D02*
X23097Y215093D01*
Y211813D02*
Y213125D01*
X23753Y213781D01*
X25065D01*
X25721Y213125D01*
Y211813D01*
X25065Y211157D01*
X24409D01*
Y213781D01*
X23097Y207877D02*
Y209189D01*
X23753Y209845D01*
X25065D01*
X25721Y209189D01*
Y207877D01*
X25065Y207221D01*
X24409D01*
Y209845D01*
X27033Y203286D02*
X23097D01*
Y205253D01*
X23753Y205909D01*
X25065D01*
X25721Y205253D01*
Y203286D01*
X22441Y201974D02*
Y199350D01*
X23097Y196070D02*
X27033D01*
X25065Y198038D01*
Y195414D01*
X49869Y217717D02*
X53804D01*
Y215749D01*
X53148Y215093D01*
X51836D01*
X51180Y215749D01*
Y217717D01*
Y216405D02*
X49869Y215093D01*
Y211813D02*
Y213125D01*
X50524Y213781D01*
X51836D01*
X52492Y213125D01*
Y211813D01*
X51836Y211157D01*
X51180D01*
Y213781D01*
X49869Y207877D02*
Y209189D01*
X50524Y209845D01*
X51836D01*
X52492Y209189D01*
Y207877D01*
X51836Y207221D01*
X51180D01*
Y209845D01*
X53804Y203286D02*
X49869D01*
Y205253D01*
X50524Y205909D01*
X51836D01*
X52492Y205253D01*
Y203286D01*
X49213Y201974D02*
Y199350D01*
X53148Y198038D02*
X53804Y197382D01*
Y196070D01*
X53148Y195414D01*
X52492D01*
X51836Y196070D01*
Y196726D01*
Y196070D01*
X51180Y195414D01*
X50524D01*
X49869Y196070D01*
Y197382D01*
X50524Y198038D01*
X23097Y167717D02*
X27033D01*
Y165749D01*
X26377Y165093D01*
X25065D01*
X24409Y165749D01*
Y167717D01*
Y166405D02*
X23097Y165093D01*
Y161813D02*
Y163125D01*
X23753Y163781D01*
X25065D01*
X25721Y163125D01*
Y161813D01*
X25065Y161157D01*
X24409D01*
Y163781D01*
X23097Y157877D02*
Y159189D01*
X23753Y159845D01*
X25065D01*
X25721Y159189D01*
Y157877D01*
X25065Y157221D01*
X24409D01*
Y159845D01*
X27033Y153286D02*
X23097D01*
Y155253D01*
X23753Y155909D01*
X25065D01*
X25721Y155253D01*
Y153286D01*
X22441Y151974D02*
Y149350D01*
X27033Y145414D02*
Y148038D01*
X25065D01*
X25721Y146726D01*
Y146070D01*
X25065Y145414D01*
X23753D01*
X23097Y146070D01*
Y147382D01*
X23753Y148038D01*
X49869Y167717D02*
X53804D01*
Y165749D01*
X53148Y165093D01*
X51836D01*
X51180Y165749D01*
Y167717D01*
Y166405D02*
X49869Y165093D01*
Y161813D02*
Y163125D01*
X50524Y163781D01*
X51836D01*
X52492Y163125D01*
Y161813D01*
X51836Y161157D01*
X51180D01*
Y163781D01*
X49869Y157877D02*
Y159189D01*
X50524Y159845D01*
X51836D01*
X52492Y159189D01*
Y157877D01*
X51836Y157221D01*
X51180D01*
Y159845D01*
X53804Y153286D02*
X49869D01*
Y155253D01*
X50524Y155909D01*
X51836D01*
X52492Y155253D01*
Y153286D01*
X49213Y151974D02*
Y149350D01*
X53804Y145414D02*
X53148Y146726D01*
X51836Y148038D01*
X50524D01*
X49869Y147382D01*
Y146070D01*
X50524Y145414D01*
X51180D01*
X51836Y146070D01*
Y148038D01*
X23097Y269160D02*
X27033D01*
Y267192D01*
X26377Y266536D01*
X25065D01*
X24409Y267192D01*
Y269160D01*
Y267848D02*
X23097Y266536D01*
Y263256D02*
Y264568D01*
X23753Y265224D01*
X25065D01*
X25721Y264568D01*
Y263256D01*
X25065Y262600D01*
X24409D01*
Y265224D01*
X23097Y259320D02*
Y260632D01*
X23753Y261288D01*
X25065D01*
X25721Y260632D01*
Y259320D01*
X25065Y258665D01*
X24409D01*
Y261288D01*
X27033Y254729D02*
X23097D01*
Y256697D01*
X23753Y257353D01*
X25065D01*
X25721Y256697D01*
Y254729D01*
X22441Y253417D02*
Y250793D01*
X23097Y246857D02*
Y249481D01*
X25721Y246857D01*
X26377D01*
X27033Y247513D01*
Y248825D01*
X26377Y249481D01*
X49869Y268504D02*
X53804D01*
Y266536D01*
X53148Y265880D01*
X51836D01*
X51180Y266536D01*
Y268504D01*
Y267192D02*
X49869Y265880D01*
Y262600D02*
Y263912D01*
X50524Y264568D01*
X51836D01*
X52492Y263912D01*
Y262600D01*
X51836Y261944D01*
X51180D01*
Y264568D01*
X49869Y258665D02*
Y259977D01*
X50524Y260632D01*
X51836D01*
X52492Y259977D01*
Y258665D01*
X51836Y258009D01*
X51180D01*
Y260632D01*
X53804Y254073D02*
X49869D01*
Y256041D01*
X50524Y256697D01*
X51836D01*
X52492Y256041D01*
Y254073D01*
X49213Y252761D02*
Y250137D01*
X49869Y248825D02*
Y247513D01*
Y248169D01*
X53804D01*
X53148Y248825D01*
X79266Y271391D02*
X78610Y272047D01*
X77298D01*
X76642Y271391D01*
Y270735D01*
X77298Y270079D01*
X78610D01*
X79266Y269423D01*
Y268767D01*
X78610Y268111D01*
X77298D01*
X76642Y268767D01*
X80578Y272047D02*
Y268111D01*
X81890Y269423D01*
X83202Y268111D01*
Y272047D01*
X87137Y268111D02*
X84514D01*
X87137Y270735D01*
Y271391D01*
X86481Y272047D01*
X85170D01*
X84514Y271391D01*
X24672Y303150D02*
X24016Y302494D01*
Y301182D01*
X24672Y300526D01*
X25328D01*
X25984Y301182D01*
Y302494D01*
X26640Y303150D01*
X27296D01*
X27952Y302494D01*
Y301182D01*
X27296Y300526D01*
X24016Y304462D02*
X27952D01*
X26640Y305774D01*
X27952Y307086D01*
X24016D01*
X27952Y308398D02*
Y309710D01*
Y309054D01*
X24016D01*
X24672Y308398D01*
X258466Y117717D02*
Y121653D01*
X260434D01*
X261090Y120997D01*
Y119685D01*
X260434Y119029D01*
X258466D01*
X259778D02*
X261090Y117717D01*
X262402D02*
X263714D01*
X263058D01*
Y121653D01*
X262402Y120997D01*
X268305Y121653D02*
X266994Y120997D01*
X265682Y119685D01*
Y118373D01*
X266338Y117717D01*
X267650D01*
X268305Y118373D01*
Y119029D01*
X267650Y119685D01*
X265682D01*
X228740Y104923D02*
X224804D01*
Y106891D01*
X225460Y107547D01*
X226772D01*
X227428Y106891D01*
Y104923D01*
Y106235D02*
X228740Y107547D01*
Y108859D02*
Y110170D01*
Y109515D01*
X224804D01*
X225460Y108859D01*
X224804Y114762D02*
Y112138D01*
X226772D01*
X226116Y113450D01*
Y114106D01*
X226772Y114762D01*
X228084D01*
X228740Y114106D01*
Y112794D01*
X228084Y112138D01*
X258466Y164961D02*
Y168897D01*
X260434D01*
X261090Y168241D01*
Y166929D01*
X260434Y166273D01*
X258466D01*
X259778D02*
X261090Y164961D01*
X262402D02*
X263714D01*
X263058D01*
Y168897D01*
X262402Y168241D01*
X267650Y164961D02*
Y168897D01*
X265682Y166929D01*
X268305D01*
X228537Y152758D02*
X224602D01*
Y154725D01*
X225258Y155381D01*
X226570D01*
X227225Y154725D01*
Y152758D01*
Y154069D02*
X228537Y155381D01*
Y156693D02*
Y158005D01*
Y157349D01*
X224602D01*
X225258Y156693D01*
Y159973D02*
X224602Y160629D01*
Y161941D01*
X225258Y162597D01*
X225914D01*
X226570Y161941D01*
Y161285D01*
Y161941D01*
X227225Y162597D01*
X227881D01*
X228537Y161941D01*
Y160629D01*
X227881Y159973D01*
X258466Y212993D02*
Y216929D01*
X260434D01*
X261090Y216272D01*
Y214961D01*
X260434Y214305D01*
X258466D01*
X259778D02*
X261090Y212993D01*
X262402D02*
X263714D01*
X263058D01*
Y216929D01*
X262402Y216272D01*
X268305Y212993D02*
X265682D01*
X268305Y215617D01*
Y216272D01*
X267650Y216929D01*
X266338D01*
X265682Y216272D01*
X229988Y212993D02*
Y216929D01*
X231956D01*
X232612Y216272D01*
Y214961D01*
X231956Y214305D01*
X229988D01*
X231300D02*
X232612Y212993D01*
X233924D02*
X235236D01*
X234580D01*
Y216929D01*
X233924Y216272D01*
X237204Y212993D02*
X238516D01*
X237860D01*
Y216929D01*
X237204Y216272D01*
X258466Y263387D02*
Y267322D01*
X260434D01*
X261090Y266666D01*
Y265354D01*
X260434Y264698D01*
X258466D01*
X259778D02*
X261090Y263387D01*
X262402D02*
X263714D01*
X263058D01*
Y267322D01*
X262402Y266666D01*
X265682D02*
X266338Y267322D01*
X267650D01*
X268305Y266666D01*
Y264042D01*
X267650Y263387D01*
X266338D01*
X265682Y264042D01*
Y266666D01*
X228740Y252626D02*
X224804D01*
Y254594D01*
X225460Y255250D01*
X226772D01*
X227428Y254594D01*
Y252626D01*
Y253938D02*
X228740Y255250D01*
X228084Y256561D02*
X228740Y257217D01*
Y258529D01*
X228084Y259185D01*
X225460D01*
X224804Y258529D01*
Y257217D01*
X225460Y256561D01*
X226116D01*
X226772Y257217D01*
Y259185D01*
X197114Y84253D02*
Y88188D01*
X199082D01*
X199738Y87532D01*
Y86221D01*
X199082Y85565D01*
X197114D01*
X198426D02*
X199738Y84253D01*
X201050Y87532D02*
X201706Y88188D01*
X203017D01*
X203674Y87532D01*
Y86876D01*
X203017Y86221D01*
X203674Y85565D01*
Y84909D01*
X203017Y84253D01*
X201706D01*
X201050Y84909D01*
Y85565D01*
X201706Y86221D01*
X201050Y86876D01*
Y87532D01*
X201706Y86221D02*
X203017D01*
X212468Y84253D02*
Y88188D01*
X214436D01*
X215092Y87532D01*
Y86221D01*
X214436Y85565D01*
X212468D01*
X213780D02*
X215092Y84253D01*
X216404Y88188D02*
X219028D01*
Y87532D01*
X216404Y84909D01*
Y84253D01*
X212991Y232153D02*
X209056D01*
Y234121D01*
X209712Y234777D01*
X211024D01*
X211680Y234121D01*
Y232153D01*
Y233465D02*
X212991Y234777D01*
X209056Y238713D02*
X209712Y237401D01*
X211024Y236089D01*
X212335D01*
X212991Y236745D01*
Y238057D01*
X212335Y238713D01*
X211680D01*
X211024Y238057D01*
Y236089D01*
X205511Y149870D02*
X201575D01*
Y151838D01*
X202231Y152494D01*
X203543D01*
X204199Y151838D01*
Y149870D01*
Y151182D02*
X205511Y152494D01*
X201575Y156429D02*
Y153806D01*
X203543D01*
X202887Y155117D01*
Y155773D01*
X203543Y156429D01*
X204855D01*
X205511Y155773D01*
Y154462D01*
X204855Y153806D01*
X205511Y166012D02*
X201575D01*
Y167979D01*
X202231Y168635D01*
X203543D01*
X204199Y167979D01*
Y166012D01*
Y167324D02*
X205511Y168635D01*
Y171915D02*
X201575D01*
X203543Y169947D01*
Y172571D01*
X141996Y283465D02*
Y287401D01*
X143964D01*
X144620Y286745D01*
Y285433D01*
X143964Y284777D01*
X141996D01*
X143308D02*
X144620Y283465D01*
X145931Y286745D02*
X146588Y287401D01*
X147899D01*
X148555Y286745D01*
Y286089D01*
X147899Y285433D01*
X147243D01*
X147899D01*
X148555Y284777D01*
Y284121D01*
X147899Y283465D01*
X146588D01*
X145931Y284121D01*
X123098Y283465D02*
Y287401D01*
X125066D01*
X125722Y286745D01*
Y285433D01*
X125066Y284777D01*
X123098D01*
X124410D02*
X125722Y283465D01*
X129658D02*
X127034D01*
X129658Y286089D01*
Y286745D01*
X129002Y287401D01*
X127690D01*
X127034Y286745D01*
X104069Y283465D02*
Y287401D01*
X106037D01*
X106693Y286745D01*
Y285433D01*
X106037Y284777D01*
X104069D01*
X105381D02*
X106693Y283465D01*
X108005D02*
X109317D01*
X108661D01*
Y287401D01*
X108005Y286745D01*
X248557Y99082D02*
Y101706D01*
X247901Y102362D01*
X246589D01*
X245933Y101706D01*
Y99082D01*
X246589Y98426D01*
X247901D01*
X247245Y99738D02*
X248557Y98426D01*
X247901D02*
X248557Y99082D01*
X252492Y102362D02*
X251181Y101706D01*
X249869Y100394D01*
Y99082D01*
X250524Y98426D01*
X251836D01*
X252492Y99082D01*
Y99738D01*
X251836Y100394D01*
X249869D01*
X248355Y146523D02*
Y149147D01*
X247699Y149802D01*
X246387D01*
X245731Y149147D01*
Y146523D01*
X246387Y145867D01*
X247699D01*
X247043Y147179D02*
X248355Y145867D01*
X247699D02*
X248355Y146523D01*
X252290Y149802D02*
X249666D01*
Y147835D01*
X250978Y148491D01*
X251634D01*
X252290Y147835D01*
Y146523D01*
X251634Y145867D01*
X250322D01*
X249666Y146523D01*
X248557Y194751D02*
Y197375D01*
X247901Y198031D01*
X246589D01*
X245933Y197375D01*
Y194751D01*
X246589Y194095D01*
X247901D01*
X247245Y195407D02*
X248557Y194095D01*
X247901D02*
X248557Y194751D01*
X251836Y194095D02*
Y198031D01*
X249869Y196063D01*
X252492D01*
X248557Y245145D02*
Y247769D01*
X247901Y248425D01*
X246589D01*
X245933Y247769D01*
Y245145D01*
X246589Y244489D01*
X247901D01*
X247245Y245801D02*
X248557Y244489D01*
X247901D02*
X248557Y245145D01*
X249869Y247769D02*
X250524Y248425D01*
X251836D01*
X252492Y247769D01*
Y247113D01*
X251836Y246457D01*
X251181D01*
X251836D01*
X252492Y245801D01*
Y245145D01*
X251836Y244489D01*
X250524D01*
X249869Y245145D01*
X245801Y86090D02*
Y88714D01*
X245145Y89369D01*
X243833D01*
X243177Y88714D01*
Y86090D01*
X243833Y85434D01*
X245145D01*
X244489Y86746D02*
X245801Y85434D01*
X245145D02*
X245801Y86090D01*
X249736Y85434D02*
X247113D01*
X249736Y88058D01*
Y88714D01*
X249080Y89369D01*
X247769D01*
X247113Y88714D01*
X227035Y195669D02*
X229658D01*
X230314Y196325D01*
Y197637D01*
X229658Y198293D01*
X227035D01*
X226379Y197637D01*
Y196325D01*
X227691Y196981D02*
X226379Y195669D01*
Y196325D02*
X227035Y195669D01*
X226379Y194357D02*
Y193045D01*
Y193701D01*
X230314D01*
X229658Y194357D01*
X141996Y313385D02*
Y309449D01*
X143964D01*
X144620Y310105D01*
Y312729D01*
X143964Y313385D01*
X141996D01*
X145931Y312729D02*
X146588Y313385D01*
X147899D01*
X148555Y312729D01*
Y312073D01*
X147899Y311417D01*
X147243D01*
X147899D01*
X148555Y310761D01*
Y310105D01*
X147899Y309449D01*
X146588D01*
X145931Y310105D01*
X123098Y313385D02*
Y309449D01*
X125066D01*
X125722Y310105D01*
Y312729D01*
X125066Y313385D01*
X123098D01*
X129658Y309449D02*
X127034D01*
X129658Y312073D01*
Y312729D01*
X129002Y313385D01*
X127690D01*
X127034Y312729D01*
X104069Y313385D02*
Y309449D01*
X106037D01*
X106693Y310105D01*
Y312729D01*
X106037Y313385D01*
X104069D01*
X108005Y309449D02*
X109317D01*
X108661D01*
Y313385D01*
X108005Y312729D01*
D12*
X308268Y38189D02*
Y69685D01*
X281890D02*
X308268D01*
X281890Y38189D02*
Y69685D01*
X285827Y50000D02*
Y58661D01*
X281890D02*
X285827D01*
X281890Y50000D02*
X285827D01*
X281890Y38189D02*
X308268D01*
D13*
X114567Y238843D02*
X117847Y232283D01*
X121126Y238843D01*
X124406Y232283D02*
X127686D01*
X126046D01*
Y242123D01*
X124406Y240483D01*
X132606Y232283D02*
Y233923D01*
X134246D01*
Y232283D01*
X132606D01*
X140805Y240483D02*
X142445Y242123D01*
X145725D01*
X147365Y240483D01*
Y233923D01*
X145725Y232283D01*
X142445D01*
X140805Y233923D01*
Y240483D01*
X95536Y254656D02*
X93896Y256296D01*
X90616D01*
X88976Y254656D01*
Y253016D01*
X90616Y251376D01*
X93896D01*
X95536Y249736D01*
Y248097D01*
X93896Y246457D01*
X90616D01*
X88976Y248097D01*
X105375Y256296D02*
X98816D01*
Y246457D01*
X105375D01*
X98816Y251376D02*
X102095D01*
X115215Y254656D02*
X113575Y256296D01*
X110295D01*
X108655Y254656D01*
Y248097D01*
X110295Y246457D01*
X113575D01*
X115215Y248097D01*
X118494Y256296D02*
X125054D01*
X121774D01*
Y246457D01*
X128334Y256296D02*
X131614D01*
X129974D01*
Y246457D01*
X128334D01*
X131614D01*
X141453Y256296D02*
X138173D01*
X136533Y254656D01*
Y248097D01*
X138173Y246457D01*
X141453D01*
X143093Y248097D01*
Y254656D01*
X141453Y256296D01*
X146372Y246457D02*
Y256296D01*
X152932Y246457D01*
Y256296D01*
X172611Y254656D02*
X170971Y256296D01*
X167691D01*
X166051Y254656D01*
Y248097D01*
X167691Y246457D01*
X170971D01*
X172611Y248097D01*
X102033Y205911D02*
Y196071D01*
X106952D01*
X108592Y197711D01*
Y199351D01*
X106952Y200991D01*
X102033D01*
X106952D01*
X108592Y202631D01*
Y204271D01*
X106952Y205911D01*
X102033D01*
X111872Y196071D02*
Y202631D01*
X115152Y205911D01*
X118431Y202631D01*
Y196071D01*
Y200991D01*
X111872D01*
X121711Y205911D02*
X128271D01*
X124991D01*
Y196071D01*
X131551Y205911D02*
X138110D01*
X134830D01*
Y196071D01*
X147950Y205911D02*
X141390D01*
Y196071D01*
X147950D01*
X141390Y200991D02*
X144670D01*
X151229Y196071D02*
Y205911D01*
X156149D01*
X157789Y204271D01*
Y200991D01*
X156149Y199351D01*
X151229D01*
X154509D02*
X157789Y196071D01*
X114891Y219231D02*
X113251Y220871D01*
X109972D01*
X108332Y219231D01*
Y217592D01*
X109972Y215952D01*
X113251D01*
X114891Y214312D01*
Y212672D01*
X113251Y211032D01*
X109972D01*
X108332Y212672D01*
X118171Y211032D02*
Y220871D01*
X121451Y217592D01*
X124731Y220871D01*
Y211032D01*
X128010D02*
Y217592D01*
X131290Y220871D01*
X134570Y217592D01*
Y211032D01*
Y215952D01*
X128010D01*
X137850Y211032D02*
Y220871D01*
X142770D01*
X144409Y219231D01*
Y215952D01*
X142770Y214312D01*
X137850D01*
X141130D02*
X144409Y211032D01*
X147689Y220871D02*
X154249D01*
X150969D01*
Y211032D01*
X276772Y273622D02*
Y277558D01*
Y224803D02*
Y228739D01*
Y175591D02*
Y179526D01*
X276772Y126772D02*
Y130707D01*
X203543Y67323D02*
X207479D01*
X193701Y67322D02*
X197636D01*
X195669Y69290D02*
Y65354D01*
X140945Y66142D02*
X144881D01*
X131102Y66141D02*
X135038D01*
X133070Y68109D02*
Y64173D01*
X254724Y299213D02*
X258660D01*
X264961Y299212D02*
X268896D01*
X266929Y301180D02*
Y297244D01*
D14*
X230157Y276204D02*
X229491Y276870D01*
X228158D01*
X227492Y276204D01*
Y273538D01*
X228158Y272871D01*
X229491D01*
X230157Y273538D01*
Y274204D01*
X229491Y274871D01*
X227492D01*
X233937Y286870D02*
X232604D01*
X233271D01*
Y282871D01*
X233937Y283538D01*
X230605D02*
X229938Y282871D01*
X228605D01*
X227939Y283538D01*
Y286204D01*
X228605Y286870D01*
X229938D01*
X230605Y286204D01*
Y283538D01*
X174421Y286870D02*
X177087D01*
X174421Y284204D01*
Y283538D01*
X175087Y282871D01*
X176420D01*
X177087Y283538D01*
X176693Y276870D02*
X175360D01*
X176026D01*
Y272871D01*
X176693Y273538D01*
D15*
X138953Y303972D02*
D03*
D03*
X119953D02*
D03*
D03*
X100453D02*
D03*
D03*
M02*
