G04*
G04 #@! TF.GenerationSoftware,Altium Limited,Altium Designer,20.1.8 (145)*
G04*
G04 Layer_Color=8388736*
%FSLAX25Y25*%
%MOIN*%
G70*
G04*
G04 #@! TF.SameCoordinates,270EA023-51AB-43D7-A289-41EC75A4802A*
G04*
G04*
G04 #@! TF.FilePolarity,Negative*
G04*
G01*
G75*
G04:AMPARAMS|DCode=17|XSize=60.01mil|YSize=22.75mil|CornerRadius=11.38mil|HoleSize=0mil|Usage=FLASHONLY|Rotation=0.000|XOffset=0mil|YOffset=0mil|HoleType=Round|Shape=RoundedRectangle|*
%AMROUNDEDRECTD17*
21,1,0.06001,0.00000,0,0,0.0*
21,1,0.03725,0.02275,0,0,0.0*
1,1,0.02275,0.01863,0.00000*
1,1,0.02275,-0.01863,0.00000*
1,1,0.02275,-0.01863,0.00000*
1,1,0.02275,0.01863,0.00000*
%
%ADD17ROUNDEDRECTD17*%
%ADD18R,0.06001X0.02275*%
%ADD22R,0.06693X0.08661*%
%ADD25R,0.04724X0.09843*%
%ADD29R,0.04540X0.02769*%
%ADD30R,0.03950X0.03950*%
G04:AMPARAMS|DCode=31|XSize=39.5mil|YSize=39.5mil|CornerRadius=11.87mil|HoleSize=0mil|Usage=FLASHONLY|Rotation=0.000|XOffset=0mil|YOffset=0mil|HoleType=Round|Shape=RoundedRectangle|*
%AMROUNDEDRECTD31*
21,1,0.03950,0.01575,0,0,0.0*
21,1,0.01575,0.03950,0,0,0.0*
1,1,0.02375,0.00787,-0.00787*
1,1,0.02375,-0.00787,-0.00787*
1,1,0.02375,-0.00787,0.00787*
1,1,0.02375,0.00787,0.00787*
%
%ADD31ROUNDEDRECTD31*%
%ADD32R,0.02769X0.04540*%
%ADD33R,0.25210X0.23635*%
%ADD34R,0.12611X0.07099*%
%ADD35R,0.07099X0.09383*%
%ADD36R,0.07099X0.09461*%
%ADD37R,0.02769X0.04737*%
%ADD38R,0.06181X0.06181*%
%ADD39C,0.06181*%
%ADD40R,0.05512X0.05512*%
%ADD41C,0.05512*%
%ADD42R,0.06706X0.06706*%
%ADD43C,0.06706*%
%ADD44C,0.07099*%
%ADD45R,0.07099X0.07099*%
%ADD46R,0.06706X0.06706*%
%ADD47C,0.08280*%
G04:AMPARAMS|DCode=48|XSize=86.74mil|YSize=70.99mil|CornerRadius=19.75mil|HoleSize=0mil|Usage=FLASHONLY|Rotation=0.000|XOffset=0mil|YOffset=0mil|HoleType=Round|Shape=RoundedRectangle|*
%AMROUNDEDRECTD48*
21,1,0.08674,0.03150,0,0,0.0*
21,1,0.04724,0.07099,0,0,0.0*
1,1,0.03950,0.02362,-0.01575*
1,1,0.03950,-0.02362,-0.01575*
1,1,0.03950,-0.02362,0.01575*
1,1,0.03950,0.02362,0.01575*
%
%ADD48ROUNDEDRECTD48*%
%ADD49O,0.08674X0.07099*%
%ADD50R,0.05512X0.05512*%
%ADD51R,0.07887X0.07887*%
%ADD52C,0.07887*%
%ADD53C,0.05524*%
%ADD54C,0.12611*%
D17*
X253432Y256067D02*
D03*
X246265Y252327D02*
D03*
X253432Y110039D02*
D03*
X246265Y106299D02*
D03*
Y201969D02*
D03*
X253432Y205709D02*
D03*
X246063Y153937D02*
D03*
X253230Y157677D02*
D03*
D18*
X246265Y259807D02*
D03*
Y113779D02*
D03*
Y209449D02*
D03*
X246063Y161417D02*
D03*
D22*
X218779Y217717D02*
D03*
X208780D02*
D03*
Y185433D02*
D03*
X218779D02*
D03*
D25*
X38583Y315945D02*
D03*
Y294291D02*
D03*
X58268D02*
D03*
Y315945D02*
D03*
X48425D02*
D03*
Y294291D02*
D03*
D29*
X264769Y112598D02*
D03*
Y107480D02*
D03*
Y253508D02*
D03*
Y258626D02*
D03*
X234454Y107480D02*
D03*
Y112598D02*
D03*
Y203150D02*
D03*
Y208268D02*
D03*
X264769Y203346D02*
D03*
Y208465D02*
D03*
X218618Y238173D02*
D03*
Y233055D02*
D03*
X234454Y253508D02*
D03*
Y258626D02*
D03*
X264567Y155118D02*
D03*
Y160236D02*
D03*
X234252Y155118D02*
D03*
Y160236D02*
D03*
X211024Y171850D02*
D03*
Y166732D02*
D03*
Y155709D02*
D03*
Y150591D02*
D03*
D30*
X148402Y303776D02*
D03*
X129402D02*
D03*
X109902D02*
D03*
D31*
X142496D02*
D03*
X123496D02*
D03*
X103996D02*
D03*
D32*
X217913Y78740D02*
D03*
X212795D02*
D03*
X202559D02*
D03*
X197441D02*
D03*
X142496Y292752D02*
D03*
X147614D02*
D03*
X123496D02*
D03*
X128614D02*
D03*
X103996D02*
D03*
X109114D02*
D03*
D33*
X260236Y69646D02*
D03*
D34*
X231890Y60630D02*
D03*
Y78661D02*
D03*
D35*
X81890Y317697D02*
D03*
D36*
Y281516D02*
D03*
D37*
X257480Y16142D02*
D03*
X253543D02*
D03*
X249606D02*
D03*
D38*
X276772Y99055D02*
D03*
Y196299D02*
D03*
Y147480D02*
D03*
Y245118D02*
D03*
D39*
Y109055D02*
D03*
Y119055D02*
D03*
Y206299D02*
D03*
Y216299D02*
D03*
Y157480D02*
D03*
Y167480D02*
D03*
Y255118D02*
D03*
Y265118D02*
D03*
D40*
X294488Y98819D02*
D03*
Y147638D02*
D03*
Y196457D02*
D03*
Y245276D02*
D03*
D41*
Y108661D02*
D03*
Y118504D02*
D03*
Y167323D02*
D03*
Y157480D02*
D03*
Y216142D02*
D03*
Y206299D02*
D03*
Y264961D02*
D03*
Y255118D02*
D03*
X142913Y52756D02*
D03*
X133071D02*
D03*
D42*
X270630Y312992D02*
D03*
X195669Y53543D02*
D03*
X13780Y116142D02*
D03*
X13780Y270079D02*
D03*
X13780Y218504D02*
D03*
X40354Y116142D02*
D03*
X40354Y270079D02*
D03*
X40354Y218504D02*
D03*
X13780Y168898D02*
D03*
X40354D02*
D03*
D43*
X260787Y312992D02*
D03*
X66142Y66338D02*
D03*
X58268D02*
D03*
X74016D02*
D03*
X205512Y53543D02*
D03*
X66142Y12794D02*
D03*
X58268D02*
D03*
X74016D02*
D03*
X13780Y100394D02*
D03*
Y108268D02*
D03*
Y92520D02*
D03*
X13780Y254331D02*
D03*
Y262205D02*
D03*
Y246457D02*
D03*
X13780Y202756D02*
D03*
Y210630D02*
D03*
Y194882D02*
D03*
X40354Y92520D02*
D03*
Y108268D02*
D03*
Y100394D02*
D03*
X40354Y246457D02*
D03*
Y262205D02*
D03*
Y254331D02*
D03*
X40354Y202756D02*
D03*
Y210630D02*
D03*
Y194882D02*
D03*
X66142Y39566D02*
D03*
X58268D02*
D03*
X74016D02*
D03*
X13780Y153150D02*
D03*
Y161024D02*
D03*
Y145276D02*
D03*
X40354Y153150D02*
D03*
Y161024D02*
D03*
Y145276D02*
D03*
D44*
X222441Y275039D02*
D03*
X212441D02*
D03*
X222441Y285039D02*
D03*
X212441D02*
D03*
X202441Y275039D02*
D03*
Y285039D02*
D03*
X192441D02*
D03*
Y275039D02*
D03*
X182441Y285039D02*
D03*
D45*
Y275039D02*
D03*
D46*
X50394Y66338D02*
D03*
Y12794D02*
D03*
Y39566D02*
D03*
D47*
X112958Y18504D02*
D03*
X132958D02*
D03*
X152958D02*
D03*
X210394Y18110D02*
D03*
X190394D02*
D03*
D48*
X294094Y58858D02*
D03*
D49*
Y49016D02*
D03*
D50*
X123228Y52756D02*
D03*
D51*
X185827Y251378D02*
D03*
D52*
Y241378D02*
D03*
Y231378D02*
D03*
Y221378D02*
D03*
Y211378D02*
D03*
Y201378D02*
D03*
Y191378D02*
D03*
Y181378D02*
D03*
Y171378D02*
D03*
Y161378D02*
D03*
Y151378D02*
D03*
Y141378D02*
D03*
Y131378D02*
D03*
Y121378D02*
D03*
Y111378D02*
D03*
Y101378D02*
D03*
X75590Y181378D02*
D03*
Y121378D02*
D03*
Y251378D02*
D03*
Y221378D02*
D03*
Y241378D02*
D03*
Y201378D02*
D03*
Y211378D02*
D03*
Y161378D02*
D03*
Y171378D02*
D03*
Y141378D02*
D03*
Y101378D02*
D03*
Y231378D02*
D03*
Y191378D02*
D03*
Y151378D02*
D03*
Y111378D02*
D03*
X165827Y101378D02*
D03*
X105827D02*
D03*
X145827D02*
D03*
X155827D02*
D03*
X115827D02*
D03*
X125827D02*
D03*
X85827D02*
D03*
X175827D02*
D03*
X135827D02*
D03*
X95827D02*
D03*
X165827Y111378D02*
D03*
X105827D02*
D03*
X145827D02*
D03*
X155827D02*
D03*
X115827D02*
D03*
X125827D02*
D03*
X85827D02*
D03*
X175827D02*
D03*
X135827D02*
D03*
X95827D02*
D03*
X85827Y121378D02*
D03*
X95827D02*
D03*
X75590Y131378D02*
D03*
X95827D02*
D03*
X85827D02*
D03*
D53*
X107087Y121378D02*
D03*
X114961D02*
D03*
D54*
X11811Y11811D02*
D03*
X298425D02*
D03*
X11811Y318898D02*
D03*
X298425D02*
D03*
M02*
