G04*
G04 #@! TF.GenerationSoftware,Altium Limited,Altium Designer,20.1.8 (145)*
G04*
G04 Layer_Physical_Order=2*
G04 Layer_Color=16711680*
%FSLAX25Y25*%
%MOIN*%
G70*
G04*
G04 #@! TF.SameCoordinates,270EA023-51AB-43D7-A289-41EC75A4802A*
G04*
G04*
G04 #@! TF.FilePolarity,Positive*
G04*
G01*
G75*
%ADD38R,0.06181X0.06181*%
%ADD39C,0.06181*%
%ADD40R,0.05512X0.05512*%
%ADD41C,0.05512*%
%ADD50R,0.05512X0.05512*%
%ADD55C,0.01000*%
%ADD56C,0.01968*%
%ADD57C,0.03937*%
%ADD58C,0.02953*%
%ADD59R,0.05906X0.05906*%
%ADD60C,0.05906*%
%ADD61C,0.06299*%
%ADD62R,0.06299X0.06299*%
%ADD63R,0.05906X0.05906*%
%ADD64C,0.07480*%
G04:AMPARAMS|DCode=65|XSize=78.74mil|YSize=62.99mil|CornerRadius=15.75mil|HoleSize=0mil|Usage=FLASHONLY|Rotation=0.000|XOffset=0mil|YOffset=0mil|HoleType=Round|Shape=RoundedRectangle|*
%AMROUNDEDRECTD65*
21,1,0.07874,0.03150,0,0,0.0*
21,1,0.04724,0.06299,0,0,0.0*
1,1,0.03150,0.02362,-0.01575*
1,1,0.03150,-0.02362,-0.01575*
1,1,0.03150,-0.02362,0.01575*
1,1,0.03150,0.02362,0.01575*
%
%ADD65ROUNDEDRECTD65*%
%ADD66O,0.07874X0.06299*%
%ADD67R,0.07087X0.07087*%
%ADD68C,0.07087*%
%ADD69C,0.04724*%
%ADD70C,0.11811*%
%ADD71C,0.02362*%
G36*
X264117Y306231D02*
X244907Y287022D01*
X244360Y286203D01*
X244168Y285236D01*
Y198526D01*
X232860Y187218D01*
X232313Y186399D01*
X232121Y185433D01*
X232313Y184467D01*
X232860Y183648D01*
X233679Y183100D01*
X234646Y182908D01*
X235612Y183100D01*
X236431Y183648D01*
X246693Y193910D01*
X258499Y182104D01*
Y104589D01*
X231631Y77722D01*
X199606D01*
X198640Y77530D01*
X197821Y76982D01*
X193884Y73045D01*
X193337Y72226D01*
X193144Y71260D01*
Y57496D01*
X191717D01*
Y53161D01*
X188608Y50053D01*
X188061Y49234D01*
X187869Y48268D01*
Y25984D01*
X114487D01*
Y34765D01*
X121106Y41384D01*
X147638D01*
X148223Y41500D01*
X148719Y41832D01*
X199113Y92226D01*
X199444Y92722D01*
X199561Y93307D01*
Y135827D01*
X199444Y136412D01*
X199113Y136908D01*
X193207Y142814D01*
X192711Y143145D01*
X192126Y143262D01*
X189964D01*
X189795Y143669D01*
X189067Y144618D01*
X188118Y145346D01*
X187013Y145804D01*
X185827Y145960D01*
X184641Y145804D01*
X183536Y145346D01*
X182586Y144618D01*
X181858Y143669D01*
X181400Y142564D01*
X181244Y141378D01*
X181400Y140192D01*
X181858Y139087D01*
X182586Y138138D01*
X183536Y137409D01*
X184641Y136952D01*
X185827Y136795D01*
X187013Y136952D01*
X188118Y137409D01*
X189067Y138138D01*
X189795Y139087D01*
X190253Y140192D01*
X190255Y140203D01*
X191492D01*
X196502Y135193D01*
Y93941D01*
X147004Y44443D01*
X120472D01*
X119887Y44326D01*
X119391Y43995D01*
X111876Y36480D01*
X111545Y35984D01*
X111428Y35399D01*
Y25984D01*
X58856D01*
X55806Y29034D01*
X55310Y29366D01*
X54724Y29482D01*
X37641D01*
X11024Y56100D01*
Y89087D01*
X11472Y89308D01*
X11786Y89067D01*
X12748Y88669D01*
X13280Y88599D01*
Y92520D01*
X13780D01*
Y93020D01*
X17701D01*
X17630Y93552D01*
X17232Y94513D01*
X16599Y95339D01*
X15773Y95972D01*
X15257Y96186D01*
Y96727D01*
X15773Y96941D01*
X16599Y97575D01*
X17232Y98400D01*
X17630Y99362D01*
X17766Y100394D01*
X17630Y101426D01*
X17232Y102387D01*
X16599Y103213D01*
X15773Y103846D01*
X15257Y104060D01*
Y104601D01*
X15773Y104815D01*
X16599Y105449D01*
X17232Y106274D01*
X17424Y106738D01*
X19052D01*
X24849Y100941D01*
Y83858D01*
X24965Y83273D01*
X25297Y82777D01*
X30415Y77659D01*
X30911Y77327D01*
X31496Y77211D01*
X157480D01*
X158066Y77327D01*
X158562Y77659D01*
X166908Y86005D01*
X167240Y86501D01*
X167356Y87087D01*
Y97094D01*
X168118Y97409D01*
X169067Y98138D01*
X169795Y99087D01*
X170253Y100192D01*
X170409Y101378D01*
X170253Y102564D01*
X169795Y103669D01*
X169067Y104618D01*
X168118Y105347D01*
X167013Y105804D01*
X165827Y105961D01*
X164641Y105804D01*
X163535Y105347D01*
X162586Y104618D01*
X161858Y103669D01*
X161400Y102564D01*
X161244Y101378D01*
X161400Y100192D01*
X161858Y99087D01*
X162586Y98138D01*
X163535Y97409D01*
X164297Y97094D01*
Y87720D01*
X156847Y80270D01*
X32130D01*
X27907Y84492D01*
Y101575D01*
X27791Y102160D01*
X27459Y102656D01*
X20766Y109349D01*
X20270Y109681D01*
X19685Y109797D01*
X17424D01*
X17232Y110261D01*
X16599Y111087D01*
X15814Y111689D01*
X15813Y111745D01*
X16149Y112189D01*
X17732D01*
Y120095D01*
X11024D01*
Y125003D01*
X16775Y130754D01*
X48031D01*
X48617Y130870D01*
X49113Y131202D01*
X53050Y135139D01*
X53382Y135635D01*
X53498Y136221D01*
Y149973D01*
X53541Y150002D01*
X54023Y150724D01*
X54192Y151575D01*
X54023Y152426D01*
X53541Y153147D01*
X52820Y153629D01*
X51968Y153799D01*
X51117Y153629D01*
X50396Y153147D01*
X49914Y152426D01*
X49745Y151575D01*
X49914Y150724D01*
X50396Y150002D01*
X50439Y149973D01*
Y136854D01*
X47398Y133813D01*
X16142D01*
X15556Y133696D01*
X15060Y133365D01*
X11486Y129790D01*
X11024Y129982D01*
Y141843D01*
X11472Y142064D01*
X11786Y141823D01*
X12748Y141425D01*
X13280Y141355D01*
Y145276D01*
X13780D01*
Y145776D01*
X17701D01*
X17630Y146308D01*
X17232Y147269D01*
X16599Y148095D01*
X15773Y148728D01*
X15257Y148942D01*
Y149483D01*
X15773Y149697D01*
X16599Y150330D01*
X17232Y151156D01*
X17630Y152118D01*
X17766Y153150D01*
X17630Y154182D01*
X17232Y155143D01*
X16599Y155969D01*
X15773Y156602D01*
X15257Y156816D01*
Y157357D01*
X15773Y157571D01*
X16599Y158204D01*
X17232Y159030D01*
X17424Y159494D01*
X20472D01*
X21058Y159611D01*
X21554Y159942D01*
X25491Y163879D01*
X25822Y164375D01*
X25939Y164961D01*
Y176138D01*
X29767Y179967D01*
X47792D01*
X51227Y176532D01*
Y173255D01*
X51183Y173226D01*
X50701Y172505D01*
X50532Y171653D01*
X50701Y170802D01*
X51183Y170081D01*
X51905Y169599D01*
X52756Y169430D01*
X53607Y169599D01*
X54328Y170081D01*
X54811Y170802D01*
X54980Y171653D01*
X54811Y172505D01*
X54328Y173226D01*
X54285Y173255D01*
Y177165D01*
X54169Y177751D01*
X53837Y178247D01*
X49507Y182578D01*
X49011Y182909D01*
X48425Y183026D01*
X29134D01*
X28549Y182909D01*
X28052Y182578D01*
X23328Y177853D01*
X22997Y177357D01*
X22880Y176772D01*
Y165594D01*
X19839Y162553D01*
X17424D01*
X17232Y163017D01*
X16599Y163843D01*
X15814Y164445D01*
X15813Y164501D01*
X16149Y164945D01*
X17732D01*
Y172850D01*
X11024D01*
Y191449D01*
X11472Y191670D01*
X11786Y191429D01*
X12748Y191031D01*
X13280Y190961D01*
Y194882D01*
X13780D01*
Y195382D01*
X17701D01*
X17630Y195914D01*
X17232Y196875D01*
X16599Y197701D01*
X15773Y198335D01*
X15257Y198548D01*
Y199090D01*
X15773Y199303D01*
X16599Y199937D01*
X17232Y200763D01*
X17630Y201724D01*
X17766Y202756D01*
X17630Y203788D01*
X17232Y204749D01*
X16599Y205575D01*
X15773Y206209D01*
X15257Y206422D01*
Y206963D01*
X15773Y207177D01*
X16599Y207811D01*
X17232Y208636D01*
X17630Y209598D01*
X17766Y210630D01*
X17630Y211662D01*
X17232Y212623D01*
X16599Y213449D01*
X15814Y214051D01*
X15813Y214107D01*
X16149Y214551D01*
X17732D01*
Y222457D01*
X11024D01*
Y243024D01*
X11472Y243245D01*
X11786Y243004D01*
X12748Y242606D01*
X13280Y242536D01*
Y246457D01*
X13780D01*
Y246957D01*
X17701D01*
X17630Y247489D01*
X17232Y248450D01*
X16599Y249276D01*
X15773Y249909D01*
X15257Y250123D01*
Y250664D01*
X15773Y250878D01*
X16599Y251512D01*
X17232Y252337D01*
X17630Y253299D01*
X17766Y254331D01*
X17630Y255363D01*
X17232Y256324D01*
X16599Y257150D01*
X15773Y257783D01*
X15257Y257997D01*
Y258538D01*
X15773Y258752D01*
X16599Y259386D01*
X17232Y260211D01*
X17630Y261173D01*
X17766Y262205D01*
X17630Y263237D01*
X17232Y264198D01*
X16599Y265024D01*
X15814Y265626D01*
X15813Y265682D01*
X16149Y266126D01*
X17732D01*
Y274031D01*
X11024D01*
Y306299D01*
X11417Y306693D01*
X73910D01*
X85971Y294632D01*
X86627Y294194D01*
X87402Y294040D01*
X142075D01*
X170223Y265892D01*
X170879Y265454D01*
X171653Y265300D01*
X190157D01*
X190932Y265454D01*
X191588Y265892D01*
X193871Y268176D01*
X194310Y268832D01*
X194464Y269606D01*
Y271386D01*
X194534Y271415D01*
X195401Y272080D01*
X196066Y272947D01*
X196484Y273956D01*
X196626Y275039D01*
X196484Y276123D01*
X196066Y277132D01*
X195401Y277999D01*
X194534Y278664D01*
X193524Y279082D01*
X192441Y279225D01*
X191358Y279082D01*
X190348Y278664D01*
X189481Y277999D01*
X188816Y277132D01*
X188398Y276123D01*
X188256Y275039D01*
X188398Y273956D01*
X188816Y272947D01*
X189481Y272080D01*
X190348Y271415D01*
X190418Y271386D01*
Y270444D01*
X189320Y269346D01*
X172492D01*
X144344Y297494D01*
X143688Y297932D01*
X142913Y298086D01*
X88240D01*
X80095Y306231D01*
X80286Y306693D01*
X234014D01*
Y279193D01*
X232854Y278033D01*
X225355D01*
X224534Y278664D01*
X223524Y279082D01*
X222441Y279225D01*
X221358Y279082D01*
X220348Y278664D01*
X219481Y277999D01*
X218816Y277132D01*
X218398Y276123D01*
X218255Y275039D01*
X218398Y273956D01*
X218816Y272947D01*
X219481Y272080D01*
X220348Y271415D01*
X221358Y270997D01*
X222441Y270854D01*
X223524Y270997D01*
X224534Y271415D01*
X225355Y272045D01*
X234014D01*
Y266595D01*
X220324Y252905D01*
X219848Y252285D01*
X219549Y251562D01*
X219447Y250787D01*
Y180315D01*
X219549Y179540D01*
X219848Y178818D01*
X220324Y178198D01*
X235195Y163327D01*
Y142579D01*
X204182Y111566D01*
X203706Y110946D01*
X203407Y110224D01*
X203305Y109449D01*
Y96850D01*
X203407Y96075D01*
X203706Y95353D01*
X204182Y94733D01*
X204802Y94257D01*
X205524Y93958D01*
X206299Y93856D01*
X207074Y93958D01*
X207796Y94257D01*
X208416Y94733D01*
X208892Y95353D01*
X209191Y96075D01*
X209293Y96850D01*
Y108209D01*
X240306Y139221D01*
X240782Y139841D01*
X241081Y140564D01*
X241183Y141339D01*
Y164567D01*
X241081Y165342D01*
X240906Y165765D01*
X240782Y166064D01*
X240306Y166684D01*
X225435Y181555D01*
Y249547D01*
X239125Y263237D01*
X239601Y263857D01*
X239900Y264579D01*
X240002Y265354D01*
Y277953D01*
Y306693D01*
X263926D01*
X264117Y306231D01*
D02*
G37*
G36*
X304724Y26772D02*
X303937Y25984D01*
X214018D01*
Y35433D01*
X213916Y36208D01*
X213766Y36569D01*
X213617Y36930D01*
X213141Y37550D01*
X208309Y42382D01*
Y50549D01*
X220413D01*
X224064Y46899D01*
X224684Y46423D01*
X224983Y46299D01*
X225406Y46124D01*
X226181Y46022D01*
X290393D01*
X291214Y45391D01*
X292224Y44973D01*
X293307Y44830D01*
X294882D01*
X295965Y44973D01*
X296975Y45391D01*
X297841Y46056D01*
X298507Y46923D01*
X298925Y47932D01*
X299067Y49016D01*
X298925Y50099D01*
X298507Y51108D01*
X297841Y51975D01*
X296975Y52640D01*
X295965Y53059D01*
X294882Y53201D01*
X293307D01*
X292224Y53059D01*
X291214Y52640D01*
X290393Y52010D01*
X227421D01*
X223771Y55660D01*
X223151Y56136D01*
X222640Y56348D01*
X222428Y56435D01*
X221654Y56537D01*
X208103D01*
X207505Y56996D01*
X206544Y57394D01*
X205512Y57530D01*
X204480Y57394D01*
X203518Y56996D01*
X202693Y56362D01*
X202059Y55537D01*
X201661Y54575D01*
X201525Y53543D01*
X201661Y52511D01*
X202059Y51550D01*
X202321Y51209D01*
Y41142D01*
X202423Y40367D01*
X202510Y40155D01*
X202722Y39645D01*
X203198Y39025D01*
X208030Y34193D01*
Y25984D01*
X192919D01*
Y47222D01*
X195287Y49591D01*
X199622D01*
Y57496D01*
X198194D01*
Y70214D01*
X200652Y72672D01*
X232677D01*
X233643Y72864D01*
X234462Y73412D01*
X262809Y101758D01*
X263137Y102249D01*
X263356Y102577D01*
X263548Y103543D01*
Y183150D01*
X263356Y184116D01*
X262809Y184935D01*
X249218Y198526D01*
Y284190D01*
X271720Y306693D01*
X304724D01*
Y26772D01*
D02*
G37*
G36*
X35926Y26871D02*
X36423Y26540D01*
X36702Y26484D01*
X36653Y25984D01*
X11024D01*
Y51121D01*
X11486Y51312D01*
X35926Y26871D01*
D02*
G37*
%LPC*%
G36*
X96311Y305900D02*
Y304276D01*
X97935D01*
X97865Y304627D01*
X97383Y305348D01*
X96662Y305830D01*
X96311Y305900D01*
D02*
G37*
G36*
X95311D02*
X94960Y305830D01*
X94239Y305348D01*
X93756Y304627D01*
X93687Y304276D01*
X95311D01*
Y305900D01*
D02*
G37*
G36*
X97935Y303276D02*
X96311D01*
Y301651D01*
X96662Y301721D01*
X97383Y302203D01*
X97865Y302925D01*
X97935Y303276D01*
D02*
G37*
G36*
X95311D02*
X93687D01*
X93756Y302925D01*
X94239Y302203D01*
X94960Y301721D01*
X95311Y301651D01*
Y303276D01*
D02*
G37*
G36*
X222941Y289159D02*
Y285539D01*
X226560D01*
X226484Y286123D01*
X226066Y287132D01*
X225400Y287999D01*
X224534Y288664D01*
X223524Y289082D01*
X222941Y289159D01*
D02*
G37*
G36*
X221941D02*
X221358Y289082D01*
X220348Y288664D01*
X219481Y287999D01*
X218816Y287132D01*
X218398Y286123D01*
X218321Y285539D01*
X221941D01*
Y289159D01*
D02*
G37*
G36*
X226560Y284539D02*
X222941D01*
Y280920D01*
X223524Y280997D01*
X224534Y281415D01*
X225400Y282080D01*
X226066Y282947D01*
X226484Y283956D01*
X226560Y284539D01*
D02*
G37*
G36*
X221941D02*
X218321D01*
X218398Y283956D01*
X218816Y282947D01*
X219481Y282080D01*
X220348Y281415D01*
X221358Y280997D01*
X221941Y280920D01*
Y284539D01*
D02*
G37*
G36*
X212441Y289225D02*
X211358Y289082D01*
X210348Y288664D01*
X209481Y287999D01*
X208816Y287132D01*
X208398Y286123D01*
X208256Y285039D01*
X208398Y283956D01*
X208816Y282947D01*
X209481Y282080D01*
X210348Y281415D01*
X211358Y280997D01*
X212441Y280854D01*
X213524Y280997D01*
X214534Y281415D01*
X215401Y282080D01*
X216066Y282947D01*
X216484Y283956D01*
X216626Y285039D01*
X216484Y286123D01*
X216066Y287132D01*
X215401Y287999D01*
X214534Y288664D01*
X213524Y289082D01*
X212441Y289225D01*
D02*
G37*
G36*
X202441D02*
X201358Y289082D01*
X200348Y288664D01*
X199481Y287999D01*
X198816Y287132D01*
X198398Y286123D01*
X198256Y285039D01*
X198398Y283956D01*
X198816Y282947D01*
X199481Y282080D01*
X200348Y281415D01*
X201358Y280997D01*
X202441Y280854D01*
X203524Y280997D01*
X204534Y281415D01*
X205400Y282080D01*
X206066Y282947D01*
X206484Y283956D01*
X206626Y285039D01*
X206484Y286123D01*
X206066Y287132D01*
X205400Y287999D01*
X204534Y288664D01*
X203524Y289082D01*
X202441Y289225D01*
D02*
G37*
G36*
X192441D02*
X191358Y289082D01*
X190348Y288664D01*
X189481Y287999D01*
X188816Y287132D01*
X188398Y286123D01*
X188256Y285039D01*
X188398Y283956D01*
X188816Y282947D01*
X189481Y282080D01*
X190348Y281415D01*
X191358Y280997D01*
X192441Y280854D01*
X193524Y280997D01*
X194534Y281415D01*
X195401Y282080D01*
X196066Y282947D01*
X196484Y283956D01*
X196626Y285039D01*
X196484Y286123D01*
X196066Y287132D01*
X195401Y287999D01*
X194534Y288664D01*
X193524Y289082D01*
X192441Y289225D01*
D02*
G37*
G36*
X182441D02*
X181358Y289082D01*
X180348Y288664D01*
X179481Y287999D01*
X178816Y287132D01*
X178398Y286123D01*
X178255Y285039D01*
X178398Y283956D01*
X178816Y282947D01*
X179481Y282080D01*
X180348Y281415D01*
X181358Y280997D01*
X182441Y280854D01*
X183524Y280997D01*
X184534Y281415D01*
X185400Y282080D01*
X186066Y282947D01*
X186484Y283956D01*
X186626Y285039D01*
X186484Y286123D01*
X186066Y287132D01*
X185400Y287999D01*
X184534Y288664D01*
X183524Y289082D01*
X182441Y289225D01*
D02*
G37*
G36*
X155118Y298982D02*
X154152Y298789D01*
X153333Y298242D01*
X152785Y297423D01*
X152593Y296457D01*
Y294488D01*
X152785Y293522D01*
X153333Y292703D01*
X157073Y288963D01*
X172782Y273254D01*
X173601Y272707D01*
X174567Y272515D01*
X178291D01*
Y270890D01*
X186591D01*
Y279189D01*
X178291D01*
Y277564D01*
X175613D01*
X160644Y292533D01*
X160644Y292533D01*
X157643Y295534D01*
Y296457D01*
X157451Y297423D01*
X156904Y298242D01*
X156084Y298789D01*
X155118Y298982D01*
D02*
G37*
G36*
X212441Y279225D02*
X211358Y279082D01*
X210348Y278664D01*
X209481Y277999D01*
X208816Y277132D01*
X208398Y276123D01*
X208256Y275039D01*
X208398Y273956D01*
X208816Y272947D01*
X209481Y272080D01*
X210348Y271415D01*
X211358Y270997D01*
X212441Y270854D01*
X213524Y270997D01*
X214534Y271415D01*
X215401Y272080D01*
X216066Y272947D01*
X216484Y273956D01*
X216626Y275039D01*
X216484Y276123D01*
X216066Y277132D01*
X215401Y277999D01*
X214534Y278664D01*
X213524Y279082D01*
X212441Y279225D01*
D02*
G37*
G36*
X202441D02*
X201358Y279082D01*
X200348Y278664D01*
X199481Y277999D01*
X198816Y277132D01*
X198398Y276123D01*
X198256Y275039D01*
X198398Y273956D01*
X198816Y272947D01*
X199481Y272080D01*
X200348Y271415D01*
X201358Y270997D01*
X202441Y270854D01*
X203524Y270997D01*
X204534Y271415D01*
X205400Y272080D01*
X206066Y272947D01*
X206484Y273956D01*
X206626Y275039D01*
X206484Y276123D01*
X206066Y277132D01*
X205400Y277999D01*
X204534Y278664D01*
X203524Y279082D01*
X202441Y279225D01*
D02*
G37*
G36*
X48425Y287657D02*
X47574Y287488D01*
X46853Y287006D01*
X46371Y286284D01*
X46201Y285433D01*
X46371Y284582D01*
X46853Y283861D01*
X47574Y283379D01*
X48425Y283209D01*
X49276Y283379D01*
X49323Y283410D01*
X114516D01*
X123525Y274401D01*
X123536Y274346D01*
X124018Y273624D01*
X124740Y273142D01*
X124795Y273131D01*
X137546Y260381D01*
X138202Y259942D01*
X138976Y259788D01*
X166818D01*
X166866Y259756D01*
X167717Y259587D01*
X168568Y259756D01*
X168615Y259788D01*
X210126D01*
X210173Y259756D01*
X211024Y259587D01*
X211875Y259756D01*
X212596Y260239D01*
X213078Y260960D01*
X213247Y261811D01*
X213078Y262662D01*
X212596Y263384D01*
X211875Y263866D01*
X211024Y264035D01*
X210173Y263866D01*
X210126Y263834D01*
X168615D01*
X168568Y263866D01*
X167717Y264035D01*
X166866Y263866D01*
X166818Y263834D01*
X139814D01*
X127656Y275992D01*
X127645Y276048D01*
X127163Y276769D01*
X126442Y277251D01*
X126386Y277262D01*
X116785Y286864D01*
X116129Y287302D01*
X115354Y287456D01*
X49323D01*
X49276Y287488D01*
X48425Y287657D01*
D02*
G37*
G36*
X44307Y274031D02*
X36402D01*
Y266126D01*
X37985D01*
X38320Y265682D01*
X38320Y265626D01*
X37535Y265024D01*
X36902Y264198D01*
X36503Y263237D01*
X36367Y262205D01*
X36503Y261173D01*
X36902Y260211D01*
X37535Y259386D01*
X38361Y258752D01*
X38877Y258538D01*
Y257997D01*
X38361Y257783D01*
X37535Y257150D01*
X36902Y256324D01*
X36503Y255363D01*
X36367Y254331D01*
X36503Y253299D01*
X36902Y252337D01*
X37535Y251512D01*
X38361Y250878D01*
X38877Y250664D01*
Y250123D01*
X38361Y249909D01*
X37535Y249276D01*
X36902Y248450D01*
X36503Y247489D01*
X36433Y246957D01*
X40354D01*
X44275D01*
X44205Y247489D01*
X43807Y248450D01*
X43174Y249276D01*
X42348Y249909D01*
X41832Y250123D01*
Y250664D01*
X42348Y250878D01*
X43174Y251512D01*
X43807Y252337D01*
X44205Y253299D01*
X44341Y254331D01*
X44205Y255363D01*
X43807Y256324D01*
X43174Y257150D01*
X42348Y257783D01*
X41832Y257997D01*
Y258538D01*
X42348Y258752D01*
X43174Y259386D01*
X43807Y260211D01*
X44205Y261173D01*
X44341Y262205D01*
X44205Y263237D01*
X43807Y264198D01*
X43174Y265024D01*
X42389Y265626D01*
X42388Y265682D01*
X42724Y266126D01*
X44307D01*
Y274031D01*
D02*
G37*
G36*
X190370Y255921D02*
X181283D01*
Y246835D01*
X190370D01*
Y255921D01*
D02*
G37*
G36*
X75590Y255960D02*
X74405Y255804D01*
X73299Y255346D01*
X72350Y254618D01*
X71622Y253669D01*
X71584Y253577D01*
X68877D01*
X68103Y253423D01*
X67447Y252985D01*
X61168Y246706D01*
X60729Y246050D01*
X60575Y245276D01*
Y96063D01*
X60729Y95289D01*
X61168Y94632D01*
X65105Y90695D01*
X65761Y90257D01*
X66535Y90103D01*
X82677D01*
X83451Y90257D01*
X84108Y90695D01*
X87257Y93845D01*
X87696Y94501D01*
X87850Y95276D01*
Y97298D01*
X88118Y97409D01*
X89067Y98138D01*
X89795Y99087D01*
X90253Y100192D01*
X90409Y101378D01*
X90253Y102564D01*
X89795Y103669D01*
X89067Y104618D01*
X88118Y105347D01*
X87013Y105804D01*
X85827Y105961D01*
X84641Y105804D01*
X83535Y105347D01*
X82586Y104618D01*
X81858Y103669D01*
X81400Y102564D01*
X81244Y101378D01*
X81400Y100192D01*
X81858Y99087D01*
X82586Y98138D01*
X83535Y97409D01*
X83804Y97298D01*
Y96114D01*
X81839Y94149D01*
X67373D01*
X64622Y96901D01*
Y244438D01*
X69715Y249531D01*
X71438D01*
X71622Y249087D01*
X72350Y248138D01*
X73299Y247409D01*
X74405Y246952D01*
X75590Y246796D01*
X76777Y246952D01*
X77882Y247409D01*
X78831Y248138D01*
X79559Y249087D01*
X80017Y250192D01*
X80173Y251378D01*
X80017Y252564D01*
X79559Y253669D01*
X78831Y254618D01*
X77882Y255346D01*
X76777Y255804D01*
X75590Y255960D01*
D02*
G37*
G36*
X44275Y245957D02*
X40854D01*
Y242536D01*
X41386Y242606D01*
X42348Y243004D01*
X43174Y243638D01*
X43807Y244463D01*
X44205Y245425D01*
X44275Y245957D01*
D02*
G37*
G36*
X17701D02*
X14280D01*
Y242536D01*
X14811Y242606D01*
X15773Y243004D01*
X16599Y243638D01*
X17232Y244463D01*
X17630Y245425D01*
X17701Y245957D01*
D02*
G37*
G36*
X39854D02*
X36433D01*
X36503Y245425D01*
X36902Y244463D01*
X37535Y243638D01*
X38361Y243004D01*
X39323Y242606D01*
X39854Y242536D01*
Y245957D01*
D02*
G37*
G36*
X185827Y245960D02*
X184641Y245804D01*
X183536Y245346D01*
X182586Y244618D01*
X181858Y243669D01*
X181400Y242564D01*
X181244Y241378D01*
X181400Y240192D01*
X181858Y239087D01*
X182586Y238138D01*
X183536Y237409D01*
X184641Y236952D01*
X185827Y236795D01*
X187013Y236952D01*
X188118Y237409D01*
X189067Y238138D01*
X189795Y239087D01*
X190253Y240192D01*
X190409Y241378D01*
X190253Y242564D01*
X189795Y243669D01*
X189067Y244618D01*
X188118Y245346D01*
X187013Y245804D01*
X185827Y245960D01*
D02*
G37*
G36*
X75590D02*
X74405Y245804D01*
X73299Y245346D01*
X72350Y244618D01*
X71622Y243669D01*
X71164Y242564D01*
X71008Y241378D01*
X71164Y240192D01*
X71622Y239087D01*
X72350Y238138D01*
X73299Y237409D01*
X74405Y236952D01*
X75590Y236795D01*
X76777Y236952D01*
X77882Y237409D01*
X78831Y238138D01*
X79559Y239087D01*
X80017Y240192D01*
X80173Y241378D01*
X80017Y242564D01*
X79559Y243669D01*
X78831Y244618D01*
X77882Y245346D01*
X76777Y245804D01*
X75590Y245960D01*
D02*
G37*
G36*
X76091Y235895D02*
Y231878D01*
X80107D01*
X80017Y232564D01*
X79559Y233669D01*
X78831Y234618D01*
X77882Y235347D01*
X76777Y235804D01*
X76091Y235895D01*
D02*
G37*
G36*
X75091Y235895D02*
X74405Y235804D01*
X73299Y235347D01*
X72350Y234618D01*
X71622Y233669D01*
X71164Y232564D01*
X71074Y231878D01*
X75091D01*
Y235895D01*
D02*
G37*
G36*
X80107Y230878D02*
X76091D01*
Y226861D01*
X76777Y226952D01*
X77882Y227409D01*
X78831Y228138D01*
X79559Y229087D01*
X80017Y230192D01*
X80107Y230878D01*
D02*
G37*
G36*
X75091D02*
X71074D01*
X71164Y230192D01*
X71622Y229087D01*
X72350Y228138D01*
X73299Y227409D01*
X74405Y226952D01*
X75091Y226861D01*
Y230878D01*
D02*
G37*
G36*
X185827Y225960D02*
X184641Y225804D01*
X183536Y225346D01*
X182586Y224618D01*
X181858Y223669D01*
X181400Y222564D01*
X181244Y221378D01*
X181400Y220192D01*
X181858Y219087D01*
X182586Y218138D01*
X183536Y217409D01*
X184641Y216952D01*
X185827Y216795D01*
X187013Y216952D01*
X188118Y217409D01*
X189067Y218138D01*
X189795Y219087D01*
X190253Y220192D01*
X190409Y221378D01*
X190253Y222564D01*
X189795Y223669D01*
X189067Y224618D01*
X188118Y225346D01*
X187013Y225804D01*
X185827Y225960D01*
D02*
G37*
G36*
X75590D02*
X74405Y225804D01*
X73299Y225346D01*
X72350Y224618D01*
X71622Y223669D01*
X71164Y222564D01*
X71008Y221378D01*
X71164Y220192D01*
X71622Y219087D01*
X72350Y218138D01*
X73299Y217409D01*
X74405Y216952D01*
X75590Y216795D01*
X76777Y216952D01*
X77882Y217409D01*
X78831Y218138D01*
X79559Y219087D01*
X80017Y220192D01*
X80173Y221378D01*
X80017Y222564D01*
X79559Y223669D01*
X78831Y224618D01*
X77882Y225346D01*
X76777Y225804D01*
X75590Y225960D01*
D02*
G37*
G36*
X185827Y215961D02*
X184641Y215804D01*
X183536Y215347D01*
X182586Y214618D01*
X181858Y213669D01*
X181400Y212564D01*
X181244Y211378D01*
X181400Y210192D01*
X181858Y209087D01*
X182586Y208138D01*
X183536Y207409D01*
X184641Y206952D01*
X185827Y206796D01*
X187013Y206952D01*
X188118Y207409D01*
X189067Y208138D01*
X189795Y209087D01*
X190253Y210192D01*
X190409Y211378D01*
X190253Y212564D01*
X189795Y213669D01*
X189067Y214618D01*
X188118Y215347D01*
X187013Y215804D01*
X185827Y215961D01*
D02*
G37*
G36*
X75590D02*
X74405Y215804D01*
X73299Y215347D01*
X72350Y214618D01*
X71622Y213669D01*
X71164Y212564D01*
X71008Y211378D01*
X71164Y210192D01*
X71622Y209087D01*
X72350Y208138D01*
X73299Y207409D01*
X74405Y206952D01*
X75590Y206796D01*
X76777Y206952D01*
X77882Y207409D01*
X78831Y208138D01*
X79559Y209087D01*
X80017Y210192D01*
X80173Y211378D01*
X80017Y212564D01*
X79559Y213669D01*
X78831Y214618D01*
X77882Y215347D01*
X76777Y215804D01*
X75590Y215961D01*
D02*
G37*
G36*
X185827Y205960D02*
X184641Y205804D01*
X183536Y205346D01*
X182586Y204618D01*
X181858Y203669D01*
X181400Y202564D01*
X181244Y201378D01*
X181400Y200192D01*
X181858Y199087D01*
X182586Y198138D01*
X183536Y197409D01*
X184641Y196952D01*
X185827Y196795D01*
X187013Y196952D01*
X188118Y197409D01*
X189067Y198138D01*
X189795Y199087D01*
X190253Y200192D01*
X190409Y201378D01*
X190253Y202564D01*
X189795Y203669D01*
X189067Y204618D01*
X188118Y205346D01*
X187013Y205804D01*
X185827Y205960D01*
D02*
G37*
G36*
X75590D02*
X74405Y205804D01*
X73299Y205346D01*
X72350Y204618D01*
X71622Y203669D01*
X71164Y202564D01*
X71008Y201378D01*
X71164Y200192D01*
X71622Y199087D01*
X72350Y198138D01*
X73299Y197409D01*
X74405Y196952D01*
X75590Y196795D01*
X76777Y196952D01*
X77882Y197409D01*
X78831Y198138D01*
X79559Y199087D01*
X80017Y200192D01*
X80173Y201378D01*
X80017Y202564D01*
X79559Y203669D01*
X78831Y204618D01*
X77882Y205346D01*
X76777Y205804D01*
X75590Y205960D01*
D02*
G37*
G36*
X44307Y222457D02*
X36402D01*
Y214551D01*
X37985D01*
X38320Y214107D01*
X38320Y214051D01*
X37535Y213449D01*
X36902Y212623D01*
X36503Y211662D01*
X36367Y210630D01*
X36503Y209598D01*
X36902Y208636D01*
X37535Y207811D01*
X38361Y207177D01*
X38877Y206963D01*
Y206422D01*
X38361Y206209D01*
X37535Y205575D01*
X36902Y204749D01*
X36503Y203788D01*
X36367Y202756D01*
X36503Y201724D01*
X36902Y200763D01*
X37535Y199937D01*
X38361Y199303D01*
X38877Y199090D01*
Y198548D01*
X38361Y198335D01*
X37535Y197701D01*
X36902Y196875D01*
X36503Y195914D01*
X36433Y195382D01*
X40354D01*
X44275D01*
X44205Y195914D01*
X43807Y196875D01*
X43174Y197701D01*
X42348Y198335D01*
X41832Y198548D01*
Y199090D01*
X42348Y199303D01*
X43174Y199937D01*
X43807Y200763D01*
X44205Y201724D01*
X44341Y202756D01*
X44205Y203788D01*
X43807Y204749D01*
X43174Y205575D01*
X42348Y206209D01*
X41832Y206422D01*
Y206963D01*
X42348Y207177D01*
X43174Y207811D01*
X43807Y208636D01*
X44205Y209598D01*
X44341Y210630D01*
X44205Y211662D01*
X43807Y212623D01*
X43174Y213449D01*
X42389Y214051D01*
X42388Y214107D01*
X42724Y214551D01*
X44307D01*
Y222457D01*
D02*
G37*
G36*
X44275Y194382D02*
X40854D01*
Y190961D01*
X41386Y191031D01*
X42348Y191429D01*
X43174Y192063D01*
X43807Y192888D01*
X44205Y193850D01*
X44275Y194382D01*
D02*
G37*
G36*
X17701D02*
X14279D01*
Y190961D01*
X14811Y191031D01*
X15773Y191429D01*
X16599Y192063D01*
X17232Y192888D01*
X17630Y193850D01*
X17701Y194382D01*
D02*
G37*
G36*
X39854D02*
X36433D01*
X36503Y193850D01*
X36902Y192888D01*
X37535Y192063D01*
X38361Y191429D01*
X39322Y191031D01*
X39854Y190961D01*
Y194382D01*
D02*
G37*
G36*
X185827Y195960D02*
X184641Y195804D01*
X183536Y195346D01*
X182586Y194618D01*
X181858Y193669D01*
X181400Y192564D01*
X181244Y191378D01*
X181400Y190192D01*
X181858Y189087D01*
X182586Y188138D01*
X183536Y187409D01*
X184641Y186952D01*
X185827Y186795D01*
X187013Y186952D01*
X188118Y187409D01*
X189067Y188138D01*
X189795Y189087D01*
X190253Y190192D01*
X190409Y191378D01*
X190253Y192564D01*
X189795Y193669D01*
X189067Y194618D01*
X188118Y195346D01*
X187013Y195804D01*
X185827Y195960D01*
D02*
G37*
G36*
X75590D02*
X74405Y195804D01*
X73299Y195346D01*
X72350Y194618D01*
X71622Y193669D01*
X71164Y192564D01*
X71008Y191378D01*
X71164Y190192D01*
X71622Y189087D01*
X72350Y188138D01*
X73299Y187409D01*
X74405Y186952D01*
X75590Y186795D01*
X76777Y186952D01*
X77882Y187409D01*
X78831Y188138D01*
X79559Y189087D01*
X80017Y190192D01*
X80173Y191378D01*
X80017Y192564D01*
X79559Y193669D01*
X78831Y194618D01*
X77882Y195346D01*
X76777Y195804D01*
X75590Y195960D01*
D02*
G37*
G36*
X185827Y185960D02*
X184641Y185804D01*
X183536Y185346D01*
X182586Y184618D01*
X181858Y183669D01*
X181400Y182564D01*
X181244Y181378D01*
X181400Y180192D01*
X181858Y179087D01*
X182586Y178138D01*
X183536Y177409D01*
X184641Y176952D01*
X185827Y176795D01*
X187013Y176952D01*
X188118Y177409D01*
X189067Y178138D01*
X189795Y179087D01*
X190253Y180192D01*
X190409Y181378D01*
X190253Y182564D01*
X189795Y183669D01*
X189067Y184618D01*
X188118Y185346D01*
X187013Y185804D01*
X185827Y185960D01*
D02*
G37*
G36*
X75590D02*
X74405Y185804D01*
X73299Y185346D01*
X72350Y184618D01*
X71622Y183669D01*
X71164Y182564D01*
X71008Y181378D01*
X71164Y180192D01*
X71622Y179087D01*
X72350Y178138D01*
X73299Y177409D01*
X74405Y176952D01*
X75590Y176795D01*
X76777Y176952D01*
X77882Y177409D01*
X78831Y178138D01*
X79559Y179087D01*
X80017Y180192D01*
X80173Y181378D01*
X80017Y182564D01*
X79559Y183669D01*
X78831Y184618D01*
X77882Y185346D01*
X76777Y185804D01*
X75590Y185960D01*
D02*
G37*
G36*
X185827Y175961D02*
X184641Y175804D01*
X183536Y175347D01*
X182586Y174618D01*
X181858Y173669D01*
X181400Y172564D01*
X181244Y171378D01*
X181400Y170192D01*
X181858Y169087D01*
X182586Y168138D01*
X183536Y167409D01*
X184641Y166952D01*
X185827Y166796D01*
X187013Y166952D01*
X188118Y167409D01*
X189067Y168138D01*
X189795Y169087D01*
X190253Y170192D01*
X190409Y171378D01*
X190253Y172564D01*
X189795Y173669D01*
X189067Y174618D01*
X188118Y175347D01*
X187013Y175804D01*
X185827Y175961D01*
D02*
G37*
G36*
X75590D02*
X74405Y175804D01*
X73299Y175347D01*
X72350Y174618D01*
X71622Y173669D01*
X71164Y172564D01*
X71008Y171378D01*
X71164Y170192D01*
X71622Y169087D01*
X72350Y168138D01*
X73299Y167409D01*
X74405Y166952D01*
X75590Y166796D01*
X76777Y166952D01*
X77882Y167409D01*
X78831Y168138D01*
X79559Y169087D01*
X80017Y170192D01*
X80173Y171378D01*
X80017Y172564D01*
X79559Y173669D01*
X78831Y174618D01*
X77882Y175347D01*
X76777Y175804D01*
X75590Y175961D01*
D02*
G37*
G36*
X185827Y165961D02*
X184641Y165804D01*
X183536Y165347D01*
X182586Y164618D01*
X181858Y163669D01*
X181400Y162564D01*
X181244Y161378D01*
X181400Y160192D01*
X181858Y159087D01*
X182586Y158138D01*
X183536Y157409D01*
X184641Y156952D01*
X185827Y156796D01*
X187013Y156952D01*
X188118Y157409D01*
X189067Y158138D01*
X189795Y159087D01*
X190253Y160192D01*
X190409Y161378D01*
X190253Y162564D01*
X189795Y163669D01*
X189067Y164618D01*
X188118Y165347D01*
X187013Y165804D01*
X185827Y165961D01*
D02*
G37*
G36*
X75590D02*
X74405Y165804D01*
X73299Y165347D01*
X72350Y164618D01*
X71622Y163669D01*
X71164Y162564D01*
X71008Y161378D01*
X71164Y160192D01*
X71622Y159087D01*
X72350Y158138D01*
X73299Y157409D01*
X74405Y156952D01*
X75590Y156796D01*
X76777Y156952D01*
X77882Y157409D01*
X78831Y158138D01*
X79559Y159087D01*
X80017Y160192D01*
X80173Y161378D01*
X80017Y162564D01*
X79559Y163669D01*
X78831Y164618D01*
X77882Y165347D01*
X76777Y165804D01*
X75590Y165961D01*
D02*
G37*
G36*
X185827Y235961D02*
X184641Y235804D01*
X183536Y235347D01*
X182586Y234618D01*
X181858Y233669D01*
X181400Y232564D01*
X181244Y231378D01*
X181400Y230192D01*
X181858Y229087D01*
X182586Y228138D01*
X183536Y227409D01*
X184641Y226952D01*
X185827Y226796D01*
X187013Y226952D01*
X188118Y227409D01*
X189067Y228138D01*
X189795Y229087D01*
X190111Y229849D01*
X199485D01*
X205951Y223382D01*
Y175591D01*
X206067Y175005D01*
X206399Y174509D01*
X224162Y156746D01*
X224156Y156691D01*
X223674Y155969D01*
X223505Y155118D01*
X223674Y154267D01*
X224156Y153546D01*
X224878Y153064D01*
X225729Y152894D01*
X226580Y153064D01*
X227301Y153546D01*
X227783Y154267D01*
X227953Y155118D01*
X227783Y155969D01*
X227301Y156691D01*
X227258Y156719D01*
Y157342D01*
X227142Y157927D01*
X226810Y158423D01*
X209010Y176224D01*
Y224016D01*
X208893Y224601D01*
X208562Y225097D01*
X201200Y232459D01*
X200703Y232791D01*
X200118Y232907D01*
X190111D01*
X189795Y233669D01*
X189067Y234618D01*
X188118Y235347D01*
X187013Y235804D01*
X185827Y235961D01*
D02*
G37*
G36*
Y155961D02*
X184641Y155804D01*
X183536Y155347D01*
X182586Y154618D01*
X181858Y153669D01*
X181400Y152564D01*
X181244Y151378D01*
X181400Y150192D01*
X181858Y149087D01*
X182586Y148138D01*
X183536Y147409D01*
X184641Y146952D01*
X185827Y146795D01*
X187013Y146952D01*
X188118Y147409D01*
X189067Y148138D01*
X189795Y149087D01*
X190253Y150192D01*
X190409Y151378D01*
X190253Y152564D01*
X189795Y153669D01*
X189067Y154618D01*
X188118Y155347D01*
X187013Y155804D01*
X185827Y155961D01*
D02*
G37*
G36*
X75590D02*
X74405Y155804D01*
X73299Y155347D01*
X72350Y154618D01*
X71622Y153669D01*
X71164Y152564D01*
X71008Y151378D01*
X71164Y150192D01*
X71622Y149087D01*
X72350Y148138D01*
X73299Y147409D01*
X74405Y146952D01*
X75590Y146795D01*
X76777Y146952D01*
X77882Y147409D01*
X78831Y148138D01*
X79559Y149087D01*
X80017Y150192D01*
X80173Y151378D01*
X80017Y152564D01*
X79559Y153669D01*
X78831Y154618D01*
X77882Y155347D01*
X76777Y155804D01*
X75590Y155961D01*
D02*
G37*
G36*
X44307Y172850D02*
X36402D01*
Y164945D01*
X37985D01*
X38320Y164501D01*
X38320Y164445D01*
X37535Y163843D01*
X36902Y163017D01*
X36503Y162056D01*
X36367Y161024D01*
X36503Y159992D01*
X36902Y159030D01*
X37535Y158204D01*
X38361Y157571D01*
X38877Y157357D01*
Y156816D01*
X38361Y156602D01*
X37535Y155969D01*
X36902Y155143D01*
X36503Y154182D01*
X36367Y153150D01*
X36503Y152118D01*
X36902Y151156D01*
X37535Y150330D01*
X38361Y149697D01*
X38877Y149483D01*
Y148942D01*
X38361Y148728D01*
X37535Y148095D01*
X36902Y147269D01*
X36503Y146308D01*
X36433Y145776D01*
X40354D01*
X44275D01*
X44205Y146308D01*
X43807Y147269D01*
X43174Y148095D01*
X42348Y148728D01*
X41832Y148942D01*
Y149483D01*
X42348Y149697D01*
X43174Y150330D01*
X43807Y151156D01*
X44205Y152118D01*
X44341Y153150D01*
X44205Y154182D01*
X43807Y155143D01*
X43174Y155969D01*
X42348Y156602D01*
X41832Y156816D01*
Y157357D01*
X42348Y157571D01*
X43174Y158204D01*
X43807Y159030D01*
X44205Y159992D01*
X44341Y161024D01*
X44205Y162056D01*
X43807Y163017D01*
X43174Y163843D01*
X42389Y164445D01*
X42388Y164501D01*
X42724Y164945D01*
X44307D01*
Y172850D01*
D02*
G37*
G36*
X44275Y144776D02*
X40854D01*
Y141355D01*
X41386Y141425D01*
X42348Y141823D01*
X43174Y142456D01*
X43807Y143282D01*
X44205Y144244D01*
X44275Y144776D01*
D02*
G37*
G36*
X17701D02*
X14279D01*
Y141355D01*
X14811Y141425D01*
X15773Y141823D01*
X16599Y142456D01*
X17232Y143282D01*
X17630Y144244D01*
X17701Y144776D01*
D02*
G37*
G36*
X39854D02*
X36433D01*
X36503Y144244D01*
X36902Y143282D01*
X37535Y142456D01*
X38361Y141823D01*
X39322Y141425D01*
X39854Y141355D01*
Y144776D01*
D02*
G37*
G36*
X75590Y145960D02*
X74405Y145804D01*
X73299Y145346D01*
X72350Y144618D01*
X71622Y143669D01*
X71164Y142564D01*
X71008Y141378D01*
X71164Y140192D01*
X71622Y139087D01*
X72350Y138138D01*
X73299Y137409D01*
X74405Y136952D01*
X75590Y136795D01*
X76777Y136952D01*
X77882Y137409D01*
X78831Y138138D01*
X79559Y139087D01*
X80017Y140192D01*
X80173Y141378D01*
X80017Y142564D01*
X79559Y143669D01*
X78831Y144618D01*
X77882Y145346D01*
X76777Y145804D01*
X75590Y145960D01*
D02*
G37*
G36*
X185827Y135960D02*
X184641Y135804D01*
X183536Y135346D01*
X182586Y134618D01*
X181858Y133669D01*
X181400Y132564D01*
X181244Y131378D01*
X181400Y130192D01*
X181858Y129087D01*
X182586Y128138D01*
X183536Y127409D01*
X184641Y126952D01*
X185827Y126795D01*
X187013Y126952D01*
X188118Y127409D01*
X189067Y128138D01*
X189795Y129087D01*
X190253Y130192D01*
X190409Y131378D01*
X190253Y132564D01*
X189795Y133669D01*
X189067Y134618D01*
X188118Y135346D01*
X187013Y135804D01*
X185827Y135960D01*
D02*
G37*
G36*
X95827D02*
X94641Y135804D01*
X93536Y135346D01*
X92586Y134618D01*
X91858Y133669D01*
X91400Y132564D01*
X91244Y131378D01*
X91400Y130192D01*
X91858Y129087D01*
X92586Y128138D01*
X93536Y127409D01*
X94641Y126952D01*
X95827Y126795D01*
X97013Y126952D01*
X98118Y127409D01*
X99067Y128138D01*
X99795Y129087D01*
X100253Y130192D01*
X100409Y131378D01*
X100253Y132564D01*
X99795Y133669D01*
X99067Y134618D01*
X98118Y135346D01*
X97013Y135804D01*
X95827Y135960D01*
D02*
G37*
G36*
X85827D02*
X84641Y135804D01*
X83535Y135346D01*
X82586Y134618D01*
X81858Y133669D01*
X81400Y132564D01*
X81244Y131378D01*
X81400Y130192D01*
X81858Y129087D01*
X82586Y128138D01*
X83535Y127409D01*
X84641Y126952D01*
X85827Y126795D01*
X87013Y126952D01*
X88118Y127409D01*
X89067Y128138D01*
X89795Y129087D01*
X90253Y130192D01*
X90409Y131378D01*
X90253Y132564D01*
X89795Y133669D01*
X89067Y134618D01*
X88118Y135346D01*
X87013Y135804D01*
X85827Y135960D01*
D02*
G37*
G36*
X75590D02*
X74405Y135804D01*
X73299Y135346D01*
X72350Y134618D01*
X71622Y133669D01*
X71164Y132564D01*
X71008Y131378D01*
X71164Y130192D01*
X71622Y129087D01*
X72350Y128138D01*
X73299Y127409D01*
X74405Y126952D01*
X75590Y126795D01*
X76777Y126952D01*
X77882Y127409D01*
X78831Y128138D01*
X79559Y129087D01*
X80017Y130192D01*
X80173Y131378D01*
X80017Y132564D01*
X79559Y133669D01*
X78831Y134618D01*
X77882Y135346D01*
X76777Y135804D01*
X75590Y135960D01*
D02*
G37*
G36*
X107587Y124703D02*
Y121878D01*
X110412D01*
X110362Y122256D01*
X110023Y123074D01*
X109485Y123776D01*
X108782Y124315D01*
X107964Y124654D01*
X107587Y124703D01*
D02*
G37*
G36*
X106587Y124703D02*
X106209Y124654D01*
X105391Y124315D01*
X104689Y123776D01*
X104150Y123074D01*
X103811Y122256D01*
X103761Y121878D01*
X106587D01*
Y124703D01*
D02*
G37*
G36*
Y120878D02*
X103761D01*
X103811Y120500D01*
X104150Y119682D01*
X104689Y118980D01*
X105391Y118441D01*
X106209Y118102D01*
X106587Y118053D01*
Y120878D01*
D02*
G37*
G36*
X110412D02*
X107587D01*
Y118053D01*
X107964Y118102D01*
X108782Y118441D01*
X109485Y118980D01*
X110023Y119682D01*
X110362Y120500D01*
X110412Y120878D01*
D02*
G37*
G36*
X114961Y124769D02*
X114083Y124654D01*
X113265Y124315D01*
X112563Y123776D01*
X112024Y123074D01*
X111685Y122256D01*
X111569Y121378D01*
X111685Y120500D01*
X112024Y119682D01*
X112563Y118980D01*
X113265Y118441D01*
X114083Y118102D01*
X114961Y117987D01*
X115838Y118102D01*
X116656Y118441D01*
X117359Y118980D01*
X117897Y119682D01*
X118236Y120500D01*
X118352Y121378D01*
X118236Y122256D01*
X117897Y123074D01*
X117359Y123776D01*
X116656Y124315D01*
X115838Y124654D01*
X114961Y124769D01*
D02*
G37*
G36*
X185827Y125961D02*
X184641Y125804D01*
X183536Y125347D01*
X182586Y124618D01*
X181858Y123669D01*
X181400Y122564D01*
X181244Y121378D01*
X181400Y120192D01*
X181858Y119087D01*
X182586Y118138D01*
X183536Y117409D01*
X184641Y116952D01*
X185827Y116796D01*
X187013Y116952D01*
X188118Y117409D01*
X189067Y118138D01*
X189795Y119087D01*
X190253Y120192D01*
X190409Y121378D01*
X190253Y122564D01*
X189795Y123669D01*
X189067Y124618D01*
X188118Y125347D01*
X187013Y125804D01*
X185827Y125961D01*
D02*
G37*
G36*
X95827D02*
X94641Y125804D01*
X93536Y125347D01*
X92586Y124618D01*
X91858Y123669D01*
X91400Y122564D01*
X91244Y121378D01*
X91400Y120192D01*
X91858Y119087D01*
X92586Y118138D01*
X93536Y117409D01*
X94641Y116952D01*
X95827Y116796D01*
X97013Y116952D01*
X98118Y117409D01*
X99067Y118138D01*
X99795Y119087D01*
X100253Y120192D01*
X100409Y121378D01*
X100253Y122564D01*
X99795Y123669D01*
X99067Y124618D01*
X98118Y125347D01*
X97013Y125804D01*
X95827Y125961D01*
D02*
G37*
G36*
X85827D02*
X84641Y125804D01*
X83535Y125347D01*
X82586Y124618D01*
X81858Y123669D01*
X81400Y122564D01*
X81244Y121378D01*
X81400Y120192D01*
X81858Y119087D01*
X82586Y118138D01*
X83535Y117409D01*
X84641Y116952D01*
X85827Y116796D01*
X87013Y116952D01*
X88118Y117409D01*
X89067Y118138D01*
X89795Y119087D01*
X90253Y120192D01*
X90409Y121378D01*
X90253Y122564D01*
X89795Y123669D01*
X89067Y124618D01*
X88118Y125347D01*
X87013Y125804D01*
X85827Y125961D01*
D02*
G37*
G36*
X75590D02*
X74405Y125804D01*
X73299Y125347D01*
X72350Y124618D01*
X71622Y123669D01*
X71164Y122564D01*
X71008Y121378D01*
X71164Y120192D01*
X71622Y119087D01*
X72350Y118138D01*
X73299Y117409D01*
X74405Y116952D01*
X75590Y116796D01*
X76777Y116952D01*
X77882Y117409D01*
X78831Y118138D01*
X79559Y119087D01*
X80017Y120192D01*
X80173Y121378D01*
X80017Y122564D01*
X79559Y123669D01*
X78831Y124618D01*
X77882Y125347D01*
X76777Y125804D01*
X75590Y125961D01*
D02*
G37*
G36*
X185827Y115961D02*
X184641Y115804D01*
X183536Y115347D01*
X182586Y114618D01*
X181858Y113669D01*
X181400Y112564D01*
X181244Y111378D01*
X181400Y110192D01*
X181858Y109087D01*
X182586Y108138D01*
X183536Y107409D01*
X184641Y106952D01*
X185827Y106796D01*
X187013Y106952D01*
X188118Y107409D01*
X189067Y108138D01*
X189795Y109087D01*
X190253Y110192D01*
X190409Y111378D01*
X190253Y112564D01*
X189795Y113669D01*
X189067Y114618D01*
X188118Y115347D01*
X187013Y115804D01*
X185827Y115961D01*
D02*
G37*
G36*
X175827D02*
X174641Y115804D01*
X173536Y115347D01*
X172586Y114618D01*
X171858Y113669D01*
X171400Y112564D01*
X171244Y111378D01*
X171400Y110192D01*
X171858Y109087D01*
X172586Y108138D01*
X173536Y107409D01*
X174641Y106952D01*
X175827Y106796D01*
X177013Y106952D01*
X178118Y107409D01*
X179067Y108138D01*
X179795Y109087D01*
X180253Y110192D01*
X180409Y111378D01*
X180253Y112564D01*
X179795Y113669D01*
X179067Y114618D01*
X178118Y115347D01*
X177013Y115804D01*
X175827Y115961D01*
D02*
G37*
G36*
X165827D02*
X164641Y115804D01*
X163535Y115347D01*
X162586Y114618D01*
X161858Y113669D01*
X161400Y112564D01*
X161244Y111378D01*
X161400Y110192D01*
X161858Y109087D01*
X162586Y108138D01*
X163535Y107409D01*
X164641Y106952D01*
X165827Y106796D01*
X167013Y106952D01*
X168118Y107409D01*
X169067Y108138D01*
X169795Y109087D01*
X170253Y110192D01*
X170409Y111378D01*
X170253Y112564D01*
X169795Y113669D01*
X169067Y114618D01*
X168118Y115347D01*
X167013Y115804D01*
X165827Y115961D01*
D02*
G37*
G36*
X155827D02*
X154641Y115804D01*
X153535Y115347D01*
X152586Y114618D01*
X151858Y113669D01*
X151400Y112564D01*
X151244Y111378D01*
X151400Y110192D01*
X151858Y109087D01*
X152586Y108138D01*
X153535Y107409D01*
X154641Y106952D01*
X155827Y106796D01*
X157013Y106952D01*
X158118Y107409D01*
X159067Y108138D01*
X159795Y109087D01*
X160253Y110192D01*
X160409Y111378D01*
X160253Y112564D01*
X159795Y113669D01*
X159067Y114618D01*
X158118Y115347D01*
X157013Y115804D01*
X155827Y115961D01*
D02*
G37*
G36*
X145827D02*
X144641Y115804D01*
X143535Y115347D01*
X142586Y114618D01*
X141858Y113669D01*
X141400Y112564D01*
X141244Y111378D01*
X141400Y110192D01*
X141858Y109087D01*
X142586Y108138D01*
X143535Y107409D01*
X144641Y106952D01*
X145827Y106796D01*
X147013Y106952D01*
X148118Y107409D01*
X149067Y108138D01*
X149795Y109087D01*
X150253Y110192D01*
X150409Y111378D01*
X150253Y112564D01*
X149795Y113669D01*
X149067Y114618D01*
X148118Y115347D01*
X147013Y115804D01*
X145827Y115961D01*
D02*
G37*
G36*
X135827D02*
X134641Y115804D01*
X133536Y115347D01*
X132586Y114618D01*
X131858Y113669D01*
X131400Y112564D01*
X131244Y111378D01*
X131400Y110192D01*
X131858Y109087D01*
X132586Y108138D01*
X133536Y107409D01*
X134641Y106952D01*
X135827Y106796D01*
X137013Y106952D01*
X138118Y107409D01*
X139067Y108138D01*
X139795Y109087D01*
X140253Y110192D01*
X140409Y111378D01*
X140253Y112564D01*
X139795Y113669D01*
X139067Y114618D01*
X138118Y115347D01*
X137013Y115804D01*
X135827Y115961D01*
D02*
G37*
G36*
X125827D02*
X124641Y115804D01*
X123536Y115347D01*
X122586Y114618D01*
X121858Y113669D01*
X121400Y112564D01*
X121244Y111378D01*
X121400Y110192D01*
X121858Y109087D01*
X122586Y108138D01*
X123536Y107409D01*
X124641Y106952D01*
X125827Y106796D01*
X127013Y106952D01*
X128118Y107409D01*
X129067Y108138D01*
X129795Y109087D01*
X130253Y110192D01*
X130409Y111378D01*
X130253Y112564D01*
X129795Y113669D01*
X129067Y114618D01*
X128118Y115347D01*
X127013Y115804D01*
X125827Y115961D01*
D02*
G37*
G36*
X115827D02*
X114641Y115804D01*
X113535Y115347D01*
X112586Y114618D01*
X111858Y113669D01*
X111400Y112564D01*
X111244Y111378D01*
X111400Y110192D01*
X111858Y109087D01*
X112586Y108138D01*
X113535Y107409D01*
X114641Y106952D01*
X115827Y106796D01*
X117013Y106952D01*
X118118Y107409D01*
X119067Y108138D01*
X119795Y109087D01*
X120253Y110192D01*
X120409Y111378D01*
X120253Y112564D01*
X119795Y113669D01*
X119067Y114618D01*
X118118Y115347D01*
X117013Y115804D01*
X115827Y115961D01*
D02*
G37*
G36*
X105827D02*
X104641Y115804D01*
X103535Y115347D01*
X102586Y114618D01*
X101858Y113669D01*
X101400Y112564D01*
X101244Y111378D01*
X101400Y110192D01*
X101858Y109087D01*
X102586Y108138D01*
X103535Y107409D01*
X104641Y106952D01*
X105827Y106796D01*
X107013Y106952D01*
X108118Y107409D01*
X109067Y108138D01*
X109795Y109087D01*
X110253Y110192D01*
X110409Y111378D01*
X110253Y112564D01*
X109795Y113669D01*
X109067Y114618D01*
X108118Y115347D01*
X107013Y115804D01*
X105827Y115961D01*
D02*
G37*
G36*
X95827D02*
X94641Y115804D01*
X93536Y115347D01*
X92586Y114618D01*
X91858Y113669D01*
X91400Y112564D01*
X91244Y111378D01*
X91400Y110192D01*
X91858Y109087D01*
X92586Y108138D01*
X93536Y107409D01*
X94641Y106952D01*
X95827Y106796D01*
X97013Y106952D01*
X98118Y107409D01*
X99067Y108138D01*
X99795Y109087D01*
X100253Y110192D01*
X100409Y111378D01*
X100253Y112564D01*
X99795Y113669D01*
X99067Y114618D01*
X98118Y115347D01*
X97013Y115804D01*
X95827Y115961D01*
D02*
G37*
G36*
X85827D02*
X84641Y115804D01*
X83535Y115347D01*
X82586Y114618D01*
X81858Y113669D01*
X81400Y112564D01*
X81244Y111378D01*
X81400Y110192D01*
X81858Y109087D01*
X82586Y108138D01*
X83535Y107409D01*
X84641Y106952D01*
X85827Y106796D01*
X87013Y106952D01*
X88118Y107409D01*
X89067Y108138D01*
X89795Y109087D01*
X90253Y110192D01*
X90409Y111378D01*
X90253Y112564D01*
X89795Y113669D01*
X89067Y114618D01*
X88118Y115347D01*
X87013Y115804D01*
X85827Y115961D01*
D02*
G37*
G36*
X75590D02*
X74405Y115804D01*
X73299Y115347D01*
X72350Y114618D01*
X71622Y113669D01*
X71164Y112564D01*
X71008Y111378D01*
X71164Y110192D01*
X71622Y109087D01*
X72350Y108138D01*
X73299Y107409D01*
X74405Y106952D01*
X75590Y106796D01*
X76777Y106952D01*
X77882Y107409D01*
X78831Y108138D01*
X79559Y109087D01*
X80017Y110192D01*
X80173Y111378D01*
X80017Y112564D01*
X79559Y113669D01*
X78831Y114618D01*
X77882Y115347D01*
X76777Y115804D01*
X75590Y115961D01*
D02*
G37*
G36*
X185827Y105961D02*
X184641Y105804D01*
X183536Y105347D01*
X182586Y104618D01*
X181858Y103669D01*
X181400Y102564D01*
X181244Y101378D01*
X181400Y100192D01*
X181858Y99087D01*
X182586Y98138D01*
X183536Y97409D01*
X184641Y96952D01*
X185827Y96795D01*
X187013Y96952D01*
X188118Y97409D01*
X189067Y98138D01*
X189795Y99087D01*
X190253Y100192D01*
X190409Y101378D01*
X190253Y102564D01*
X189795Y103669D01*
X189067Y104618D01*
X188118Y105347D01*
X187013Y105804D01*
X185827Y105961D01*
D02*
G37*
G36*
X175827D02*
X174641Y105804D01*
X173536Y105347D01*
X172586Y104618D01*
X171858Y103669D01*
X171400Y102564D01*
X171244Y101378D01*
X171400Y100192D01*
X171858Y99087D01*
X172586Y98138D01*
X173536Y97409D01*
X174641Y96952D01*
X175827Y96795D01*
X177013Y96952D01*
X178118Y97409D01*
X179067Y98138D01*
X179795Y99087D01*
X180253Y100192D01*
X180409Y101378D01*
X180253Y102564D01*
X179795Y103669D01*
X179067Y104618D01*
X178118Y105347D01*
X177013Y105804D01*
X175827Y105961D01*
D02*
G37*
G36*
X145827D02*
X144641Y105804D01*
X143535Y105347D01*
X142586Y104618D01*
X141858Y103669D01*
X141400Y102564D01*
X141244Y101378D01*
X141400Y100192D01*
X141858Y99087D01*
X142586Y98138D01*
X143535Y97409D01*
X144641Y96952D01*
X145827Y96795D01*
X147013Y96952D01*
X148118Y97409D01*
X149067Y98138D01*
X149795Y99087D01*
X150253Y100192D01*
X150409Y101378D01*
X150253Y102564D01*
X149795Y103669D01*
X149067Y104618D01*
X148118Y105347D01*
X147013Y105804D01*
X145827Y105961D01*
D02*
G37*
G36*
X135827D02*
X134641Y105804D01*
X133536Y105347D01*
X132586Y104618D01*
X131858Y103669D01*
X131400Y102564D01*
X131244Y101378D01*
X131400Y100192D01*
X131858Y99087D01*
X132586Y98138D01*
X133536Y97409D01*
X134641Y96952D01*
X135827Y96795D01*
X137013Y96952D01*
X138118Y97409D01*
X139067Y98138D01*
X139795Y99087D01*
X140253Y100192D01*
X140409Y101378D01*
X140253Y102564D01*
X139795Y103669D01*
X139067Y104618D01*
X138118Y105347D01*
X137013Y105804D01*
X135827Y105961D01*
D02*
G37*
G36*
X125827D02*
X124641Y105804D01*
X123536Y105347D01*
X122586Y104618D01*
X121858Y103669D01*
X121400Y102564D01*
X121244Y101378D01*
X121400Y100192D01*
X121858Y99087D01*
X122586Y98138D01*
X123536Y97409D01*
X124641Y96952D01*
X125827Y96795D01*
X127013Y96952D01*
X128118Y97409D01*
X129067Y98138D01*
X129795Y99087D01*
X130253Y100192D01*
X130409Y101378D01*
X130253Y102564D01*
X129795Y103669D01*
X129067Y104618D01*
X128118Y105347D01*
X127013Y105804D01*
X125827Y105961D01*
D02*
G37*
G36*
X115827D02*
X114641Y105804D01*
X113535Y105347D01*
X112586Y104618D01*
X111858Y103669D01*
X111400Y102564D01*
X111244Y101378D01*
X111400Y100192D01*
X111858Y99087D01*
X112586Y98138D01*
X113535Y97409D01*
X114641Y96952D01*
X115827Y96795D01*
X117013Y96952D01*
X118118Y97409D01*
X119067Y98138D01*
X119795Y99087D01*
X120253Y100192D01*
X120409Y101378D01*
X120253Y102564D01*
X119795Y103669D01*
X119067Y104618D01*
X118118Y105347D01*
X117013Y105804D01*
X115827Y105961D01*
D02*
G37*
G36*
X105827D02*
X104641Y105804D01*
X103535Y105347D01*
X102586Y104618D01*
X101858Y103669D01*
X101400Y102564D01*
X101244Y101378D01*
X101400Y100192D01*
X101858Y99087D01*
X102586Y98138D01*
X103535Y97409D01*
X104641Y96952D01*
X105827Y96795D01*
X107013Y96952D01*
X108118Y97409D01*
X109067Y98138D01*
X109795Y99087D01*
X110253Y100192D01*
X110409Y101378D01*
X110253Y102564D01*
X109795Y103669D01*
X109067Y104618D01*
X108118Y105347D01*
X107013Y105804D01*
X105827Y105961D01*
D02*
G37*
G36*
X95827D02*
X94641Y105804D01*
X93536Y105347D01*
X92586Y104618D01*
X91858Y103669D01*
X91400Y102564D01*
X91244Y101378D01*
X91400Y100192D01*
X91858Y99087D01*
X92586Y98138D01*
X93536Y97409D01*
X94641Y96952D01*
X95827Y96795D01*
X97013Y96952D01*
X98118Y97409D01*
X99067Y98138D01*
X99795Y99087D01*
X100253Y100192D01*
X100409Y101378D01*
X100253Y102564D01*
X99795Y103669D01*
X99067Y104618D01*
X98118Y105347D01*
X97013Y105804D01*
X95827Y105961D01*
D02*
G37*
G36*
X75590D02*
X74405Y105804D01*
X73299Y105347D01*
X72350Y104618D01*
X71622Y103669D01*
X71164Y102564D01*
X71008Y101378D01*
X71164Y100192D01*
X71622Y99087D01*
X72350Y98138D01*
X73299Y97409D01*
X74405Y96952D01*
X75590Y96795D01*
X76777Y96952D01*
X77882Y97409D01*
X78831Y98138D01*
X79559Y99087D01*
X80017Y100192D01*
X80173Y101378D01*
X80017Y102564D01*
X79559Y103669D01*
X78831Y104618D01*
X77882Y105347D01*
X76777Y105804D01*
X75590Y105961D01*
D02*
G37*
G36*
X44275Y92020D02*
X40854D01*
Y88599D01*
X41386Y88669D01*
X42348Y89067D01*
X43174Y89701D01*
X43807Y90526D01*
X44205Y91488D01*
X44275Y92020D01*
D02*
G37*
G36*
X17701D02*
X14279D01*
Y88599D01*
X14811Y88669D01*
X15773Y89067D01*
X16599Y89701D01*
X17232Y90526D01*
X17630Y91488D01*
X17701Y92020D01*
D02*
G37*
G36*
X39854D02*
X36433D01*
X36503Y91488D01*
X36902Y90526D01*
X37535Y89701D01*
X38361Y89067D01*
X39322Y88669D01*
X39854Y88599D01*
Y92020D01*
D02*
G37*
G36*
X44307Y120095D02*
X36402D01*
Y112189D01*
X37985D01*
X38320Y111745D01*
X38320Y111689D01*
X37535Y111087D01*
X36902Y110261D01*
X36503Y109300D01*
X36367Y108268D01*
X36503Y107236D01*
X36902Y106274D01*
X37535Y105449D01*
X38361Y104815D01*
X38877Y104601D01*
Y104060D01*
X38361Y103846D01*
X37535Y103213D01*
X36902Y102387D01*
X36503Y101426D01*
X36367Y100394D01*
X36503Y99362D01*
X36902Y98400D01*
X37535Y97575D01*
X38361Y96941D01*
X38877Y96727D01*
Y96186D01*
X38361Y95972D01*
X37535Y95339D01*
X36902Y94513D01*
X36503Y93552D01*
X36433Y93020D01*
X40354D01*
X44275D01*
X44205Y93552D01*
X43807Y94513D01*
X43174Y95339D01*
X42348Y95972D01*
X41832Y96186D01*
Y96727D01*
X42348Y96941D01*
X43174Y97575D01*
X43807Y98400D01*
X44205Y99362D01*
X44341Y100394D01*
X44205Y101426D01*
X43807Y102387D01*
X43174Y103213D01*
X42348Y103846D01*
X41832Y104060D01*
Y104601D01*
X42348Y104815D01*
X43174Y105449D01*
X43807Y106274D01*
X43999Y106738D01*
X44642D01*
X52014Y99366D01*
Y94095D01*
X52130Y93509D01*
X52462Y93013D01*
X60730Y84745D01*
X61226Y84414D01*
X61811Y84297D01*
X151181D01*
X151766Y84414D01*
X152262Y84745D01*
X156865Y89348D01*
X157196Y89844D01*
X157313Y90429D01*
Y97076D01*
X158118Y97409D01*
X159067Y98138D01*
X159795Y99087D01*
X160253Y100192D01*
X160409Y101378D01*
X160253Y102564D01*
X159795Y103669D01*
X159067Y104618D01*
X158118Y105347D01*
X157013Y105804D01*
X155827Y105961D01*
X154641Y105804D01*
X153535Y105347D01*
X152586Y104618D01*
X151858Y103669D01*
X151400Y102564D01*
X151244Y101378D01*
X151400Y100192D01*
X151858Y99087D01*
X152586Y98138D01*
X153535Y97409D01*
X154254Y97112D01*
Y91063D01*
X150548Y87356D01*
X62445D01*
X55073Y94728D01*
Y100000D01*
X54956Y100585D01*
X54625Y101081D01*
X46357Y109349D01*
X45861Y109681D01*
X45276Y109797D01*
X43999D01*
X43807Y110261D01*
X43174Y111087D01*
X42389Y111689D01*
X42388Y111745D01*
X42724Y112189D01*
X44307D01*
Y120095D01*
D02*
G37*
G36*
X247638Y139927D02*
X246672Y139734D01*
X245852Y139187D01*
X245305Y138368D01*
X245113Y137402D01*
Y116400D01*
X219868Y91155D01*
X219321Y90336D01*
X219129Y89370D01*
Y86614D01*
X219321Y85648D01*
X219868Y84829D01*
X220687Y84281D01*
X221654Y84089D01*
X222620Y84281D01*
X223439Y84829D01*
X223986Y85648D01*
X224178Y86614D01*
Y88324D01*
X249423Y113569D01*
X249971Y114388D01*
X250163Y115354D01*
Y137402D01*
X249971Y138368D01*
X249423Y139187D01*
X248604Y139734D01*
X247638Y139927D01*
D02*
G37*
G36*
X74016Y70324D02*
X72984Y70189D01*
X72023Y69790D01*
X71197Y69157D01*
X70563Y68331D01*
X70350Y67815D01*
X69808D01*
X69595Y68331D01*
X68961Y69157D01*
X68135Y69790D01*
X67174Y70189D01*
X66142Y70324D01*
X65110Y70189D01*
X64149Y69790D01*
X63323Y69157D01*
X62689Y68331D01*
X62476Y67815D01*
X61934D01*
X61721Y68331D01*
X61087Y69157D01*
X60261Y69790D01*
X59300Y70189D01*
X58268Y70324D01*
X57236Y70189D01*
X56274Y69790D01*
X55449Y69157D01*
X54847Y68372D01*
X54791Y68371D01*
X54347Y68707D01*
Y70290D01*
X46441D01*
Y62385D01*
X54347D01*
Y63968D01*
X54791Y64304D01*
X54847Y64303D01*
X55449Y63519D01*
X56274Y62885D01*
X57236Y62487D01*
X58268Y62351D01*
X59300Y62487D01*
X60261Y62885D01*
X61087Y63519D01*
X61721Y64344D01*
X61934Y64860D01*
X62476D01*
X62689Y64344D01*
X63323Y63519D01*
X64149Y62885D01*
X65110Y62487D01*
X66142Y62351D01*
X67174Y62487D01*
X68135Y62885D01*
X68961Y63519D01*
X69595Y64344D01*
X69808Y64860D01*
X70350D01*
X70563Y64344D01*
X71197Y63519D01*
X72023Y62885D01*
X72984Y62487D01*
X74016Y62351D01*
X75048Y62487D01*
X76009Y62885D01*
X76835Y63519D01*
X77469Y64344D01*
X77867Y65306D01*
X78003Y66338D01*
X77867Y67370D01*
X77469Y68331D01*
X76835Y69157D01*
X76009Y69790D01*
X75048Y70189D01*
X74016Y70324D01*
D02*
G37*
G36*
X143413Y56478D02*
Y53256D01*
X146636D01*
X146573Y53736D01*
X146194Y54650D01*
X145592Y55435D01*
X144808Y56037D01*
X143894Y56415D01*
X143413Y56478D01*
D02*
G37*
G36*
X142413D02*
X141933Y56415D01*
X141019Y56037D01*
X140235Y55435D01*
X139633Y54650D01*
X139254Y53736D01*
X139191Y53256D01*
X142413D01*
Y56478D01*
D02*
G37*
G36*
X146636Y52256D02*
X143413D01*
Y49033D01*
X143894Y49097D01*
X144808Y49475D01*
X145592Y50077D01*
X146194Y50862D01*
X146573Y51775D01*
X146636Y52256D01*
D02*
G37*
G36*
X142413D02*
X139191D01*
X139254Y51775D01*
X139633Y50862D01*
X140235Y50077D01*
X141019Y49475D01*
X141933Y49097D01*
X142413Y49033D01*
Y52256D01*
D02*
G37*
G36*
X126984Y56512D02*
X119473D01*
Y49000D01*
X126984D01*
Y56512D01*
D02*
G37*
G36*
X133071Y56544D02*
X132090Y56415D01*
X131177Y56037D01*
X130392Y55435D01*
X129790Y54650D01*
X129412Y53736D01*
X129283Y52756D01*
X129412Y51775D01*
X129790Y50862D01*
X130392Y50077D01*
X131177Y49475D01*
X132090Y49097D01*
X133071Y48968D01*
X134051Y49097D01*
X134965Y49475D01*
X135750Y50077D01*
X136352Y50862D01*
X136730Y51775D01*
X136859Y52756D01*
X136730Y53736D01*
X136352Y54650D01*
X135750Y55435D01*
X134965Y56037D01*
X134051Y56415D01*
X133071Y56544D01*
D02*
G37*
G36*
X74016Y43553D02*
X72984Y43417D01*
X72023Y43019D01*
X71197Y42385D01*
X70563Y41559D01*
X70350Y41044D01*
X69808D01*
X69595Y41559D01*
X68961Y42385D01*
X68135Y43019D01*
X67174Y43417D01*
X66142Y43553D01*
X65110Y43417D01*
X64149Y43019D01*
X63323Y42385D01*
X62689Y41559D01*
X62476Y41044D01*
X61934D01*
X61721Y41559D01*
X61087Y42385D01*
X60261Y43019D01*
X59300Y43417D01*
X58268Y43553D01*
X57236Y43417D01*
X56274Y43019D01*
X55449Y42385D01*
X54847Y41600D01*
X54791Y41600D01*
X54347Y41935D01*
Y43519D01*
X46441D01*
Y35613D01*
X54347D01*
Y37197D01*
X54791Y37532D01*
X54847Y37532D01*
X55449Y36747D01*
X56274Y36113D01*
X57236Y35715D01*
X58268Y35579D01*
X59300Y35715D01*
X60261Y36113D01*
X61087Y36747D01*
X61721Y37573D01*
X61934Y38089D01*
X62476D01*
X62689Y37573D01*
X63323Y36747D01*
X64149Y36113D01*
X65110Y35715D01*
X66142Y35579D01*
X67174Y35715D01*
X68135Y36113D01*
X68961Y36747D01*
X69595Y37573D01*
X69808Y38089D01*
X70350D01*
X70563Y37573D01*
X71197Y36747D01*
X72023Y36113D01*
X72984Y35715D01*
X74016Y35579D01*
X75048Y35715D01*
X76009Y36113D01*
X76835Y36747D01*
X77469Y37573D01*
X77867Y38534D01*
X78003Y39566D01*
X77867Y40598D01*
X77469Y41559D01*
X76835Y42385D01*
X76009Y43019D01*
X75048Y43417D01*
X74016Y43553D01*
D02*
G37*
G36*
X158374Y35195D02*
Y33571D01*
X159998D01*
X159929Y33922D01*
X159447Y34643D01*
X158725Y35125D01*
X158374Y35195D01*
D02*
G37*
G36*
X157374D02*
X157023Y35125D01*
X156301Y34643D01*
X155819Y33922D01*
X155750Y33571D01*
X157374D01*
Y35195D01*
D02*
G37*
G36*
X159998Y32571D02*
X158374D01*
Y30946D01*
X158725Y31016D01*
X159447Y31498D01*
X159929Y32220D01*
X159998Y32571D01*
D02*
G37*
G36*
X157374D02*
X155750D01*
X155819Y32220D01*
X156301Y31498D01*
X157023Y31016D01*
X157374Y30946D01*
Y32571D01*
D02*
G37*
G36*
X128347Y34114D02*
X127495Y33944D01*
X126774Y33462D01*
X126292Y32741D01*
X126123Y31890D01*
X126292Y31039D01*
X126774Y30317D01*
X127495Y29835D01*
X128347Y29666D01*
X129198Y29835D01*
X129919Y30317D01*
X130401Y31039D01*
X130570Y31890D01*
X130401Y32741D01*
X129919Y33462D01*
X129198Y33944D01*
X128347Y34114D01*
D02*
G37*
G36*
X279634Y293463D02*
Y291839D01*
X281258D01*
X281188Y292190D01*
X280706Y292911D01*
X279985Y293393D01*
X279634Y293463D01*
D02*
G37*
G36*
X278634D02*
X278283Y293393D01*
X277561Y292911D01*
X277079Y292190D01*
X277010Y291839D01*
X278634D01*
Y293463D01*
D02*
G37*
G36*
X281258Y290839D02*
X279634D01*
Y289214D01*
X279985Y289284D01*
X280706Y289766D01*
X281188Y290488D01*
X281258Y290839D01*
D02*
G37*
G36*
X278634D02*
X277010D01*
X277079Y290488D01*
X277561Y289766D01*
X278283Y289284D01*
X278634Y289214D01*
Y290839D01*
D02*
G37*
G36*
X277272Y269178D02*
Y265618D01*
X280832D01*
X280757Y266186D01*
X280345Y267181D01*
X279689Y268036D01*
X278835Y268691D01*
X277839Y269103D01*
X277272Y269178D01*
D02*
G37*
G36*
X276272D02*
X275704Y269103D01*
X274709Y268691D01*
X273854Y268036D01*
X273199Y267181D01*
X272786Y266186D01*
X272712Y265618D01*
X276272D01*
Y269178D01*
D02*
G37*
G36*
X294988Y268683D02*
Y265461D01*
X298211D01*
X298147Y265941D01*
X297769Y266855D01*
X297167Y267639D01*
X296382Y268241D01*
X295469Y268620D01*
X294988Y268683D01*
D02*
G37*
G36*
X293988Y268683D02*
X293508Y268620D01*
X292594Y268241D01*
X291810Y267639D01*
X291207Y266855D01*
X290829Y265941D01*
X290766Y265461D01*
X293988D01*
Y268683D01*
D02*
G37*
G36*
X298211Y264461D02*
X294988D01*
Y261238D01*
X295469Y261301D01*
X296382Y261680D01*
X297167Y262282D01*
X297769Y263067D01*
X298147Y263980D01*
X298211Y264461D01*
D02*
G37*
G36*
X293988D02*
X290766D01*
X290829Y263980D01*
X291207Y263067D01*
X291810Y262282D01*
X292594Y261680D01*
X293508Y261301D01*
X293988Y261238D01*
Y264461D01*
D02*
G37*
G36*
X280832Y264618D02*
X277272D01*
Y261058D01*
X277839Y261133D01*
X278835Y261545D01*
X279689Y262201D01*
X280345Y263055D01*
X280757Y264050D01*
X280832Y264618D01*
D02*
G37*
G36*
X276272D02*
X272712D01*
X272786Y264050D01*
X273199Y263055D01*
X273854Y262201D01*
X274709Y261545D01*
X275704Y261133D01*
X276272Y261058D01*
Y264618D01*
D02*
G37*
G36*
X294488Y258906D02*
X293508Y258777D01*
X292594Y258399D01*
X291810Y257797D01*
X291207Y257012D01*
X290829Y256099D01*
X290700Y255118D01*
X290829Y254138D01*
X291207Y253224D01*
X291810Y252439D01*
X292594Y251837D01*
X293508Y251459D01*
X294488Y251330D01*
X295469Y251459D01*
X296382Y251837D01*
X297167Y252439D01*
X297769Y253224D01*
X298147Y254138D01*
X298276Y255118D01*
X298147Y256099D01*
X297769Y257012D01*
X297167Y257797D01*
X296382Y258399D01*
X295469Y258777D01*
X294488Y258906D01*
D02*
G37*
G36*
X263386Y283326D02*
X262535Y283157D01*
X261813Y282675D01*
X261331Y281953D01*
X261162Y281102D01*
X261331Y280251D01*
X261363Y280204D01*
Y260630D01*
X261517Y259856D01*
X261955Y259199D01*
X267467Y253688D01*
X268123Y253249D01*
X268898Y253095D01*
X273182D01*
X273199Y253055D01*
X273854Y252201D01*
X274709Y251545D01*
X275704Y251133D01*
X276772Y250992D01*
X277839Y251133D01*
X278835Y251545D01*
X279689Y252201D01*
X280345Y253055D01*
X280757Y254050D01*
X280897Y255118D01*
X280757Y256186D01*
X280345Y257181D01*
X279689Y258035D01*
X278835Y258691D01*
X277839Y259103D01*
X276772Y259244D01*
X275704Y259103D01*
X274709Y258691D01*
X273854Y258035D01*
X273199Y257181D01*
X273182Y257141D01*
X269736D01*
X265409Y261468D01*
Y280204D01*
X265440Y280251D01*
X265610Y281102D01*
X265440Y281953D01*
X264958Y282675D01*
X264237Y283157D01*
X263386Y283326D01*
D02*
G37*
G36*
X298244Y249031D02*
X290732D01*
Y241520D01*
X298244D01*
Y249031D01*
D02*
G37*
G36*
X280862Y249209D02*
X272681D01*
Y241028D01*
X280862D01*
Y249209D01*
D02*
G37*
G36*
X277272Y220359D02*
Y216799D01*
X280832D01*
X280757Y217367D01*
X280345Y218362D01*
X279689Y219217D01*
X278835Y219872D01*
X277839Y220285D01*
X277272Y220359D01*
D02*
G37*
G36*
X276272Y220359D02*
X275704Y220285D01*
X274709Y219872D01*
X273854Y219217D01*
X273199Y218362D01*
X272786Y217367D01*
X272712Y216799D01*
X276272D01*
Y220359D01*
D02*
G37*
G36*
X294988Y219864D02*
Y216642D01*
X298211D01*
X298147Y217122D01*
X297769Y218036D01*
X297167Y218821D01*
X296382Y219423D01*
X295469Y219801D01*
X294988Y219864D01*
D02*
G37*
G36*
X293988Y219864D02*
X293508Y219801D01*
X292594Y219423D01*
X291810Y218821D01*
X291207Y218036D01*
X290829Y217122D01*
X290766Y216642D01*
X293988D01*
Y219864D01*
D02*
G37*
G36*
X298211Y215642D02*
X294988D01*
Y212419D01*
X295469Y212483D01*
X296382Y212861D01*
X297167Y213463D01*
X297769Y214248D01*
X298147Y215161D01*
X298211Y215642D01*
D02*
G37*
G36*
X293988D02*
X290766D01*
X290829Y215161D01*
X291207Y214248D01*
X291810Y213463D01*
X292594Y212861D01*
X293508Y212483D01*
X293988Y212419D01*
Y215642D01*
D02*
G37*
G36*
X276272Y215799D02*
X272712D01*
X272786Y215231D01*
X273199Y214236D01*
X273854Y213382D01*
X274709Y212726D01*
X275704Y212314D01*
X276272Y212239D01*
Y215799D01*
D02*
G37*
G36*
X280832D02*
X277272D01*
Y212239D01*
X277839Y212314D01*
X278835Y212726D01*
X279689Y213382D01*
X280345Y214236D01*
X280757Y215231D01*
X280832Y215799D01*
D02*
G37*
G36*
X294488Y210087D02*
X293508Y209958D01*
X292594Y209580D01*
X291810Y208978D01*
X291207Y208193D01*
X290829Y207280D01*
X290700Y206299D01*
X290829Y205319D01*
X291207Y204405D01*
X291810Y203621D01*
X292594Y203018D01*
X293508Y202640D01*
X294488Y202511D01*
X295469Y202640D01*
X296382Y203018D01*
X297167Y203621D01*
X297769Y204405D01*
X298147Y205319D01*
X298276Y206299D01*
X298147Y207280D01*
X297769Y208193D01*
X297167Y208978D01*
X296382Y209580D01*
X295469Y209958D01*
X294488Y210087D01*
D02*
G37*
G36*
X276772Y210425D02*
X275704Y210284D01*
X274709Y209872D01*
X273854Y209217D01*
X273199Y208362D01*
X272786Y207367D01*
X272646Y206299D01*
X272786Y205231D01*
X273199Y204236D01*
X273854Y203382D01*
X274709Y202726D01*
X275704Y202314D01*
X276772Y202173D01*
X277839Y202314D01*
X278835Y202726D01*
X279689Y203382D01*
X280345Y204236D01*
X280757Y205231D01*
X280897Y206299D01*
X280757Y207367D01*
X280345Y208362D01*
X279689Y209217D01*
X278835Y209872D01*
X277839Y210284D01*
X276772Y210425D01*
D02*
G37*
G36*
X298244Y200213D02*
X290732D01*
Y192701D01*
X298244D01*
Y200213D01*
D02*
G37*
G36*
X280862Y200390D02*
X272681D01*
Y192209D01*
X280862D01*
Y200390D01*
D02*
G37*
G36*
X277272Y171540D02*
Y167980D01*
X280832D01*
X280757Y168548D01*
X280345Y169543D01*
X279689Y170398D01*
X278835Y171053D01*
X277839Y171466D01*
X277272Y171540D01*
D02*
G37*
G36*
X276272D02*
X275704Y171466D01*
X274709Y171053D01*
X273854Y170398D01*
X273199Y169543D01*
X272786Y168548D01*
X272712Y167980D01*
X276272D01*
Y171540D01*
D02*
G37*
G36*
X294988Y171045D02*
Y167823D01*
X298211D01*
X298147Y168303D01*
X297769Y169217D01*
X297167Y170002D01*
X296382Y170604D01*
X295469Y170982D01*
X294988Y171045D01*
D02*
G37*
G36*
X293988Y171045D02*
X293508Y170982D01*
X292594Y170604D01*
X291810Y170002D01*
X291207Y169217D01*
X290829Y168303D01*
X290766Y167823D01*
X293988D01*
Y171045D01*
D02*
G37*
G36*
X298211Y166823D02*
X294988D01*
Y163600D01*
X295469Y163664D01*
X296382Y164042D01*
X297167Y164644D01*
X297769Y165429D01*
X298147Y166342D01*
X298211Y166823D01*
D02*
G37*
G36*
X293988D02*
X290766D01*
X290829Y166342D01*
X291207Y165429D01*
X291810Y164644D01*
X292594Y164042D01*
X293508Y163664D01*
X293988Y163600D01*
Y166823D01*
D02*
G37*
G36*
X280832Y166980D02*
X277272D01*
Y163420D01*
X277839Y163495D01*
X278835Y163907D01*
X279689Y164563D01*
X280345Y165417D01*
X280757Y166412D01*
X280832Y166980D01*
D02*
G37*
G36*
X276272D02*
X272712D01*
X272786Y166412D01*
X273199Y165417D01*
X273854Y164563D01*
X274709Y163907D01*
X275704Y163495D01*
X276272Y163420D01*
Y166980D01*
D02*
G37*
G36*
X294488Y161269D02*
X293508Y161140D01*
X292594Y160761D01*
X291810Y160159D01*
X291207Y159374D01*
X290829Y158461D01*
X290700Y157480D01*
X290829Y156500D01*
X291207Y155586D01*
X291810Y154802D01*
X292594Y154200D01*
X293508Y153821D01*
X294488Y153692D01*
X295469Y153821D01*
X296382Y154200D01*
X297167Y154802D01*
X297769Y155586D01*
X298147Y156500D01*
X298276Y157480D01*
X298147Y158461D01*
X297769Y159374D01*
X297167Y160159D01*
X296382Y160761D01*
X295469Y161140D01*
X294488Y161269D01*
D02*
G37*
G36*
X276772Y161606D02*
X275704Y161466D01*
X274709Y161053D01*
X273854Y160398D01*
X273199Y159543D01*
X272786Y158548D01*
X272646Y157480D01*
X272786Y156412D01*
X273199Y155417D01*
X273854Y154563D01*
X274709Y153907D01*
X275704Y153495D01*
X276772Y153355D01*
X277839Y153495D01*
X278835Y153907D01*
X279689Y154563D01*
X280345Y155417D01*
X280757Y156412D01*
X280897Y157480D01*
X280757Y158548D01*
X280345Y159543D01*
X279689Y160398D01*
X278835Y161053D01*
X277839Y161466D01*
X276772Y161606D01*
D02*
G37*
G36*
X298244Y151394D02*
X290732D01*
Y143882D01*
X298244D01*
Y151394D01*
D02*
G37*
G36*
X280862Y151571D02*
X272681D01*
Y143390D01*
X280862D01*
Y151571D01*
D02*
G37*
G36*
X276772Y123181D02*
X275704Y123040D01*
X274709Y122628D01*
X273854Y121973D01*
X273199Y121118D01*
X272786Y120123D01*
X272646Y119055D01*
X272786Y117987D01*
X273199Y116992D01*
X273854Y116138D01*
X274709Y115482D01*
X275704Y115070D01*
X276772Y114929D01*
X277839Y115070D01*
X278835Y115482D01*
X279689Y116138D01*
X280345Y116992D01*
X280757Y117987D01*
X280897Y119055D01*
X280757Y120123D01*
X280345Y121118D01*
X279689Y121973D01*
X278835Y122628D01*
X277839Y123040D01*
X276772Y123181D01*
D02*
G37*
G36*
X294488Y122292D02*
X293508Y122163D01*
X292594Y121785D01*
X291810Y121183D01*
X291207Y120398D01*
X290829Y119484D01*
X290700Y118504D01*
X290829Y117524D01*
X291207Y116610D01*
X291810Y115825D01*
X292594Y115223D01*
X293508Y114845D01*
X294488Y114716D01*
X295469Y114845D01*
X296382Y115223D01*
X297167Y115825D01*
X297769Y116610D01*
X298147Y117524D01*
X298276Y118504D01*
X298147Y119484D01*
X297769Y120398D01*
X297167Y121183D01*
X296382Y121785D01*
X295469Y122163D01*
X294488Y122292D01*
D02*
G37*
G36*
X277272Y113115D02*
Y109555D01*
X280832D01*
X280757Y110123D01*
X280345Y111118D01*
X279689Y111972D01*
X278835Y112628D01*
X277839Y113040D01*
X277272Y113115D01*
D02*
G37*
G36*
X276272Y113115D02*
X275704Y113040D01*
X274709Y112628D01*
X273854Y111972D01*
X273199Y111118D01*
X272786Y110123D01*
X272712Y109555D01*
X276272D01*
Y113115D01*
D02*
G37*
G36*
X294988Y112384D02*
Y109161D01*
X298211D01*
X298147Y109642D01*
X297769Y110556D01*
X297167Y111340D01*
X296382Y111942D01*
X295469Y112321D01*
X294988Y112384D01*
D02*
G37*
G36*
X293988Y112384D02*
X293508Y112321D01*
X292594Y111942D01*
X291810Y111340D01*
X291207Y110556D01*
X290829Y109642D01*
X290766Y109161D01*
X293988D01*
Y112384D01*
D02*
G37*
G36*
X276272Y108555D02*
X272712D01*
X272786Y107987D01*
X273199Y106992D01*
X273854Y106138D01*
X274709Y105482D01*
X275704Y105070D01*
X276272Y104995D01*
Y108555D01*
D02*
G37*
G36*
X280832D02*
X277272D01*
Y104995D01*
X277839Y105070D01*
X278835Y105482D01*
X279689Y106138D01*
X280345Y106992D01*
X280757Y107987D01*
X280832Y108555D01*
D02*
G37*
G36*
X298211Y108161D02*
X294988D01*
Y104939D01*
X295469Y105002D01*
X296382Y105381D01*
X297167Y105983D01*
X297769Y106767D01*
X298147Y107681D01*
X298211Y108161D01*
D02*
G37*
G36*
X293988D02*
X290766D01*
X290829Y107681D01*
X291207Y106767D01*
X291810Y105983D01*
X292594Y105381D01*
X293508Y105002D01*
X293988Y104939D01*
Y108161D01*
D02*
G37*
G36*
X298244Y102575D02*
X290732D01*
Y95063D01*
X298244D01*
Y102575D01*
D02*
G37*
G36*
X280862Y103146D02*
X272681D01*
Y94965D01*
X280862D01*
Y103146D01*
D02*
G37*
G36*
X296457Y63030D02*
X291732D01*
X291060Y62942D01*
X290434Y62682D01*
X289896Y62269D01*
X289483Y61732D01*
X289224Y61105D01*
X289135Y60433D01*
Y57284D01*
X289224Y56611D01*
X289483Y55985D01*
X289896Y55447D01*
X290434Y55034D01*
X291060Y54775D01*
X291732Y54686D01*
X296457D01*
X297129Y54775D01*
X297755Y55034D01*
X298293Y55447D01*
X298706Y55985D01*
X298965Y56611D01*
X299054Y57284D01*
Y60433D01*
X298965Y61105D01*
X298706Y61732D01*
X298293Y62269D01*
X297755Y62682D01*
X297129Y62942D01*
X296457Y63030D01*
D02*
G37*
%LPD*%
D38*
X276772Y99055D02*
D03*
Y196299D02*
D03*
Y147480D02*
D03*
Y245118D02*
D03*
D39*
Y109055D02*
D03*
Y119055D02*
D03*
Y206299D02*
D03*
Y216299D02*
D03*
Y157480D02*
D03*
Y167480D02*
D03*
Y255118D02*
D03*
Y265118D02*
D03*
D40*
X294488Y98819D02*
D03*
Y147638D02*
D03*
Y196457D02*
D03*
Y245276D02*
D03*
D41*
Y108661D02*
D03*
Y118504D02*
D03*
Y167323D02*
D03*
Y157480D02*
D03*
Y216142D02*
D03*
Y206299D02*
D03*
Y264961D02*
D03*
Y255118D02*
D03*
X142913Y52756D02*
D03*
X133071D02*
D03*
D50*
X123228D02*
D03*
D55*
X158858Y290748D02*
Y290748D01*
X270582Y309125D02*
Y312944D01*
X270630Y312992D01*
X225729Y155118D02*
Y157342D01*
X207480Y175591D02*
X225729Y157342D01*
X207480Y175591D02*
Y224016D01*
X58268Y12793D02*
Y24409D01*
X54724Y27953D02*
X58268Y24409D01*
X294488Y255118D02*
Y255906D01*
X75414Y251554D02*
X75590Y251378D01*
X53543Y94095D02*
X61811Y85827D01*
X151181D02*
X155783Y90429D01*
X61811Y85827D02*
X151181D01*
X45276Y108268D02*
X53543Y100000D01*
Y94095D02*
Y100000D01*
X40354Y108268D02*
X45276D01*
X155783Y90429D02*
Y101335D01*
X31496Y78740D02*
X157480D01*
X26378Y83858D02*
Y101575D01*
Y83858D02*
X31496Y78740D01*
X165827Y87087D02*
Y101378D01*
X157480Y78740D02*
X165827Y87087D01*
X51968Y136221D02*
Y151575D01*
X48031Y132283D02*
X51968Y136221D01*
X16142Y132283D02*
X48031D01*
X6299Y122441D02*
X16142Y132283D01*
X75394Y151575D02*
X75590Y151378D01*
X29134Y181496D02*
X48425D01*
X52756Y171653D02*
Y177165D01*
X48425Y181496D02*
X52756Y177165D01*
X185827Y231378D02*
X200118D01*
X207480Y224016D01*
X198031Y93307D02*
Y135827D01*
X147638Y42913D02*
X198031Y93307D01*
X120472Y42913D02*
X147638D01*
X192126Y141732D02*
X198031Y135827D01*
X186181Y141732D02*
X192126D01*
X205315Y53347D02*
X205512Y53543D01*
X210394Y18110D02*
X211024Y18740D01*
X13780Y161024D02*
X13780Y161024D01*
X185827Y141378D02*
X186181Y141732D01*
X24409Y164961D02*
Y176772D01*
X6299Y58661D02*
Y122441D01*
X112958Y18504D02*
Y35399D01*
X13780Y161024D02*
X20472D01*
X155783Y101335D02*
X155827Y101378D01*
X13780Y108268D02*
X19685D01*
X26378Y101575D01*
X20472Y161024D02*
X24409Y164961D01*
Y176772D02*
X29134Y181496D01*
X37008Y27953D02*
X54724D01*
X112958Y35399D02*
X120472Y42913D01*
X6299Y58661D02*
X37008Y27953D01*
D56*
X167717Y261811D02*
X211024D01*
X138976D02*
X167717D01*
X171653Y267323D02*
X190157D01*
X87402Y296063D02*
X142913D01*
X171653Y267323D01*
X125591Y275197D02*
X138976Y261811D01*
X190157Y267323D02*
X192441Y269606D01*
X48425Y285433D02*
X115354D01*
X125591Y275197D01*
X68504Y314961D02*
X87402Y296063D01*
X192441Y269606D02*
Y275039D01*
X263386Y260630D02*
X268898Y255118D01*
X276772D01*
X263386Y260630D02*
Y281102D01*
X62598Y245276D02*
X68877Y251554D01*
X75414D01*
X62598Y96063D02*
Y245276D01*
Y96063D02*
X66535Y92126D01*
X82677D01*
X85827Y95276D02*
Y101378D01*
X82677Y92126D02*
X85827Y95276D01*
D57*
X226181Y49016D02*
X294094D01*
X205512Y53543D02*
X221654D01*
X226181Y49016D01*
X206299Y109449D02*
X238189Y141339D01*
X206299Y96850D02*
Y109449D01*
X237008Y277953D02*
Y312992D01*
Y265354D02*
Y277953D01*
X222441Y275039D02*
X234095D01*
X237008Y277953D01*
X222441Y250787D02*
X237008Y265354D01*
X222441Y180315D02*
Y250787D01*
X238189Y141339D02*
Y164567D01*
X222441Y180315D02*
X238189Y164567D01*
X205315Y41142D02*
Y53347D01*
Y41142D02*
X211024Y35433D01*
Y18740D02*
Y35433D01*
D58*
X261024Y103543D02*
Y183150D01*
X232677Y75197D02*
X261024Y103543D01*
X246693Y197480D02*
X261024Y183150D01*
X247638Y115354D02*
Y137402D01*
X221654Y89370D02*
X247638Y115354D01*
X221654Y86614D02*
Y89370D01*
X199606Y75197D02*
X232677D01*
X195669Y71260D02*
X199606Y75197D01*
X155118Y294488D02*
Y296457D01*
Y294488D02*
X158858Y290748D01*
Y290748D02*
X174567Y275039D01*
X182441D01*
X246693Y197480D02*
Y285236D01*
X270582Y309125D01*
X190394Y48268D02*
X195669Y53543D01*
X190394Y18110D02*
Y48268D01*
X195669Y53543D02*
Y71260D01*
X234646Y185433D02*
X246693Y197480D01*
D59*
X270630Y312992D02*
D03*
X195669Y53543D02*
D03*
X13780Y116142D02*
D03*
X13780Y270079D02*
D03*
X13780Y218504D02*
D03*
X40354Y116142D02*
D03*
X40354Y270079D02*
D03*
X40354Y218504D02*
D03*
X13780Y168898D02*
D03*
X40354D02*
D03*
D60*
X260787Y312992D02*
D03*
X66142Y66338D02*
D03*
X58268D02*
D03*
X74016D02*
D03*
X205512Y53543D02*
D03*
X66142Y12794D02*
D03*
X58268D02*
D03*
X74016D02*
D03*
X13780Y100394D02*
D03*
Y108268D02*
D03*
Y92520D02*
D03*
X13780Y254331D02*
D03*
Y262205D02*
D03*
Y246457D02*
D03*
X13780Y202756D02*
D03*
Y210630D02*
D03*
Y194882D02*
D03*
X40354Y92520D02*
D03*
Y108268D02*
D03*
Y100394D02*
D03*
X40354Y246457D02*
D03*
Y262205D02*
D03*
Y254331D02*
D03*
X40354Y202756D02*
D03*
Y210630D02*
D03*
Y194882D02*
D03*
X66142Y39566D02*
D03*
X58268D02*
D03*
X74016D02*
D03*
X13780Y153150D02*
D03*
Y161024D02*
D03*
Y145276D02*
D03*
X40354Y153150D02*
D03*
Y161024D02*
D03*
Y145276D02*
D03*
D61*
X222441Y275039D02*
D03*
X212441D02*
D03*
X222441Y285039D02*
D03*
X212441D02*
D03*
X202441Y275039D02*
D03*
Y285039D02*
D03*
X192441D02*
D03*
Y275039D02*
D03*
X182441Y285039D02*
D03*
D62*
Y275039D02*
D03*
D63*
X50394Y66338D02*
D03*
Y12794D02*
D03*
Y39566D02*
D03*
D64*
X112958Y18504D02*
D03*
X132958D02*
D03*
X152958D02*
D03*
X210394Y18110D02*
D03*
X190394D02*
D03*
D65*
X294094Y58858D02*
D03*
D66*
Y49016D02*
D03*
D67*
X185827Y251378D02*
D03*
D68*
Y241378D02*
D03*
Y231378D02*
D03*
Y221378D02*
D03*
Y211378D02*
D03*
Y201378D02*
D03*
Y191378D02*
D03*
Y181378D02*
D03*
Y171378D02*
D03*
Y161378D02*
D03*
Y151378D02*
D03*
Y141378D02*
D03*
Y131378D02*
D03*
Y121378D02*
D03*
Y111378D02*
D03*
Y101378D02*
D03*
X75590Y181378D02*
D03*
Y121378D02*
D03*
Y251378D02*
D03*
Y221378D02*
D03*
Y241378D02*
D03*
Y201378D02*
D03*
Y211378D02*
D03*
Y161378D02*
D03*
Y171378D02*
D03*
Y141378D02*
D03*
Y101378D02*
D03*
Y231378D02*
D03*
Y191378D02*
D03*
Y151378D02*
D03*
Y111378D02*
D03*
X165827Y101378D02*
D03*
X105827D02*
D03*
X145827D02*
D03*
X155827D02*
D03*
X115827D02*
D03*
X125827D02*
D03*
X85827D02*
D03*
X175827D02*
D03*
X135827D02*
D03*
X95827D02*
D03*
X165827Y111378D02*
D03*
X105827D02*
D03*
X145827D02*
D03*
X155827D02*
D03*
X115827D02*
D03*
X125827D02*
D03*
X85827D02*
D03*
X175827D02*
D03*
X135827D02*
D03*
X95827D02*
D03*
X85827Y121378D02*
D03*
X95827D02*
D03*
X75590Y131378D02*
D03*
X95827D02*
D03*
X85827D02*
D03*
D69*
X107087Y121378D02*
D03*
X114961D02*
D03*
D70*
X11811Y11811D02*
D03*
X298425D02*
D03*
X11811Y318898D02*
D03*
X298425D02*
D03*
D71*
X247638Y137402D02*
D03*
X221654Y86614D02*
D03*
X206299Y96850D02*
D03*
X167717Y261811D02*
D03*
X211024D02*
D03*
X155118Y296457D02*
D03*
X279134Y291339D02*
D03*
X237008Y312992D02*
D03*
X225729Y155118D02*
D03*
X263386Y281102D02*
D03*
X51968Y151575D02*
D03*
X52756Y171653D02*
D03*
X68504Y314961D02*
D03*
X95811Y303776D02*
D03*
X48425Y285433D02*
D03*
X128347Y31890D02*
D03*
X157874Y33071D02*
D03*
X234646Y185433D02*
D03*
X125591Y275197D02*
D03*
M02*
