G04*
G04 #@! TF.GenerationSoftware,Altium Limited,Altium Designer,20.1.8 (145)*
G04*
G04 Layer_Color=32896*
%FSLAX25Y25*%
%MOIN*%
G70*
G04*
G04 #@! TF.SameCoordinates,270EA023-51AB-43D7-A289-41EC75A4802A*
G04*
G04*
G04 #@! TF.FilePolarity,Positive*
G04*
G01*
G75*
G36*
X69250Y25226D02*
X69243Y25167D01*
X69221Y25124D01*
X69207Y25087D01*
X69199Y25080D01*
X69156Y25043D01*
X69112Y25029D01*
X69075Y25022D01*
X69061D01*
X69010Y25029D01*
X68966Y25051D01*
X68937Y25065D01*
X68930Y25073D01*
X68893Y25116D01*
X68871Y25167D01*
X68857Y25204D01*
Y25211D01*
Y25218D01*
X68827Y25415D01*
X68806Y25525D01*
X68777Y25627D01*
X68747Y25714D01*
X68711Y25794D01*
X68682Y25853D01*
X68660Y25904D01*
X68645Y25933D01*
X68638Y25940D01*
X68565Y26035D01*
X68485Y26108D01*
X68449Y26130D01*
X68419Y26151D01*
X68405Y26159D01*
X68397Y26166D01*
Y26560D01*
X69250D01*
Y25226D01*
D02*
G37*
G36*
X66422Y26166D02*
X66327Y26093D01*
X66247Y26020D01*
X66225Y25991D01*
X66203Y25962D01*
X66196Y25947D01*
X66189Y25940D01*
X66137Y25853D01*
X66101Y25765D01*
X66065Y25678D01*
X66043Y25598D01*
X66021Y25525D01*
X66006Y25466D01*
X65999Y25430D01*
Y25415D01*
X65970Y25218D01*
X65955Y25153D01*
X65933Y25109D01*
X65912Y25080D01*
X65904Y25073D01*
X65860Y25043D01*
X65810Y25029D01*
X65780Y25022D01*
X65766D01*
X65707Y25029D01*
X65664Y25051D01*
X65635Y25073D01*
X65627Y25080D01*
X65591Y25131D01*
X65576Y25175D01*
X65569Y25211D01*
Y25226D01*
Y26560D01*
X66422D01*
Y26166D01*
D02*
G37*
G36*
X81184Y26633D02*
X81228Y26603D01*
X81264Y26574D01*
X81272Y26567D01*
Y26560D01*
X81301Y26523D01*
X81330Y26487D01*
X81359Y26450D01*
X81381Y26428D01*
X81388Y26421D01*
X81410Y26407D01*
X81439Y26399D01*
X81468D01*
X81512Y26407D01*
X81563Y26421D01*
X81607Y26436D01*
X81614Y26443D01*
X81621D01*
X81760Y26494D01*
X81898Y26538D01*
X82044Y26567D01*
X82183Y26596D01*
X82307Y26618D01*
X82358Y26625D01*
X82402Y26633D01*
X82438D01*
X82467Y26640D01*
X82489D01*
Y26290D01*
X82402Y26283D01*
X82321Y26268D01*
X82256Y26254D01*
X82197Y26239D01*
X82146Y26224D01*
X82110Y26210D01*
X82088Y26202D01*
X82081Y26195D01*
X82023Y26166D01*
X81964Y26130D01*
X81913Y26093D01*
X81869Y26050D01*
X81833Y26020D01*
X81804Y25991D01*
X81789Y25969D01*
X81782Y25962D01*
X81738Y25904D01*
X81694Y25845D01*
X81614Y25714D01*
X81585Y25663D01*
X81563Y25619D01*
X81549Y25590D01*
X81541Y25576D01*
X81498Y25488D01*
X81454Y25408D01*
X81425Y25335D01*
X81403Y25277D01*
X81381Y25226D01*
X81366Y25182D01*
X81359Y25160D01*
Y25153D01*
X81344Y25102D01*
X81330Y25065D01*
X81315Y25029D01*
X81308Y25007D01*
X81286Y24971D01*
X81279Y24963D01*
X81235Y24941D01*
X81191Y24927D01*
X81155Y24919D01*
X81140D01*
X81082Y24927D01*
X81038Y24956D01*
X81002Y25000D01*
X80980Y25043D01*
X80965Y25087D01*
X80958Y25131D01*
Y25160D01*
Y25167D01*
Y26428D01*
X80965Y26501D01*
X80980Y26560D01*
X80995Y26589D01*
X81002Y26596D01*
X81038Y26625D01*
X81075Y26640D01*
X81111Y26647D01*
X81155D01*
X81184Y26633D01*
D02*
G37*
G36*
X55603Y25422D02*
X55691Y25401D01*
X55764Y25372D01*
X55830Y25335D01*
X55880Y25299D01*
X55917Y25269D01*
X55946Y25248D01*
X55953Y25240D01*
X56012Y25167D01*
X56055Y25095D01*
X56092Y25022D01*
X56114Y24949D01*
X56128Y24890D01*
X56136Y24839D01*
Y24810D01*
Y24796D01*
X56128Y24701D01*
X56107Y24613D01*
X56077Y24540D01*
X56041Y24475D01*
X56012Y24424D01*
X55983Y24387D01*
X55961Y24358D01*
X55953Y24351D01*
X55880Y24293D01*
X55808Y24249D01*
X55735Y24212D01*
X55662Y24191D01*
X55603Y24176D01*
X55553Y24169D01*
X55509D01*
X55414Y24176D01*
X55326Y24198D01*
X55254Y24227D01*
X55188Y24263D01*
X55137Y24293D01*
X55093Y24322D01*
X55071Y24344D01*
X55064Y24351D01*
X54998Y24424D01*
X54955Y24497D01*
X54918Y24570D01*
X54896Y24643D01*
X54882Y24701D01*
X54874Y24752D01*
Y24781D01*
Y24796D01*
X54882Y24890D01*
X54904Y24978D01*
X54933Y25051D01*
X54969Y25116D01*
X55006Y25167D01*
X55035Y25211D01*
X55057Y25233D01*
X55064Y25240D01*
X55137Y25306D01*
X55210Y25350D01*
X55283Y25386D01*
X55356Y25408D01*
X55414Y25422D01*
X55465Y25430D01*
X55509D01*
X55603Y25422D01*
D02*
G37*
G36*
X74798Y26553D02*
X74856Y26538D01*
X74885Y26523D01*
X74900Y26516D01*
X74929Y26480D01*
X74944Y26436D01*
X74951Y26399D01*
Y26392D01*
Y26385D01*
X74944Y26348D01*
X74937Y26319D01*
X74929Y26297D01*
Y26290D01*
X74900Y26268D01*
X74871Y26246D01*
X74842Y26232D01*
X74835Y26224D01*
X74762Y26181D01*
X74703Y26137D01*
X74652Y26093D01*
X74616Y26057D01*
X74587Y26020D01*
X74565Y25991D01*
X74550Y25976D01*
Y25969D01*
X74521Y25911D01*
X74506Y25845D01*
X74477Y25707D01*
Y25648D01*
X74470Y25598D01*
Y25568D01*
Y25554D01*
Y24657D01*
X74127Y24081D01*
Y25554D01*
Y25634D01*
X74120Y25707D01*
X74106Y25772D01*
X74098Y25824D01*
X74084Y25867D01*
X74076Y25896D01*
X74069Y25911D01*
Y25918D01*
X74033Y25984D01*
X73989Y26035D01*
X73945Y26086D01*
X73901Y26122D01*
X73865Y26151D01*
X73836Y26173D01*
X73814Y26181D01*
X73807Y26188D01*
X73770Y26210D01*
X73734Y26224D01*
X73690Y26254D01*
X73668Y26268D01*
X73661Y26275D01*
X73639Y26305D01*
X73632Y26341D01*
X73624Y26370D01*
Y26377D01*
X73632Y26428D01*
X73654Y26465D01*
X73675Y26494D01*
X73683Y26501D01*
X73705Y26523D01*
X73741Y26538D01*
X73814Y26553D01*
X73843Y26560D01*
X74711D01*
X74798Y26553D01*
D02*
G37*
G36*
X36635D02*
X36693Y26538D01*
X36722Y26523D01*
X36737Y26516D01*
X36766Y26480D01*
X36781Y26436D01*
X36788Y26399D01*
Y26392D01*
Y26385D01*
X36781Y26348D01*
X36773Y26319D01*
X36766Y26297D01*
Y26290D01*
X36737Y26268D01*
X36708Y26246D01*
X36679Y26232D01*
X36671Y26224D01*
X36599Y26181D01*
X36540Y26137D01*
X36489Y26093D01*
X36453Y26057D01*
X36424Y26020D01*
X36402Y25991D01*
X36387Y25976D01*
Y25969D01*
X36358Y25911D01*
X36343Y25845D01*
X36314Y25707D01*
Y25648D01*
X36307Y25598D01*
Y25568D01*
Y25554D01*
Y24657D01*
X35964Y24081D01*
Y25554D01*
Y25634D01*
X35957Y25707D01*
X35942Y25772D01*
X35935Y25824D01*
X35921Y25867D01*
X35913Y25896D01*
X35906Y25911D01*
Y25918D01*
X35870Y25984D01*
X35826Y26035D01*
X35782Y26086D01*
X35738Y26122D01*
X35702Y26151D01*
X35673Y26173D01*
X35651Y26181D01*
X35644Y26188D01*
X35607Y26210D01*
X35571Y26224D01*
X35527Y26254D01*
X35505Y26268D01*
X35498Y26275D01*
X35476Y26305D01*
X35469Y26341D01*
X35461Y26370D01*
Y26377D01*
X35469Y26428D01*
X35490Y26465D01*
X35512Y26494D01*
X35519Y26501D01*
X35541Y26523D01*
X35578Y26538D01*
X35651Y26553D01*
X35680Y26560D01*
X36547D01*
X36635Y26553D01*
D02*
G37*
G36*
X50471Y26202D02*
X50362Y26173D01*
X50318Y26159D01*
X50282Y26137D01*
X50253Y26122D01*
X50231Y26108D01*
X50223Y26101D01*
X50216Y26093D01*
X50172Y26042D01*
X50151Y25998D01*
X50136Y25969D01*
X50129Y25955D01*
X50121Y25925D01*
X50114Y25889D01*
X50099Y25816D01*
Y25780D01*
Y25751D01*
Y25736D01*
Y25729D01*
Y24693D01*
Y24613D01*
X50114Y24548D01*
X50121Y24489D01*
X50136Y24438D01*
X50151Y24402D01*
X50158Y24373D01*
X50172Y24358D01*
Y24351D01*
X50209Y24300D01*
X50238Y24271D01*
X50267Y24249D01*
X50274Y24241D01*
X50296Y24227D01*
X50326Y24220D01*
X50391Y24198D01*
X50420Y24191D01*
X50442Y24183D01*
X50457Y24176D01*
X50464D01*
Y23826D01*
X50245Y23833D01*
X50056Y23848D01*
X49895Y23863D01*
X49764Y23884D01*
X49706Y23899D01*
X49662Y23906D01*
X49618Y23913D01*
X49582Y23928D01*
X49560Y23935D01*
X49538D01*
X49524Y23943D01*
X49385Y24008D01*
X49261Y24081D01*
X49159Y24161D01*
X49072Y24234D01*
X48999Y24300D01*
X48948Y24358D01*
X48919Y24395D01*
X48911Y24409D01*
X48838Y24533D01*
X48780Y24672D01*
X48744Y24810D01*
X48714Y24941D01*
X48700Y25051D01*
X48693Y25102D01*
X48685Y25146D01*
Y25175D01*
Y25204D01*
Y25218D01*
Y25226D01*
X48693Y25386D01*
X48722Y25532D01*
X48751Y25663D01*
X48795Y25772D01*
X48831Y25860D01*
X48867Y25933D01*
X48897Y25969D01*
X48904Y25984D01*
X48992Y26086D01*
X49086Y26181D01*
X49181Y26254D01*
X49276Y26319D01*
X49363Y26370D01*
X49429Y26399D01*
X49473Y26421D01*
X49480Y26428D01*
X49487D01*
X49553Y26450D01*
X49618Y26472D01*
X49771Y26501D01*
X49939Y26531D01*
X50099Y26545D01*
X50245Y26553D01*
X50304D01*
X50362Y26560D01*
X50471D01*
Y26202D01*
D02*
G37*
G36*
X28412Y26553D02*
X28477Y26538D01*
X28514Y26516D01*
X28528Y26509D01*
X28565Y26472D01*
X28587Y26428D01*
X28594Y26392D01*
Y26385D01*
Y26377D01*
X28587Y26334D01*
X28572Y26297D01*
X28528Y26246D01*
X28492Y26217D01*
X28477Y26210D01*
X28470D01*
X28361Y26173D01*
X28324Y26159D01*
X28288Y26137D01*
X28237Y26086D01*
X28208Y26042D01*
X28200Y26028D01*
Y26020D01*
X28179Y25962D01*
X28171Y25911D01*
X28164Y25875D01*
Y25860D01*
X28171Y25845D01*
Y25824D01*
X28186Y25772D01*
X28200Y25729D01*
X28208Y25714D01*
Y25707D01*
X28580Y24336D01*
X28405Y23731D01*
X27887Y25627D01*
X27836Y25758D01*
X27814Y25809D01*
X27785Y25860D01*
X27770Y25896D01*
X27748Y25933D01*
X27741Y25947D01*
X27734Y25955D01*
X27697Y26006D01*
X27661Y26050D01*
X27632Y26079D01*
X27603Y26108D01*
X27552Y26137D01*
X27544Y26144D01*
X27537D01*
X27369Y26224D01*
X27326Y26246D01*
X27304Y26268D01*
X27289Y26283D01*
X27282Y26290D01*
X27267Y26319D01*
X27253Y26348D01*
Y26377D01*
Y26385D01*
Y26421D01*
X27267Y26450D01*
X27289Y26494D01*
X27318Y26523D01*
X27326Y26531D01*
X27333D01*
X27355Y26538D01*
X27384Y26545D01*
X27450Y26560D01*
X28324D01*
X28412Y26553D01*
D02*
G37*
G36*
X89699Y26195D02*
X89626Y26173D01*
X89560Y26144D01*
X89517Y26122D01*
X89473Y26093D01*
X89444Y26071D01*
X89422Y26050D01*
X89407Y26042D01*
Y26035D01*
X89378Y25998D01*
X89363Y25947D01*
X89334Y25853D01*
Y25809D01*
X89327Y25772D01*
Y25743D01*
Y25736D01*
Y24876D01*
X89334Y24781D01*
X89342Y24708D01*
X89349Y24664D01*
X89356Y24657D01*
Y24650D01*
X89378Y24599D01*
X89407Y24555D01*
X89436Y24526D01*
X89444Y24519D01*
X89473Y24497D01*
X89509Y24475D01*
X89590Y24453D01*
X89626Y24438D01*
X89655D01*
X89677Y24431D01*
X89684D01*
Y24081D01*
X89626Y24067D01*
X89575Y24052D01*
X89524Y24030D01*
X89487Y24008D01*
X89458Y23986D01*
X89436Y23965D01*
X89429Y23957D01*
X89422Y23950D01*
X89378Y23877D01*
X89349Y23804D01*
X89342Y23768D01*
X89334Y23746D01*
Y23731D01*
Y23724D01*
Y23709D01*
X89327Y23680D01*
Y23607D01*
Y23571D01*
Y23542D01*
Y23520D01*
Y23513D01*
Y22973D01*
X89320Y22820D01*
X89291Y22682D01*
X89254Y22565D01*
X89203Y22470D01*
X89159Y22390D01*
X89123Y22332D01*
X89094Y22302D01*
X89087Y22288D01*
X88992Y22208D01*
X88882Y22149D01*
X88773Y22106D01*
X88664Y22076D01*
X88569Y22062D01*
X88496Y22054D01*
X88467Y22047D01*
X88343D01*
X88277Y22054D01*
X88212Y22062D01*
X88161Y22069D01*
X88117Y22076D01*
X88088Y22084D01*
X88066Y22091D01*
X88059D01*
X87942Y22135D01*
X87891Y22157D01*
X87847Y22186D01*
X87811Y22208D01*
X87782Y22230D01*
X87767Y22237D01*
X87760Y22244D01*
X87665Y22332D01*
X87592Y22412D01*
X87563Y22448D01*
X87541Y22477D01*
X87534Y22492D01*
X87526Y22499D01*
X87490Y22550D01*
X87468Y22601D01*
X87439Y22682D01*
X87432Y22711D01*
X87424Y22733D01*
Y22740D01*
Y22747D01*
X87432Y22791D01*
X87454Y22827D01*
X87475Y22856D01*
X87483Y22864D01*
X87526Y22900D01*
X87556Y22915D01*
X87585Y22922D01*
X87592D01*
X87621Y22915D01*
X87658Y22907D01*
X87709Y22871D01*
X87745Y22827D01*
X87752Y22820D01*
X87760Y22813D01*
X87782Y22783D01*
X87803Y22769D01*
X87811Y22754D01*
X87818D01*
X87840Y22747D01*
X87854D01*
X87876Y22754D01*
X87891Y22762D01*
X87913Y22798D01*
X87920Y22827D01*
Y22835D01*
Y22842D01*
Y23513D01*
Y23571D01*
X87935Y23629D01*
X87942Y23680D01*
X87957Y23724D01*
X87971Y23760D01*
X87986Y23789D01*
X87993Y23804D01*
X88000Y23811D01*
X88066Y23906D01*
X88131Y23986D01*
X88161Y24015D01*
X88182Y24037D01*
X88197Y24045D01*
X88204Y24052D01*
X88306Y24118D01*
X88401Y24161D01*
X88438Y24176D01*
X88467Y24191D01*
X88489Y24198D01*
X88496D01*
X88562Y24220D01*
X88635Y24241D01*
X88715Y24256D01*
X88788Y24271D01*
X88853Y24285D01*
X88904Y24293D01*
X88941Y24300D01*
X88955D01*
X88839Y24336D01*
X88744Y24365D01*
X88656Y24395D01*
X88591Y24424D01*
X88532Y24446D01*
X88496Y24460D01*
X88474Y24475D01*
X88467D01*
X88358Y24540D01*
X88306Y24577D01*
X88270Y24606D01*
X88234Y24635D01*
X88212Y24657D01*
X88197Y24672D01*
X88190Y24679D01*
X88095Y24796D01*
X88022Y24919D01*
X87971Y25043D01*
X87935Y25160D01*
X87913Y25262D01*
X87906Y25350D01*
X87898Y25379D01*
Y25401D01*
Y25415D01*
Y25422D01*
X87906Y25525D01*
X87920Y25619D01*
X87935Y25714D01*
X87964Y25794D01*
X88037Y25940D01*
X88110Y26064D01*
X88190Y26159D01*
X88263Y26224D01*
X88292Y26254D01*
X88306Y26268D01*
X88321Y26283D01*
X88328D01*
X88438Y26356D01*
X88554Y26414D01*
X88671Y26458D01*
X88773Y26487D01*
X88860Y26509D01*
X88933Y26523D01*
X88963D01*
X88984Y26531D01*
X88999D01*
X89101Y26538D01*
X89203Y26545D01*
X89305Y26553D01*
X89400Y26560D01*
X89699D01*
Y26195D01*
D02*
G37*
G36*
X58942D02*
X58869Y26173D01*
X58804Y26144D01*
X58760Y26122D01*
X58716Y26093D01*
X58687Y26071D01*
X58665Y26050D01*
X58651Y26042D01*
Y26035D01*
X58622Y25998D01*
X58607Y25947D01*
X58578Y25853D01*
Y25809D01*
X58570Y25772D01*
Y25743D01*
Y25736D01*
Y24876D01*
X58578Y24781D01*
X58585Y24708D01*
X58592Y24664D01*
X58600Y24657D01*
Y24650D01*
X58622Y24599D01*
X58651Y24555D01*
X58680Y24526D01*
X58687Y24519D01*
X58716Y24497D01*
X58753Y24475D01*
X58833Y24453D01*
X58869Y24438D01*
X58899D01*
X58920Y24431D01*
X58928D01*
Y24081D01*
X58869Y24067D01*
X58818Y24052D01*
X58767Y24030D01*
X58731Y24008D01*
X58702Y23986D01*
X58680Y23965D01*
X58673Y23957D01*
X58665Y23950D01*
X58622Y23877D01*
X58592Y23804D01*
X58585Y23768D01*
X58578Y23746D01*
Y23731D01*
Y23724D01*
Y23709D01*
X58570Y23680D01*
Y23607D01*
Y23571D01*
Y23542D01*
Y23520D01*
Y23513D01*
Y22973D01*
X58563Y22820D01*
X58534Y22682D01*
X58498Y22565D01*
X58447Y22470D01*
X58403Y22390D01*
X58366Y22332D01*
X58337Y22302D01*
X58330Y22288D01*
X58235Y22208D01*
X58126Y22149D01*
X58017Y22106D01*
X57907Y22076D01*
X57812Y22062D01*
X57740Y22054D01*
X57710Y22047D01*
X57586D01*
X57521Y22054D01*
X57455Y22062D01*
X57404Y22069D01*
X57360Y22076D01*
X57331Y22084D01*
X57309Y22091D01*
X57302D01*
X57185Y22135D01*
X57134Y22157D01*
X57091Y22186D01*
X57054Y22208D01*
X57025Y22230D01*
X57011Y22237D01*
X57003Y22244D01*
X56908Y22332D01*
X56836Y22412D01*
X56806Y22448D01*
X56784Y22477D01*
X56777Y22492D01*
X56770Y22499D01*
X56733Y22550D01*
X56712Y22601D01*
X56682Y22682D01*
X56675Y22711D01*
X56668Y22733D01*
Y22740D01*
Y22747D01*
X56675Y22791D01*
X56697Y22827D01*
X56719Y22856D01*
X56726Y22864D01*
X56770Y22900D01*
X56799Y22915D01*
X56828Y22922D01*
X56836D01*
X56865Y22915D01*
X56901Y22907D01*
X56952Y22871D01*
X56989Y22827D01*
X56996Y22820D01*
X57003Y22813D01*
X57025Y22783D01*
X57047Y22769D01*
X57054Y22754D01*
X57061D01*
X57083Y22747D01*
X57098D01*
X57120Y22754D01*
X57134Y22762D01*
X57156Y22798D01*
X57164Y22827D01*
Y22835D01*
Y22842D01*
Y23513D01*
Y23571D01*
X57178Y23629D01*
X57185Y23680D01*
X57200Y23724D01*
X57215Y23760D01*
X57229Y23789D01*
X57236Y23804D01*
X57244Y23811D01*
X57309Y23906D01*
X57375Y23986D01*
X57404Y24015D01*
X57426Y24037D01*
X57441Y24045D01*
X57448Y24052D01*
X57550Y24118D01*
X57645Y24161D01*
X57681Y24176D01*
X57710Y24191D01*
X57732Y24198D01*
X57740D01*
X57805Y24220D01*
X57878Y24241D01*
X57958Y24256D01*
X58031Y24271D01*
X58097Y24285D01*
X58148Y24293D01*
X58184Y24300D01*
X58199D01*
X58082Y24336D01*
X57987Y24365D01*
X57900Y24395D01*
X57834Y24424D01*
X57776Y24446D01*
X57740Y24460D01*
X57718Y24475D01*
X57710D01*
X57601Y24540D01*
X57550Y24577D01*
X57513Y24606D01*
X57477Y24635D01*
X57455Y24657D01*
X57441Y24672D01*
X57433Y24679D01*
X57339Y24796D01*
X57266Y24919D01*
X57215Y25043D01*
X57178Y25160D01*
X57156Y25262D01*
X57149Y25350D01*
X57142Y25379D01*
Y25401D01*
Y25415D01*
Y25422D01*
X57149Y25525D01*
X57164Y25619D01*
X57178Y25714D01*
X57207Y25794D01*
X57280Y25940D01*
X57353Y26064D01*
X57433Y26159D01*
X57506Y26224D01*
X57535Y26254D01*
X57550Y26268D01*
X57565Y26283D01*
X57572D01*
X57681Y26356D01*
X57798Y26414D01*
X57914Y26458D01*
X58017Y26487D01*
X58104Y26509D01*
X58177Y26523D01*
X58206D01*
X58228Y26531D01*
X58242D01*
X58345Y26538D01*
X58447Y26545D01*
X58549Y26553D01*
X58643Y26560D01*
X58942D01*
Y26195D01*
D02*
G37*
G36*
X46265D02*
X46192Y26173D01*
X46126Y26144D01*
X46083Y26122D01*
X46039Y26093D01*
X46010Y26071D01*
X45988Y26050D01*
X45973Y26042D01*
Y26035D01*
X45944Y25998D01*
X45930Y25947D01*
X45900Y25853D01*
Y25809D01*
X45893Y25772D01*
Y25743D01*
Y25736D01*
Y24876D01*
X45900Y24781D01*
X45908Y24708D01*
X45915Y24664D01*
X45922Y24657D01*
Y24650D01*
X45944Y24599D01*
X45973Y24555D01*
X46003Y24526D01*
X46010Y24519D01*
X46039Y24497D01*
X46075Y24475D01*
X46156Y24453D01*
X46192Y24438D01*
X46221D01*
X46243Y24431D01*
X46250D01*
Y24081D01*
X46192Y24067D01*
X46141Y24052D01*
X46090Y24030D01*
X46054Y24008D01*
X46024Y23986D01*
X46003Y23965D01*
X45995Y23957D01*
X45988Y23950D01*
X45944Y23877D01*
X45915Y23804D01*
X45908Y23768D01*
X45900Y23746D01*
Y23731D01*
Y23724D01*
Y23709D01*
X45893Y23680D01*
Y23607D01*
Y23571D01*
Y23542D01*
Y23520D01*
Y23513D01*
Y22973D01*
X45886Y22820D01*
X45857Y22682D01*
X45820Y22565D01*
X45769Y22470D01*
X45726Y22390D01*
X45689Y22332D01*
X45660Y22302D01*
X45653Y22288D01*
X45558Y22208D01*
X45448Y22149D01*
X45339Y22106D01*
X45230Y22076D01*
X45135Y22062D01*
X45062Y22054D01*
X45033Y22047D01*
X44909D01*
X44844Y22054D01*
X44778Y22062D01*
X44727Y22069D01*
X44683Y22076D01*
X44654Y22084D01*
X44632Y22091D01*
X44625D01*
X44508Y22135D01*
X44457Y22157D01*
X44413Y22186D01*
X44377Y22208D01*
X44348Y22230D01*
X44333Y22237D01*
X44326Y22244D01*
X44231Y22332D01*
X44158Y22412D01*
X44129Y22448D01*
X44107Y22477D01*
X44100Y22492D01*
X44093Y22499D01*
X44056Y22550D01*
X44034Y22601D01*
X44005Y22682D01*
X43998Y22711D01*
X43990Y22733D01*
Y22740D01*
Y22747D01*
X43998Y22791D01*
X44020Y22827D01*
X44042Y22856D01*
X44049Y22864D01*
X44093Y22900D01*
X44122Y22915D01*
X44151Y22922D01*
X44158D01*
X44187Y22915D01*
X44224Y22907D01*
X44275Y22871D01*
X44311Y22827D01*
X44319Y22820D01*
X44326Y22813D01*
X44348Y22783D01*
X44370Y22769D01*
X44377Y22754D01*
X44384D01*
X44406Y22747D01*
X44421D01*
X44442Y22754D01*
X44457Y22762D01*
X44479Y22798D01*
X44486Y22827D01*
Y22835D01*
Y22842D01*
Y23513D01*
Y23571D01*
X44501Y23629D01*
X44508Y23680D01*
X44523Y23724D01*
X44537Y23760D01*
X44552Y23789D01*
X44559Y23804D01*
X44566Y23811D01*
X44632Y23906D01*
X44698Y23986D01*
X44727Y24015D01*
X44749Y24037D01*
X44763Y24045D01*
X44771Y24052D01*
X44873Y24118D01*
X44967Y24161D01*
X45004Y24176D01*
X45033Y24191D01*
X45055Y24198D01*
X45062D01*
X45128Y24220D01*
X45201Y24241D01*
X45281Y24256D01*
X45354Y24271D01*
X45419Y24285D01*
X45470Y24293D01*
X45507Y24300D01*
X45521D01*
X45405Y24336D01*
X45310Y24365D01*
X45222Y24395D01*
X45157Y24424D01*
X45099Y24446D01*
X45062Y24460D01*
X45040Y24475D01*
X45033D01*
X44924Y24540D01*
X44873Y24577D01*
X44836Y24606D01*
X44800Y24635D01*
X44778Y24657D01*
X44763Y24672D01*
X44756Y24679D01*
X44661Y24796D01*
X44588Y24919D01*
X44537Y25043D01*
X44501Y25160D01*
X44479Y25262D01*
X44472Y25350D01*
X44464Y25379D01*
Y25401D01*
Y25415D01*
Y25422D01*
X44472Y25525D01*
X44486Y25619D01*
X44501Y25714D01*
X44530Y25794D01*
X44603Y25940D01*
X44676Y26064D01*
X44756Y26159D01*
X44829Y26224D01*
X44858Y26254D01*
X44873Y26268D01*
X44887Y26283D01*
X44894D01*
X45004Y26356D01*
X45120Y26414D01*
X45237Y26458D01*
X45339Y26487D01*
X45427Y26509D01*
X45500Y26523D01*
X45529D01*
X45551Y26531D01*
X45565D01*
X45667Y26538D01*
X45769Y26545D01*
X45871Y26553D01*
X45966Y26560D01*
X46265D01*
Y26195D01*
D02*
G37*
G36*
X91550Y26553D02*
X91609Y26538D01*
X91638Y26516D01*
X91653Y26509D01*
X91689Y26472D01*
X91704Y26428D01*
X91711Y26399D01*
Y26392D01*
Y26385D01*
X91704Y26341D01*
X91689Y26305D01*
X91645Y26246D01*
X91609Y26217D01*
X91594Y26210D01*
X91587D01*
X91550Y26195D01*
X91521Y26188D01*
X91485Y26173D01*
X91470Y26166D01*
X91463D01*
X91448Y26159D01*
X91434Y26144D01*
X91426Y26137D01*
Y26130D01*
X91397Y26086D01*
X91390Y26028D01*
X91383Y25984D01*
Y25976D01*
Y25969D01*
Y22718D01*
X91390Y22645D01*
X91405Y22594D01*
X91419Y22565D01*
X91426Y22558D01*
X91441Y22543D01*
X91448Y22528D01*
X91456Y22521D01*
X91463D01*
X91470Y22514D01*
X91485D01*
X91529Y22499D01*
X91572Y22485D01*
X91580Y22477D01*
X91587D01*
X91631Y22456D01*
X91660Y22434D01*
X91682Y22404D01*
X91696Y22375D01*
X91711Y22324D01*
Y22310D01*
Y22302D01*
X91704Y22251D01*
X91682Y22208D01*
X91660Y22186D01*
X91653Y22178D01*
X91594Y22157D01*
X91543Y22142D01*
X91492Y22135D01*
X89779D01*
X89735Y22142D01*
X89699Y22149D01*
X89670Y22157D01*
X89640Y22164D01*
X89626Y22171D01*
X89597Y22193D01*
X89575Y22215D01*
X89546Y22259D01*
X89538Y22295D01*
Y22310D01*
X89546Y22361D01*
X89560Y22397D01*
X89590Y22426D01*
X89619Y22448D01*
X89648Y22463D01*
X89677Y22477D01*
X89692Y22485D01*
X89699D01*
X89743Y22492D01*
X89772Y22506D01*
X89801D01*
X89815Y22514D01*
X89837Y22521D01*
X89845D01*
X89881Y22550D01*
X89888Y22558D01*
X89896Y22565D01*
X89917Y22616D01*
X89932Y22682D01*
X89939Y22725D01*
Y22740D01*
Y22747D01*
Y26560D01*
X91478D01*
X91550Y26553D01*
D02*
G37*
G36*
X86907D02*
X86965Y26538D01*
X86994Y26516D01*
X87009Y26509D01*
X87045Y26472D01*
X87060Y26428D01*
X87067Y26399D01*
Y26392D01*
Y26385D01*
X87060Y26341D01*
X87045Y26305D01*
X87002Y26246D01*
X86965Y26217D01*
X86950Y26210D01*
X86943D01*
X86907Y26195D01*
X86878Y26188D01*
X86841Y26173D01*
X86827Y26166D01*
X86819D01*
X86805Y26159D01*
X86790Y26144D01*
X86783Y26137D01*
Y26130D01*
X86754Y26086D01*
X86746Y26028D01*
X86739Y25984D01*
Y25976D01*
Y25969D01*
Y22718D01*
X86746Y22645D01*
X86761Y22594D01*
X86775Y22565D01*
X86783Y22558D01*
X86797Y22543D01*
X86805Y22528D01*
X86812Y22521D01*
X86819D01*
X86827Y22514D01*
X86841D01*
X86885Y22499D01*
X86929Y22485D01*
X86936Y22477D01*
X86943D01*
X86987Y22456D01*
X87016Y22434D01*
X87038Y22404D01*
X87053Y22375D01*
X87067Y22324D01*
Y22310D01*
Y22302D01*
X87060Y22251D01*
X87038Y22208D01*
X87016Y22186D01*
X87009Y22178D01*
X86950Y22157D01*
X86900Y22142D01*
X86848Y22135D01*
X85208D01*
X85135Y22142D01*
X85077Y22157D01*
X85048Y22171D01*
X85033Y22178D01*
X84997Y22215D01*
X84975Y22259D01*
X84968Y22288D01*
Y22302D01*
X84975Y22346D01*
X84990Y22383D01*
X85033Y22441D01*
X85077Y22470D01*
X85092Y22477D01*
X85099D01*
X85135Y22492D01*
X85164Y22499D01*
X85208Y22514D01*
X85223Y22521D01*
X85230D01*
X85237Y22528D01*
X85252Y22543D01*
X85259Y22550D01*
Y22558D01*
X85281Y22601D01*
X85288Y22660D01*
X85296Y22703D01*
Y22711D01*
Y22718D01*
Y25969D01*
X85288Y26042D01*
X85274Y26093D01*
X85267Y26122D01*
X85259Y26130D01*
X85245Y26151D01*
X85237Y26159D01*
X85230Y26166D01*
X85216Y26173D01*
X85201D01*
X85157Y26188D01*
X85113Y26202D01*
X85106Y26210D01*
X85099D01*
X85055Y26232D01*
X85026Y26254D01*
X84997Y26283D01*
X84982Y26312D01*
X84968Y26363D01*
Y26377D01*
Y26385D01*
X84975Y26436D01*
X84997Y26480D01*
X85026Y26501D01*
X85033Y26509D01*
X85092Y26538D01*
X85143Y26553D01*
X85186Y26560D01*
X86834D01*
X86907Y26553D01*
D02*
G37*
G36*
X80156D02*
X80215Y26538D01*
X80244Y26516D01*
X80258Y26509D01*
X80295Y26472D01*
X80309Y26428D01*
X80317Y26399D01*
Y26392D01*
Y26385D01*
X80309Y26341D01*
X80295Y26305D01*
X80251Y26246D01*
X80215Y26217D01*
X80200Y26210D01*
X80193D01*
X80156Y26195D01*
X80127Y26188D01*
X80091Y26173D01*
X80076Y26166D01*
X80069D01*
X80054Y26159D01*
X80040Y26144D01*
X80032Y26137D01*
Y26130D01*
X80003Y26086D01*
X79996Y26028D01*
X79988Y25984D01*
Y25976D01*
Y25969D01*
Y22718D01*
X79996Y22645D01*
X80010Y22594D01*
X80025Y22565D01*
X80032Y22558D01*
X80047Y22543D01*
X80054Y22528D01*
X80061Y22521D01*
X80069D01*
X80076Y22514D01*
X80091D01*
X80134Y22499D01*
X80178Y22485D01*
X80185Y22477D01*
X80193D01*
X80236Y22456D01*
X80266Y22434D01*
X80287Y22404D01*
X80302Y22375D01*
X80317Y22324D01*
Y22310D01*
Y22302D01*
X80309Y22251D01*
X80287Y22208D01*
X80266Y22186D01*
X80258Y22178D01*
X80200Y22157D01*
X80149Y22142D01*
X80098Y22135D01*
X78458D01*
X78385Y22142D01*
X78326Y22157D01*
X78297Y22171D01*
X78283Y22178D01*
X78246Y22215D01*
X78224Y22259D01*
X78217Y22288D01*
Y22302D01*
X78224Y22346D01*
X78239Y22383D01*
X78283Y22441D01*
X78326Y22470D01*
X78341Y22477D01*
X78348D01*
X78385Y22492D01*
X78414Y22499D01*
X78458Y22514D01*
X78472Y22521D01*
X78479D01*
X78487Y22528D01*
X78501Y22543D01*
X78509Y22550D01*
Y22558D01*
X78531Y22601D01*
X78538Y22660D01*
X78545Y22703D01*
Y22711D01*
Y22718D01*
Y25969D01*
X78538Y26042D01*
X78523Y26093D01*
X78516Y26122D01*
X78509Y26130D01*
X78494Y26151D01*
X78487Y26159D01*
X78479Y26166D01*
X78465Y26173D01*
X78450D01*
X78407Y26188D01*
X78363Y26202D01*
X78356Y26210D01*
X78348D01*
X78304Y26232D01*
X78275Y26254D01*
X78246Y26283D01*
X78232Y26312D01*
X78217Y26363D01*
Y26377D01*
Y26385D01*
X78224Y26436D01*
X78246Y26480D01*
X78275Y26501D01*
X78283Y26509D01*
X78341Y26538D01*
X78392Y26553D01*
X78436Y26560D01*
X80083D01*
X80156Y26553D01*
D02*
G37*
G36*
X77211Y23112D02*
Y23031D01*
X77226Y22959D01*
X77262Y22820D01*
X77313Y22718D01*
X77364Y22630D01*
X77422Y22565D01*
X77473Y22521D01*
X77510Y22492D01*
X77517Y22485D01*
X77525D01*
X77590Y22448D01*
X77627Y22419D01*
X77649Y22397D01*
X77656Y22390D01*
X77670Y22361D01*
X77678Y22339D01*
X77685Y22310D01*
Y22302D01*
X77670Y22244D01*
X77641Y22208D01*
X77590Y22178D01*
X77539Y22157D01*
X77488Y22142D01*
X77437Y22135D01*
X76591D01*
X76548Y22142D01*
X76504Y22149D01*
X76475Y22157D01*
X76453D01*
X76438Y22164D01*
X76431Y22171D01*
X76395Y22215D01*
X76373Y22251D01*
X76365Y22280D01*
Y22295D01*
Y22332D01*
X76380Y22361D01*
X76409Y22404D01*
X76438Y22434D01*
X76446Y22441D01*
X76453D01*
X76555Y22499D01*
X76613Y22536D01*
X76657Y22579D01*
X76701Y22616D01*
X76737Y22652D01*
X76759Y22689D01*
X76781Y22718D01*
X76788Y22733D01*
X76796Y22740D01*
X76817Y22798D01*
X76839Y22856D01*
X76861Y22980D01*
Y23031D01*
X76868Y23075D01*
Y23104D01*
Y23112D01*
Y24847D01*
X77211Y25415D01*
Y23112D01*
D02*
G37*
G36*
X77422Y26553D02*
X77473D01*
X77517Y26545D01*
X77546Y26538D01*
X77561D01*
X77575Y26531D01*
X77605Y26516D01*
X77627Y26494D01*
X77641Y26472D01*
X77649Y26465D01*
X77663Y26428D01*
X77670Y26399D01*
X77678Y26370D01*
Y26363D01*
X77670Y26327D01*
X77663Y26297D01*
X77656Y26275D01*
X77649Y26268D01*
X77597Y26224D01*
X77583Y26217D01*
X77575Y26210D01*
X77452Y26166D01*
X77401Y26144D01*
X77364Y26122D01*
X77342Y26101D01*
X77335Y26093D01*
X77320Y26071D01*
X77298Y26050D01*
X77262Y25991D01*
X77233Y25947D01*
X77218Y25933D01*
Y25925D01*
X75017Y22135D01*
X74127D01*
Y23564D01*
X75855Y26560D01*
X77357D01*
X77422Y26553D01*
D02*
G37*
G36*
X72888Y23061D02*
X72910Y22980D01*
X72932Y22915D01*
X72961Y22856D01*
X72983Y22805D01*
X73005Y22762D01*
X73019Y22733D01*
X73027Y22718D01*
X73034Y22711D01*
X73078Y22660D01*
X73114Y22616D01*
X73143Y22587D01*
X73158Y22579D01*
X73216Y22543D01*
X73282Y22514D01*
X73311Y22499D01*
X73333Y22485D01*
X73347Y22477D01*
X73355D01*
X73398Y22456D01*
X73435Y22426D01*
X73457Y22397D01*
X73479Y22375D01*
X73493Y22332D01*
Y22324D01*
Y22317D01*
X73486Y22259D01*
X73457Y22215D01*
X73435Y22186D01*
X73427Y22178D01*
X73369Y22157D01*
X73304Y22142D01*
X73260Y22135D01*
X72414D01*
X72334Y22142D01*
X72276Y22157D01*
X72232Y22186D01*
X72203Y22215D01*
X72188Y22244D01*
X72174Y22273D01*
Y22288D01*
Y22295D01*
X72181Y22332D01*
X72188Y22368D01*
X72225Y22419D01*
X72268Y22448D01*
X72276Y22456D01*
X72283D01*
X72392Y22506D01*
X72458Y22543D01*
X72502Y22587D01*
X72538Y22638D01*
X72560Y22689D01*
X72575Y22733D01*
X72582Y22762D01*
Y22791D01*
Y22798D01*
X72575Y22856D01*
X72567Y22915D01*
X72560Y22951D01*
Y22959D01*
Y22966D01*
X71991Y25058D01*
X72152Y25729D01*
X72888Y23061D01*
D02*
G37*
G36*
X72013Y26239D02*
X71416Y23607D01*
X72145D01*
X72232Y23221D01*
X71321D01*
X71219Y22747D01*
X71211Y22711D01*
X71204Y22682D01*
Y22660D01*
Y22652D01*
X71211Y22609D01*
X71219Y22579D01*
X71226Y22558D01*
X71233Y22550D01*
X71262Y22528D01*
X71292Y22506D01*
X71313Y22492D01*
X71328Y22485D01*
X71386Y22448D01*
X71416Y22419D01*
X71437Y22404D01*
X71445Y22397D01*
X71459Y22368D01*
X71466Y22339D01*
Y22317D01*
Y22302D01*
X71459Y22251D01*
X71437Y22208D01*
X71416Y22186D01*
X71408Y22178D01*
X71357Y22157D01*
X71306Y22142D01*
X71270Y22135D01*
X69637D01*
X69549Y22142D01*
X69491Y22164D01*
X69447Y22186D01*
X69411Y22222D01*
X69396Y22251D01*
X69389Y22273D01*
X69382Y22295D01*
Y22302D01*
X69389Y22339D01*
X69396Y22375D01*
X69411Y22390D01*
X69418Y22397D01*
X69447Y22426D01*
X69484Y22448D01*
X69520Y22463D01*
X69527Y22470D01*
X69535D01*
X69600Y22499D01*
X69637Y22536D01*
X69659Y22565D01*
X69666Y22572D01*
X69688Y22630D01*
X69702Y22689D01*
X69717Y22733D01*
X69724Y22740D01*
Y22747D01*
X70621Y26560D01*
X71933D01*
X72013Y26239D01*
D02*
G37*
G36*
X68135Y22747D02*
X68142Y22667D01*
X68157Y22609D01*
X68179Y22579D01*
X68186Y22565D01*
X68222Y22536D01*
X68230Y22521D01*
X68252D01*
X68266Y22514D01*
X68317Y22499D01*
X68361Y22492D01*
X68376Y22485D01*
X68383D01*
X68434Y22470D01*
X68470Y22441D01*
X68499Y22412D01*
X68514Y22383D01*
X68529Y22353D01*
X68536Y22332D01*
Y22317D01*
Y22310D01*
X68521Y22251D01*
X68499Y22215D01*
X68478Y22186D01*
X68463Y22178D01*
X68397Y22157D01*
X68332Y22142D01*
X68303Y22135D01*
X66531D01*
X66487Y22142D01*
X66451Y22149D01*
X66422Y22157D01*
X66393Y22164D01*
X66378Y22171D01*
X66349Y22193D01*
X66327Y22215D01*
X66298Y22259D01*
X66291Y22295D01*
Y22310D01*
X66298Y22361D01*
X66312Y22397D01*
X66342Y22426D01*
X66371Y22448D01*
X66400Y22463D01*
X66429Y22477D01*
X66444Y22485D01*
X66451D01*
X66495Y22492D01*
X66524Y22506D01*
X66553D01*
X66568Y22514D01*
X66589Y22521D01*
X66597D01*
X66633Y22550D01*
X66641Y22558D01*
X66648Y22565D01*
X66670Y22616D01*
X66684Y22682D01*
X66692Y22725D01*
Y22740D01*
Y22747D01*
Y26560D01*
X68135D01*
Y22747D01*
D02*
G37*
G36*
X60794Y26553D02*
X60852Y26538D01*
X60881Y26516D01*
X60896Y26509D01*
X60932Y26472D01*
X60947Y26428D01*
X60954Y26399D01*
Y26392D01*
Y26385D01*
X60947Y26341D01*
X60932Y26305D01*
X60889Y26246D01*
X60852Y26217D01*
X60838Y26210D01*
X60830D01*
X60794Y26195D01*
X60765Y26188D01*
X60728Y26173D01*
X60714Y26166D01*
X60707D01*
X60692Y26159D01*
X60677Y26144D01*
X60670Y26137D01*
Y26130D01*
X60641Y26086D01*
X60634Y26028D01*
X60626Y25984D01*
Y25976D01*
Y25969D01*
Y22718D01*
X60634Y22645D01*
X60648Y22594D01*
X60663Y22565D01*
X60670Y22558D01*
X60685Y22543D01*
X60692Y22528D01*
X60699Y22521D01*
X60707D01*
X60714Y22514D01*
X60728D01*
X60772Y22499D01*
X60816Y22485D01*
X60823Y22477D01*
X60830D01*
X60874Y22456D01*
X60903Y22434D01*
X60925Y22404D01*
X60940Y22375D01*
X60954Y22324D01*
Y22310D01*
Y22302D01*
X60947Y22251D01*
X60925Y22208D01*
X60903Y22186D01*
X60896Y22178D01*
X60838Y22157D01*
X60787Y22142D01*
X60736Y22135D01*
X59022D01*
X58979Y22142D01*
X58942Y22149D01*
X58913Y22157D01*
X58884Y22164D01*
X58869Y22171D01*
X58840Y22193D01*
X58818Y22215D01*
X58789Y22259D01*
X58782Y22295D01*
Y22310D01*
X58789Y22361D01*
X58804Y22397D01*
X58833Y22426D01*
X58862Y22448D01*
X58891Y22463D01*
X58920Y22477D01*
X58935Y22485D01*
X58942D01*
X58986Y22492D01*
X59015Y22506D01*
X59044D01*
X59059Y22514D01*
X59081Y22521D01*
X59088D01*
X59125Y22550D01*
X59132Y22558D01*
X59139Y22565D01*
X59161Y22616D01*
X59176Y22682D01*
X59183Y22725D01*
Y22740D01*
Y22747D01*
Y26560D01*
X60721D01*
X60794Y26553D01*
D02*
G37*
G36*
X52345D02*
X52403Y26538D01*
X52432Y26516D01*
X52447Y26509D01*
X52483Y26472D01*
X52498Y26428D01*
X52505Y26399D01*
Y26392D01*
Y26385D01*
X52498Y26341D01*
X52483Y26305D01*
X52440Y26246D01*
X52403Y26217D01*
X52389Y26210D01*
X52381D01*
X52345Y26195D01*
X52316Y26188D01*
X52279Y26173D01*
X52265Y26166D01*
X52257D01*
X52243Y26159D01*
X52228Y26144D01*
X52221Y26137D01*
Y26130D01*
X52192Y26086D01*
X52184Y26028D01*
X52177Y25984D01*
Y25976D01*
Y25969D01*
Y22718D01*
X52184Y22645D01*
X52199Y22594D01*
X52214Y22565D01*
X52221Y22558D01*
X52236Y22543D01*
X52243Y22528D01*
X52250Y22521D01*
X52257D01*
X52265Y22514D01*
X52279D01*
X52323Y22499D01*
X52367Y22485D01*
X52374Y22477D01*
X52381D01*
X52425Y22456D01*
X52454Y22434D01*
X52476Y22404D01*
X52491Y22375D01*
X52505Y22324D01*
Y22310D01*
Y22302D01*
X52498Y22251D01*
X52476Y22208D01*
X52454Y22186D01*
X52447Y22178D01*
X52389Y22157D01*
X52338Y22142D01*
X52286Y22135D01*
X50573D01*
X50530Y22142D01*
X50493Y22149D01*
X50464Y22157D01*
X50435Y22164D01*
X50420Y22171D01*
X50391Y22193D01*
X50369Y22215D01*
X50340Y22259D01*
X50333Y22295D01*
Y22310D01*
X50340Y22361D01*
X50355Y22397D01*
X50384Y22426D01*
X50413Y22448D01*
X50442Y22463D01*
X50471Y22477D01*
X50486Y22485D01*
X50493D01*
X50537Y22492D01*
X50566Y22506D01*
X50595D01*
X50610Y22514D01*
X50632Y22521D01*
X50639D01*
X50675Y22550D01*
X50683Y22558D01*
X50690Y22565D01*
X50712Y22616D01*
X50726Y22682D01*
X50734Y22725D01*
Y22740D01*
Y22747D01*
Y26560D01*
X52272D01*
X52345Y26553D01*
D02*
G37*
G36*
X48117D02*
X48175Y26538D01*
X48204Y26516D01*
X48219Y26509D01*
X48255Y26472D01*
X48270Y26428D01*
X48277Y26399D01*
Y26392D01*
Y26385D01*
X48270Y26341D01*
X48255Y26305D01*
X48211Y26246D01*
X48175Y26217D01*
X48160Y26210D01*
X48153D01*
X48117Y26195D01*
X48087Y26188D01*
X48051Y26173D01*
X48037Y26166D01*
X48029D01*
X48015Y26159D01*
X48000Y26144D01*
X47993Y26137D01*
Y26130D01*
X47964Y26086D01*
X47956Y26028D01*
X47949Y25984D01*
Y25976D01*
Y25969D01*
Y22718D01*
X47956Y22645D01*
X47971Y22594D01*
X47985Y22565D01*
X47993Y22558D01*
X48007Y22543D01*
X48015Y22528D01*
X48022Y22521D01*
X48029D01*
X48037Y22514D01*
X48051D01*
X48095Y22499D01*
X48138Y22485D01*
X48146Y22477D01*
X48153D01*
X48197Y22456D01*
X48226Y22434D01*
X48248Y22404D01*
X48263Y22375D01*
X48277Y22324D01*
Y22310D01*
Y22302D01*
X48270Y22251D01*
X48248Y22208D01*
X48226Y22186D01*
X48219Y22178D01*
X48160Y22157D01*
X48109Y22142D01*
X48058Y22135D01*
X46345D01*
X46301Y22142D01*
X46265Y22149D01*
X46236Y22157D01*
X46207Y22164D01*
X46192Y22171D01*
X46163Y22193D01*
X46141Y22215D01*
X46112Y22259D01*
X46105Y22295D01*
Y22310D01*
X46112Y22361D01*
X46126Y22397D01*
X46156Y22426D01*
X46185Y22448D01*
X46214Y22463D01*
X46243Y22477D01*
X46258Y22485D01*
X46265D01*
X46309Y22492D01*
X46338Y22506D01*
X46367D01*
X46382Y22514D01*
X46404Y22521D01*
X46411D01*
X46447Y22550D01*
X46455Y22558D01*
X46462Y22565D01*
X46484Y22616D01*
X46498Y22682D01*
X46506Y22725D01*
Y22740D01*
Y22747D01*
Y26560D01*
X48044D01*
X48117Y26553D01*
D02*
G37*
G36*
X43298Y23061D02*
X43320Y22980D01*
X43342Y22915D01*
X43371Y22856D01*
X43393Y22805D01*
X43415Y22762D01*
X43429Y22733D01*
X43437Y22718D01*
X43444Y22711D01*
X43488Y22660D01*
X43524Y22616D01*
X43553Y22587D01*
X43568Y22579D01*
X43626Y22543D01*
X43692Y22514D01*
X43721Y22499D01*
X43743Y22485D01*
X43757Y22477D01*
X43764D01*
X43808Y22456D01*
X43845Y22426D01*
X43867Y22397D01*
X43889Y22375D01*
X43903Y22332D01*
Y22324D01*
Y22317D01*
X43896Y22259D01*
X43867Y22215D01*
X43845Y22186D01*
X43837Y22178D01*
X43779Y22157D01*
X43714Y22142D01*
X43670Y22135D01*
X42824D01*
X42744Y22142D01*
X42686Y22157D01*
X42642Y22186D01*
X42613Y22215D01*
X42598Y22244D01*
X42584Y22273D01*
Y22288D01*
Y22295D01*
X42591Y22332D01*
X42598Y22368D01*
X42635Y22419D01*
X42678Y22448D01*
X42686Y22456D01*
X42693D01*
X42802Y22506D01*
X42868Y22543D01*
X42912Y22587D01*
X42948Y22638D01*
X42970Y22689D01*
X42985Y22733D01*
X42992Y22762D01*
Y22791D01*
Y22798D01*
X42985Y22856D01*
X42977Y22915D01*
X42970Y22951D01*
Y22959D01*
Y22966D01*
X42401Y25058D01*
X42562Y25729D01*
X43298Y23061D01*
D02*
G37*
G36*
X42423Y26239D02*
X41825Y23607D01*
X42554D01*
X42642Y23221D01*
X41731D01*
X41629Y22747D01*
X41621Y22711D01*
X41614Y22682D01*
Y22660D01*
Y22652D01*
X41621Y22609D01*
X41629Y22579D01*
X41636Y22558D01*
X41643Y22550D01*
X41672Y22528D01*
X41701Y22506D01*
X41723Y22492D01*
X41738Y22485D01*
X41796Y22448D01*
X41825Y22419D01*
X41847Y22404D01*
X41855Y22397D01*
X41869Y22368D01*
X41876Y22339D01*
Y22317D01*
Y22302D01*
X41869Y22251D01*
X41847Y22208D01*
X41825Y22186D01*
X41818Y22178D01*
X41767Y22157D01*
X41716Y22142D01*
X41680Y22135D01*
X40047D01*
X39959Y22142D01*
X39901Y22164D01*
X39857Y22186D01*
X39821Y22222D01*
X39806Y22251D01*
X39799Y22273D01*
X39792Y22295D01*
Y22302D01*
X39799Y22339D01*
X39806Y22375D01*
X39821Y22390D01*
X39828Y22397D01*
X39857Y22426D01*
X39893Y22448D01*
X39930Y22463D01*
X39937Y22470D01*
X39945D01*
X40010Y22499D01*
X40047Y22536D01*
X40069Y22565D01*
X40076Y22572D01*
X40098Y22630D01*
X40112Y22689D01*
X40127Y22733D01*
X40134Y22740D01*
Y22747D01*
X41031Y26560D01*
X42343D01*
X42423Y26239D01*
D02*
G37*
G36*
X39048Y23112D02*
Y23031D01*
X39062Y22959D01*
X39099Y22820D01*
X39150Y22718D01*
X39201Y22630D01*
X39259Y22565D01*
X39310Y22521D01*
X39347Y22492D01*
X39354Y22485D01*
X39361D01*
X39427Y22448D01*
X39463Y22419D01*
X39485Y22397D01*
X39493Y22390D01*
X39507Y22361D01*
X39514Y22339D01*
X39522Y22310D01*
Y22302D01*
X39507Y22244D01*
X39478Y22208D01*
X39427Y22178D01*
X39376Y22157D01*
X39325Y22142D01*
X39274Y22135D01*
X38428D01*
X38385Y22142D01*
X38341Y22149D01*
X38312Y22157D01*
X38290D01*
X38275Y22164D01*
X38268Y22171D01*
X38231Y22215D01*
X38210Y22251D01*
X38202Y22280D01*
Y22295D01*
Y22332D01*
X38217Y22361D01*
X38246Y22404D01*
X38275Y22434D01*
X38282Y22441D01*
X38290D01*
X38392Y22499D01*
X38450Y22536D01*
X38494Y22579D01*
X38538Y22616D01*
X38574Y22652D01*
X38596Y22689D01*
X38618Y22718D01*
X38625Y22733D01*
X38632Y22740D01*
X38654Y22798D01*
X38676Y22856D01*
X38698Y22980D01*
Y23031D01*
X38705Y23075D01*
Y23104D01*
Y23112D01*
Y24847D01*
X39048Y25415D01*
Y23112D01*
D02*
G37*
G36*
X39259Y26553D02*
X39310D01*
X39354Y26545D01*
X39383Y26538D01*
X39398D01*
X39412Y26531D01*
X39442Y26516D01*
X39463Y26494D01*
X39478Y26472D01*
X39485Y26465D01*
X39500Y26428D01*
X39507Y26399D01*
X39514Y26370D01*
Y26363D01*
X39507Y26327D01*
X39500Y26297D01*
X39493Y26275D01*
X39485Y26268D01*
X39434Y26224D01*
X39420Y26217D01*
X39412Y26210D01*
X39288Y26166D01*
X39237Y26144D01*
X39201Y26122D01*
X39179Y26101D01*
X39172Y26093D01*
X39157Y26071D01*
X39135Y26050D01*
X39099Y25991D01*
X39070Y25947D01*
X39055Y25933D01*
Y25925D01*
X36854Y22135D01*
X35964D01*
Y23564D01*
X37692Y26560D01*
X39194D01*
X39259Y26553D01*
D02*
G37*
G36*
X34725Y23061D02*
X34747Y22980D01*
X34769Y22915D01*
X34798Y22856D01*
X34820Y22805D01*
X34842Y22762D01*
X34856Y22733D01*
X34863Y22718D01*
X34871Y22711D01*
X34914Y22660D01*
X34951Y22616D01*
X34980Y22587D01*
X34995Y22579D01*
X35053Y22543D01*
X35119Y22514D01*
X35148Y22499D01*
X35170Y22485D01*
X35184Y22477D01*
X35192D01*
X35235Y22456D01*
X35272Y22426D01*
X35293Y22397D01*
X35315Y22375D01*
X35330Y22332D01*
Y22324D01*
Y22317D01*
X35323Y22259D01*
X35293Y22215D01*
X35272Y22186D01*
X35264Y22178D01*
X35206Y22157D01*
X35140Y22142D01*
X35097Y22135D01*
X34251D01*
X34171Y22142D01*
X34113Y22157D01*
X34069Y22186D01*
X34040Y22215D01*
X34025Y22244D01*
X34010Y22273D01*
Y22288D01*
Y22295D01*
X34018Y22332D01*
X34025Y22368D01*
X34062Y22419D01*
X34105Y22448D01*
X34113Y22456D01*
X34120D01*
X34229Y22506D01*
X34295Y22543D01*
X34339Y22587D01*
X34375Y22638D01*
X34397Y22689D01*
X34411Y22733D01*
X34419Y22762D01*
Y22791D01*
Y22798D01*
X34411Y22856D01*
X34404Y22915D01*
X34397Y22951D01*
Y22959D01*
Y22966D01*
X33828Y25058D01*
X33989Y25729D01*
X34725Y23061D01*
D02*
G37*
G36*
X33850Y26239D02*
X33252Y23607D01*
X33981D01*
X34069Y23221D01*
X33158D01*
X33055Y22747D01*
X33048Y22711D01*
X33041Y22682D01*
Y22660D01*
Y22652D01*
X33048Y22609D01*
X33055Y22579D01*
X33063Y22558D01*
X33070Y22550D01*
X33099Y22528D01*
X33128Y22506D01*
X33150Y22492D01*
X33165Y22485D01*
X33223Y22448D01*
X33252Y22419D01*
X33274Y22404D01*
X33281Y22397D01*
X33296Y22368D01*
X33303Y22339D01*
Y22317D01*
Y22302D01*
X33296Y22251D01*
X33274Y22208D01*
X33252Y22186D01*
X33245Y22178D01*
X33194Y22157D01*
X33143Y22142D01*
X33106Y22135D01*
X31474D01*
X31386Y22142D01*
X31328Y22164D01*
X31284Y22186D01*
X31248Y22222D01*
X31233Y22251D01*
X31226Y22273D01*
X31218Y22295D01*
Y22302D01*
X31226Y22339D01*
X31233Y22375D01*
X31248Y22390D01*
X31255Y22397D01*
X31284Y22426D01*
X31321Y22448D01*
X31357Y22463D01*
X31364Y22470D01*
X31372D01*
X31437Y22499D01*
X31474Y22536D01*
X31495Y22565D01*
X31503Y22572D01*
X31525Y22630D01*
X31539Y22689D01*
X31554Y22733D01*
X31561Y22740D01*
Y22747D01*
X32458Y26560D01*
X33770D01*
X33850Y26239D01*
D02*
G37*
G36*
X30927Y26553D02*
X30963Y26545D01*
X30992Y26538D01*
X31029Y26523D01*
X31043Y26516D01*
X31073Y26494D01*
X31095Y26465D01*
X31116Y26421D01*
X31131Y26377D01*
Y26370D01*
Y26363D01*
X31124Y26312D01*
X31116Y26283D01*
X31109Y26261D01*
X31102Y26254D01*
X31087Y26239D01*
X31065Y26224D01*
X31022Y26202D01*
X30978Y26181D01*
X30971Y26173D01*
X30963D01*
X30934Y26159D01*
X30912Y26137D01*
X30905Y26130D01*
X30898Y26122D01*
X30876Y26093D01*
X30861Y26057D01*
X30847Y26020D01*
Y26013D01*
Y26006D01*
X29695Y22135D01*
X28842D01*
X28528Y23265D01*
X29279Y25904D01*
X29287Y25933D01*
Y25962D01*
Y25991D01*
Y25998D01*
X29279Y26050D01*
X29272Y26093D01*
X29265Y26115D01*
X29257Y26122D01*
X29228Y26151D01*
X29192Y26181D01*
X29163Y26195D01*
X29148Y26202D01*
X29112Y26224D01*
X29083Y26254D01*
X29061Y26283D01*
X29046Y26312D01*
X29031Y26356D01*
Y26370D01*
Y26377D01*
X29039Y26407D01*
X29046Y26428D01*
X29053Y26450D01*
X29061Y26458D01*
X29075Y26487D01*
X29097Y26509D01*
X29104Y26516D01*
X29112Y26523D01*
X29170Y26545D01*
X29192Y26553D01*
X29221D01*
X29243Y26560D01*
X30876D01*
X30927Y26553D01*
D02*
G37*
G36*
X94357Y26633D02*
X94474Y26618D01*
X94583Y26589D01*
X94678Y26567D01*
X94758Y26545D01*
X94816Y26523D01*
X94853Y26509D01*
X94867Y26501D01*
X94977Y26450D01*
X95072Y26392D01*
X95166Y26327D01*
X95246Y26268D01*
X95312Y26217D01*
X95363Y26173D01*
X95392Y26144D01*
X95407Y26130D01*
X95524Y26006D01*
X95626Y25875D01*
X95706Y25751D01*
X95779Y25627D01*
X95830Y25517D01*
X95873Y25437D01*
X95888Y25401D01*
X95895Y25379D01*
X95903Y25364D01*
Y25357D01*
X95954Y25182D01*
X95997Y25007D01*
X96026Y24832D01*
X96041Y24679D01*
X96048Y24606D01*
X96056Y24540D01*
Y24482D01*
X96063Y24431D01*
Y24395D01*
Y24365D01*
Y24344D01*
Y24336D01*
X96056Y24132D01*
X96034Y23943D01*
X96005Y23760D01*
X95968Y23593D01*
X95917Y23432D01*
X95866Y23287D01*
X95808Y23155D01*
X95749Y23039D01*
X95691Y22937D01*
X95633Y22842D01*
X95582Y22769D01*
X95531Y22703D01*
X95494Y22652D01*
X95465Y22616D01*
X95443Y22594D01*
X95436Y22587D01*
X95341Y22499D01*
X95246Y22426D01*
X95144Y22361D01*
X95042Y22302D01*
X94940Y22251D01*
X94838Y22208D01*
X94649Y22135D01*
X94561Y22113D01*
X94481Y22091D01*
X94408Y22076D01*
X94343Y22062D01*
X94299Y22054D01*
X94255D01*
X94233Y22047D01*
X94226D01*
Y22397D01*
X94284Y22419D01*
X94335Y22441D01*
X94372Y22463D01*
X94401Y22485D01*
X94423Y22506D01*
X94437Y22528D01*
X94452Y22536D01*
Y22543D01*
X94474Y22594D01*
X94496Y22652D01*
X94517Y22791D01*
Y22849D01*
X94525Y22900D01*
Y22929D01*
Y22944D01*
Y25838D01*
Y25911D01*
X94517Y25969D01*
X94503Y26020D01*
X94488Y26057D01*
X94481Y26086D01*
X94467Y26115D01*
X94459Y26122D01*
Y26130D01*
X94430Y26166D01*
X94394Y26195D01*
X94321Y26246D01*
X94284Y26268D01*
X94255Y26283D01*
X94233Y26290D01*
X94226D01*
Y26647D01*
X94357Y26633D01*
D02*
G37*
G36*
X93956Y26290D02*
X93891Y26268D01*
X93847Y26246D01*
X93818Y26224D01*
X93810Y26217D01*
X93774Y26188D01*
X93738Y26151D01*
X93723Y26130D01*
X93716Y26115D01*
X93679Y26028D01*
X93657Y25940D01*
X93650Y25896D01*
Y25867D01*
Y25845D01*
Y25838D01*
Y22944D01*
X93657Y22849D01*
X93665Y22769D01*
X93679Y22696D01*
X93694Y22645D01*
X93716Y22601D01*
X93730Y22565D01*
X93738Y22550D01*
X93745Y22543D01*
X93774Y22506D01*
X93803Y22477D01*
X93825Y22456D01*
X93832Y22448D01*
X93869Y22426D01*
X93912Y22412D01*
X93942Y22404D01*
X93949Y22397D01*
X93956D01*
Y22047D01*
X93825Y22062D01*
X93694Y22091D01*
X93461Y22157D01*
X93358Y22200D01*
X93256Y22244D01*
X93162Y22288D01*
X93081Y22339D01*
X93009Y22390D01*
X92936Y22434D01*
X92885Y22470D01*
X92834Y22514D01*
X92797Y22543D01*
X92768Y22565D01*
X92753Y22579D01*
X92746Y22587D01*
X92637Y22711D01*
X92535Y22842D01*
X92454Y22980D01*
X92382Y23126D01*
X92316Y23272D01*
X92265Y23418D01*
X92221Y23556D01*
X92192Y23695D01*
X92163Y23826D01*
X92148Y23950D01*
X92134Y24059D01*
X92119Y24154D01*
Y24227D01*
X92112Y24285D01*
Y24322D01*
Y24336D01*
X92119Y24548D01*
X92141Y24745D01*
X92170Y24927D01*
X92214Y25102D01*
X92265Y25262D01*
X92323Y25408D01*
X92382Y25546D01*
X92440Y25663D01*
X92506Y25772D01*
X92564Y25867D01*
X92622Y25947D01*
X92673Y26013D01*
X92717Y26064D01*
X92746Y26101D01*
X92768Y26122D01*
X92775Y26130D01*
X92870Y26217D01*
X92965Y26290D01*
X93059Y26356D01*
X93147Y26407D01*
X93213Y26450D01*
X93271Y26480D01*
X93307Y26494D01*
X93322Y26501D01*
X93431Y26545D01*
X93541Y26574D01*
X93650Y26603D01*
X93745Y26618D01*
X93832Y26633D01*
X93898Y26640D01*
X93942Y26647D01*
X93956D01*
Y26290D01*
D02*
G37*
G36*
X82868Y26640D02*
X82919Y26633D01*
X82963D01*
X82999Y26625D01*
X83029Y26618D01*
X83043Y26611D01*
X83050D01*
X83160Y26574D01*
X83269Y26538D01*
X83364Y26494D01*
X83451Y26450D01*
X83524Y26414D01*
X83583Y26385D01*
X83612Y26363D01*
X83626Y26356D01*
X83787Y26232D01*
X83932Y26093D01*
X84049Y25955D01*
X84151Y25816D01*
X84231Y25699D01*
X84260Y25641D01*
X84290Y25598D01*
X84304Y25561D01*
X84319Y25532D01*
X84333Y25517D01*
Y25510D01*
X84414Y25306D01*
X84472Y25095D01*
X84516Y24890D01*
X84545Y24701D01*
X84552Y24613D01*
X84559Y24540D01*
X84567Y24467D01*
Y24409D01*
X84574Y24358D01*
Y24322D01*
Y24300D01*
Y24293D01*
X84559Y24037D01*
X84530Y23797D01*
X84508Y23687D01*
X84487Y23585D01*
X84465Y23491D01*
X84435Y23403D01*
X84414Y23330D01*
X84392Y23257D01*
X84370Y23199D01*
X84348Y23148D01*
X84326Y23104D01*
X84319Y23075D01*
X84304Y23061D01*
Y23053D01*
X84231Y22929D01*
X84158Y22820D01*
X84078Y22725D01*
X84013Y22638D01*
X83947Y22572D01*
X83896Y22521D01*
X83867Y22492D01*
X83852Y22477D01*
X83743Y22397D01*
X83641Y22324D01*
X83531Y22266D01*
X83437Y22222D01*
X83356Y22178D01*
X83291Y22157D01*
X83247Y22142D01*
X83240Y22135D01*
X83233D01*
X83138Y22106D01*
X83065Y22084D01*
X83021Y22069D01*
X83007D01*
X82941Y22054D01*
X82875Y22047D01*
X82810D01*
Y22412D01*
X82854Y22434D01*
X82897Y22456D01*
X82926Y22477D01*
X82956Y22499D01*
X82985Y22528D01*
X82992Y22543D01*
X83007Y22579D01*
X83014Y22623D01*
X83029Y22711D01*
X83036Y22754D01*
Y22783D01*
Y22805D01*
Y22813D01*
Y25831D01*
Y25896D01*
X83021Y25962D01*
X82992Y26064D01*
X82948Y26144D01*
X82890Y26202D01*
X82839Y26239D01*
X82795Y26268D01*
X82766Y26283D01*
X82751D01*
Y26647D01*
X82868Y26640D01*
D02*
G37*
G36*
X82467Y24373D02*
X82533Y24358D01*
X82569Y24336D01*
X82584Y24329D01*
X82627Y24293D01*
X82649Y24249D01*
X82657Y24212D01*
Y24205D01*
Y24198D01*
X82649Y24154D01*
X82635Y24110D01*
X82606Y24081D01*
X82577Y24059D01*
X82525Y24030D01*
X82511Y24023D01*
X82504D01*
X82460Y24015D01*
X82431Y24001D01*
X82402Y23994D01*
X82387D01*
X82365Y23979D01*
X82358D01*
X82336Y23972D01*
X82321Y23957D01*
X82307Y23950D01*
Y23943D01*
X82278Y23892D01*
X82263Y23833D01*
X82256Y23782D01*
Y23768D01*
Y23760D01*
Y22813D01*
X82263Y22711D01*
X82285Y22630D01*
X82292Y22601D01*
X82307Y22579D01*
X82314Y22565D01*
Y22558D01*
X82343Y22521D01*
X82365Y22492D01*
X82387Y22470D01*
X82394Y22463D01*
X82431Y22441D01*
X82482Y22426D01*
X82518Y22419D01*
X82525Y22412D01*
X82533D01*
Y22047D01*
X82409Y22054D01*
X82343Y22062D01*
X82285Y22069D01*
X82234Y22076D01*
X82197Y22084D01*
X82168Y22091D01*
X82161D01*
X82008Y22127D01*
X81942Y22142D01*
X81891Y22157D01*
X81840Y22171D01*
X81804Y22186D01*
X81782Y22193D01*
X81775D01*
X81629Y22259D01*
X81556Y22295D01*
X81498Y22332D01*
X81446Y22361D01*
X81403Y22383D01*
X81374Y22397D01*
X81366Y22404D01*
X81286Y22456D01*
X81221Y22506D01*
X81162Y22550D01*
X81111Y22594D01*
X81068Y22623D01*
X81038Y22652D01*
X81024Y22667D01*
X81016Y22674D01*
Y23782D01*
Y23848D01*
X81009Y23892D01*
X81002Y23913D01*
Y23921D01*
X80980Y23950D01*
X80958Y23979D01*
X80929Y24001D01*
X80922Y24008D01*
X80878Y24037D01*
X80856Y24067D01*
X80841Y24081D01*
X80834Y24088D01*
X80820Y24125D01*
X80805Y24161D01*
Y24191D01*
Y24198D01*
X80812Y24256D01*
X80834Y24300D01*
X80863Y24329D01*
X80871Y24336D01*
X80892Y24351D01*
X80929Y24365D01*
X80995Y24373D01*
X81024Y24380D01*
X82372D01*
X82467Y24373D01*
D02*
G37*
G36*
X63601Y26633D02*
X63717Y26618D01*
X63827Y26589D01*
X63921Y26567D01*
X64002Y26545D01*
X64060Y26523D01*
X64096Y26509D01*
X64111Y26501D01*
X64220Y26450D01*
X64315Y26392D01*
X64410Y26327D01*
X64490Y26268D01*
X64556Y26217D01*
X64607Y26173D01*
X64636Y26144D01*
X64650Y26130D01*
X64767Y26006D01*
X64869Y25875D01*
X64949Y25751D01*
X65022Y25627D01*
X65073Y25517D01*
X65117Y25437D01*
X65131Y25401D01*
X65139Y25379D01*
X65146Y25364D01*
Y25357D01*
X65197Y25182D01*
X65241Y25007D01*
X65270Y24832D01*
X65285Y24679D01*
X65292Y24606D01*
X65299Y24540D01*
Y24482D01*
X65307Y24431D01*
Y24395D01*
Y24365D01*
Y24344D01*
Y24336D01*
X65299Y24132D01*
X65277Y23943D01*
X65248Y23760D01*
X65212Y23593D01*
X65161Y23432D01*
X65110Y23287D01*
X65051Y23155D01*
X64993Y23039D01*
X64935Y22937D01*
X64876Y22842D01*
X64825Y22769D01*
X64774Y22703D01*
X64738Y22652D01*
X64709Y22616D01*
X64687Y22594D01*
X64679Y22587D01*
X64585Y22499D01*
X64490Y22426D01*
X64388Y22361D01*
X64286Y22302D01*
X64184Y22251D01*
X64082Y22208D01*
X63892Y22135D01*
X63805Y22113D01*
X63724Y22091D01*
X63652Y22076D01*
X63586Y22062D01*
X63542Y22054D01*
X63499D01*
X63477Y22047D01*
X63469D01*
Y22397D01*
X63528Y22419D01*
X63579Y22441D01*
X63615Y22463D01*
X63644Y22485D01*
X63666Y22506D01*
X63681Y22528D01*
X63695Y22536D01*
Y22543D01*
X63717Y22594D01*
X63739Y22652D01*
X63761Y22791D01*
Y22849D01*
X63768Y22900D01*
Y22929D01*
Y22944D01*
Y25838D01*
Y25911D01*
X63761Y25969D01*
X63746Y26020D01*
X63732Y26057D01*
X63724Y26086D01*
X63710Y26115D01*
X63703Y26122D01*
Y26130D01*
X63674Y26166D01*
X63637Y26195D01*
X63564Y26246D01*
X63528Y26268D01*
X63499Y26283D01*
X63477Y26290D01*
X63469D01*
Y26647D01*
X63601Y26633D01*
D02*
G37*
G36*
X63200Y26290D02*
X63134Y26268D01*
X63090Y26246D01*
X63061Y26224D01*
X63054Y26217D01*
X63017Y26188D01*
X62981Y26151D01*
X62966Y26130D01*
X62959Y26115D01*
X62923Y26028D01*
X62901Y25940D01*
X62893Y25896D01*
Y25867D01*
Y25845D01*
Y25838D01*
Y22944D01*
X62901Y22849D01*
X62908Y22769D01*
X62923Y22696D01*
X62937Y22645D01*
X62959Y22601D01*
X62974Y22565D01*
X62981Y22550D01*
X62988Y22543D01*
X63017Y22506D01*
X63047Y22477D01*
X63068Y22456D01*
X63076Y22448D01*
X63112Y22426D01*
X63156Y22412D01*
X63185Y22404D01*
X63192Y22397D01*
X63200D01*
Y22047D01*
X63068Y22062D01*
X62937Y22091D01*
X62704Y22157D01*
X62602Y22200D01*
X62500Y22244D01*
X62405Y22288D01*
X62325Y22339D01*
X62252Y22390D01*
X62179Y22434D01*
X62128Y22470D01*
X62077Y22514D01*
X62041Y22543D01*
X62011Y22565D01*
X61997Y22579D01*
X61989Y22587D01*
X61880Y22711D01*
X61778Y22842D01*
X61698Y22980D01*
X61625Y23126D01*
X61559Y23272D01*
X61508Y23418D01*
X61465Y23556D01*
X61436Y23695D01*
X61406Y23826D01*
X61392Y23950D01*
X61377Y24059D01*
X61363Y24154D01*
Y24227D01*
X61355Y24285D01*
Y24322D01*
Y24336D01*
X61363Y24548D01*
X61384Y24745D01*
X61414Y24927D01*
X61457Y25102D01*
X61508Y25262D01*
X61567Y25408D01*
X61625Y25546D01*
X61683Y25663D01*
X61749Y25772D01*
X61807Y25867D01*
X61866Y25947D01*
X61917Y26013D01*
X61960Y26064D01*
X61989Y26101D01*
X62011Y26122D01*
X62019Y26130D01*
X62113Y26217D01*
X62208Y26290D01*
X62303Y26356D01*
X62391Y26407D01*
X62456Y26450D01*
X62514Y26480D01*
X62551Y26494D01*
X62565Y26501D01*
X62675Y26545D01*
X62784Y26574D01*
X62893Y26603D01*
X62988Y26618D01*
X63076Y26633D01*
X63141Y26640D01*
X63185Y26647D01*
X63200D01*
Y26290D01*
D02*
G37*
G36*
X55603Y23301D02*
X55691Y23279D01*
X55764Y23250D01*
X55830Y23214D01*
X55880Y23177D01*
X55917Y23148D01*
X55946Y23126D01*
X55953Y23119D01*
X56012Y23046D01*
X56055Y22973D01*
X56092Y22900D01*
X56114Y22827D01*
X56128Y22769D01*
X56136Y22718D01*
Y22689D01*
Y22674D01*
X56128Y22579D01*
X56107Y22492D01*
X56077Y22419D01*
X56041Y22353D01*
X56012Y22302D01*
X55983Y22266D01*
X55961Y22237D01*
X55953Y22230D01*
X55880Y22171D01*
X55808Y22127D01*
X55735Y22091D01*
X55662Y22069D01*
X55603Y22054D01*
X55553Y22047D01*
X55509D01*
X55414Y22054D01*
X55326Y22076D01*
X55254Y22106D01*
X55188Y22142D01*
X55137Y22171D01*
X55093Y22200D01*
X55071Y22222D01*
X55064Y22230D01*
X54998Y22302D01*
X54955Y22375D01*
X54918Y22448D01*
X54896Y22521D01*
X54882Y22579D01*
X54874Y22630D01*
Y22660D01*
Y22674D01*
X54882Y22769D01*
X54904Y22856D01*
X54933Y22929D01*
X54969Y22995D01*
X55006Y23046D01*
X55035Y23090D01*
X55057Y23112D01*
X55064Y23119D01*
X55137Y23185D01*
X55210Y23228D01*
X55283Y23265D01*
X55356Y23287D01*
X55414Y23301D01*
X55465Y23308D01*
X55509D01*
X55603Y23301D01*
D02*
G37*
M02*
